<svg id="Grupo_953193" data-name="Grupo 953193" xmlns="http://www.w3.org/2000/svg" xmlns:xlink="http://www.w3.org/1999/xlink" width="71.048" height="73.983" viewBox="0 0 71.048 73.983">
  <defs>
    <clipPath id="clip-path">
      <rect id="Rectángulo_351912" data-name="Rectángulo 351912" width="71.048" height="73.984" fill="none"/>
    </clipPath>
  </defs>
  <g id="Grupo_953192" data-name="Grupo 953192" clip-path="url(#clip-path)">
    <path id="Trazado_661972" data-name="Trazado 661972" d="M46.931,196.027q-.018,3.953-.035,7.907c-.006,1.367-.462,1.85-1.812,1.912-.195.009-.391,0-.586,0H1.82c-1.775,0-1.82-.046-1.82-1.8q0-19.14,0-38.281c0-1.557.265-1.811,1.869-1.814l16.307-.032.19.006,5.08,0c.911.206,1.194.8,1.191,1.7-.017,5.729.013,11.458-.018,17.187,0,.737.182.9.9.894,6.445-.031,12.891-.019,19.337-.018,1.582,0,2.031.463,2.038,2.077.007,1.789.023,3.579.035,5.368q0,2.444,0,4.889M2.524,182.155c-.187,1.537-.187,1.537,1.377,1.537H19.809c2.4,0,2.4,0,2.4-2.376,0-4.652-.021-9.3.02-13.956.007-.831-.251-1.12-1.039-.994-.159.026-.321.034-.482.051-.909-.016-1.82,0-2.727-.058-.613-.039-.776.189-.764.778.035,1.658.018,3.317.01,4.976-.006,1.217-.426,1.652-1.6,1.655q-3.366.008-6.733,0c-1.212,0-1.477-.27-1.484-1.484-.011-1.724-.007-3.447,0-5.171,0-.41.037-.769-.576-.752-1.268.035-2.537.022-3.8.005-.424-.005-.57.164-.568.575q.035,7.608.055,15.216m0,19.739c-.129,1.537-.129,1.538,1.388,1.538h16.02c2.282,0,2.282,0,2.282-2.265,0-4.721-.017-9.443.018-14.163.006-.751-.223-1.014-.939-.9-.191.031-.387.035-.58.051-.909-.016-1.82,0-2.727-.058-.613-.039-.776.189-.764.778.035,1.658.018,3.317.01,4.976-.006,1.217-.426,1.652-1.6,1.655q-3.366.008-6.733,0c-1.212,0-1.477-.27-1.484-1.484-.011-1.723-.007-3.447,0-5.171,0-.41.037-.769-.576-.752-1.268.035-2.537.022-3.8.005-.424-.005-.57.164-.568.575q.035,7.608.055,15.215M42.8,186.155c-.878-.016-1.757,0-2.632-.057-.582-.037-.705.2-.7.732.029,1.692.021,3.386.006,5.078-.007.781-.726,1.8-1.253,1.73-2.329-.3-4.665-.058-7-.125-1.36-.039-1.632-.275-1.642-1.653-.012-1.66-.024-3.321.008-4.981.012-.587-.156-.806-.768-.784-1.17.043-2.344.032-3.516,0-.5-.012-.684.125-.681.654.028,5.045.032,10.09.044,15.136-.087,1.543-.087,1.543,1.46,1.543,5.724,0,11.448-.025,17.172.024.931.008,1.1-.282,1.093-1.134-.038-4.975-.019-9.952-.019-14.927,0-1.323,0-1.324-1.293-1.285a2.174,2.174,0,0,0-.287.046M9.829,168.923c.1.68-.372,1.74.187,2.286.509.5,1.547.14,2.351.146,2.463.021,2.476.007,2.456-2.456-.006-.8.35-1.849-.143-2.351-.538-.547-1.6-.172-2.432-.181-2.419-.026-2.419-.009-2.419,2.556M12.372,186.1h-.1c-2.446,0-2.446,0-2.446,2.486,0,2.519,0,2.535,2.51,2.509.8-.008,1.834.365,2.337-.172s.14-1.549.146-2.353c.02-2.47.007-2.47-2.45-2.47M32.046,188.5c0,.032,0,.065,0,.1.06.8-.348,1.841.163,2.344s1.546.142,2.349.149c2.425.022,2.44.008,2.417-2.4-.008-.834.358-1.895-.168-2.441-.491-.509-1.544-.143-2.348-.151-2.413-.022-2.413-.008-2.413,2.4" transform="translate(0 -131.867)"/>
    <path id="Trazado_661973" data-name="Trazado 661973" d="M89.116,29.6c-1.041.183-1.16-.355-1.156-1.254.027-6.313-.071-12.627.027-18.939a4.453,4.453,0,0,1,3.762-4.283,30.988,30.988,0,0,1,5.318-.175c2.343-.043,4.687-.029,7.03,0,.663.008.77-.213.575-.793-.249-.741-.451-1.5-.654-2.254A1.363,1.363,0,0,1,105.483.012q4.638-.025,9.276,0a1.365,1.365,0,0,1,1.447,1.967c-.222.717-.4,1.444-.614,2.158s-.011.818.634.814c3.58-.02,7.163-.1,10.739.019,2.717.087,4.4.92,5.216,3.672a8.37,8.37,0,0,1,.255,2.388c0,6.183-.024,12.367.026,18.55.007.919-.2,1.316-1.127,1.2-.128-.036-.18.016-.169.144l-.044.005c-.927.2-1.187-.142-1.18-1.107.048-6.447.028-12.894.023-19.341,0-2.234-1.36-3.218-3.075-3.13-1.754.09-3.516.006-5.274.024-1.8.018-1.487-.281-1.577,1.532-.041.821.277.964,1,.944,1.659-.047,3.321-.021,4.982-.012a1.244,1.244,0,0,1,1.4,1.368c.006.423.029.846.029,1.269,0,6.122-.021,12.243.025,18.364.007.968-.239,1.413-1.228,1.307-1.009.151-1.241-.278-1.232-1.273.054-5.893.021-11.786.036-17.679,0-.571-.053-.86-.764-.858q-14.017.039-28.035,0c-.74,0-.9.226-.891.936.034,5.014-.013,10.029.045,15.042.011.974-.168,1.453-1.21,1.29-1.008.143-1.268-.282-1.258-1.287.054-5.4.026-10.8.026-16.207a4.273,4.273,0,0,0,0-.583c-.154-1.1.319-1.682,1.434-1.69,1.627-.013,3.257-.056,4.881.018.85.039,1.108-.254.979-1.037a1.577,1.577,0,0,1,0-.487c.11-.713-.147-.957-.9-.937-2.016.054-4.037.077-6.053,0a2.546,2.546,0,0,0-2.854,2.819c.083,5.043.029,10.089.029,15.133,0,1.2-.016,2.409.008,3.612.009.452-.116.667-.6.619a5.555,5.555,0,0,0-.778.027M110.031,9.842H115.5c1.946,0,1.91,0,2-1.973.024-.51-.137-.528-.511-.525-1.01.008-2.02.028-3.029-.01-1.141-.043-1.574-.648-1.283-1.742.212-.8.434-1.6.683-2.383.184-.583.114-.84-.606-.819-1.692.051-3.388.055-5.08,0-.794-.026-.863.333-.717.935q.281,1.161.575,2.319a1.209,1.209,0,0,1-1.207,1.7c-.617.03-1.237.007-1.856.007-1.715,0-1.685,0-1.7,1.692-.006.634.166.83.811.818,2.149-.039,4.3-.015,6.449-.015" transform="translate(-70.746 0)"/>
    <path id="Trazado_661974" data-name="Trazado 661974" d="M177.028,164.939a18.65,18.65,0,0,0,3.149-.844,15.757,15.757,0,0,1,3.462-.867,3.644,3.644,0,0,1,1.5,7.063,25.568,25.568,0,0,1-3.414,1.066c-.57.178-.6.378-.593.823.016,1.138-.032,2.278.02,3.413a1.266,1.266,0,0,1-.976,1.4,25.166,25.166,0,0,0-3.365,1.087c-1.649.391-3.272.869-4.875,1.416-.732.249-1.174.155-1.379-.753-.276-1.22-.361-1.2,1-1.87a51.835,51.835,0,0,0,5.475-1.563c.443-.117.885-.237,1.329-.351.34-.087.421-.315.435-.643.073-1.775-.342-2.085-1.977-1.451a47.471,47.471,0,0,0-4.9,1.492c-.311-.091-.548.124-.815.2-5.812,1.745-11.612,3.531-17.443,5.21-1.076.31-2.124.9-3.408.5a36.165,36.165,0,0,0-4.372-.823,1.545,1.545,0,0,1-1.047-.92c-.219-.42-.008-.837.373-1.19.8-.738,1.491-1.591,2.322-2.284.876-.73,1.564-1.734,2.748-2.056.666-.181,1.34-.336,2-.543,3.416-1.075,6.854-2.082,10.278-3.13,3.123-.955,6.274-1.825,9.39-2.809a36.608,36.608,0,0,0,4.913-1.556l.09.018Zm-17.66,10.611a45.8,45.8,0,0,1,4.529-1.4c1.911-.569,3.851-1.048,5.734-1.695,2.338-.8,4.709-1.495,7.082-2.17,1.678-.478,1.674-.4,1.7-2.146.009-.753-.107-.933-.925-.667-2.528.822-5.1,1.511-7.646,2.275-3,.9-5.99,1.822-8.982,2.739-2.3.7-2.3.709-1.488,3.064m-10.514,1.869c1.114.145,2.107.657,3.215.274,1.19-.412,2.4-.761,3.615-1.1.382-.107,1.105-.1,1.142-.479a3.11,3.11,0,0,0-.548-1.971c-.291-.425-.8-.05-1.218.016-.45.071-.814.324-1.251.436-1.854.475-3.833.791-4.955,2.825m36.177-10.332a1.16,1.16,0,0,0-1.046-1.325,8.714,8.714,0,0,0-2.877.6.5.5,0,0,0-.35.607c.221,2.07.218,2.071,2.283,1.446a6.5,6.5,0,0,0,.989-.326c.5-.243.934-.567,1-1" transform="translate(-116.44 -131.31)"/>
    <path id="Trazado_661975" data-name="Trazado 661975" d="M263.2,63.836a36.6,36.6,0,0,1-4.914,1.556q0-1.531.006-3.063c.99.107,1.236-.339,1.228-1.307-.046-6.121-.023-12.242-.025-18.364,0-.423-.023-.846-.029-1.269a1.244,1.244,0,0,0-1.4-1.368c-1.661-.009-3.322-.035-4.982.012-.725.021-1.042-.123-1-.944.09-1.813-.22-1.514,1.577-1.532,1.758-.018,3.52.066,5.274-.024,1.715-.088,3.073.9,3.075,3.13,0,6.447.024,12.894-.023,19.341-.007.965.253,1.3,1.18,1.107l.071,2.557a.21.21,0,0,0-.034.168" transform="translate(-202.782 -30.19)" fill="#0093b9"/>
    <path id="Trazado_661976" data-name="Trazado 661976" d="M93.779,59.989a5.616,5.616,0,0,1,.778-.027c.484.047.609-.168.6-.619-.024-1.2-.008-2.408-.008-3.612,0-5.045.054-10.09-.029-15.133a2.546,2.546,0,0,1,2.854-2.819c2.015.076,4.036.053,6.053,0,.752-.02,1.009.224.9.937a1.571,1.571,0,0,0,0,.487c.129.783-.129,1.076-.979,1.038-1.624-.074-3.254-.031-4.881-.018-1.115.009-1.588.587-1.434,1.69a4.273,4.273,0,0,1,0,.583c0,5.4.028,10.805-.026,16.207-.01,1.005.251,1.43,1.259,1.287q0,1.232-.01,2.464l-5.08,0a.56.56,0,0,0-.037-.153l.04-2.306" transform="translate(-75.409 -30.388)" fill="#0093b9"/>
    <path id="Trazado_661977" data-name="Trazado 661977" d="M248.573,240.589c1.6-.546,3.227-1.025,4.875-1.415q.014,1.254.029,2.507c-.981-.153-1.221.264-1.2,1.231.069,3.123.037,6.248.022,9.372a2.776,2.776,0,0,1-3.038,3.069c-1.884-.081-3.777.04-5.661-.042-1-.044-1.448.233-1.3,1.256h-2.29q0-2.445,0-4.889c.761-.086,1.555.209,2.289-.194.071,1.369.071,1.369,1.42,1.369,1.428,0,2.856,0,4.284,0,1.383,0,1.778-.391,1.784-1.786.009-2.239-.048-4.48.026-6.717.032-.97-.185-1.462-1.228-1.3q-.007-1.23-.015-2.459" transform="translate(-193.081 -192.406)" fill="#0093b9"/>
    <path id="Trazado_661978" data-name="Trazado 661978" d="M251.592,266.755c-.151-1.024.3-1.3,1.3-1.256,1.884.083,3.777-.039,5.661.043a2.776,2.776,0,0,0,3.038-3.069c.015-3.124.047-6.249-.022-9.372-.021-.967.219-1.383,1.2-1.231,1.293.069,1.295.069,1.3,1.368q0,4.686,0,9.371a5.216,5.216,0,0,1-3.8,5.212,3.134,3.134,0,0,1-.843.1c-2.18.012-4.363-.048-6.539.04-.979.04-1.449-.174-1.286-1.21" transform="translate(-202.371 -202.595)"/>
    <path id="Trazado_661979" data-name="Trazado 661979" d="M308.938,171.379a.21.21,0,0,1,.034-.168l.141.151-.085.034Z" transform="translate(-248.524 -137.733)" fill="#e3e4e2"/>
    <path id="Trazado_661980" data-name="Trazado 661980" d="M93.107,163.172a.55.55,0,0,1,.037.153l-.19-.007.153-.146" transform="translate(-74.778 -131.266)" fill="#e3e4e2"/>
    <path id="Trazado_661981" data-name="Trazado 661981" d="M308.988,157.471c-.011-.128.041-.18.169-.144l-.169.144" transform="translate(-248.568 -126.555)" fill="#e3e4e2"/>
    <path id="Trazado_661982" data-name="Trazado 661982" d="M145.679,109.8c-.734.4-1.528.109-2.289.194-.012-1.789-.028-3.579-.034-5.368-.006-1.614-.455-2.077-2.038-2.077-6.446,0-12.891-.013-19.337.018-.722,0-.908-.157-.9-.894.031-5.729,0-11.458.018-17.187,0-.894-.28-1.492-1.191-1.7q0-1.232.01-2.464c1.041.163,1.221-.317,1.209-1.29-.057-5.013-.011-10.028-.045-15.042,0-.711.151-.938.891-.936q14.017.035,28.035,0c.711,0,.765.287.764.858-.015,5.893.018,11.786-.036,17.679-.009.995.223,1.424,1.232,1.273q0,1.531-.006,3.063c-3.116.985-6.267,1.854-9.39,2.81-3.424,1.047-6.862,2.055-10.278,3.13-.658.207-1.332.361-2,.543-1.184.323-1.872,1.326-2.748,2.056-.831.693-1.525,1.546-2.321,2.284-.381.353-.592.77-.373,1.19a1.545,1.545,0,0,0,1.047.92,36.2,36.2,0,0,1,4.373.823c1.285.4,2.332-.188,3.408-.5,5.831-1.679,11.631-3.465,17.443-5.21.268-.08.5-.295.815-.2a3.864,3.864,0,0,1-.362,2.516c-1.364.67-1.28.651-1,1.87.206.908.647,1,1.379.752q.007,1.23.015,2.459c-1-.147-1.288.262-1.232,1.266.1,1.714-.019,3.439.047,5.155.029.769-.231.934-.933.891-.97-.059-1.951.046-2.917-.032-.909-.073-1.427.123-1.249,1.154M123.618,80.266q0,1.268,0,2.535a1.057,1.057,0,0,0,1.176,1.2c1.56.008,3.12.016,4.68,0a1.425,1.425,0,0,0,1.535-1.471q.048-2.241,0-4.485a1.523,1.523,0,0,0-1.553-1.452c-1.5-.011-2.99-.017-4.485,0-.949.013-1.34.414-1.353,1.332-.011.78,0,1.56,0,2.34m0-11.1c0,.846-.008,1.692,0,2.538a1.058,1.058,0,0,0,1.12,1.172c1.594.029,3.19.04,4.783-.008,1.019-.03,1.483-.578,1.495-1.634q.022-2.05,0-4.1c-.012-1.113-.377-1.583-1.452-1.625-1.592-.062-3.189-.039-4.782,0a1.057,1.057,0,0,0-1.17,1.217c.033.812.007,1.627,0,2.44M140.766,84h5.857c1.643,0,1.592,0,1.651-1.6.029-.777-.246-.893-.937-.888-4.067.031-8.134.015-12.2.015-1.767,0-1.738,0-1.754,1.729-.005.593.131.768.747.757,2.212-.041,4.425-.016,6.637-.016m.1-13.535c-2.149,0-4.3.053-6.446-.025-.9-.033-1.165.254-1.026,1.08a1.419,1.419,0,0,1,0,.487c-.141.755.193.9.9.893,4.135-.035,8.27-.017,12.406-.017,1.566,0,1.527,0,1.569-1.584.018-.691-.18-.864-.86-.85-2.181.046-4.363.017-6.544.017m2.448,6.12h-3.322c-1.732,0-1.7,0-1.724,1.726-.009.634.157.818.8.808,2.474-.039,4.949-.016,7.424-.016,1.828,0,1.808,0,1.771-1.873-.01-.505-.132-.67-.654-.657-1.432.036-2.865.012-4.3.012m-.124-8.611h3.41c1.673,0,1.633,0,1.671-1.667.017-.714-.223-.849-.881-.839-2.435.039-4.871.015-7.307.015-1.857,0-1.826,0-1.816,1.835,0,.6.225.676.733.666,1.4-.03,2.793-.01,4.19-.01m-8.342-2.345c-1.449,0-1.437,0-1.454,1.054-.012.745-.2,1.456,1.062,1.327,1.471-.151,1.415-.04,1.5-1.186.079-1.025-.212-1.468-1.111-1.2M134.759,76.8c-.813-.082-1.508-.2-1.389,1.016.126,1.294.028,1.3,1.266,1.3,1.3,0,1.216-.008,1.33-1.238.1-1.093-.352-1.3-1.206-1.082" transform="translate(-96.458 -50.723)" fill="#e3e4e2"/>
    <path id="Trazado_661983" data-name="Trazado 661983" d="M125.994,293.115c-.011-5.045-.016-10.091-.044-15.136,0-.529.186-.666.681-.654,1.171.028,2.345.039,3.515,0,.612-.022.779.2.768.784-.033,1.66-.021,3.32-.009,4.981.01,1.379.282,1.615,1.643,1.653,2.331.067,4.667-.17,7,.125.528.067,1.247-.95,1.254-1.73.014-1.693.023-3.386-.006-5.079-.009-.532.115-.769.7-.732.875.056,1.755.041,2.632.057a4.046,4.046,0,0,0-.788,3.094,18.5,18.5,0,0,1-.153,2.91,9.6,9.6,0,0,1-6.623,8.248c-2.05.776-4.178.438-6.277.5-1.5.044-3.067-.265-4.285.982" transform="translate(-101.323 -223.093)" fill="#f8bc1e"/>
    <path id="Trazado_661984" data-name="Trazado 661984" d="M12.683,293.116q-.025-7.608-.055-15.215c0-.411.144-.581.568-.576,1.268.016,2.538.03,3.8-.005.614-.017.578.341.576.752-.006,1.724-.01,3.448,0,5.171.008,1.214.272,1.479,1.484,1.484q3.366.014,6.733,0c1.17,0,1.59-.438,1.6-1.655.008-1.659.025-3.318-.01-4.976-.012-.589.151-.817.764-.778.907.057,1.818.042,2.727.058-1.137,1.053-1,2.429-.976,3.784a14.809,14.809,0,0,1-.179,2.9,9.7,9.7,0,0,1-7.825,7.889,36.079,36.079,0,0,1-6.213.16,3.579,3.579,0,0,0-3,1.005" transform="translate(-10.159 -223.09)" fill="#f8bc1e"/>
    <path id="Trazado_661985" data-name="Trazado 661985" d="M12.683,192.168q-.025-7.608-.055-15.215c0-.411.144-.581.568-.575,1.268.016,2.538.03,3.8-.005.614-.017.578.341.576.752-.006,1.724-.01,3.448,0,5.171.008,1.214.272,1.479,1.484,1.484q3.366.014,6.733,0c1.17,0,1.59-.437,1.6-1.655.008-1.659.025-3.318-.01-4.976-.012-.589.151-.817.764-.778.907.057,1.818.042,2.727.058-1.137,1.053-1,2.429-.976,3.784a14.808,14.808,0,0,1-.179,2.9A9.7,9.7,0,0,1,21.891,191a36.084,36.084,0,0,1-6.213.16,3.579,3.579,0,0,0-3,1.005" transform="translate(-10.159 -141.881)" fill="#f8bc1e"/>
    <path id="Trazado_661986" data-name="Trazado 661986" d="M12.563,192.1a3.58,3.58,0,0,1,3-1.005,36.084,36.084,0,0,0,6.213-.16,9.7,9.7,0,0,0,7.825-7.889,14.792,14.792,0,0,0,.179-2.9c-.023-1.355-.161-2.732.977-3.784.161-.016.323-.025.482-.051.788-.126,1.047.163,1.039.994-.041,4.652-.02,9.3-.02,13.956,0,2.377,0,2.377-2.4,2.377H13.939c-1.564,0-1.564,0-1.377-1.538m15.885-1.035c.867.205,1.491.172,1.363-1.054-.084-.8.006-1.445-1.141-1.259-.739.12-1.625-.26-1.469,1.13.1.878.053,1.584,1.247,1.183" transform="translate(-10.039 -141.813)" fill="#f5a922"/>
    <path id="Trazado_661987" data-name="Trazado 661987" d="M12.695,293.056a3.579,3.579,0,0,1,3-1.005,36.079,36.079,0,0,0,6.213-.16A9.7,9.7,0,0,0,29.728,284a14.81,14.81,0,0,0,.179-2.9c-.023-1.355-.161-2.732.976-3.784.194-.016.389-.021.58-.051.716-.115.945.148.939.9-.035,4.721-.018,9.442-.018,14.163,0,2.265,0,2.265-2.282,2.265H14.082c-1.517,0-1.517,0-1.388-1.538m16.124-3.327c-1.448,0-1.4,0-1.464,1.054-.058.9.015,1.426,1.171,1.322,1.377-.124,1.318-.034,1.406-1.18.078-1.022-.217-1.464-1.112-1.2" transform="translate(-10.171 -223.029)" fill="#f5a922"/>
    <path id="Trazado_661988" data-name="Trazado 661988" d="M126.05,293.134c1.218-1.248,2.786-.938,4.285-.982,2.1-.062,4.227.276,6.277-.5a9.6,9.6,0,0,0,6.623-8.248,18.5,18.5,0,0,0,.153-2.91,4.045,4.045,0,0,1,.788-3.094,2.2,2.2,0,0,1,.287-.046c1.292-.039,1.293-.038,1.293,1.285,0,4.976-.019,9.952.019,14.927.007.852-.162,1.142-1.093,1.134-5.724-.049-11.448-.025-17.172-.025-1.547,0-1.547,0-1.46-1.543m16-1.023c1.046.3,1.329-.107,1.319-1.149-.01-.981-.219-1.319-1.266-1.3-.967.021-1.344.2-1.28,1.257.055.9.061,1.579,1.227,1.188" transform="translate(-101.378 -223.112)" fill="#f5a922"/>
    <path id="Trazado_661989" data-name="Trazado 661989" d="M49.889,178.509c0-2.565,0-2.581,2.419-2.555.831.009,1.894-.367,2.432.181.493.5.136,1.547.143,2.351.019,2.464.007,2.477-2.456,2.456-.8-.007-1.841.352-2.351-.146-.558-.546-.088-1.606-.187-2.286" transform="translate(-40.06 -141.453)" fill="#f8bc1e"/>
    <path id="Trazado_661990" data-name="Trazado 661990" d="M52.811,277.339c2.457,0,2.47,0,2.45,2.47-.006.8.346,1.827-.146,2.353s-1.538.163-2.337.172c-2.51.027-2.51.01-2.51-2.509,0-2.486,0-2.486,2.446-2.486h.1" transform="translate(-40.438 -223.108)" fill="#f8bc1e"/>
    <path id="Trazado_661991" data-name="Trazado 661991" d="M163.484,279.281c0-2.405,0-2.419,2.413-2.4.8.007,1.857-.359,2.348.151.526.546.16,1.607.168,2.441.022,2.405.008,2.419-2.417,2.4-.8-.007-1.84.353-2.349-.149s-.1-1.543-.163-2.344c0-.032,0-.065,0-.1" transform="translate(-131.438 -222.645)" fill="#f8bc1e"/>
    <path id="Trazado_661992" data-name="Trazado 661992" d="M171.038,19.666c-2.15,0-4.3-.024-6.449.015-.645.012-.818-.184-.811-.818.017-1.692-.014-1.692,1.7-1.692.619,0,1.239.023,1.856-.007a1.209,1.209,0,0,0,1.207-1.7q-.3-1.157-.575-2.319c-.146-.6-.077-.961.717-.935,1.692.055,3.388.052,5.08,0,.72-.022.789.235.606.819-.248.788-.471,1.585-.683,2.383-.291,1.094.142,1.7,1.283,1.742,1.008.038,2.019.018,3.029.01.374,0,.535.016.511.525-.091,1.971-.055,1.973-2,1.973h-5.472" transform="translate(-131.753 -9.825)" fill="#0093b9"/>
    <path id="Trazado_661993" data-name="Trazado 661993" d="M217.519,192.537c-.809-2.355-.811-2.359,1.488-3.064,2.993-.918,5.984-1.84,8.982-2.74,2.547-.764,5.118-1.453,7.646-2.275.818-.266.934-.085.925.667-.021,1.743-.018,1.668-1.7,2.146-2.374.676-4.744,1.367-7.082,2.17-1.883.647-3.824,1.126-5.734,1.695a45.825,45.825,0,0,0-4.529,1.4" transform="translate(-174.591 -148.296)" fill="#f8bc1e"/>
    <path id="Trazado_661994" data-name="Trazado 661994" d="M165.772,221.5c1.122-2.034,3.1-2.35,4.955-2.825.436-.112.8-.365,1.251-.436.422-.067.927-.442,1.218-.016a3.109,3.109,0,0,1,.548,1.971c-.037.383-.76.373-1.142.479-1.214.34-2.425.688-3.615,1.1-1.108.384-2.1-.128-3.215-.274" transform="translate(-133.357 -175.389)" fill="#f8bc1e"/>
    <path id="Trazado_661995" data-name="Trazado 661995" d="M281.865,216.513a3.864,3.864,0,0,0,.362-2.516,47.5,47.5,0,0,1,4.9-1.492c.134.809-.213,1.66.213,2.444a51.787,51.787,0,0,1-5.475,1.563" transform="translate(-226.749 -170.952)" fill="#0093b9"/>
    <path id="Trazado_661996" data-name="Trazado 661996" d="M333.183,177.473c-.066.432-.5.756-1,1a6.5,6.5,0,0,1-.989.326c-2.065.625-2.062.623-2.283-1.446a.5.5,0,0,1,.35-.607,8.714,8.714,0,0,1,2.877-.6,1.16,1.16,0,0,1,1.046,1.325" transform="translate(-264.591 -141.696)" fill="#f8bc1e"/>
    <path id="Trazado_661997" data-name="Trazado 661997" d="M308.959,213.706c-.425-.784-.078-1.635-.213-2.444,1.634-.635,2.049-.324,1.977,1.451-.013.328-.095.556-.435.643-.444.113-.886.233-1.329.35" transform="translate(-248.368 -169.708)" fill="#f8fafb"/>
    <path id="Trazado_661998" data-name="Trazado 661998" d="M251.577,267.3c-.178-1.031.34-1.227,1.249-1.154.967.078,1.948-.026,2.917.032.7.042.962-.122.933-.891-.065-1.717.049-3.441-.047-5.156-.056-1,.235-1.412,1.232-1.266,1.044-.162,1.261.33,1.228,1.3-.074,2.237-.017,4.477-.026,6.717-.006,1.395-.4,1.782-1.784,1.786-1.428,0-2.856,0-4.284,0-1.348,0-1.348,0-1.419-1.369" transform="translate(-202.356 -208.221)"/>
    <path id="Trazado_661999" data-name="Trazado 661999" d="M138.869,135.925c0-.78-.009-1.56,0-2.34.013-.918.4-1.319,1.353-1.332,1.495-.02,2.99-.013,4.485,0a1.522,1.522,0,0,1,1.553,1.452q.048,2.241,0,4.485a1.425,1.425,0,0,1-1.535,1.471c-1.56.014-3.12.007-4.68,0a1.057,1.057,0,0,1-1.176-1.2c0-.845,0-1.69,0-2.535m3.4,1.2c.845-.014,1.677.267,1.52-1.012-.1-.775.131-1.565-1.137-1.354-.739.123-1.626-.262-1.469,1.132.1.881.051,1.589,1.086,1.235" transform="translate(-111.712 -106.382)"/>
    <path id="Trazado_662000" data-name="Trazado 662000" d="M138.857,79.1c0-.813.026-1.628-.007-2.44a1.057,1.057,0,0,1,1.171-1.218c1.593-.038,3.19-.062,4.782,0,1.075.042,1.44.512,1.452,1.625q.021,2.05,0,4.1c-.011,1.055-.475,1.6-1.495,1.634-1.593.048-3.189.037-4.783.008a1.058,1.058,0,0,1-1.12-1.172c-.01-.846,0-1.692,0-2.538m3.467-1.186c-.572-.062-1.244-.17-1.143,1.044.125,1.489.029,1.5,1.269,1.5,1.3,0,1.3,0,1.3-1.242,0-1.3,0-1.3-1.428-1.3" transform="translate(-111.698 -60.662)"/>
    <path id="Trazado_662001" data-name="Trazado 662001" d="M196.214,159.972c-2.213,0-4.426-.025-6.637.016-.615.011-.752-.164-.747-.757.016-1.729-.013-1.729,1.754-1.729,4.067,0,8.135.016,12.2-.015.691-.005.965.111.937.888-.059,1.6-.009,1.6-1.651,1.6h-5.857" transform="translate(-151.907 -126.691)"/>
    <path id="Trazado_662002" data-name="Trazado 662002" d="M196.221,100.861c2.182,0,4.364.029,6.544-.017.679-.014.878.159.86.85-.042,1.583,0,1.584-1.569,1.584-4.135,0-8.271-.018-12.406.017-.709.006-1.043-.138-.9-.893a1.419,1.419,0,0,0,0-.487c-.14-.826.126-1.113,1.026-1.08,2.146.079,4.3.025,6.446.025" transform="translate(-151.814 -81.116)"/>
    <path id="Trazado_662003" data-name="Trazado 662003" d="M218.864,132.221c1.433,0,2.866.023,4.3-.012.522-.013.644.152.654.657.037,1.873.058,1.873-1.771,1.873-2.475,0-4.95-.023-7.424.016-.646.01-.811-.174-.8-.808.023-1.725-.008-1.726,1.724-1.726h3.322" transform="translate(-172.008 -106.357)"/>
    <path id="Trazado_662004" data-name="Trazado 662004" d="M218.727,77.927c-1.4,0-2.794-.019-4.19.01-.508.011-.73-.069-.733-.666-.01-1.836-.041-1.835,1.816-1.835,2.436,0,4.872.023,7.308-.015.657-.01.9.125.881.839-.039,1.666,0,1.667-1.671,1.667Z" transform="translate(-171.996 -60.673)"/>
    <path id="Trazado_662005" data-name="Trazado 662005" d="M190.278,75.92c.9-.273,1.191.17,1.111,1.2-.088,1.146-.032,1.035-1.5,1.186-1.263.129-1.074-.582-1.062-1.327.017-1.054,0-1.054,1.454-1.054" transform="translate(-151.888 -61.011)"/>
    <path id="Trazado_662006" data-name="Trazado 662006" d="M190.1,133.031c.854-.215,1.307-.01,1.206,1.082-.113,1.23-.026,1.238-1.33,1.238-1.238,0-1.14-.01-1.266-1.3-.118-1.219.576-1.1,1.389-1.016" transform="translate(-151.802 -106.957)"/>
    <path id="Trazado_662007" data-name="Trazado 662007" d="M88.942,242.231c-1.194.4-1.149-.305-1.247-1.183-.155-1.389.73-1.01,1.469-1.13,1.147-.186,1.057.458,1.141,1.259.128,1.225-.5,1.259-1.363,1.054" transform="translate(-70.533 -192.979)"/>
    <path id="Trazado_662008" data-name="Trazado 662008" d="M89.287,340.792c.9-.268,1.19.173,1.112,1.2-.087,1.147-.029,1.056-1.406,1.18-1.156.1-1.229-.425-1.171-1.322.068-1.051.017-1.054,1.464-1.054" transform="translate(-70.639 -274.092)"/>
    <path id="Trazado_662009" data-name="Trazado 662009" d="M202.936,342.8c-1.167.391-1.173-.29-1.227-1.188-.064-1.053.313-1.235,1.28-1.257,1.046-.023,1.255.315,1.266,1.3.011,1.042-.272,1.447-1.319,1.149" transform="translate(-162.261 -273.801)"/>
    <path id="Trazado_662010" data-name="Trazado 662010" d="M151.747,147.325c-1.035.354-.986-.354-1.086-1.235-.157-1.394.73-1.009,1.469-1.132,1.268-.211,1.042.579,1.137,1.354.157,1.279-.675,1-1.52,1.012" transform="translate(-121.187 -116.586)" fill="#e3e4e2"/>
    <path id="Trazado_662011" data-name="Trazado 662011" d="M151.879,88.1c1.428,0,1.428,0,1.428,1.3,0,1.242,0,1.242-1.3,1.242-1.24,0-1.144-.008-1.269-1.5-.1-1.214.571-1.106,1.143-1.044" transform="translate(-121.253 -70.846)" fill="#e3e4e2"/>
  </g>
</svg>
