<svg id="Grupo_949393" data-name="Grupo 949393" xmlns="http://www.w3.org/2000/svg" xmlns:xlink="http://www.w3.org/1999/xlink" width="500" height="406" viewBox="0 0 500 406">
  <defs>
    <clipPath id="clip-path">
      <rect id="Rectángulo_350400" data-name="Rectángulo 350400" width="500" height="406" fill="none"/>
    </clipPath>
    <clipPath id="clip-path-3">
      <rect id="Rectángulo_350388" data-name="Rectángulo 350388" width="437.721" height="325.392" transform="translate(32.633 65.21)" fill="none"/>
    </clipPath>
    <clipPath id="clip-path-5">
      <rect id="Rectángulo_350390" data-name="Rectángulo 350390" width="189.811" height="162.54" transform="translate(279.34)" fill="none"/>
    </clipPath>
    <clipPath id="clip-path-6">
      <path id="Trazado_656953" data-name="Trazado 656953" d="M288.042,193.989a53.769,53.769,0,1,0,53.769-53.769,53.769,53.769,0,0,0-53.769,53.769" fill="none"/>
    </clipPath>
    <clipPath id="clip-path-8">
      <path id="Trazado_656960" data-name="Trazado 656960" d="M325.477,157.315l4.376,8.9c3.923-2.038,6.789-3.471,10.26-3.471,2.036,0,3.168,1.132,3.168,2.867,0,3.7-6.488,5.733-13.2,7.694l3.47,8.45a39.067,39.067,0,0,1,6.564-1.056,5.23,5.23,0,0,1,5.431,5.054,6.145,6.145,0,0,1-6.186,6.488c-3.395,0-8-2.188-10.863-3.621l-3.923,9.128c4.6,2.112,11.466,4.376,15.993,4.376,13.2,0,17.729-8.3,17.729-15.918a11.98,11.98,0,0,0-8.9-11.769,11.344,11.344,0,0,0,6.714-10.336c0-7.317-5.96-11.315-14.409-11.315-5.507,0-11.09,1.962-16.22,4.527" fill="none"/>
    </clipPath>
    <clipPath id="clip-path-10">
      <rect id="Rectángulo_350393" data-name="Rectángulo 350393" width="189.811" height="162.54" transform="translate(95.718)" fill="none"/>
    </clipPath>
    <clipPath id="clip-path-11">
      <path id="Trazado_656970" data-name="Trazado 656970" d="M100.814,191.587A56.006,56.006,0,1,0,156.82,135.58a56.006,56.006,0,0,0-56.006,56.007" fill="none"/>
    </clipPath>
    <clipPath id="clip-path-13">
      <path id="Trazado_656977" data-name="Trazado 656977" d="M141.361,156.126l4.06,8.192c4.342-2.032,7.351-3.362,9.871-3.362a4.083,4.083,0,0,1,4.131,4.411c0,3.57-3.008,6.862-9.451,14.772-3.238,3.976-7,9.661-9.941,13.792l1.26,2.941h31.154v-9.451H157.253l4.2-4.412c6.65-7,9.8-12.6,9.8-18.621,0-9.1-6.091-12.673-13.932-12.673-5.6,0-12.041,2.59-15.962,4.411" fill="none"/>
    </clipPath>
    <clipPath id="clip-path-15">
      <rect id="Rectángulo_350396" data-name="Rectángulo 350396" width="147.368" height="271.869" transform="translate(238.38 0.004)" fill="none"/>
    </clipPath>
    <clipPath id="clip-path-16">
      <rect id="Rectángulo_350397" data-name="Rectángulo 350397" width="69.675" height="280.363" transform="translate(183.404 0.004)" fill="none"/>
    </clipPath>
    <clipPath id="clip-path-17">
      <path id="Trazado_656987" data-name="Trazado 656987" d="M174.369,283.8a68.871,68.871,0,1,0,68.87-68.871,68.871,68.871,0,0,0-68.87,68.871" fill="none"/>
    </clipPath>
    <clipPath id="clip-path-19">
      <path id="Trazado_656994" data-name="Trazado 656994" d="M240.743,244.2c-6.89,7.314-14.735,11.025-21.944,14.1l5.831,10.814a43.159,43.159,0,0,0,12.3-6.679v49.612h16.749V244.2Z" fill="none"/>
    </clipPath>
  </defs>
  <g id="Grupo_949392" data-name="Grupo 949392" clip-path="url(#clip-path)">
    <rect id="Rectángulo_350387" data-name="Rectángulo 350387" width="500" height="405.996" transform="translate(0 0.004)" fill="#ddf6f9"/>
    <g id="Grupo_949355" data-name="Grupo 949355">
      <g id="Grupo_949354" data-name="Grupo 949354" clip-path="url(#clip-path)">
        <g id="Grupo_949353" data-name="Grupo 949353" opacity="0.2">
          <g id="Grupo_949352" data-name="Grupo 949352">
            <g id="Grupo_949351" data-name="Grupo 949351" clip-path="url(#clip-path-3)">
              <path id="Trazado_656831" data-name="Trazado 656831" d="M394.356,104.083A177.694,177.694,0,1,1,74.2,210.29C74.2,171.3,87.708,134,109,104.7" fill="none" stroke="#004750" stroke-miterlimit="10" stroke-width="1.149"/>
              <path id="Trazado_656832" data-name="Trazado 656832" d="M431.8,130.047q.4,2.043.8,4.086" fill="none" stroke="#004750" stroke-miterlimit="10" stroke-width="1.149"/>
              <path id="Trazado_656833" data-name="Trazado 656833" d="M434.124,127.05q.72,2.242,1.441,4.485" fill="none" stroke="#004750" stroke-miterlimit="10" stroke-width="1.149"/>
              <path id="Trazado_656834" data-name="Trazado 656834" d="M435.731,274.06a18.394,18.394,0,0,0-.306,5.161" fill="none" stroke="#004750" stroke-miterlimit="10" stroke-width="1.149"/>
              <path id="Trazado_656835" data-name="Trazado 656835" d="M438.3,273.481l-.351,3.152" fill="none" stroke="#004750" stroke-miterlimit="10" stroke-width="1.149"/>
              <path id="Trazado_656836" data-name="Trazado 656836" d="M406.157,120.7A37.377,37.377,0,0,1,418.49,81.454c2.351,6.844,2.819,15.723.519,22.584A32.6,32.6,0,0,1,406.157,120.7" fill="#00a4be"/>
              <path id="Trazado_656837" data-name="Trazado 656837" d="M412.551,134.479a60.116,60.116,0,0,0-50.289-19.439c4.7,8.72,11.448,16.374,20.624,20.109s20.209,2.287,29.665-.67" fill="#00a4be"/>
              <path id="Trazado_656838" data-name="Trazado 656838" d="M406.673,120.3a189.691,189.691,0,0,1,11.186-38.055" fill="none" stroke="#004750" stroke-miterlimit="10" stroke-width="1.149"/>
              <path id="Trazado_656839" data-name="Trazado 656839" d="M363.27,115.684A311.238,311.238,0,0,1,412.252,133.5" fill="none" stroke="#004750" stroke-miterlimit="10" stroke-width="1.149"/>
              <path id="Trazado_656840" data-name="Trazado 656840" d="M427.265,180.508a58.84,58.84,0,0,1,28.543-43.368c1.9,9.308-.714,19.692-6.346,27.343s-13.278,12.751-22.2,16.025" fill="#00a4be"/>
              <path id="Trazado_656841" data-name="Trazado 656841" d="M428.594,198.16c-1.826-4.769-3.734-9.672-7.252-13.373a38.69,38.69,0,0,0-7.38-5.62c-6.443-4.132-12.946-8.271-20.054-11.109s-14.937-4.328-22.467-2.956c7,9.076,14.266,17.86,23.7,24.366s22.057,9.979,33.448,8.692" fill="#00a4be"/>
              <path id="Trazado_656842" data-name="Trazado 656842" d="M424.954,170.671c-4.512-9.145-14.6-14.072-24.37-17.006-6.085-1.827-12.432-3.149-18.764-2.635,10.137,12.552,27.021,20.457,43.134,19.641" fill="#00a4be"/>
              <path id="Trazado_656843" data-name="Trazado 656843" d="M429.486,208.607c.369-8.021,4.4-15.535,9.821-21.464,8.622-9.439,18.2-16.453,31.047-19.063-.029,5-2.469,9.918-4.99,14.233-3.915,6.7-8.2,13.319-14.026,18.445s-14.109,8.338-21.852,7.849" fill="#00a4be"/>
              <path id="Trazado_656844" data-name="Trazado 656844" d="M428.324,230.46c-4.438-18.067-20.859-32.543-39.34-34.68a111.321,111.321,0,0,0,22.2,25.62c5.355,4.454,10.256,8.007,17.141,9.06" fill="#00a4be"/>
              <path id="Trazado_656845" data-name="Trazado 656845" d="M424.841,252.11c5.9-20.755,24.006-37.539,45.148-41.858-6.42,20.417-24.424,36.509-45.148,41.858" fill="#00a4be"/>
              <path id="Trazado_656846" data-name="Trazado 656846" d="M419.783,151.637a46.332,46.332,0,0,1,25.908-49.169c1.389,12.693-2.922,26-10.193,36.494-3.959,5.716-8.889,11.352-15.715,12.675" fill="#00a4be"/>
              <path id="Trazado_656847" data-name="Trazado 656847" d="M417.6,273.65a69.084,69.084,0,0,0-25.671-52.578c-.428,19.613,10.081,40.669,25.671,52.578" fill="#00a4be"/>
              <path id="Trazado_656848" data-name="Trazado 656848" d="M408.819,294.441c5.548-8.126,11.145-16.31,18.169-23.2s15.659-12.482,25.325-14.317a43.453,43.453,0,0,1-16.64,26.384,56.241,56.241,0,0,1-26.854,11.133" fill="#00a4be"/>
              <path id="Trazado_656849" data-name="Trazado 656849" d="M404.14,301.992a53.627,53.627,0,0,0-21-47.262c-.439,17.549,8.014,35.452,21,47.262" fill="#00a4be"/>
              <path id="Trazado_656850" data-name="Trazado 656850" d="M393.845,317.043a49.516,49.516,0,0,1,46.608-14.28c-11.74,12.333-30.091,18.416-46.608,14.28" fill="#00a4be"/>
              <path id="Trazado_656851" data-name="Trazado 656851" d="M380.77,332.012a74.5,74.5,0,0,0,.891-55.468,90.608,90.608,0,0,0-.891,55.468" fill="#00a4be"/>
              <path id="Trazado_656852" data-name="Trazado 656852" d="M373.553,339.635c8.13-6.035,17.075-11.124,26.79-13.974s20.257-3.373,29.948-.442c-15.584,12.979-36.774,17.989-56.738,14.416" fill="#00a4be"/>
              <path id="Trazado_656853" data-name="Trazado 656853" d="M360.97,350.6a58.523,58.523,0,0,0,.388-51.884c-8.942,15.186-8.652,36.318-.388,51.884" fill="#00a4be"/>
              <path id="Trazado_656854" data-name="Trazado 656854" d="M348.328,359.247a84.454,84.454,0,0,1,59.778-8.126c-3.111,3.638-8.439,5.786-12.965,7.344a77.027,77.027,0,0,1-46.813.782" fill="#00a4be"/>
              <path id="Trazado_656855" data-name="Trazado 656855" d="M339.915,363.927a47.629,47.629,0,0,1,6.748-45.647c2.588,8.887,1.257,18.736-.2,27.877a48.171,48.171,0,0,1-6.543,17.77" fill="#00a4be"/>
              <path id="Trazado_656856" data-name="Trazado 656856" d="M327.624,370.964c8.32,3.15,17.293,4.135,26.176,4.616,7.423.4,15.489.278,21.412-4.214-5.385-3.734-12.375-4.977-18.927-5.1-9.544-.174-19.943.8-28.661,4.695" fill="#00a4be"/>
              <path id="Trazado_656857" data-name="Trazado 656857" d="M320.516,374.251a51.433,51.433,0,0,1,10.508-47.035c2.192,15.771-2.466,33.292-10.508,47.035" fill="#00a4be"/>
              <path id="Trazado_656858" data-name="Trazado 656858" d="M304.311,381.208a54.509,54.509,0,0,0,48.74,6.272c-1.859-2.205-5.21-3.48-7.962-4.34-13.054-4.078-27.287-4.172-40.778-1.932" fill="#00a4be"/>
              <path id="Trazado_656859" data-name="Trazado 656859" d="M294.029,382.469a45.887,45.887,0,0,1,15.665-52.979c2.457,10.928-1.709,22.767-5.988,33.118a216.925,216.925,0,0,1-9.677,19.861" fill="#00a4be"/>
              <path id="Trazado_656860" data-name="Trazado 656860" d="M419.745,151.757A115.3,115.3,0,0,1,439.3,112.252" fill="none" stroke="#004750" stroke-miterlimit="10" stroke-width="1.149"/>
              <path id="Trazado_656861" data-name="Trazado 656861" d="M424.741,169.96a103.011,103.011,0,0,0-30.914-12.682" fill="none" stroke="#004750" stroke-miterlimit="10" stroke-width="1.149"/>
              <path id="Trazado_656862" data-name="Trazado 656862" d="M427.43,180.122a210.8,210.8,0,0,1,21.447-31.012" fill="none" stroke="#004750" stroke-miterlimit="10" stroke-width="1.149"/>
              <path id="Trazado_656863" data-name="Trazado 656863" d="M430.133,208.052a116.622,116.622,0,0,1,28.367-28.67" fill="none" stroke="#004750" stroke-miterlimit="10" stroke-width="1.149"/>
              <path id="Trazado_656864" data-name="Trazado 656864" d="M427.877,197.11a191.939,191.939,0,0,0-38.994-25.151" fill="none" stroke="#004750" stroke-miterlimit="10" stroke-width="1.149"/>
              <path id="Trazado_656865" data-name="Trazado 656865" d="M427.976,229.77a132.465,132.465,0,0,0-24.15-23.577" fill="none" stroke="#004750" stroke-miterlimit="10" stroke-width="1.149"/>
              <path id="Trazado_656866" data-name="Trazado 656866" d="M425.7,250.878a146.288,146.288,0,0,1,32.453-30.54" fill="none" stroke="#004750" stroke-miterlimit="10" stroke-width="1.149"/>
              <path id="Trazado_656867" data-name="Trazado 656867" d="M410.248,293.412a259.3,259.3,0,0,1,27.593-24.049" fill="none" stroke="#004750" stroke-miterlimit="10" stroke-width="1.149"/>
              <path id="Trazado_656868" data-name="Trazado 656868" d="M416.56,272.224a140.894,140.894,0,0,0-17.488-34.269" fill="none" stroke="#004750" stroke-miterlimit="10" stroke-width="1.149"/>
              <path id="Trazado_656869" data-name="Trazado 656869" d="M403.9,301.567a146.77,146.77,0,0,0-11.856-31.6" fill="none" stroke="#004750" stroke-miterlimit="10" stroke-width="1.149"/>
              <path id="Trazado_656870" data-name="Trazado 656870" d="M394.869,316.808a64.971,64.971,0,0,1,9.917-4.371c2.024-.7,4.081-1.294,6.137-1.89l14.827-4.3" fill="none" stroke="#004750" stroke-miterlimit="10" stroke-width="1.149"/>
              <path id="Trazado_656871" data-name="Trazado 656871" d="M381.287,330.946a232.216,232.216,0,0,0-.491-37.015" fill="none" stroke="#004750" stroke-miterlimit="10" stroke-width="1.149"/>
              <path id="Trazado_656872" data-name="Trazado 656872" d="M374.688,338.73a205.035,205.035,0,0,1,36.36-10.739" fill="none" stroke="#004750" stroke-miterlimit="10" stroke-width="1.149"/>
              <path id="Trazado_656873" data-name="Trazado 656873" d="M360.393,349.6a131.461,131.461,0,0,0-.071-35.691" fill="none" stroke="#004750" stroke-miterlimit="10" stroke-width="1.149"/>
              <path id="Trazado_656874" data-name="Trazado 656874" d="M350.163,359.165a166.792,166.792,0,0,1,39.27-5.39" fill="none" stroke="#004750" stroke-miterlimit="10" stroke-width="1.149"/>
              <path id="Trazado_656875" data-name="Trazado 656875" d="M339.449,362.6q1.8-15.484,3.6-30.969" fill="none" stroke="#004750" stroke-miterlimit="10" stroke-width="1.149"/>
              <path id="Trazado_656876" data-name="Trazado 656876" d="M329.409,370.966c10.94.287,22.03-2.96,32.711-.577" fill="none" stroke="#004750" stroke-miterlimit="10" stroke-width="1.149"/>
              <path id="Trazado_656877" data-name="Trazado 656877" d="M320.732,373.321c.327-3.483.656-6.973,1.312-10.41,1.4-7.358,4.313-14.487,4.473-21.977" fill="none" stroke="#004750" stroke-miterlimit="10" stroke-width="1.149"/>
              <path id="Trazado_656878" data-name="Trazado 656878" d="M305.108,382.1a139.671,139.671,0,0,1,32.039,4.674" fill="none" stroke="#004750" stroke-miterlimit="10" stroke-width="1.149"/>
              <path id="Trazado_656879" data-name="Trazado 656879" d="M294.365,380.935a83.049,83.049,0,0,1,7.115-34.648" fill="none" stroke="#004750" stroke-miterlimit="10" stroke-width="1.149"/>
              <path id="Trazado_656880" data-name="Trazado 656880" d="M390.917,178.984a34.154,34.154,0,0,0,2.8,4.077" fill="none" stroke="#004750" stroke-miterlimit="10" stroke-width="1.149"/>
              <path id="Trazado_656881" data-name="Trazado 656881" d="M394.611,179.3l2.915,4.567" fill="none" stroke="#004750" stroke-miterlimit="10" stroke-width="1.149"/>
              <path id="Trazado_656882" data-name="Trazado 656882" d="M450.062,190.483a20.293,20.293,0,0,1-.306,4.3" fill="none" stroke="#004750" stroke-miterlimit="10" stroke-width="1.149"/>
              <path id="Trazado_656883" data-name="Trazado 656883" d="M401.236,334.074a5.281,5.281,0,0,1,2.59,1.431" fill="none" stroke="#004750" stroke-miterlimit="10" stroke-width="1.149"/>
              <path id="Trazado_656884" data-name="Trazado 656884" d="M403.265,332.315l3.183,1.678" fill="none" stroke="#004750" stroke-miterlimit="10" stroke-width="1.149"/>
              <path id="Trazado_656885" data-name="Trazado 656885" d="M303.351,341.234l1.4,3.173" fill="none" stroke="#004750" stroke-miterlimit="10" stroke-width="1.149"/>
              <path id="Trazado_656886" data-name="Trazado 656886" d="M305.6,338.956q.719,1.866,1.436,3.733" fill="none" stroke="#004750" stroke-miterlimit="10" stroke-width="1.149"/>
              <path id="Trazado_656887" data-name="Trazado 656887" d="M393.99,104.7A39.6,39.6,0,0,1,375.679,65.21a63.083,63.083,0,0,1,14.354,17.53A37.889,37.889,0,0,1,393.99,104.7" fill="#00a4be"/>
              <path id="Trazado_656888" data-name="Trazado 656888" d="M393.983,103.584A241.984,241.984,0,0,1,380.6,76.346" fill="none" stroke="#004750" stroke-miterlimit="10" stroke-width="1.149"/>
              <path id="Trazado_656889" data-name="Trazado 656889" d="M446.215,233.712a16.574,16.574,0,0,0-1.564,3.715" fill="none" stroke="#004750" stroke-miterlimit="10" stroke-width="1.149"/>
              <path id="Trazado_656890" data-name="Trazado 656890" d="M448.41,233.272q-.363,1.525-.725,3.052" fill="none" stroke="#004750" stroke-miterlimit="10" stroke-width="1.149"/>
              <path id="Trazado_656891" data-name="Trazado 656891" d="M96.83,120.7A37.377,37.377,0,0,0,84.5,81.454c-2.351,6.844-2.819,15.723-.519,22.584A32.6,32.6,0,0,0,96.83,120.7" fill="#00a4be"/>
              <path id="Trazado_656892" data-name="Trazado 656892" d="M90.436,134.479a60.116,60.116,0,0,1,50.289-19.439c-4.7,8.72-11.448,16.374-20.624,20.109s-20.209,2.287-29.665-.67" fill="#00a4be"/>
              <path id="Trazado_656893" data-name="Trazado 656893" d="M96.313,120.3A189.757,189.757,0,0,0,85.127,82.246" fill="none" stroke="#004750" stroke-miterlimit="10" stroke-width="1.149"/>
              <path id="Trazado_656894" data-name="Trazado 656894" d="M139.717,115.684A311.238,311.238,0,0,0,90.735,133.5" fill="none" stroke="#004750" stroke-miterlimit="10" stroke-width="1.149"/>
              <path id="Trazado_656895" data-name="Trazado 656895" d="M75.722,180.508A58.84,58.84,0,0,0,47.179,137.14c-1.9,9.308.714,19.692,6.346,27.343s13.278,12.751,22.2,16.025" fill="#00a4be"/>
              <path id="Trazado_656896" data-name="Trazado 656896" d="M74.393,198.16c1.826-4.769,3.734-9.672,7.252-13.373a38.69,38.69,0,0,1,7.38-5.62c6.443-4.132,12.946-8.271,20.054-11.109s14.937-4.328,22.467-2.956c-7,9.076-14.266,17.86-23.705,24.366s-22.056,9.979-33.448,8.692" fill="#00a4be"/>
              <path id="Trazado_656897" data-name="Trazado 656897" d="M78.033,170.671c4.512-9.145,14.6-14.072,24.37-17.006,6.085-1.827,12.431-3.149,18.764-2.635-10.137,12.552-27.021,20.457-43.134,19.641" fill="#00a4be"/>
              <path id="Trazado_656898" data-name="Trazado 656898" d="M73.5,208.607c-.369-8.021-4.406-15.535-9.821-21.464-8.622-9.439-18.2-16.453-31.047-19.063.029,5,2.469,9.918,4.99,14.233,3.915,6.7,8.2,13.319,14.026,18.445S65.757,209.1,73.5,208.607" fill="#00a4be"/>
              <path id="Trazado_656899" data-name="Trazado 656899" d="M74.663,230.46C79.1,212.393,95.522,197.917,114,195.78A111.321,111.321,0,0,1,91.8,221.4c-5.355,4.454-10.256,8.007-17.141,9.06" fill="#00a4be"/>
              <path id="Trazado_656900" data-name="Trazado 656900" d="M78.145,252.11c-5.9-20.755-24.006-37.539-45.148-41.858,6.42,20.417,24.425,36.509,45.148,41.858" fill="#00a4be"/>
              <path id="Trazado_656901" data-name="Trazado 656901" d="M83.2,151.637A46.332,46.332,0,0,0,57.3,102.468c-1.389,12.693,2.922,26,10.193,36.494,3.959,5.716,8.889,11.352,15.715,12.675" fill="#00a4be"/>
              <path id="Trazado_656902" data-name="Trazado 656902" d="M85.391,273.65a69.084,69.084,0,0,1,25.671-52.578c.428,19.613-10.081,40.669-25.671,52.578" fill="#00a4be"/>
              <path id="Trazado_656903" data-name="Trazado 656903" d="M94.168,294.441c-5.548-8.126-11.145-16.31-18.169-23.2S60.34,258.759,50.674,256.924a43.449,43.449,0,0,0,16.64,26.384,56.24,56.24,0,0,0,26.854,11.133" fill="#00a4be"/>
              <path id="Trazado_656904" data-name="Trazado 656904" d="M98.847,301.992a53.627,53.627,0,0,1,21-47.262c.439,17.549-8.014,35.452-21,47.262" fill="#00a4be"/>
              <path id="Trazado_656905" data-name="Trazado 656905" d="M109.142,317.043a49.516,49.516,0,0,0-46.608-14.28c11.74,12.333,30.091,18.416,46.608,14.28" fill="#00a4be"/>
              <path id="Trazado_656906" data-name="Trazado 656906" d="M122.217,332.012a74.491,74.491,0,0,1-.892-55.468,90.616,90.616,0,0,1,.892,55.468" fill="#00a4be"/>
              <path id="Trazado_656907" data-name="Trazado 656907" d="M129.434,339.635c-8.13-6.035-17.075-11.124-26.79-13.974s-20.257-3.373-29.948-.442c15.584,12.979,36.774,17.989,56.738,14.416" fill="#00a4be"/>
              <path id="Trazado_656908" data-name="Trazado 656908" d="M142.017,350.6a58.523,58.523,0,0,1-.388-51.884c8.942,15.186,8.652,36.318.388,51.884" fill="#00a4be"/>
              <path id="Trazado_656909" data-name="Trazado 656909" d="M154.658,359.247a84.455,84.455,0,0,0-59.778-8.126c3.111,3.638,8.439,5.786,12.965,7.344a77.027,77.027,0,0,0,46.813.782" fill="#00a4be"/>
              <path id="Trazado_656910" data-name="Trazado 656910" d="M163.072,363.927a47.631,47.631,0,0,0-6.747-45.647c-2.588,8.887-1.258,18.736.2,27.877a48.171,48.171,0,0,0,6.543,17.77" fill="#00a4be"/>
              <path id="Trazado_656911" data-name="Trazado 656911" d="M175.363,370.964c-8.321,3.15-17.293,4.135-26.177,4.616-7.422.4-15.489.278-21.412-4.214,5.386-3.734,12.375-4.977,18.927-5.1,9.544-.174,19.944.8,28.662,4.695" fill="#00a4be"/>
              <path id="Trazado_656912" data-name="Trazado 656912" d="M182.471,374.251a51.431,51.431,0,0,0-10.509-47.035c-2.191,15.771,2.467,33.292,10.509,47.035" fill="#00a4be"/>
              <path id="Trazado_656913" data-name="Trazado 656913" d="M198.676,381.208a54.509,54.509,0,0,1-48.74,6.272c1.859-2.205,5.21-3.48,7.962-4.34,13.054-4.078,27.287-4.172,40.778-1.932" fill="#00a4be"/>
              <path id="Trazado_656914" data-name="Trazado 656914" d="M208.958,382.469a45.887,45.887,0,0,0-15.665-52.979c-2.457,10.928,1.709,22.767,5.988,33.118a216.925,216.925,0,0,0,9.677,19.861" fill="#00a4be"/>
              <path id="Trazado_656915" data-name="Trazado 656915" d="M83.242,151.757A115.316,115.316,0,0,0,63.69,112.252" fill="none" stroke="#004750" stroke-miterlimit="10" stroke-width="1.149"/>
              <path id="Trazado_656916" data-name="Trazado 656916" d="M78.246,169.96a103.011,103.011,0,0,1,30.914-12.682" fill="none" stroke="#004750" stroke-miterlimit="10" stroke-width="1.149"/>
              <path id="Trazado_656917" data-name="Trazado 656917" d="M75.557,180.122A210.8,210.8,0,0,0,54.11,149.11" fill="none" stroke="#004750" stroke-miterlimit="10" stroke-width="1.149"/>
              <path id="Trazado_656918" data-name="Trazado 656918" d="M72.853,208.052a116.618,116.618,0,0,0-28.366-28.67" fill="none" stroke="#004750" stroke-miterlimit="10" stroke-width="1.149"/>
              <path id="Trazado_656919" data-name="Trazado 656919" d="M75.11,197.11A191.938,191.938,0,0,1,114.1,171.959" fill="none" stroke="#004750" stroke-miterlimit="10" stroke-width="1.149"/>
              <path id="Trazado_656920" data-name="Trazado 656920" d="M75.011,229.77a132.465,132.465,0,0,1,24.15-23.577" fill="none" stroke="#004750" stroke-miterlimit="10" stroke-width="1.149"/>
              <path id="Trazado_656921" data-name="Trazado 656921" d="M77.289,250.878a146.266,146.266,0,0,0-32.453-30.54" fill="none" stroke="#004750" stroke-miterlimit="10" stroke-width="1.149"/>
              <path id="Trazado_656922" data-name="Trazado 656922" d="M92.739,293.412a259.294,259.294,0,0,0-27.593-24.049" fill="none" stroke="#004750" stroke-miterlimit="10" stroke-width="1.149"/>
              <path id="Trazado_656923" data-name="Trazado 656923" d="M86.427,272.224a140.931,140.931,0,0,1,17.488-34.269" fill="none" stroke="#004750" stroke-miterlimit="10" stroke-width="1.149"/>
              <path id="Trazado_656924" data-name="Trazado 656924" d="M99.083,301.567a146.769,146.769,0,0,1,11.856-31.6" fill="none" stroke="#004750" stroke-miterlimit="10" stroke-width="1.149"/>
              <path id="Trazado_656925" data-name="Trazado 656925" d="M108.118,316.808a65.014,65.014,0,0,0-9.917-4.371c-2.025-.7-4.082-1.294-6.138-1.89l-14.827-4.3" fill="none" stroke="#004750" stroke-miterlimit="10" stroke-width="1.149"/>
              <path id="Trazado_656926" data-name="Trazado 656926" d="M121.7,330.946a232.219,232.219,0,0,1,.491-37.015" fill="none" stroke="#004750" stroke-miterlimit="10" stroke-width="1.149"/>
              <path id="Trazado_656927" data-name="Trazado 656927" d="M128.3,338.73a205.035,205.035,0,0,0-36.36-10.739" fill="none" stroke="#004750" stroke-miterlimit="10" stroke-width="1.149"/>
              <path id="Trazado_656928" data-name="Trazado 656928" d="M142.594,349.6a131.461,131.461,0,0,1,.071-35.691" fill="none" stroke="#004750" stroke-miterlimit="10" stroke-width="1.149"/>
              <path id="Trazado_656929" data-name="Trazado 656929" d="M152.824,359.165a166.792,166.792,0,0,0-39.27-5.39" fill="none" stroke="#004750" stroke-miterlimit="10" stroke-width="1.149"/>
              <path id="Trazado_656930" data-name="Trazado 656930" d="M163.538,362.6q-1.8-15.484-3.6-30.969" fill="none" stroke="#004750" stroke-miterlimit="10" stroke-width="1.149"/>
              <path id="Trazado_656931" data-name="Trazado 656931" d="M173.578,370.966c-10.94.287-22.03-2.96-32.711-.577" fill="none" stroke="#004750" stroke-miterlimit="10" stroke-width="1.149"/>
              <path id="Trazado_656932" data-name="Trazado 656932" d="M182.255,373.321c-.327-3.483-.656-6.973-1.312-10.41-1.4-7.358-4.313-14.487-4.473-21.977" fill="none" stroke="#004750" stroke-miterlimit="10" stroke-width="1.149"/>
              <path id="Trazado_656933" data-name="Trazado 656933" d="M197.879,382.1a139.671,139.671,0,0,0-32.039,4.674" fill="none" stroke="#004750" stroke-miterlimit="10" stroke-width="1.149"/>
              <path id="Trazado_656934" data-name="Trazado 656934" d="M208.621,380.935a83.048,83.048,0,0,0-7.115-34.648" fill="none" stroke="#004750" stroke-miterlimit="10" stroke-width="1.149"/>
              <path id="Trazado_656935" data-name="Trazado 656935" d="M112.069,178.984a34.156,34.156,0,0,1-2.8,4.077" fill="none" stroke="#004750" stroke-miterlimit="10" stroke-width="1.149"/>
              <path id="Trazado_656936" data-name="Trazado 656936" d="M108.376,179.3l-2.915,4.567" fill="none" stroke="#004750" stroke-miterlimit="10" stroke-width="1.149"/>
              <path id="Trazado_656937" data-name="Trazado 656937" d="M52.925,190.483a20.291,20.291,0,0,0,.306,4.3" fill="none" stroke="#004750" stroke-miterlimit="10" stroke-width="1.149"/>
              <path id="Trazado_656938" data-name="Trazado 656938" d="M101.751,334.074a5.277,5.277,0,0,0-2.59,1.431" fill="none" stroke="#004750" stroke-miterlimit="10" stroke-width="1.149"/>
              <path id="Trazado_656939" data-name="Trazado 656939" d="M99.722,332.315l-3.183,1.678" fill="none" stroke="#004750" stroke-miterlimit="10" stroke-width="1.149"/>
              <path id="Trazado_656940" data-name="Trazado 656940" d="M199.636,341.234l-1.4,3.173" fill="none" stroke="#004750" stroke-miterlimit="10" stroke-width="1.149"/>
              <path id="Trazado_656941" data-name="Trazado 656941" d="M197.383,338.956q-.718,1.866-1.436,3.733" fill="none" stroke="#004750" stroke-miterlimit="10" stroke-width="1.149"/>
              <path id="Trazado_656942" data-name="Trazado 656942" d="M109,104.7a39.6,39.6,0,0,0,18.31-39.492,63.083,63.083,0,0,0-14.354,17.53A37.865,37.865,0,0,0,109,104.7" fill="#00a4be"/>
              <path id="Trazado_656943" data-name="Trazado 656943" d="M109,103.584a241.987,241.987,0,0,0,13.388-27.238" fill="none" stroke="#004750" stroke-miterlimit="10" stroke-width="1.149"/>
            </g>
          </g>
        </g>
      </g>
    </g>
    <path id="Trazado_656944" data-name="Trazado 656944" d="M405.851,0,353,124.5l-8.064,19.005-1.963-4.585-.895-2.068L283.346,0H214.471L319.225,140.932l12.851,17.286,12.86,17.3,9.187-12.983L469.151,0Z" fill="#d30b0b"/>
    <path id="Trazado_656945" data-name="Trazado 656945" d="M431.8,0,377.922,96.313l-.008.009L347.18,151.267l-5.934-9.283-1.552-2.42L302.28,81.05v-.008L250.447,0h-8.328l66.763,104.4.008.009v.009l25.974,40.612,2.481,3.867,4.2,6.574,6.04,9.441,2.578-4.6L399.8,71.548l.017-.026.017-.018L439.829,0Z" fill="#fff"/>
    <g id="Grupo_949360" data-name="Grupo 949360">
      <g id="Grupo_949359" data-name="Grupo 949359" clip-path="url(#clip-path)">
        <g id="Grupo_949358" data-name="Grupo 949358" opacity="0.63">
          <g id="Grupo_949357" data-name="Grupo 949357">
            <g id="Grupo_949356" data-name="Grupo 949356" clip-path="url(#clip-path-5)">
              <path id="Trazado_656946" data-name="Trazado 656946" d="M469.151,0,354.123,162.54l-3.962-2.235-8.617-4.839-6-3.384-4.62-2.6,3.945-4.462,4.83-5.461,2.384-2.709,2.411-2.717L353,124.5l24.913-28.183.009-.008L399.8,71.548l.017-.026L463.05,0Z" fill="#9e0a0a"/>
              <path id="Trazado_656947" data-name="Trazado 656947" d="M332.077,158.218l3.463-6.136,1.8-3.191,3.9-6.908,1.727-3.059,1.727-3.059-.21-1.727-2.411,2.717L283.346,0H279.34L302.28,81.042v.009l6.6,23.343.009.009.009.018,10.326,36.51Z" fill="#9e0a0a"/>
            </g>
          </g>
        </g>
        <path id="Trazado_656948" data-name="Trazado 656948" d="M408.231,195.966c0,30.787-26.9,55.745-60.094,55.745s-60.1-24.958-60.1-55.745,26.9-55.745,60.1-55.745,60.094,24.958,60.094,55.745" fill="#c46e27"/>
        <path id="Trazado_656949" data-name="Trazado 656949" d="M347.84,250.884a55.332,55.332,0,1,1,55.331-55.332,55.394,55.394,0,0,1-55.331,55.332m0-108.91a53.578,53.578,0,1,0,53.578,53.578,53.639,53.639,0,0,0-53.578-53.578" fill="#e58e38"/>
        <path id="Trazado_656950" data-name="Trazado 656950" d="M395.58,193.989a53.768,53.768,0,1,1-53.769-53.769,53.769,53.769,0,0,1,53.769,53.769" fill="#e58e38"/>
      </g>
    </g>
    <g id="Grupo_949362" data-name="Grupo 949362">
      <g id="Grupo_949361" data-name="Grupo 949361" clip-path="url(#clip-path-6)">
        <path id="Trazado_656951" data-name="Trazado 656951" d="M284.368,170.943l99.01,81.456,15.292-13.231-110.627-74.04Z" fill="#ffce78"/>
        <path id="Trazado_656952" data-name="Trazado 656952" d="M290.81,158.012l114.456,77.147,5.337-3.918-115.049-75.6Z" fill="#ffce78"/>
      </g>
    </g>
    <g id="Grupo_949364" data-name="Grupo 949364">
      <g id="Grupo_949363" data-name="Grupo 949363" clip-path="url(#clip-path)">
        <path id="Trazado_656954" data-name="Trazado 656954" d="M326.731,203.687a12.154,12.154,0,0,1-1.94-.275s-4.341,17.565-1.339,21.716a36.6,36.6,0,0,1-9.4-9.128c12.3-7.892,5.67-21.015,5.67-21.015a13.76,13.76,0,0,0-1.94-.276s-7.758,12.2-6.679,16.379a36.732,36.732,0,0,1-3.836-15.039c15.267-3.956,12.962-19.691,12.962-19.691a11.4,11.4,0,0,1-1.94-.275s-6.624,3.39-8.53,5.226a36.644,36.644,0,0,1,6.1-10.3,1.212,1.212,0,0,0-.147-1.708c-.512-.432-2.514-.8-2.945-.285-5.922,7.037-7.947,16.418-7.947,25.631,0,.7.025,1.389.061,2.079a18.5,18.5,0,0,0-9.091-5.156,7.58,7.58,0,0,0-1.778.005s9.724,15.3,12.842,15.569a38.945,38.945,0,0,0,4.176,8.706c-5.751-4.841-13.3-1.787-13.3-1.787,6.219,13.088,16.4,6.7,16.806,6.439a39.077,39.077,0,0,0,4.843,4.638c-6.284-.593-11.285,3.616-11.285,3.616,9.849,10.4,17.467,4.049,19.512,1.937a8.849,8.849,0,0,0,1.94.276,1.213,1.213,0,0,0,.463-2.334c-.634-.261-1.255-.544-1.868-.836,9.828-12.468-1.411-24.115-1.411-24.115" fill="#c46e27"/>
        <path id="Trazado_656955" data-name="Trazado 656955" d="M376.887,215.853a38.924,38.924,0,0,0,4.176-8.706c3.274-.281,12.145-2.24,10.9-15.293l-1.941-.276s-4.646,2.519-6.988,5.152c.036-.69.061-1.383.061-2.08a39.2,39.2,0,0,0-9.183-25.2c-.431-.513-2.621-.865-3.134-.433s.847,1.482,1.279,1.994a36.655,36.655,0,0,1,6.094,10.3,21.67,21.67,0,0,0-10.672-5.537l-1.738.311s2.853,16.844,14.9,19.967a36.721,36.721,0,0,1-3.835,15.037c1.129-4.376.576-10.745-8.62-16.1l-1.94-.275s-1.909,15.184,7.61,21.29a36.583,36.583,0,0,1-9.4,9.129c3.067-4.243,5.612-11.788-3.28-21.442l-1.94-.275s-7.138,14.664.529,24.39c-.613.293-1.234.575-1.868.836-.619.254-2.378,1.251-2.123,1.871.192.468,2.109.463,2.586.463a1.2,1.2,0,0,0,.461-.092c.407-.167.809-.344,1.208-.523,2.045,2.111,9.935,8.8,19.783-1.6,0,0-5-4.208-11.285-3.616a38.934,38.934,0,0,0,4.843-4.638c.41.264,10.588,6.649,16.807-6.439,0,0-7.547-3.054-13.3,1.787" fill="#c46e27"/>
        <path id="Trazado_656956" data-name="Trazado 656956" d="M324.791,203.412c-8.891,9.654-6.347,17.2-3.279,21.441a36.6,36.6,0,0,1-9.4-9.128c12.3-7.892,5.67-21.015,5.67-21.015-9.2,5.357-9.749,11.726-8.619,16.1a36.732,36.732,0,0,1-3.836-15.039c15.267-3.956,12.962-19.691,12.962-19.691-4.962,1.032-8.276,2.838-10.47,4.951a36.644,36.644,0,0,1,6.1-10.3,1.213,1.213,0,0,0-1.855-1.562,39.193,39.193,0,0,0-9.184,25.2c0,.7.025,1.389.061,2.079a16.7,16.7,0,0,0-8.928-4.876c-1.244,13.053,7.627,15.013,10.9,15.294a38.946,38.946,0,0,0,4.176,8.706c-5.751-4.841-13.3-1.787-13.3-1.787,6.219,13.088,16.4,6.7,16.806,6.439a39.075,39.075,0,0,0,4.843,4.638c-6.284-.593-11.285,3.616-11.285,3.616,9.849,10.4,17.738,3.709,19.783,1.6.4.18.8.356,1.208.524a1.212,1.212,0,1,0,.924-2.242c-.634-.261-1.255-.544-1.868-.836,9.828-12.468-1.411-24.115-1.411-24.115" fill="#e07b36"/>
        <path id="Trazado_656957" data-name="Trazado 656957" d="M374.947,215.578a38.925,38.925,0,0,0,4.176-8.706c3.274-.281,12.145-2.24,10.9-15.293a16.69,16.69,0,0,0-8.929,4.876c.036-.69.061-1.383.061-2.08a39.2,39.2,0,0,0-9.183-25.2,1.212,1.212,0,1,0-1.855,1.561,36.654,36.654,0,0,1,6.094,10.3c-2.194-2.113-5.507-3.919-10.47-4.95,0,0-2.305,15.734,12.962,19.691a36.721,36.721,0,0,1-3.835,15.037c1.129-4.376.576-10.745-8.62-16.1,0,0-6.633,13.124,5.67,21.015a36.584,36.584,0,0,1-9.4,9.129c3.067-4.243,5.612-11.788-3.28-21.442,0,0-11.238,11.647-1.411,24.115-.613.293-1.234.575-1.868.836a1.213,1.213,0,0,0,.463,2.334,1.2,1.2,0,0,0,.461-.092c.407-.167.809-.344,1.208-.523,2.045,2.111,9.935,8.8,19.783-1.6,0,0-5-4.208-11.285-3.616a38.932,38.932,0,0,0,4.843-4.638c.41.264,10.588,6.649,16.807-6.439,0,0-7.547-3.054-13.3,1.787" fill="#e07b36"/>
        <path id="Trazado_656958" data-name="Trazado 656958" d="M356.106,164.1c0,4.979-2.942,8.449-6.714,10.335a11.979,11.979,0,0,1,8.9,11.769c0,7.619-4.526,15.918-17.728,15.918-4.527,0-11.391-2.264-15.994-4.375l3.924-9.129c2.867,1.433,7.468,3.622,10.863,3.622a6.146,6.146,0,0,0,6.186-6.489,5.231,5.231,0,0,0-5.432-5.054,39.069,39.069,0,0,0-6.563,1.056l-3.47-8.45c6.714-1.961,13.2-4,13.2-7.694,0-1.735-1.13-2.867-3.168-2.867-3.47,0-6.336,1.433-10.26,3.471l-4.375-8.9c5.13-2.565,10.713-4.527,16.22-4.527,8.449,0,14.409,4,14.409,11.316" fill="#c46e27"/>
      </g>
    </g>
    <g id="Grupo_949366" data-name="Grupo 949366">
      <g id="Grupo_949365" data-name="Grupo 949365" clip-path="url(#clip-path-8)">
        <path id="Trazado_656959" data-name="Trazado 656959" d="M358.1,167.47c0,3.968-8.708,6.969-8.708,6.969a29.233,29.233,0,0,0,.025,3.018c5.809,1.66,10.87,6.912,10.87,12.117,0,7.619-4.526,15.918-17.728,15.918-4.527,0-12-2.85-16.6-4.962l3.681-8.563a23.643,23.643,0,0,0,9.983,2.622c3.185,0,6.008-2.711,6.744-7,.523-3.048-1.66-5.545-3.857-6.551-2.058-.943-8.192,2.167-8.645,2.242l-2.788-7.541c6.714-1.961,13.817-3.425,13.328-8.068-.181-1.726-.935-4.729-2.972-4.729-3.471,0-6.4,4.494-10.319,6.532l-4.459-9.762a45.343,45.343,0,0,1,16.771-4.439c9.884-.632,14.674,4.881,14.674,12.2" fill="#e07b36"/>
      </g>
    </g>
    <g id="Grupo_949371" data-name="Grupo 949371">
      <g id="Grupo_949370" data-name="Grupo 949370" clip-path="url(#clip-path)">
        <path id="Trazado_656961" data-name="Trazado 656961" d="M285.529,0,170.5,162.54l-9.187,12.983-12.86-17.3L135.6,140.932,30.849,0H99.724l58.732,136.855.895,2.069,1.963,4.585,8.065-19.005L222.229,0Z" fill="#1a84c5"/>
        <path id="Trazado_656962" data-name="Trazado 656962" d="M256.206,0,216.215,71.505l-.017.017-.018.026L166.538,160.3l-2.577,4.6-6.04-9.441-4.2-6.575-2.481-3.866-25.974-40.613V104.4l-.008-.009L58.5,0h8.327l51.834,81.042v.009l37.413,58.513,1.552,2.42,5.935,9.283,30.733-54.946.009-.008L248.176,0Z" fill="#fff"/>
        <g id="Grupo_949369" data-name="Grupo 949369" opacity="0.63">
          <g id="Grupo_949368" data-name="Grupo 949368">
            <g id="Grupo_949367" data-name="Grupo 949367" clip-path="url(#clip-path-10)">
              <path id="Trazado_656963" data-name="Trazado 656963" d="M285.529,0,170.5,162.54l-3.962-2.235-8.617-4.839-6-3.384-4.62-2.6,3.945-4.462,4.83-5.461,2.384-2.709,2.411-2.717,8.512-9.634,24.913-28.183.009-.008,21.88-24.765.017-.026L279.428,0Z" fill="#064d63"/>
              <path id="Trazado_656964" data-name="Trazado 656964" d="M148.454,158.218l3.463-6.136,1.8-3.191,3.9-6.908,1.727-3.059,1.727-3.059-.21-1.727-2.411,2.717L99.724,0H95.717l22.941,81.042v.009l6.6,23.343.009.009.009.018,10.326,36.51Z" fill="#064d63"/>
            </g>
          </g>
        </g>
        <path id="Trazado_656965" data-name="Trazado 656965" d="M226,193.646c0,32.069-28.025,58.066-62.6,58.066s-62.6-26-62.6-58.066,28.025-58.066,62.6-58.066,62.6,26,62.6,58.066" fill="#aa9987"/>
        <path id="Trazado_656966" data-name="Trazado 656966" d="M163.1,250.776a57.6,57.6,0,1,1,57.6-57.6,57.663,57.663,0,0,1-57.6,57.6m0-113.442a55.844,55.844,0,1,0,55.844,55.844A55.908,55.908,0,0,0,163.1,137.334" fill="#d8c9b6"/>
        <path id="Trazado_656967" data-name="Trazado 656967" d="M212.826,191.587a56.007,56.007,0,1,1-56.007-56.007,56.007,56.007,0,0,1,56.007,56.007" fill="#d8c9b6"/>
      </g>
    </g>
    <g id="Grupo_949373" data-name="Grupo 949373">
      <g id="Grupo_949372" data-name="Grupo 949372" clip-path="url(#clip-path-11)">
        <path id="Trazado_656968" data-name="Trazado 656968" d="M96.985,167.582l103.131,84.846,15.929-13.782L100.813,161.524Z" fill="#f4e5d3"/>
        <path id="Trazado_656969" data-name="Trazado 656969" d="M103.7,154.112l119.22,80.358,5.559-4.082L108.638,151.641Z" fill="#f4e5d3"/>
      </g>
    </g>
    <g id="Grupo_949375" data-name="Grupo 949375">
      <g id="Grupo_949374" data-name="Grupo 949374" clip-path="url(#clip-path)">
        <path id="Trazado_656971" data-name="Trazado 656971" d="M141.112,201.688a12.678,12.678,0,0,1-2.021-.287s-4.521,18.3-1.4,22.621a38.1,38.1,0,0,1-9.787-9.509c12.815-8.22,5.906-21.889,5.906-21.889a14.18,14.18,0,0,0-2.021-.287s-8.081,12.706-6.958,17.06a38.26,38.26,0,0,1-3.995-15.664c15.9-4.122,13.5-20.511,13.5-20.511a11.938,11.938,0,0,1-2.021-.287s-6.9,3.531-8.885,5.444a38.173,38.173,0,0,1,6.349-10.726,1.263,1.263,0,0,0-.153-1.779c-.534-.45-2.619-.83-3.068-.3-6.168,7.33-8.278,17.1-8.278,26.7,0,.726.026,1.447.064,2.165a19.275,19.275,0,0,0-9.47-5.37,7.872,7.872,0,0,0-1.852,0s10.129,15.938,13.376,16.217a40.622,40.622,0,0,0,4.35,9.068c-5.99-5.042-13.85-1.861-13.85-1.861,6.478,13.633,17.08,6.982,17.506,6.707a40.67,40.67,0,0,0,5.044,4.831C126.91,223.42,121.7,227.8,121.7,227.8c10.259,10.831,18.194,4.218,20.324,2.019a9.241,9.241,0,0,0,2.021.286,1.263,1.263,0,0,0,.482-2.431c-.66-.272-1.306-.566-1.945-.871,10.237-12.986-1.47-25.118-1.47-25.118" fill="#aa9987"/>
        <path id="Trazado_656972" data-name="Trazado 656972" d="M193.356,214.36a40.558,40.558,0,0,0,4.35-9.068c3.41-.293,12.651-2.333,11.355-15.93l-2.021-.287s-4.839,2.623-7.279,5.366c.037-.719.063-1.44.063-2.166a40.827,40.827,0,0,0-9.565-26.249c-.449-.533-2.73-.9-3.265-.45s.884,1.543,1.333,2.077a38.178,38.178,0,0,1,6.348,10.725,22.577,22.577,0,0,0-11.116-5.767l-1.811.324s2.972,17.544,15.522,20.8a38.236,38.236,0,0,1-4,15.664c1.177-4.559.6-11.193-8.978-16.773l-2.021-.286s-1.988,15.816,7.927,22.176a38.136,38.136,0,0,1-9.787,9.509c3.195-4.42,5.845-12.278-3.416-22.334l-2.021-.287s-7.435,15.274.551,25.4c-.639.3-1.285.6-1.946.871-.645.265-2.477,1.3-2.212,1.949.2.488,2.2.482,2.694.482a1.256,1.256,0,0,0,.48-.1q.636-.263,1.259-.546c2.13,2.2,10.348,9.167,20.606-1.664,0,0-5.209-4.383-11.755-3.766a40.609,40.609,0,0,0,5.045-4.831c.427.275,11.028,6.925,17.506-6.707,0,0-7.86-3.181-13.851,1.861" fill="#aa9987"/>
        <path id="Trazado_656973" data-name="Trazado 656973" d="M139.091,201.4c-9.261,10.056-6.611,17.914-3.416,22.334a38.1,38.1,0,0,1-9.787-9.509c12.815-8.22,5.906-21.889,5.906-21.889-9.58,5.58-10.155,12.214-8.979,16.773a38.26,38.26,0,0,1-4-15.664c15.9-4.122,13.5-20.511,13.5-20.511-5.169,1.074-8.621,2.955-10.906,5.157a38.172,38.172,0,0,1,6.349-10.726,1.263,1.263,0,0,0-1.933-1.627,40.82,40.82,0,0,0-9.566,26.249c0,.726.026,1.447.064,2.165a17.391,17.391,0,0,0-9.3-5.078c-1.295,13.6,7.945,15.637,11.355,15.93a40.643,40.643,0,0,0,4.35,9.068c-5.99-5.042-13.85-1.861-13.85-1.861,6.478,13.633,17.08,6.982,17.506,6.707a40.669,40.669,0,0,0,5.044,4.831c-6.545-.617-11.755,3.766-11.755,3.766,10.259,10.831,18.477,3.864,20.607,1.664.416.188.834.371,1.258.546a1.263,1.263,0,0,0,.962-2.336c-.66-.272-1.306-.566-1.945-.871,10.237-12.986-1.47-25.118-1.47-25.118" fill="#c6b39d"/>
        <path id="Trazado_656974" data-name="Trazado 656974" d="M191.335,214.074a40.558,40.558,0,0,0,4.35-9.068c3.41-.293,12.651-2.333,11.355-15.93a17.384,17.384,0,0,0-9.3,5.079c.037-.719.063-1.44.063-2.166a40.827,40.827,0,0,0-9.565-26.249,1.263,1.263,0,1,0-1.932,1.627,38.178,38.178,0,0,1,6.348,10.725c-2.286-2.2-5.737-4.082-10.906-5.156,0,0-2.4,16.389,13.5,20.51a38.236,38.236,0,0,1-3.995,15.664c1.177-4.559.6-11.193-8.978-16.773,0,0-6.909,13.67,5.906,21.89a38.136,38.136,0,0,1-9.787,9.509c3.195-4.42,5.845-12.278-3.416-22.334,0,0-11.707,12.132-1.47,25.118-.639.3-1.285.6-1.946.871a1.263,1.263,0,0,0,.962,2.336q.636-.263,1.259-.546c2.13,2.2,10.348,9.167,20.606-1.664,0,0-5.209-4.383-11.755-3.766a40.607,40.607,0,0,0,5.045-4.831c.427.275,11.028,6.925,17.506-6.707,0,0-7.861-3.181-13.851,1.861" fill="#c6b39d"/>
        <path id="Trazado_656975" data-name="Trazado 656975" d="M141.361,156.126c3.921-1.82,10.362-4.41,15.962-4.41,7.842,0,13.932,3.57,13.932,12.672,0,6.021-3.151,11.621-9.8,18.622l-4.2,4.411h15.192v9.451H141.291l-1.26-2.941c2.94-4.13,6.7-9.816,9.941-13.792,6.443-7.91,9.451-11.2,9.451-14.772a4.082,4.082,0,0,0-4.13-4.41c-2.521,0-5.531,1.33-9.872,3.361Z" fill="#aa9987"/>
      </g>
    </g>
    <g id="Grupo_949377" data-name="Grupo 949377">
      <g id="Grupo_949376" data-name="Grupo 949376" clip-path="url(#clip-path-13)">
        <path id="Trazado_656976" data-name="Trazado 656976" d="M144.169,157.41c4.418-2.682,11.969-5.051,17.515-4.1,8.6,1.472,10.157,6.636,10.761,11.818.7,5.98-2.884,9.76-8.4,17.689-.626.9-3.315,3.945-3.315,3.945h15.193l-.327,11.2H144.446l-1.26-2.94c2.94-4.131,6.7-9.816,9.941-13.792,6.443-7.911,9.819-11.407,8.793-15.773a7.7,7.7,0,0,0-5.683-4.406c-2.52,0-5.2.641-9.537,2.672Z" fill="#c6b39d"/>
      </g>
    </g>
    <g id="Grupo_949385" data-name="Grupo 949385">
      <g id="Grupo_949384" data-name="Grupo 949384" clip-path="url(#clip-path)">
        <path id="Trazado_656978" data-name="Trazado 656978" d="M385.748,0,263.125,271.873,253.332,293.6l-13.709-28.941-13.7-28.922-.009-.01L114.253,0h73.422l62.61,228.911.953,3.467v.009l2.094,7.663,8.616-31.838L318.269,0Z" fill="#f2881d"/>
        <path id="Trazado_656979" data-name="Trazado 656979" d="M354.489,0,311.83,119.665v.009L258.891,268.135l-2.747,7.71L249.7,260.024l-4.467-10.952-2.644-6.495-27.68-67.927v-.01L143.726,0H152.6L207.859,135.6l39.875,97.84,1.654,4.074,6.326,15.513L288.486,161.1,345.92,0Z" fill="#fff"/>
        <g id="Grupo_949380" data-name="Grupo 949380" opacity="0.63">
          <g id="Grupo_949379" data-name="Grupo 949379">
            <g id="Grupo_949378" data-name="Grupo 949378" clip-path="url(#clip-path-15)">
              <path id="Trazado_656980" data-name="Trazado 656980" d="M385.748,0,263.125,271.873l-4.233-3.738-9.195-8.111-6.383-5.626-4.934-4.354,4.205-7.467,5.149-9.139,2.551-4.523,2.561-4.56v-.01l9.1-16.129L288.487,161.1l23.343-41.426v-.009L379.244,0Z" fill="#9b4600"/>
            </g>
          </g>
        </g>
        <g id="Grupo_949383" data-name="Grupo 949383" opacity="0.63">
          <g id="Grupo_949382" data-name="Grupo 949382">
            <g id="Grupo_949381" data-name="Grupo 949381" clip-path="url(#clip-path-16)">
              <path id="Trazado_656981" data-name="Trazado 656981" d="M253.079,227.261l-1.841,5.121v.009l-1.85,5.121-4.159,11.56-1.915,5.326-3.692,10.261-5.653,15.709-8.046-44.631-.009-.01L214.905,174.65v-.01L207.859,135.6,183.4,0h4.271l62.61,228.911,2.56-4.56Z" fill="#9b4600"/>
            </g>
          </g>
        </g>
        <path id="Trazado_656982" data-name="Trazado 656982" d="M328.316,286.331c0,39.435-34.462,71.4-76.974,71.4s-76.973-31.968-76.973-71.4,34.462-71.4,76.973-71.4,76.974,31.968,76.974,71.4" fill="#e2a01a"/>
        <path id="Trazado_656983" data-name="Trazado 656983" d="M250.962,356.3a70.685,70.685,0,1,1,70.684-70.684A70.765,70.765,0,0,1,250.962,356.3m0-139.5a68.816,68.816,0,1,0,68.815,68.816A68.894,68.894,0,0,0,250.962,216.8" fill="#ffbc36"/>
        <path id="Trazado_656984" data-name="Trazado 656984" d="M312.111,283.8a68.871,68.871,0,1,1-68.871-68.871A68.872,68.872,0,0,1,312.111,283.8" fill="#ffbc36"/>
      </g>
    </g>
    <g id="Grupo_949387" data-name="Grupo 949387">
      <g id="Grupo_949386" data-name="Grupo 949386" clip-path="url(#clip-path-17)">
        <path id="Trazado_656985" data-name="Trazado 656985" d="M169.662,254.281l126.82,104.335,19.588-16.948-141.7-94.836Z" fill="#ffce78"/>
        <path id="Trazado_656986" data-name="Trazado 656986" d="M177.913,237.716l146.6,98.816,6.837-5.019L183.99,234.678Z" fill="#ffce78"/>
      </g>
    </g>
    <g id="Grupo_949389" data-name="Grupo 949389">
      <g id="Grupo_949388" data-name="Grupo 949388" clip-path="url(#clip-path)">
        <path id="Trazado_656988" data-name="Trazado 656988" d="M223.924,296.221a15.55,15.55,0,0,1-2.485-.353s-5.56,22.5-1.716,27.817a46.868,46.868,0,0,1-12.035-11.693c15.758-10.108,7.263-26.918,7.263-26.918a17.565,17.565,0,0,0-2.486-.352s-9.937,15.625-8.555,20.978A47.028,47.028,0,0,1,199,286.438c19.555-5.068,16.6-25.222,16.6-25.222a14.7,14.7,0,0,1-2.485-.352s-8.484,4.341-10.926,6.693A46.93,46.93,0,0,1,210,254.368a1.553,1.553,0,0,0-.188-2.188c-.657-.553-3.22-1.02-3.772-.365-7.586,9.014-10.18,21.03-10.18,32.83,0,.893.032,1.78.078,2.664-4.608-5.179-11.644-6.6-11.644-6.6a9.693,9.693,0,0,0-2.277.006s12.455,19.6,16.448,19.941A49.921,49.921,0,0,0,203.81,311.8c-7.366-6.2-17.032-2.289-17.032-2.289,7.966,16.764,21,8.585,21.527,8.248a49.965,49.965,0,0,0,6.2,5.94c-8.049-.759-14.456,4.632-14.456,4.632,12.615,13.318,22.373,5.187,24.993,2.482a11.353,11.353,0,0,0,2.485.352,1.553,1.553,0,0,0,.593-2.989c-.813-.334-1.607-.7-2.392-1.071,12.588-15.969-1.808-30.888-1.808-30.888" fill="#d1900f"/>
        <path id="Trazado_656989" data-name="Trazado 656989" d="M288.168,311.8a49.934,49.934,0,0,0,5.349-11.151c4.193-.36,15.557-2.869,13.964-19.589l-2.486-.353s-5.951,3.226-8.951,6.6c.046-.883.078-1.77.078-2.663a50.209,50.209,0,0,0-11.762-32.278c-.552-.656-3.357-1.108-4.015-.554s1.086,1.9,1.638,2.555a46.949,46.949,0,0,1,7.807,13.188,27.758,27.758,0,0,0-13.67-7.091l-2.226.4s3.654,21.574,19.088,25.574a47.043,47.043,0,0,1-4.913,19.262c1.447-5.606.738-13.764-11.041-20.625l-2.485-.353s-2.445,19.449,9.747,27.271a46.882,46.882,0,0,1-12.035,11.692c3.929-5.434,7.188-15.1-4.2-27.464l-2.486-.352s-9.142,18.782.678,31.24c-.785.375-1.58.737-2.393,1.071-.792.326-3.046,1.6-2.719,2.4.247.6,2.7.592,3.312.592a1.549,1.549,0,0,0,.591-.117c.521-.214,1.036-.44,1.547-.671,2.619,2.7,12.725,11.273,25.34-2.046,0,0-6.406-5.39-14.455-4.632a49.886,49.886,0,0,0,6.2-5.94c.525.338,13.562,8.516,21.528-8.248,0,0-9.666-3.911-17.033,2.289" fill="#d1900f"/>
        <path id="Trazado_656990" data-name="Trazado 656990" d="M221.439,295.869c-11.389,12.366-8.129,22.029-4.2,27.464A46.868,46.868,0,0,1,205.2,311.64c15.758-10.108,7.263-26.918,7.263-26.918-11.78,6.862-12.488,15.021-11.041,20.626a47.027,47.027,0,0,1-4.913-19.262c19.555-5.068,16.6-25.222,16.6-25.222-6.357,1.322-10.6,3.634-13.411,6.341a46.93,46.93,0,0,1,7.807-13.189,1.553,1.553,0,0,0-2.377-2,50.2,50.2,0,0,0-11.763,32.277c0,.893.032,1.78.078,2.664a21.384,21.384,0,0,0-11.436-6.246c-1.593,16.72,9.77,19.229,13.963,19.589a49.922,49.922,0,0,0,5.349,11.152c-7.366-6.2-17.032-2.289-17.032-2.289,7.966,16.764,21,8.585,21.527,8.248a49.966,49.966,0,0,0,6.2,5.94c-8.049-.759-14.456,4.632-14.456,4.632,12.615,13.318,22.721,4.751,25.34,2.046.512.231,1.026.456,1.547.671a1.553,1.553,0,0,0,1.184-2.872c-.813-.334-1.607-.7-2.392-1.071,12.588-15.969-1.808-30.888-1.808-30.888" fill="#f7b31c"/>
        <path id="Trazado_656991" data-name="Trazado 656991" d="M285.683,311.451a49.927,49.927,0,0,0,5.349-11.15c4.193-.36,15.557-2.869,13.964-19.589a21.38,21.38,0,0,0-11.437,6.245c.046-.884.078-1.77.078-2.663a50.206,50.206,0,0,0-11.762-32.278,1.554,1.554,0,1,0-2.377,2A46.956,46.956,0,0,1,287.3,267.2c-2.811-2.705-7.055-5.018-13.411-6.34,0,0-2.952,20.154,16.6,25.222a47.043,47.043,0,0,1-4.913,19.262c1.447-5.606.738-13.764-11.041-20.625,0,0-8.5,16.809,7.262,26.918a46.88,46.88,0,0,1-12.035,11.692c3.929-5.434,7.188-15.1-4.2-27.465,0,0-14.4,14.92-1.808,30.889-.786.375-1.58.736-2.393,1.07a1.554,1.554,0,0,0,1.184,2.873c.521-.215,1.036-.44,1.547-.671,2.619,2.705,12.725,11.273,25.34-2.046,0,0-6.406-5.39-14.455-4.632a49.889,49.889,0,0,0,6.2-5.94c.525.338,13.562,8.516,21.528-8.248,0,0-9.666-3.911-17.033,2.288" fill="#f7b31c"/>
        <path id="Trazado_656992" data-name="Trazado 656992" d="M253.676,244.2v67.845H236.928V262.432a43.172,43.172,0,0,1-12.3,6.679L218.8,258.3c7.208-3.074,15.053-6.785,21.943-14.1Z" fill="#cc8b0a"/>
      </g>
    </g>
    <g id="Grupo_949391" data-name="Grupo 949391">
      <g id="Grupo_949390" data-name="Grupo 949390" clip-path="url(#clip-path-19)">
        <path id="Trazado_656993" data-name="Trazado 656993" d="M257.27,246.568l2.747,65.476H239.874l.127-47.6c-1.328-1-3.107-2.055-3.107-2.055s-2.5,3.019-9.894,6.131l-4.818-9.355c7.209-3.074,12.945-5.029,19.834-12.344Z" fill="#f7b31c"/>
      </g>
    </g>
  </g>
</svg>
