<svg id="Grupo_953321" data-name="Grupo 953321" xmlns="http://www.w3.org/2000/svg" xmlns:xlink="http://www.w3.org/1999/xlink" width="498.709" height="348.33" viewBox="0 0 498.709 348.33">
  <defs>
    <clipPath id="clip-path">
      <rect id="Rectángulo_352016" data-name="Rectángulo 352016" width="498.709" height="348.33" fill="none"/>
    </clipPath>
    <clipPath id="clip-path-4">
      <rect id="Rectángulo_352003" data-name="Rectángulo 352003" width="23.381" height="24.199" fill="none"/>
    </clipPath>
    <clipPath id="clip-path-5">
      <rect id="Rectángulo_352004" data-name="Rectángulo 352004" width="23.495" height="24.123" fill="none"/>
    </clipPath>
    <clipPath id="clip-path-6">
      <rect id="Rectángulo_352005" data-name="Rectángulo 352005" width="24.031" height="27.975" fill="none"/>
    </clipPath>
    <clipPath id="clip-path-8">
      <rect id="Rectángulo_352007" data-name="Rectángulo 352007" width="126.934" height="176.284" fill="none"/>
    </clipPath>
    <clipPath id="clip-path-11">
      <rect id="Rectángulo_352013" data-name="Rectángulo 352013" width="138.194" height="39.095" fill="none"/>
    </clipPath>
  </defs>
  <g id="Grupo_953320" data-name="Grupo 953320" clip-path="url(#clip-path)">
    <g id="Grupo_953294" data-name="Grupo 953294">
      <g id="Grupo_953293" data-name="Grupo 953293" clip-path="url(#clip-path)">
        <path id="Trazado_662572" data-name="Trazado 662572" d="M405.432,84.7a2.914,2.914,0,0,1,2.934,2.937v1.5A24.851,24.851,0,0,1,418.951,92.9,3.656,3.656,0,0,1,421,96.176a3.762,3.762,0,0,1-3.824,3.756,3.946,3.946,0,0,1-2.048-.615,24.8,24.8,0,0,0-7.034-3v13.11c10.38,2.6,14.819,6.761,14.819,14.068,0,7.513-5.873,12.5-14.547,13.316v4.1a2.914,2.914,0,0,1-2.934,2.937,2.973,2.973,0,0,1-3.006-2.937v-4.233a29.541,29.541,0,0,1-14-5.328,3.752,3.752,0,0,1-1.844-3.277,3.755,3.755,0,0,1,6.009-3,24.187,24.187,0,0,0,10.107,4.575V116.184c-9.971-2.6-14.614-6.35-14.614-14.066,0-7.307,5.8-12.361,14.34-13.044V87.641a2.973,2.973,0,0,1,3.006-2.937M402.7,107.99V95.9c-4.371.41-6.556,2.732-6.556,5.737,0,2.868,1.3,4.644,6.556,6.35m5.394,9.492V129.91c4.37-.478,6.761-2.663,6.761-5.941,0-3-1.5-4.848-6.761-6.487" transform="translate(65.367 14.323)" fill="#ebebeb"/>
      </g>
    </g>
    <g id="Grupo_953305" data-name="Grupo 953305">
      <g id="Grupo_953304" data-name="Grupo 953304" clip-path="url(#clip-path)">
        <path id="Trazado_662573" data-name="Trazado 662573" d="M357.625,153.077c18.7,18.307,21.839,46.629,17.9,71.437-.1.564-.973.409-.973-.119,0-5.648.171-11.244.154-16.823-.1-.256-.188-.495-.29-.751-4.88-3.549-9.368-7.558-12.149-13.052-3.121-6.142-4.35-13.069-6.739-19.485-.222-.614.433-.434.862-.117,11.374,8.388,15,17.417,18.265,29.481a100.314,100.314,0,0,0-1.979-18.785c-2.457-11.449-7.32-22.795-15.543-31.292-.307-.324.171-.818.495-.495" transform="translate(60.108 25.866)" fill="#263238"/>
        <path id="Trazado_662574" data-name="Trazado 662574" d="M356.763,157.335c-3.217.109-5.233,5.25-7.741,6.75-1.326.8-2.618.749-3.551-.558-2.484-3.468.925-7.745,4.129-10.138-2.293.942-4.194,2.6-6.664,3.068a2.324,2.324,0,0,1-3.01-1.8c-1.088-4.728,4.841-6.83,8.91-6.929-1.972-1.371-7.626-5.1-4.623-6.932,3.043-1.84,9.677,3.489,11.841,5.245,3.18,2.58,6.972,6.436,7.115,10.472.187,4.711-3.93,1.812-6.407.824" transform="translate(57.456 23.743)" fill="#ffc727"/>
        <g id="Grupo_953297" data-name="Grupo 953297" transform="translate(397.252 164.157)" opacity="0.1">
          <g id="Grupo_953296" data-name="Grupo 953296">
            <g id="Grupo_953295" data-name="Grupo 953295" clip-path="url(#clip-path-4)">
              <path id="Trazado_662575" data-name="Trazado 662575" d="M356.763,157.335c-3.217.109-5.233,5.25-7.741,6.75-1.326.8-2.618.749-3.551-.558-2.484-3.468.925-7.745,4.129-10.138-2.293.942-4.194,2.6-6.664,3.068a2.324,2.324,0,0,1-3.01-1.8c-1.088-4.728,4.841-6.83,8.91-6.929-1.972-1.371-7.626-5.1-4.623-6.932,3.043-1.84,9.677,3.489,11.841,5.245,3.18,2.58,6.972,6.436,7.115,10.472.187,4.711-3.93,1.812-6.407.824" transform="translate(-339.796 -140.414)"/>
            </g>
          </g>
        </g>
        <path id="Trazado_662576" data-name="Trazado 662576" d="M357.029,157.5c-4.113-1.869-12.015.822-12.687-.735-1.362-3.168,4.952-5.343,8.361-5.762-3.139-.851-9.154-2.206-8.969-5.233.227-3.7,9.225-.518,13.78,2.975,5.738,4.4,5.7,8.645,4.752,9.5-1.3,1.167-4.558-.431-5.238-.74" transform="translate(58.121 24.369)" fill="#ffc727"/>
        <path id="Trazado_662577" data-name="Trazado 662577" d="M396.849,151.526c-19.382,17.583-23.6,45.765-20.6,70.7.081.567.956.447.976-.082.215-5.643.257-11.242.486-16.816.112-.253.206-.488.318-.739,5.012-3.361,9.648-7.2,12.635-12.582,3.354-6.018,4.845-12.894,7.476-19.213.244-.606-.416-.45-.857-.151-11.685,7.95-15.652,16.834-19.373,28.764a100.347,100.347,0,0,1,2.692-18.7c2.891-11.346,8.181-22.5,16.723-30.677.319-.312-.14-.825-.476-.513" transform="translate(63.472 25.605)" fill="#263238"/>
        <path id="Trazado_662578" data-name="Trazado 662578" d="M397.6,155.836c3.21.23,5.029,5.446,7.479,7.04,1.294.849,2.587.849,3.568-.423,2.615-3.37-.628-7.774-3.74-10.287,2.254,1.029,4.092,2.756,6.542,3.319a2.324,2.324,0,0,0,3.076-1.686c1.268-4.683-4.577-7.01-8.638-7.264,2.023-1.3,7.814-4.8,4.882-6.752-2.971-1.954-9.8,3.119-12.031,4.791-3.276,2.457-7.212,6.166-7.508,10.193-.366,4.7,3.859,1.959,6.37,1.067" transform="translate(66.149 23.562)" fill="#ffc727"/>
        <g id="Grupo_953300" data-name="Grupo 953300" transform="translate(457.358 162.906)" opacity="0.1">
          <g id="Grupo_953299" data-name="Grupo 953299">
            <g id="Grupo_953298" data-name="Grupo 953298" clip-path="url(#clip-path-5)">
              <path id="Trazado_662579" data-name="Trazado 662579" d="M397.6,155.836c3.21.23,5.029,5.446,7.479,7.04,1.294.849,2.587.849,3.568-.423,2.615-3.37-.628-7.774-3.74-10.287,2.254,1.029,4.092,2.756,6.542,3.319a2.324,2.324,0,0,0,3.076-1.686c1.268-4.683-4.577-7.01-8.638-7.264,2.023-1.3,7.814-4.8,4.882-6.752-2.971-1.954-9.8,3.119-12.031,4.791-3.276,2.457-7.212,6.166-7.508,10.193-.366,4.7,3.859,1.959,6.37,1.067" transform="translate(-391.209 -139.344)"/>
            </g>
          </g>
        </g>
        <path id="Trazado_662580" data-name="Trazado 662580" d="M396.678,155.973c4.182-1.713,11.975,1.278,12.706-.253,1.481-3.114-4.745-5.526-8.136-6.077,3.169-.731,9.23-1.855,9.161-4.887-.085-3.7-9.2-.869-13.883,2.448-5.9,4.179-6.026,8.422-5.109,9.308,1.256,1.215,4.571-.257,5.261-.54" transform="translate(66.113 24.181)" fill="#ffc727"/>
        <path id="Trazado_662581" data-name="Trazado 662581" d="M378.991,200.75a190.461,190.461,0,0,1-6.018,27.8.692.692,0,0,1-1.354-.274c1.273-8.567,3.594-16.976,4.867-25.543a128.623,128.623,0,0,0,1.488-26.224c-.816-14.437-4.736-29.794-14.156-41.09-.207-.268.233-.646.445-.4,18.861,21.991,15.86,48.953,15.842,51.37,2.67-9.1,5.422-19.54,15.522-28.811.435-.4.775-.209.7.47-1.806,16.886-6.5,25.7-16.29,34.73-.278,2.676-.623,5.339-1.049,7.969" transform="translate(61.509 22.817)" fill="#263238"/>
        <path id="Trazado_662582" data-name="Trazado 662582" d="M366.009,140.913c-3.393-1.507-8.073,2.813-11.43,3.107-1.777.161-3.092-.54-3.4-2.365-.832-4.849,4.858-7.572,9.388-8.441-2.853-.177-5.66.586-8.46-.171-1.692-.47-2.619-1.631-2.215-3.386,1.25-5.454,8.461-4.651,12.731-2.705-1.356-2.415-5.345-9.128-1.306-9.519,4.084-.376,8.283,8.491,9.645,11.4,2,4.278,3.994,10.187,2.111,14.446-2.178,4.981-4.991-.1-7.062-2.37" transform="translate(59.147 19.855)" fill="#ffc727"/>
        <g id="Grupo_953303" data-name="Grupo 953303" transform="translate(408.943 137.277)" opacity="0.1">
          <g id="Grupo_953302" data-name="Grupo 953302">
            <g id="Grupo_953301" data-name="Grupo 953301" clip-path="url(#clip-path-6)">
              <path id="Trazado_662583" data-name="Trazado 662583" d="M366.009,140.913c-3.393-1.507-8.073,2.813-11.43,3.107-1.777.161-3.092-.54-3.4-2.365-.832-4.849,4.858-7.572,9.388-8.441-2.853-.177-5.66.586-8.46-.171-1.692-.47-2.619-1.631-2.215-3.386,1.25-5.454,8.461-4.651,12.731-2.705-1.356-2.415-5.345-9.128-1.306-9.519,4.084-.376,8.283,8.491,9.645,11.4,2,4.278,3.994,10.187,2.111,14.446-2.178,4.981-4.991-.1-7.062-2.37" transform="translate(-349.796 -117.422)"/>
            </g>
          </g>
        </g>
        <path id="Trazado_662584" data-name="Trazado 662584" d="M366,141.488c-3.326-4.01-12.879-5.2-12.793-7.149.182-3.973,7.828-3.05,11.576-1.771-2.829-2.462-8.387-6.9-6.672-9.943,2.1-3.721,9.832,4.106,12.8,10.023,3.74,7.454,1.564,11.841.151,12.245-1.937.554-4.512-2.743-5.061-3.4" transform="translate(59.723 20.571)" fill="#ffc727"/>
        <path id="Trazado_662585" data-name="Trazado 662585" d="M393.521,195.59l8.318,63.555H351.222c1.043-5.631,10.463-63.629,10.463-63.629Z" transform="translate(59.388 33.06)" fill="#ffc727"/>
      </g>
    </g>
    <path id="Trazado_662586" data-name="Trazado 662586" d="M124.677,249.563l-62.338.1L0,249.951l62.339.284,62.338.1,124.678.2,124.676-.2,62.339-.1,62.338-.285-62.338-.286-62.339-.1-124.676-.194Z" transform="translate(0 42.165)" fill="#263238"/>
    <g id="Grupo_953310" data-name="Grupo 953310">
      <g id="Grupo_953309" data-name="Grupo 953309" clip-path="url(#clip-path)">
        <path id="Trazado_662587" data-name="Trazado 662587" d="M101.369,200.748a118.316,118.316,0,0,0,21.137,14.093c-10.421-19.019-4.839-59.531-3.9-53.606,4.507,28.321,21.46,60.355,28.836,62.488.051,0,.076.027.126.03,19.955,4.011,38.717.748,54.725-5.5a.172.172,0,0,0-.046-.1c-13.706-21.673-9.262-62.964-8.438-60.36,8.948,27.934,31.131,45.679,35.222,45.985h.026c16.343-11.528,25.553-23.631,23.507-25.107-14.858-10.76-26.006-36.221-35.718-62.957v-.022c-9.605-26.362-13.208-64.747-27.92-88.79C175.459,4.894,145.117-1.614,126.759,7.509c-48.174,23.941-34.5,185.69-25.39,193.239" transform="translate(15.615 0.594)" fill="#263238"/>
        <path id="Trazado_662588" data-name="Trazado 662588" d="M130.881,5.723A30.767,30.767,0,0,0,120.1,12.2a66.082,66.082,0,0,0-8.323,9A104.615,104.615,0,0,0,100.059,42c-6.372,14.5-9.851,43.708-11.627,59.166a242.832,242.832,0,0,0-.026,46.64c.312,3.881.885,7.744,1.315,11.614l1.71,11.572L93.643,182.5l2.592,11.44L94.423,182.4l-1.54-11.555-1.3-11.566c-.291-3.863-.725-7.716-.9-11.581-.966-15.439-1.094-30.926.641-46.253,1.5-15.336,5.026-44.282,10.77-58.763a105.672,105.672,0,0,1,10.83-20.829,63.961,63.961,0,0,1,7.707-9.2,41.124,41.124,0,0,1,4.728-3.918,22.091,22.091,0,0,1,5.518-3.015" transform="translate(14.761 0.968)" fill="#263238"/>
        <path id="Trazado_662589" data-name="Trazado 662589" d="M242.382,172.992a201.094,201.094,0,0,1-11.919-17.3c-3.728-5.884-7.206-11.886-10.352-18.012-3.109-6.138-6.089-12.322-8.583-18.656s-4.758-12.8-7.152-19.206c-4.937-12.779-9.645-39.345-15.424-51.89-2.925-6.257-5.976-12.481-9.5-18.52a92.82,92.82,0,0,0-5.857-8.781c-2.158-2.788-4.554-5.592-7.826-7.409,3.079,2.042,5.194,4.922,7.172,7.772a90.278,90.278,0,0,1,5.223,8.966c3.228,6.094,6.029,12.363,8.684,18.675,5.316,12.625,10.032,39.143,14.746,51.973,2.483,6.39,4.8,12.789,7.424,19.185a167.494,167.494,0,0,0,9.065,18.724,194.75,194.75,0,0,0,24.3,34.478" transform="translate(28.03 2.235)" fill="#263238"/>
        <path id="Trazado_662590" data-name="Trazado 662590" d="M133.731,147.762c12.578,28.259,61.793,119.261,92.164,124.713,19.929,3.577,99.559-7.032,112.637-26.432,5.7-8.455-6.5-65.527-17.075-62.863s-74.334,13.436-82.284,11.434c-7.9-1.992-69.367-67.777-92-83.844-39.03-27.7-20.217,21.774-13.442,36.992" transform="translate(20.835 17.331)" fill="#eb9481"/>
        <path id="Trazado_662591" data-name="Trazado 662591" d="M298.14,180.633l4.8,86.238s-62.911,13.829-90.368,4.343c-33.34-11.517-82.12-114.764-88.8-131.735-10.964-27.859-7.926-44.729,7.613-40.6,6.038,1.554,13.979,6.31,23.71,14.884,10.186,8.928,68.67,66.879,87.128,77.827,10.322,6.123,55.919-10.952,55.919-10.952" transform="translate(19.824 16.614)" fill="#ffc727"/>
        <path id="Trazado_662592" data-name="Trazado 662592" d="M264.28,249.55a19.065,19.065,0,0,0-4.746,2.5,19.022,19.022,0,0,0,5.226-1.2,18.643,18.643,0,0,0,4.746-2.49,18.5,18.5,0,0,0-5.226,1.192m-47.395-67.737a18.575,18.575,0,0,0-4.735,2.49,20.527,20.527,0,0,0,9.961-3.694,18.607,18.607,0,0,0-5.226,1.2m-47.816-40.93a19.066,19.066,0,0,0-4.746,2.5,20.626,20.626,0,0,0,9.972-3.694,18.911,18.911,0,0,0-5.226,1.192m34.757,92.709a18.823,18.823,0,0,0-4.747,2.49,20.527,20.527,0,0,0,9.961-3.694,18.435,18.435,0,0,0-5.214,1.2m55.625-33.237a18.864,18.864,0,0,0-4.746,2.5,19.022,19.022,0,0,0,5.226-1.2,18.644,18.644,0,0,0,4.746-2.49,18.5,18.5,0,0,0-5.226,1.192m-83.531-15.081a19,19,0,0,0-4.735,2.5,19.022,19.022,0,0,0,5.226-1.2,18.618,18.618,0,0,0,4.735-2.5,19.021,19.021,0,0,0-5.226,1.2M301.06,232.891c-.2-.795-.456-1.578-.725-2.35a19.065,19.065,0,0,0-2.5-4.746,18.607,18.607,0,0,0,1.2,5.226,19.572,19.572,0,0,0,2.151,4.279Zm-66.089,4.8a19.022,19.022,0,0,0-2.49-4.747,19.008,19.008,0,0,0,1.192,5.226,18.687,18.687,0,0,0,2.5,4.746,18.514,18.514,0,0,0-1.2-5.226m-41.877-73.84a19,19,0,0,0-2.5-4.735,19.022,19.022,0,0,0,1.2,5.226,18.575,18.575,0,0,0,2.49,4.735,18.594,18.594,0,0,0-1.192-5.226m-46.05-45.337a18.823,18.823,0,0,0-2.49-4.747,20.527,20.527,0,0,0,3.694,9.961,18.434,18.434,0,0,0-1.2-5.214m65.224,140.887a18.52,18.52,0,0,0-5.121-1.59,18.664,18.664,0,0,0,4.536,2.841,18.921,18.921,0,0,0,5.121,1.59,18.89,18.89,0,0,0-4.536-2.841m57.367-35.482a18.651,18.651,0,0,0-5.121-1.578,20.9,20.9,0,0,0,9.668,4.431,19.379,19.379,0,0,0-4.548-2.853m-18.892,47.36a18.519,18.519,0,0,0-5.121-1.59,15.328,15.328,0,0,0,2.829,1.964c.924-.047,1.835-.094,2.759-.152-.152-.07-.316-.152-.468-.222M204.353,204a18.519,18.519,0,0,0-5.121-1.59,20.784,20.784,0,0,0,9.657,4.431A18.664,18.664,0,0,0,204.353,204m-70.122-60.874a18.519,18.519,0,0,0-5.121-1.59,18.664,18.664,0,0,0,4.536,2.841,18.92,18.92,0,0,0,5.121,1.59,18.89,18.89,0,0,0-4.536-2.841m43.49,75.1a18.259,18.259,0,0,0-1.578,5.121,18.957,18.957,0,0,0,2.841-4.548,19.341,19.341,0,0,0,1.59-5.121,19,19,0,0,0-2.853,4.548m-23.37-48.213a18.26,18.26,0,0,0-1.578,5.121,18.955,18.955,0,0,0,2.841-4.548,19.341,19.341,0,0,0,1.59-5.121,19.379,19.379,0,0,0-2.853,4.548m74.413,38.72a18.921,18.921,0,0,0-1.59,5.121,18.362,18.362,0,0,0,2.853-4.536,19.341,19.341,0,0,0,1.59-5.121,18.581,18.581,0,0,0-2.853,4.536M118.039,118.273c.117.643.245,1.286.4,1.952a16.979,16.979,0,0,0,1.157-4.092,14.231,14.231,0,0,0-1.555,2.139" transform="translate(19.959 19.238)" fill="#fff"/>
        <path id="Trazado_662593" data-name="Trazado 662593" d="M263.115,252.486c-1.091-12.722-3.656-64.949-3.446-76.271.014-.784.514-.966.606-.146,4.189,38.046,2.91,63.824,3.342,76.357.011.313-.473.385-.5.061" transform="translate(43.905 29.681)" fill="#263238"/>
        <g id="Grupo_953308" data-name="Grupo 953308" transform="translate(137.062 114.874)" opacity="0.1">
          <g id="Grupo_953307" data-name="Grupo 953307">
            <g id="Grupo_953306" data-name="Grupo 953306" clip-path="url(#clip-path-8)">
              <path id="Trazado_662594" data-name="Trazado 662594" d="M123.763,139.467c6.668,16.975,55.479,120.237,88.8,131.742,8.212,2.84,19.645,3.583,31.608,3.266L129.312,98.441c-3.3-.507-5.964.053-7.889,1.6-6.193,4.86-5.594,19.29,2.339,39.425" transform="translate(-117.238 -98.259)"/>
            </g>
          </g>
        </g>
        <path id="Trazado_662595" data-name="Trazado 662595" d="M24.958,275.511l172.719-.406-9.544-59.386s13.657-16.578,11.074-34.559c-2.833-19.7-38.359-69.639-41.348-72.454C145.837,97.42,133.1,95.394,120.874,99.466l-.028,0c-56.471,35.5-95.888,176.043-95.888,176.043" transform="translate(4.22 16.491)" fill="#ffc727"/>
        <path id="Trazado_662596" data-name="Trazado 662596" d="M36.971,240.7a23.271,23.271,0,0,0-2.911,1.333c-.117.339-.234.666-.351.994a22.382,22.382,0,0,0,3.741-1.029,18.494,18.494,0,0,0,4.747-2.5,18.608,18.608,0,0,0-5.226,1.2M99.377,127.271a19,19,0,0,0-4.735,2.5,18.94,18.94,0,0,0,5.214-1.2,18.494,18.494,0,0,0,4.746-2.5,19.021,19.021,0,0,0-5.226,1.2m81.5,16.812a15.819,15.819,0,0,0-2.291,1.426,14.364,14.364,0,0,0,2.864-.468c-.187-.316-.386-.631-.573-.959m-44.5,25.849a19.022,19.022,0,0,0-4.747,2.49,20.626,20.626,0,0,0,9.972-3.694,18.607,18.607,0,0,0-5.226,1.2M114.2,237.563a18.823,18.823,0,0,0-4.746,2.49,19.007,19.007,0,0,0,5.226-1.192,18.618,18.618,0,0,0,4.735-2.5,18.435,18.435,0,0,0-5.214,1.2M190.18,187.4a19,19,0,0,0-4.735,2.5,19.022,19.022,0,0,0,5.226-1.2,18.618,18.618,0,0,0,4.735-2.5,19.021,19.021,0,0,0-5.226,1.2M76.848,190.413a18.952,18.952,0,0,0-4.735,2.49,20.527,20.527,0,0,0,9.961-3.694,18.609,18.609,0,0,0-5.226,1.2m85.192,45.3a18.823,18.823,0,0,0-4.747,2.49,19.008,19.008,0,0,0,5.226-1.192,18.794,18.794,0,0,0,4.735-2.5,18.435,18.435,0,0,0-5.214,1.2M116.2,102.077c-.117-.292-.234-.573-.351-.865-.386.269-.76.549-1.134.83.07.175.129.339.187.514a18.687,18.687,0,0,0,2.5,4.747,19.022,19.022,0,0,0-1.2-5.226M73.107,239.258a19.022,19.022,0,0,0-2.49-4.747,20.626,20.626,0,0,0,3.694,9.972,18.514,18.514,0,0,0-1.2-5.226m62.1-27.041a18.952,18.952,0,0,0-2.49-4.735,20.527,20.527,0,0,0,3.694,9.961,18.607,18.607,0,0,0-1.2-5.226m-21.967-58.291a19,19,0,0,0-2.5-4.735,20.962,20.962,0,0,0,3.694,9.961,19.009,19.009,0,0,0-1.192-5.226m76.318,99.15a18.453,18.453,0,0,0-2.49-4.747,19.008,19.008,0,0,0,1.192,5.226,18.8,18.8,0,0,0,2.5,4.735,18.434,18.434,0,0,0-1.2-5.214M161.3,120.642a18.823,18.823,0,0,0-2.49-4.747,20.527,20.527,0,0,0,3.694,9.961,18.434,18.434,0,0,0-1.2-5.214M95.074,216.812a18.65,18.65,0,0,0-5.121-1.578,20.9,20.9,0,0,0,9.668,4.431,19.379,19.379,0,0,0-4.548-2.853m61.342,56.362a14.516,14.516,0,0,0,1.906,1.4l2.782-.012a17.537,17.537,0,0,0-4.688-1.391M55.08,263.166a18.921,18.921,0,0,0-5.121-1.59,18.428,18.428,0,0,0,4.548,2.853,19.127,19.127,0,0,0,5.109,1.59,18.361,18.361,0,0,0-4.536-2.853M159.7,202.5a18.714,18.714,0,0,0-5.109-1.59,18.362,18.362,0,0,0,4.536,2.853,18.9,18.9,0,0,0,5.121,1.578A18.957,18.957,0,0,0,159.7,202.5m-11.212-57.25a18.519,18.519,0,0,0-5.121-1.59,18.664,18.664,0,0,0,4.536,2.841,18.92,18.92,0,0,0,5.121,1.59,18.89,18.89,0,0,0-4.536-2.841M81.221,161.1a18.519,18.519,0,0,0-1.59,5.121,18.731,18.731,0,0,0,2.841-4.548,18.319,18.319,0,0,0,1.59-5.109,18.665,18.665,0,0,0-2.841,4.536m54.2,93.983a18.9,18.9,0,0,0-1.578,5.121,18.665,18.665,0,0,0,2.841-4.536,18.921,18.921,0,0,0,1.59-5.121,19.311,19.311,0,0,0-2.853,4.536m33.19-82.947a18.26,18.26,0,0,0-1.578,5.121,18.955,18.955,0,0,0,2.841-4.548,19.341,19.341,0,0,0,1.59-5.121,19.379,19.379,0,0,0-2.853,4.548M94.431,259.916a18.921,18.921,0,0,0-1.59,5.121,18.361,18.361,0,0,0,2.853-4.536,18.9,18.9,0,0,0,1.578-5.121,18.89,18.89,0,0,0-2.841,4.536m-37.5-42.987a18.793,18.793,0,0,0-1.59,5.121,20.589,20.589,0,0,0,4.431-9.668,18.957,18.957,0,0,0-2.841,4.548m52.819-27.8a18.319,18.319,0,0,0-1.59,5.109A18.664,18.664,0,0,0,111,189.7a18.921,18.921,0,0,0,1.59-5.121,18.956,18.956,0,0,0-2.841,4.548m21.266-66.322a18.319,18.319,0,0,0-1.59,5.109,18.664,18.664,0,0,0,2.841-4.536,18.921,18.921,0,0,0,1.59-5.121,18.956,18.956,0,0,0-2.841,4.548" transform="translate(5.7 17.114)" fill="#fff"/>
        <path id="Trazado_662597" data-name="Trazado 662597" d="M154.731,127.621c3.338,5.556,7.025,10.924,10.518,16.4-1.408-3.879-2.792-7.766-4.34-11.593-.032-.076.076-.141.117-.063a80.188,80.188,0,0,1,5.979,14.45,109.944,109.944,0,0,1,6.977,12.9,51.516,51.516,0,0,1,4.683,16.9,43.566,43.566,0,0,1-2.454,17.4,112.676,112.676,0,0,1-8.749,18.415c-.441.786-1.534.058-1.168-.721,4.9-10.446,10.314-21.438,9.822-33.282-.486-11.7-5.94-22.5-11.286-32.661a162.122,162.122,0,0,0-10.486-17.93c-.161-.229.238-.462.387-.214" transform="translate(26.092 21.561)" fill="#263238"/>
        <path id="Trazado_662598" data-name="Trazado 662598" d="M201.852,238.878l-3.462,19.634H307.25a13.318,13.318,0,0,0,12.578-10.694l1.577-8.94Z" transform="translate(33.546 40.392)" fill="#dbdbdb"/>
        <path id="Trazado_662599" data-name="Trazado 662599" d="M190.88,247.818l1.576-8.94h21.386l-1.576,8.94a13.317,13.317,0,0,1-12.578,10.693,8.887,8.887,0,0,1-7.015-3.126,9.235,9.235,0,0,1-1.793-7.566" transform="translate(32.248 40.392)" fill="#ebebeb"/>
        <path id="Trazado_662600" data-name="Trazado 662600" d="M235.681,120.689,207.536,280.3H305.7a13.318,13.318,0,0,0,12.578-10.694L346.426,110H248.259a12.691,12.691,0,0,0-8.117,3.126,13.1,13.1,0,0,0-4.461,7.566" transform="translate(35.092 18.599)" fill="#dbdbdb"/>
        <path id="Trazado_662601" data-name="Trazado 662601" d="M243.191,110l-5.685,32.243H357.059l3.8-21.551c1.04-5.9-2.906-10.692-8.808-10.692Z" transform="translate(40.16 18.599)" fill="#ebebeb"/>
        <path id="Trazado_662602" data-name="Trazado 662602" d="M232.16,120.689l-3.8,21.55h21.386l3.8-21.55c1.04-5.9-2.906-10.692-8.808-10.692a12.691,12.691,0,0,0-8.117,3.126,13.1,13.1,0,0,0-4.461,7.566" transform="translate(38.613 18.599)" fill="#dbdbdb"/>
        <path id="Trazado_662603" data-name="Trazado 662603" d="M323.079,162.794c4,11.39,15.524,26.234,15.646,35.206a10.291,10.291,0,0,1-6.83,10.2s8.368,5.346,7.137,13.507c-.634,4.2-7.9,6.874-7.9,6.874s6.52,4.578,4.978,11.766c-1.23,5.727-8.324,7.552-8.324,7.552s4.208,7.306,1.085,12.738c-6.334,11.018-56.334,5.705-62.1-13.535-2.688-8.967,9.454-7.006,9.454-7.006s-16.779-7.037-15.948-17.373,16.454-6.836,16.454-6.836-16.2-6.961-14.257-17.59c2.023-11.067,17.049-4.889,17.049-4.889s-10.317-8.718-6.964-16.515c5.532-12.874,24.806,6.1,36.071,4.662l7.99-17.474Z" transform="translate(44.005 27.527)" fill="#eb9481"/>
        <path id="Trazado_662604" data-name="Trazado 662604" d="M323.526,183.029c-2.841-11.115,11.805-22.911,10.615-33.93-1.609-14.907-19.527-2.366-25.422,18.408l-1.742,16.931Z" transform="translate(51.907 24.108)" fill="#eb9481"/>
        <path id="Trazado_662605" data-name="Trazado 662605" d="M324.536,237.325a.132.132,0,0,1,.022.263c-16.872,2.26-36.1-.428-51.18-8.544-.5-.265-.277-1.185.324-1,17.141,5.393,32.784,8.811,50.834,9.277" transform="translate(46.179 38.556)" fill="#263238"/>
        <path id="Trazado_662606" data-name="Trazado 662606" d="M329.141,221.125c.2,0,.192.33-.019.357-17.4,2.233-38.973-1.39-55.252-12.791-.558-.39-.668-1.3.009-.9,11.4,6.761,39.011,13,55.262,13.335" transform="translate(46.231 35.118)" fill="#263238"/>
        <path id="Trazado_662607" data-name="Trazado 662607" d="M276.012,187.964c16.033,10.328,33.763,14.477,52.586,16.122.247.021.191.366-.02.4-9.426,1.706-21.316-.593-30.415-3.165a50.262,50.262,0,0,1-22.512-12.8c-.249-.247.018-.781.361-.56" transform="translate(46.593 31.774)" fill="#263238"/>
        <path id="Trazado_662608" data-name="Trazado 662608" d="M114.412,105.589c.234,3.037,11.291,24.215,24.784,25.651,4.395.459,7.977-23.417,7.977-23.417l.668-1.7,9.322-23.833L131.034,59.216l-3.811-3.109s-2.121,6.69-4.678,15.044c-.122.387-.242.774-.365,1.19-.158.469-.312.91-.437,1.354-.4,1.243-.8,2.515-1.173,3.789-.288.969-.573,1.909-.838,2.938-.292,1.025-.555,2.025-.848,3.051-2.667,10.165-4.555,20.828-4.473,22.116" transform="translate(19.345 9.487)" fill="#eb9481"/>
        <path id="Trazado_662609" data-name="Trazado 662609" d="M121.369,71.152a51.337,51.337,0,0,0,25.294,34.97l9.322-23.834L129.858,59.215l-3.811-3.107s-2.121,6.688-4.678,15.044" transform="translate(20.522 9.487)" fill="#263238"/>
        <path id="Trazado_662610" data-name="Trazado 662610" d="M198.122,63.069c-5.917,44.524-33.252,46.007-42.852,44.721-8.714-1.168-38.237-6.251-36.954-51.149s23.856-56.22,43.929-54.6,41.794,16.506,35.877,61.031" transform="translate(19.999 0.32)" fill="#eb9481"/>
        <path id="Trazado_662611" data-name="Trazado 662611" d="M181.918,50.936a29.788,29.788,0,0,1-2.846-1.236,5.017,5.017,0,0,1-2.661-1.814,1.6,1.6,0,0,1,.394-1.91c1.2-.921,2.681-.656,4.012-.124a5.825,5.825,0,0,1,3.166,2.75,1.7,1.7,0,0,1-2.066,2.335" transform="translate(29.801 7.671)" fill="#263238"/>
        <path id="Trazado_662612" data-name="Trazado 662612" d="M155.576,44.207a29.534,29.534,0,0,0,3.1-.018,5.021,5.021,0,0,0,3.16-.622,1.6,1.6,0,0,0,.388-1.911c-.742-1.319-2.207-1.657-3.641-1.692a5.825,5.825,0,0,0-3.992,1.284,1.7,1.7,0,0,0,.982,2.959" transform="translate(26.041 6.757)" fill="#263238"/>
        <path id="Trazado_662613" data-name="Trazado 662613" d="M160.1,51.974c0-.119-.261.1-.279.223-.448,3.027-1.471,6.418-4.374,6.926-.09.016-.109.168-.006.173,3.408.132,4.72-4.383,4.659-7.322" transform="translate(26.271 8.782)" fill="#263238"/>
        <path id="Trazado_662614" data-name="Trazado 662614" d="M158.309,48.881c-4.775-1.242-6.907,8.4-2.483,9.548,4.351,1.132,6.485-8.506,2.483-9.548" transform="translate(25.94 8.247)" fill="#263238"/>
        <path id="Trazado_662615" data-name="Trazado 662615" d="M156.726,49.165c-.962.359-2,1.139-3.037,1.015-1.2-.144-1.864-1.349-2.417-2.489-.057-.119-.159-.053-.189.075-.436,1.84-.145,3.892,1.773,4.606,1.751.65,3.41-.7,4.281-2.453.163-.325-.023-.9-.411-.754" transform="translate(25.517 8.053)" fill="#263238"/>
        <path id="Trazado_662616" data-name="Trazado 662616" d="M174.794,54.36c.049-.108.2.194.17.316-.779,2.959-1.171,6.479,1.3,8.088.077.049.034.2-.063.16-3.185-1.217-2.615-5.885-1.4-8.564" transform="translate(29.393 9.188)" fill="#263238"/>
        <path id="Trazado_662617" data-name="Trazado 662617" d="M178.129,52.22c4.877.735,3.048,10.438-1.471,9.756-4.447-.671-2.618-10.372,1.471-9.756" transform="translate(29.435 8.825)" fill="#263238"/>
        <path id="Trazado_662618" data-name="Trazado 662618" d="M179.259,53.1c.67.659,1.252,1.736,2.156,1.969,1.049.27,2.031-.631,2.9-1.509.09-.09.151,0,.13.134-.3,1.864-1.275,3.679-3.125,3.7-1.686.019-2.579-1.8-2.673-3.728-.018-.358.343-.83.613-.565" transform="translate(30.207 8.965)" fill="#263238"/>
        <path id="Trazado_662619" data-name="Trazado 662619" d="M155.386,74c.52.881.97,2.024,2.018,2.4a8.057,8.057,0,0,0,3.374.112.107.107,0,0,1,.088.186,4.119,4.119,0,0,1-4.181.594,3.256,3.256,0,0,1-1.619-3.237c0-.184.244-.186.32-.057" transform="translate(26.22 12.498)" fill="#263238"/>
        <path id="Trazado_662620" data-name="Trazado 662620" d="M169.586,71.225s-.317,4.6-.756,6.709c-.042.2-.572.185-1.3.077-.036,0-.058.013-.083-.015a10.24,10.24,0,0,1-8.955-5.779.223.223,0,0,1,.375-.227c2.353,2.622,5.316,3.791,8.607,4.536.271-.553.278-7.9.618-7.852,1.174.143,3.28,1.4,4.563,2.086.936-9.563.332-19.2,1.409-28.707a.293.293,0,0,1,.579-.021c1.348,10.054.511,21.082-.2,30.983-.078,1.236-4.088-1.256-4.858-1.791" transform="translate(26.796 7.067)" fill="#263238"/>
        <path id="Trazado_662621" data-name="Trazado 662621" d="M121.911,57.534c10.284,2.1,13.37-14.161,13.37-14.161s11.893,1.218,16.428-17.476c0,0,3.4,12.48,18.791,17.886,3.257,1.145-6.291-9.736-6.291-9.736S175.3,48.863,201.2,49.105c1.831.016,5.3-27.226-12.557-40.041s-38.627-11.012-53.17-1.008c0,0-14.016,4.931-18.28,18.226s.719,30.435,4.717,31.252" transform="translate(19.54 0)" fill="#263238"/>
        <path id="Trazado_662622" data-name="Trazado 662622" d="M151.9,70.808a14.9,14.9,0,1,1,18.911-14h0a14.907,14.907,0,0,1-18.91,14m7.489-26.786a12.91,12.91,0,1,0,9.43,12.735,12.851,12.851,0,0,0-9.43-12.735" transform="translate(23.843 7.026)" fill="#ebebeb"/>
        <path id="Trazado_662623" data-name="Trazado 662623" d="M180.391,75.207c-5.491-1.536-8.9-8.553-7.695-16.234a17.787,17.787,0,0,1,4.728-9.8,9.864,9.864,0,0,1,8.545-3.2c3,.465,5.529,2.48,7.155,5.662a17.806,17.806,0,0,1,1.492,10.78c-1.275,8.116-7.228,13.947-13.269,13a8.409,8.409,0,0,1-.955-.208M186.4,48.1a6.293,6.293,0,0,0-.739-.16,7.945,7.945,0,0,0-6.827,2.633,15.829,15.829,0,0,0-4.17,8.705c-1.1,7.033,2.016,13.388,6.991,14.166,4.958.779,9.888-4.31,10.994-11.339a15.812,15.812,0,0,0-1.3-9.567A8.212,8.212,0,0,0,186.4,48.1" transform="translate(29.16 7.756)" fill="#ebebeb"/>
        <path id="Trazado_662624" data-name="Trazado 662624" d="M165.995,56.474l-1.029-1.707c2.528-1.524,8.087-3.235,11.076,1.177l-1.648,1.116c-2.673-3.956-8.166-.724-8.4-.587" transform="translate(27.894 8.983)" fill="#ebebeb"/>
        <path id="Trazado_662625" data-name="Trazado 662625" d="M109.465,51.65l-1.606-1.178c.552-.748,5.5-7.318,10.006-7.342,4.211-.011,30.2,6.6,31.307,6.887l-.495,1.93c-7.449-1.9-27.548-6.843-30.8-6.824-2.975.014-7.079,4.717-8.41,6.527" transform="translate(18.238 7.293)" fill="#ebebeb"/>
        <path id="Trazado_662626" data-name="Trazado 662626" d="M126.514,54.471s-6.527-15.812-13.5-13.78-4.181,23.471,2.508,27.8a7.593,7.593,0,0,0,10.819-1.778Z" transform="translate(18.424 6.85)" fill="#eb9481"/>
        <path id="Trazado_662627" data-name="Trazado 662627" d="M113.262,45.906a.1.1,0,0,0-.082.186c4.652,3.207,6.29,8.545,7.082,13.879-1.1-2.229-2.94-3.726-5.876-2.481-.154.065-.074.3.077.305A4.67,4.67,0,0,1,119.13,60.5a22.528,22.528,0,0,1,1.5,4.595c.138.51,1.018.449.961-.117,0-.041-.012-.084-.016-.126,1.578-6.49-1.461-16.737-8.313-18.947" transform="translate(19.13 7.761)" fill="#263238"/>
        <path id="Trazado_662628" data-name="Trazado 662628" d="M147.832,101.376l-6.281,20.519L114.759,98.888l-6.3,8.649s27.51,37.834,27.508,36.018l6.723-17.8,12.816,10.894-3.5-29.79Z" transform="translate(18.339 16.721)" fill="#ebebeb"/>
        <path id="Trazado_662629" data-name="Trazado 662629" d="M154.691,120.661c-.742-4.9-1.354-9.854-2.322-14.713-.034-.173-.314-.228-.339-.019-.582,4.842,2.357,23.562,2.719,28.079-.018-.015-.039-.032-.056-.048-.537-.472-11.831-9.539-11.921-9.371-1.542,2.867-6.484,15.831-6.8,17-4.353-6.01-22.665-29.61-27.689-35.216a.171.171,0,0,0-.281.2c3.937,6.4,27.655,37.584,27.945,37.472.216.139,6.369-15.835,7.013-18.808,1.952,2.018,13.454,12.355,13.428,11.62a155.389,155.389,0,0,0-1.7-16.19" transform="translate(18.257 17.889)" fill="#263238"/>
        <path id="Trazado_662630" data-name="Trazado 662630" d="M122.424,138.547c-10.413,44.815-39.887,94.963-58.546,109.7-11.355,8.968-47.725,9.049-49.359-14.476s69.79-97.293,80.3-111.643,37-24.013,27.607,16.421" transform="translate(2.45 18.551)" fill="#eb9481"/>
        <path id="Trazado_662631" data-name="Trazado 662631" d="M122.424,138.547c-10.413,44.815-39.887,94.963-58.546,109.7-11.355,8.968-47.725,9.049-49.359-14.476s69.79-97.293,80.3-111.643,37-24.013,27.607,16.421" transform="translate(2.45 18.551)" fill="#ffc727"/>
        <path id="Trazado_662632" data-name="Trazado 662632" d="M40.218,237.1a19,19,0,0,0-4.735,2.5,18.941,18.941,0,0,0,5.214-1.2,18.494,18.494,0,0,0,4.747-2.5,18.608,18.608,0,0,0-5.226,1.2m62.406-113.425a19,19,0,0,0-4.735,2.5,18.94,18.94,0,0,0,5.214-1.2,18.494,18.494,0,0,0,4.746-2.5,19.021,19.021,0,0,0-5.226,1.2M80.1,186.819a18.952,18.952,0,0,0-4.735,2.49,20.527,20.527,0,0,0,9.961-3.694,18.609,18.609,0,0,0-5.226,1.2M62.29,166.745a18.865,18.865,0,0,0-2.5-4.747,19.021,19.021,0,0,0,1.2,5.226,18.687,18.687,0,0,0,2.5,4.747,18.924,18.924,0,0,0-1.2-5.226M33.227,211.393a19.065,19.065,0,0,0-2.5-4.747,20.626,20.626,0,0,0,3.694,9.972,19.008,19.008,0,0,0-1.192-5.226m40.638,19.524a16.344,16.344,0,0,0,.842,4.162c.3-.362.608-.748.924-1.134a15.846,15.846,0,0,0-1.765-3.028m42.625-80.585a19,19,0,0,0-2.5-4.735,18.529,18.529,0,0,0,1.2,5.214,20.118,20.118,0,0,0,2,4.057c.094-.3.2-.6.292-.9v-.012a22.432,22.432,0,0,0-.994-3.624M50.12,187.883A18.9,18.9,0,0,0,45,186.3a18.664,18.664,0,0,0,4.536,2.841,18.921,18.921,0,0,0,5.121,1.59,19.311,19.311,0,0,0-4.536-2.853M84.468,157.51a18.519,18.519,0,0,0-1.59,5.121,18.731,18.731,0,0,0,2.841-4.548,18.319,18.319,0,0,0,1.59-5.109,18.665,18.665,0,0,0-2.841,4.536M60.174,213.334a18.793,18.793,0,0,0-1.59,5.121,20.589,20.589,0,0,0,4.431-9.668,18.957,18.957,0,0,0-2.841,4.548M15.351,229.023c-.3.69-.6,1.391-.842,2.116a3.086,3.086,0,0,0,.012.468c.035.479.082.959.14,1.415a21.7,21.7,0,0,0,1.952-3.425,19.208,19.208,0,0,0,1.59-5.121,18.645,18.645,0,0,0-2.853,4.548" transform="translate(2.453 20.709)" fill="#fff"/>
        <path id="Trazado_662633" data-name="Trazado 662633" d="M29.882,248.555a48.062,48.062,0,0,0,14.8.09,40.122,40.122,0,0,0,13.647-4.882c8.9-5.124,14.864-13.789,20.163-22.333Q87.2,207.389,94.815,192.7c5.082-9.791,9.743-19.794,14.254-29.859,2.272-5.07,4.349-10.219,6.5-15.338,2.138-5.08,4.217-10.183,6.1-15.364.472-1.3.921-2.614,1.37-3.926.041-.122.231-.069.193.055-1.683,5.36-3.287,10.763-5.1,16.08-.235.691-.491,1.372-.732,2.061,1.883-4.005,3.812-7.988,5.823-11.931.12-.235.445-.023.345.207-1.791,4.091-3.664,8.143-5.586,12.174-.945,1.983-1.9,3.957-2.863,5.933q-1.373,3.7-2.83,7.37-6.271,15.707-13.953,30.754-7.665,15.05-16.482,29.475c-5.409,8.849-11.222,17.948-19.976,23.853a38.111,38.111,0,0,1-28.595,5.765A26.88,26.88,0,0,1,29.753,249a.233.233,0,0,1,.13-.448" transform="translate(5.003 21.668)" fill="#263238"/>
        <path id="Trazado_662634" data-name="Trazado 662634" d="M44.719,86.5c7.423-18.069,19.461-42.84,27.572-46.587,8.512-3.932,38.99-16.555,47.02-17.205s36.512,7.686,41.646,12.735c4.112,4.044-3.008,13.674-19.242,12.292-15.179-1.292-18.744-2.349-23.112-1.662-4.457.7-17.444,11.186-16.3,17.609.677,3.784,9.5,10.3,16.339,9.108s10.981-7.888,19.454-11.8,20.634-.032,20.488,3.484-4.625,4.023-13.862,13.72c-5.94,6.236-10.226,18.613-22.669,28.768-6.253,5.1-18.645,19.783-18.645,19.783Z" transform="translate(7.562 3.833)" fill="#eb9481"/>
        <path id="Trazado_662635" data-name="Trazado 662635" d="M68.3,40.7c8.361-7.817,27.948-20.751,44.535-22.656,11.212-1.287,41.925,24.854,39.171,31.3s-8.754,4.927-17.363,1.584c-3.138-1.218-18.668-11.769-22.508-8.931-5.52,4.081-15.386,20.343-15.386,20.343Z" transform="translate(11.549 3.043)" fill="#eb9481"/>
        <path id="Trazado_662636" data-name="Trazado 662636" d="M142.621,45.285c-2.489-8.3-11.039-14.59-19.746-20.062-.136-.085-.277.118-.141.2,2.217,1.4,15.847,12.491,19.753,19.945.044.084.159,0,.134-.087" transform="translate(20.744 4.261)" fill="#263238"/>
        <path id="Trazado_662637" data-name="Trazado 662637" d="M68.3,40.7c8.361-7.817,27.948-20.751,44.535-22.656,11.212-1.287,33.359,27.748,30.607,34.2s-11.509,4.763-20.18-1c-2.8-1.864-11.252-11.787-15.093-8.948-5.52,4.08-19.04,14.259-19.04,14.259Z" transform="translate(11.549 3.044)" fill="#eb9481"/>
        <path id="Trazado_662638" data-name="Trazado 662638" d="M92.946,50.228c1.336-1.229,1.8-1.661,3.157-2.868s2.727-2.383,4.164-3.482a13.79,13.79,0,0,1,4-2.509,6.978,6.978,0,0,1,4.426.256c3.224,1.156,5.667,4.023,8.055,6.352,2.666,2.6,8.4,7.182,13.509,7.936a10.107,10.107,0,0,0,4.2-.054,6.359,6.359,0,0,0,2.833-1.27c3.093-3.1,1.477-7.969-.516-11.631-3.712-6.827-9.583-12.6-15.432-17.6-1.436-1.229-2.9-2.422-4.37-3.615a15.308,15.308,0,0,0-5.582-3.273c-3.446-.914-10.006,1.136-12.037,1.745-.154.046-.2-.2-.047-.243,2.463-.779,8.83-3.729,14.33-2.013,2.011.628,3.646,2.165,5.3,3.444,1.724,1.337,3.409,2.733,5.057,4.164a81.108,81.108,0,0,1,9,9.015c2.584,3.079,5.281,6.591,6.573,10.445,1.121,3.339.628,7.553-1.952,10.093-2.174,2.141-5.58,1.915-7.12,1.722a16.889,16.889,0,0,1-4.385-1.173,71.892,71.892,0,0,1-8.83-5.25c-2.71-1.979-4.907-4.716-7.777-6.457a6,6,0,0,0-4.582-.865,15.98,15.98,0,0,0-4.157,2.2,48.876,48.876,0,0,0-7.344,5.222c-.62.547-1.026.221-.468-.293" transform="translate(15.671 2.947)" fill="#263238"/>
        <path id="Trazado_662639" data-name="Trazado 662639" d="M62.725,49.718c3.333-3.884,11.743-21.272,16.729-25.983s26.156-20,33.486-17.214c9.211,3.5-5.07,18.046-11.85,23.806s-9.02,17.937-9.02,17.937Z" transform="translate(10.606 1.046)" fill="#eb9481"/>
        <path id="Trazado_662640" data-name="Trazado 662640" d="M106.754,18.383c-2.338,1.775-4.538,3.842-6.687,5.84a57.2,57.2,0,0,0-6.036,5.886,25.324,25.324,0,0,0-3.862,7.335c-.465,1.288-.845,2.592-1.194,3.915-.381,1.444-.627,2.933-1.032,4.368-.043.152.187.236.234.082a63.733,63.733,0,0,1,3.052-7.6,34.671,34.671,0,0,1,4.392-7.218c3.494-4.4,7.88-7.991,11.414-12.354.144-.177-.116-.382-.282-.256" transform="translate(14.869 3.102)" fill="#263238"/>
        <path id="Trazado_662641" data-name="Trazado 662641" d="M105.046,67.5c3.624.272,6.257-1.14,8.627-2.918,2.241-1.682,4.376-3.508,6.632-5.173a29.075,29.075,0,0,1,7.2-4.251,33.118,33.118,0,0,1,9.231-1.535,18.046,18.046,0,0,1,8.886,1.294c2.275,1.072,4.654,3.423,3.427,6.189a11.026,11.026,0,0,1-2.543,3.249,28.355,28.355,0,0,1-3.157,2.566c-2.236,1.607-4.606,3.038-6.688,4.86-2.78,2.434-4.661,5.741-6.715,8.793-.758,1.127-5.61,8.823-7.461,11.426a45.176,45.176,0,0,1-5.2,6.218,62.82,62.82,0,0,1-5.967,4.861,37.833,37.833,0,0,0-6.234,5.585c-.084.1-.223-.037-.167-.14,2.387-4.309,6.626-7.2,10.476-10.046,5-3.7,16.082-22.78,18.088-25.37,3.34-4.314,8.415-6.379,12.232-10.134.876-.862,2.215-2.1,2.19-3.448-.026-1.325-1.228-2.349-2.283-2.909-2.625-1.391-5.837-1.3-8.7-1.021a39.606,39.606,0,0,0-8.866,1.466,29.1,29.1,0,0,0-7.08,3.7c-2.5,1.729-4.906,3.532-7.524,5.072a12.188,12.188,0,0,1-8.465,1.894c-.145-.026-.079-.237.071-.226" transform="translate(17.736 9.057)" fill="#263238"/>
        <path id="Trazado_662642" data-name="Trazado 662642" d="M140.955,32.013c-2.006-.981-3.991-2.038-6.017-2.972-.053-.025-.028-.11.028-.088,2.408.956,4.89,1.75,7.309,2.684,1.913.738,3.9,1.821,4.7,3.826a5.628,5.628,0,0,1-1.126,5.513c-1.378,1.707-3.368,2.612-5.276,3.583a.091.091,0,0,1-.085-.161c2.905-1.685,7.427-5.081,5.056-8.944-1.033-1.68-2.875-2.6-4.588-3.443" transform="translate(22.812 4.895)" fill="#263238"/>
        <path id="Trazado_662643" data-name="Trazado 662643" d="M131.76,49.131c2.288.067,4.808.019,6.833-1.191a5.132,5.132,0,0,0,2.035-2.141,5.08,5.08,0,0,0,.449-1.553,2.41,2.41,0,0,0-.215-1.65c-.1-.122.125-.224.157-.083a7.674,7.674,0,0,0,.371.892,3.611,3.611,0,0,1,.171.795,4.126,4.126,0,0,1-.133,1.595,5.2,5.2,0,0,1-2.023,2.8c-2.277,1.632-5.11,1.486-7.677.722a.1.1,0,0,1,.033-.187" transform="translate(22.263 7.177)" fill="#263238"/>
        <path id="Trazado_662644" data-name="Trazado 662644" d="M109.026,117.73c-4.973,17.976-42.821,113.807-53.4,127.327s-36.066,16.442-43.2-8S42.472,95.765,50.332,77.486c4.376-10.177,60.493,33.741,58.694,40.244" transform="translate(1.949 12.845)" fill="#eb9481"/>
        <path id="Trazado_662645" data-name="Trazado 662645" d="M117.427,128.28,43.141,85.2S11.385,194.194,10.815,227.8c-.41,24.128,28.494,42.145,51.342,9.541S117.427,128.28,117.427,128.28" transform="translate(1.828 14.407)" fill="#ffc727"/>
        <path id="Trazado_662646" data-name="Trazado 662646" d="M44.9,86.332a19.535,19.535,0,0,0-2.747,4.407,18.9,18.9,0,0,0-1.578,5.121,18.665,18.665,0,0,0,2.841-4.536,19.076,19.076,0,0,0,1.567-4.945v-.012ZM20.954,190.322a18.9,18.9,0,0,0-1.578,5.121,18.665,18.665,0,0,0,2.841-4.536,18.921,18.921,0,0,0,1.59-5.121,19.553,19.553,0,0,0-2.853,4.536m-5.495,44.811a18.794,18.794,0,0,0-1.59,5.121,18.645,18.645,0,0,0,2.853-4.548,19.208,19.208,0,0,0,1.59-5.121,18.645,18.645,0,0,0-2.853,4.548m44.823-15.689a18.793,18.793,0,0,0-1.59,5.121,20.589,20.589,0,0,0,4.431-9.668,18.957,18.957,0,0,0-2.841,4.548M85.254,109.737c-.012.105-.035.222-.047.327.07-.082.14-.164.2-.246Zm-.678,53.883a18.519,18.519,0,0,0-1.59,5.121,18.731,18.731,0,0,0,2.841-4.548,18.319,18.319,0,0,0,1.59-5.109,18.665,18.665,0,0,0-2.841,4.536M50.321,151.415a18.4,18.4,0,0,0-1.59,5.121,18.956,18.956,0,0,0,2.841-4.548,18.793,18.793,0,0,0,1.59-5.121,18.957,18.957,0,0,0-2.841,4.548M75.761,138.5a18.921,18.921,0,0,0-5.121-1.59,18.362,18.362,0,0,0,4.536,2.853,18.9,18.9,0,0,0,5.121,1.578,18.89,18.89,0,0,0-4.536-2.841m-25.533,55.5a18.9,18.9,0,0,0-5.121-1.578,18.664,18.664,0,0,0,4.536,2.841,18.921,18.921,0,0,0,5.121,1.59,19.311,19.311,0,0,0-4.536-2.853M39.121,125.508A18.668,18.668,0,0,0,34,123.918a20.589,20.589,0,0,0,9.668,4.431,18.956,18.956,0,0,0-4.548-2.841m-5.787,92a19.065,19.065,0,0,0-2.5-4.747,20.626,20.626,0,0,0,3.694,9.972,19.008,19.008,0,0,0-1.192-5.226M62.4,172.856a18.865,18.865,0,0,0-2.5-4.747,19.021,19.021,0,0,0,1.2,5.226,18.687,18.687,0,0,0,2.5,4.747,18.924,18.924,0,0,0-1.2-5.226M80.2,192.93a18.952,18.952,0,0,0-4.735,2.49,20.527,20.527,0,0,0,9.961-3.694,18.609,18.609,0,0,0-5.226,1.2M30.587,166.906a18.618,18.618,0,0,0-4.735,2.5,19.455,19.455,0,0,0,5.226-1.2,18.618,18.618,0,0,0,4.735-2.5,18.608,18.608,0,0,0-5.226,1.2m29.075-54.515a19.065,19.065,0,0,0-4.747,2.5,19.022,19.022,0,0,0,5.226-1.2,18.687,18.687,0,0,0,4.746-2.5,18.924,18.924,0,0,0-5.226,1.2m43.069,17.4a19,19,0,0,0-4.735,2.5,18.94,18.94,0,0,0,5.214-1.2,18.494,18.494,0,0,0,4.746-2.5,19.021,19.021,0,0,0-5.226,1.2M40.325,243.212a19,19,0,0,0-4.735,2.5,18.941,18.941,0,0,0,5.214-1.2,18.494,18.494,0,0,0,4.747-2.5,18.608,18.608,0,0,0-5.226,1.2" transform="translate(2.345 14.598)" fill="#fff"/>
        <path id="Trazado_662647" data-name="Trazado 662647" d="M102.9,139.072c-11.251-6.037-56.4-32.421-65.766-38.781-.649-.441-.527-.96.208-.588,34.155,17.277,55.048,32.432,65.781,38.917.268.161.063.606-.223.452" transform="translate(6.207 16.837)" fill="#263238"/>
        <path id="Trazado_662648" data-name="Trazado 662648" d="M73.637,193.938c7.845-14.731,15.378-29.621,22.15-44.877q2.843-6.4,5.563-12.855c1.74-4.14,3.519-8.285,5.074-12.5-1.557-1.087-8.384-5.549-9.121-6.236a.3.3,0,0,1,.314-.491c.9.339,8.828,4.934,10.509,6.183.236.175-3.14,8.384-4.678,12.307s-3.119,7.829-4.754,11.712Q93.84,158.717,88.41,170q-5.831,12.16-12.273,23.978c-3.7,6.755-12.6,18.929-2.5-.036" transform="translate(11.663 19.777)" fill="#263238"/>
      </g>
    </g>
    <g id="Grupo_953312" data-name="Grupo 953312">
      <g id="Grupo_953311" data-name="Grupo 953311" clip-path="url(#clip-path)">
        <path id="Trazado_662649" data-name="Trazado 662649" d="M329.659,289.335s14.568,1.973,15.108-8.069-14.157-9.64-14.157-9.64Z" transform="translate(55.742 45.929)" fill="#dd6a57"/>
        <rect id="Rectángulo_352009" data-name="Rectángulo 352009" width="17.735" height="103.379" transform="matrix(0.054, -0.999, 0.999, 0.054, 282.75, 329.746)" fill="#ffc727"/>
        <rect id="Rectángulo_352010" data-name="Rectángulo 352010" width="20.709" height="4.109" transform="matrix(0.054, -0.999, 0.999, 0.054, 382.352, 336.588)" fill="#37474f"/>
        <rect id="Rectángulo_352011" data-name="Rectángulo 352011" width="20.709" height="4.109" transform="matrix(0.054, -0.999, 0.999, 0.054, 377.817, 336.344)" fill="#37474f"/>
        <path id="Trazado_662650" data-name="Trazado 662650" d="M245.193,266.9l-13.1,5.979-4.326,1.956,4.089,2.447,12.384,7.349,2.668-1.654s-2.44-1.851-2.477-1.892l2.668-1.654s-2.44-1.851-2.477-1.892l2.666-1.616s-2.438-1.89-2.475-1.931l2.667-1.614s-2.439-1.89-2.476-1.931l2.667-1.615s-2.439-1.89-2.476-1.931" transform="translate(38.513 45.13)" fill="#ebebeb"/>
        <path id="Trazado_662651" data-name="Trazado 662651" d="M232.093,272.013l-4.326,1.956,4.089,2.447Z" transform="translate(38.513 45.995)" fill="#37474f"/>
      </g>
    </g>
    <path id="Trazado_662652" data-name="Trazado 662652" d="M186.911,258.845l15.133,39.091-138.195,0,16.524-39.053Z" transform="translate(10.796 43.768)" fill="#ffc727"/>
    <path id="Trazado_662653" data-name="Trazado 662653" d="M79.176,261.307,63.849,297.53v6.623H202.044v-6.626l-14.036-36.258Z" transform="translate(10.796 44.178)" fill="#ffc727"/>
    <g id="Grupo_953317" data-name="Grupo 953317">
      <g id="Grupo_953316" data-name="Grupo 953316" clip-path="url(#clip-path)">
        <g id="Grupo_953315" data-name="Grupo 953315" transform="translate(74.645 302.613)" opacity="0.1">
          <g id="Grupo_953314" data-name="Grupo 953314">
            <g id="Grupo_953313" data-name="Grupo 953313" clip-path="url(#clip-path-11)">
              <path id="Trazado_662654" data-name="Trazado 662654" d="M186.911,258.845l15.133,39.091-138.195,0,16.524-39.053Z" transform="translate(-63.849 -258.845)"/>
            </g>
          </g>
        </g>
      </g>
    </g>
    <path id="Trazado_662655" data-name="Trazado 662655" d="M112.226,283.285l-.871,7.513H94.565l1.624-7.511Z" transform="translate(15.99 47.9)" fill="#fff"/>
    <path id="Trazado_662656" data-name="Trazado 662656" d="M112.947,276l-.871,7.513H96.138l1.625-7.511Z" transform="translate(16.256 46.669)" fill="#fff"/>
    <path id="Trazado_662657" data-name="Trazado 662657" d="M113.669,268.722l-.871,7.513-15.085,0,1.624-7.511Z" transform="translate(16.522 45.438)" fill="#ffc727"/>
    <path id="Trazado_662658" data-name="Trazado 662658" d="M114.39,261.441l-.871,7.513-14.231,0,1.624-7.511Z" transform="translate(16.788 44.207)" fill="#ffc727"/>
    <path id="Trazado_662659" data-name="Trazado 662659" d="M127.836,283.283l-.008,7.513h-16.79l.761-7.513Z" transform="translate(18.775 47.9)" fill="#37474f"/>
    <path id="Trazado_662660" data-name="Trazado 662660" d="M127.72,276l-.008,7.514H111.775l.761-7.513Z" transform="translate(18.9 46.669)" fill="#37474f"/>
    <path id="Trazado_662661" data-name="Trazado 662661" d="M127.6,268.718l-.008,7.513-15.085,0,.761-7.513Z" transform="translate(19.024 45.437)" fill="#37474f"/>
    <path id="Trazado_662662" data-name="Trazado 662662" d="M127.571,261.436l0,7.514-14.231,0,.755-7.513Z" transform="translate(19.164 44.206)" fill="#fff"/>
    <path id="Trazado_662663" data-name="Trazado 662663" d="M143.46,283.281l.856,7.514h-16.79l-.1-7.514Z" transform="translate(21.546 47.9)" fill="#37474f"/>
    <path id="Trazado_662664" data-name="Trazado 662664" d="M142.507,276l.856,7.514-15.937,0-.1-7.514Z" transform="translate(21.529 46.668)" fill="#37474f"/>
    <path id="Trazado_662665" data-name="Trazado 662665" d="M141.554,268.715l.856,7.514-15.085,0-.1-7.514Z" transform="translate(21.512 45.437)" fill="#37474f"/>
    <path id="Trazado_662666" data-name="Trazado 662666" d="M140.6,261.431l.856,7.515-14.231,0-.1-7.514Z" transform="translate(21.495 44.205)" fill="#fff"/>
    <path id="Trazado_662667" data-name="Trazado 662667" d="M159.194,283.28l1.719,7.515h-16.79l-.966-7.515Z" transform="translate(24.206 47.9)" fill="#37474f"/>
    <path id="Trazado_662668" data-name="Trazado 662668" d="M157.4,276l1.719,7.515-15.937,0L142.22,276Z" transform="translate(24.048 46.668)" fill="#37474f"/>
    <path id="Trazado_662669" data-name="Trazado 662669" d="M155.615,268.711l1.719,7.515-15.084,0-.967-7.515Z" transform="translate(23.889 45.436)" fill="#37474f"/>
    <path id="Trazado_662670" data-name="Trazado 662670" d="M153.825,261.426l1.719,7.515-14.231,0-.966-7.515Z" transform="translate(23.731 44.204)" fill="#fff"/>
    <path id="Trazado_662671" data-name="Trazado 662671" d="M174.928,283.278l2.583,7.516H160.72l-1.83-7.515Z" transform="translate(26.867 47.899)" fill="#37474f"/>
    <path id="Trazado_662672" data-name="Trazado 662672" d="M172.3,275.993l2.583,7.516-15.937,0L157.118,276Z" transform="translate(26.567 46.667)" fill="#37474f"/>
    <path id="Trazado_662673" data-name="Trazado 662673" d="M169.675,268.707l2.583,7.516-15.085,0-1.83-7.516Z" transform="translate(26.267 45.436)" fill="#fff"/>
    <path id="Trazado_662674" data-name="Trazado 662674" d="M167.049,261.422l2.583,7.516-14.231,0-1.83-7.516Z" transform="translate(25.967 44.204)" fill="#fff"/>
    <g id="Grupo_953319" data-name="Grupo 953319">
      <g id="Grupo_953318" data-name="Grupo 953318" clip-path="url(#clip-path)">
        <path id="Trazado_662675" data-name="Trazado 662675" d="M100.913,287.794H100.9c-.675,0-1.194-.209-1.136-.519s.648-.512,1.3-.512h.014c.663,0,1.189.206,1.136.519s-.644.512-1.3.512m.133-.753h-.014c-.383,0-.717.1-.742.241s.275.234.645.234h.014c.39,0,.718-.1.741-.241s-.275-.234-.644-.234m3.137.394L100.14,286c-.077-.022-.111-.063-.1-.106.013-.069.138-.125.288-.125a.538.538,0,0,1,.172.028l4.04,1.436c.078.025.113.066.106.109-.011.069-.136.123-.286.123a.553.553,0,0,1-.174-.028m-.594-.963h-.013c-.67,0-1.187-.21-1.135-.519s.636-.513,1.287-.513h.014c.658,0,1.182.209,1.134.519s-.631.513-1.287.513m.122-.754H103.7c-.381,0-.71.1-.733.241s.275.235.642.235h.014c.388,0,.711-.1.733-.241s-.276-.235-.643-.235" transform="translate(16.868 48.265)" fill="#37474f"/>
        <path id="Trazado_662676" data-name="Trazado 662676" d="M104.368,273.845c-1.228,0-2.131-.521-2.021-1.147a1.145,1.145,0,0,1,.61-.723.646.646,0,0,1,.5-.032c.141.062.146.178.022.25a.766.766,0,0,0-.427.5.569.569,0,0,0,.344.563,2.2,2.2,0,0,0,1.037.228,2.667,2.667,0,0,0,1.113-.228.881.881,0,0,0,.534-.563.51.51,0,0,0-.257-.5c-.094-.071-.05-.187.108-.25a.609.609,0,0,1,.485.032.754.754,0,0,1,.366.723c-.1.625-1.175,1.145-2.41,1.148" transform="translate(17.304 45.977)" fill="#37474f"/>
        <path id="Trazado_662677" data-name="Trazado 662677" d="M106.591,271.618h-3.6c-.189,0-.323-.075-.3-.172v-.009l.186-1.014c.016-.091.177-.172.364-.172s.324.081.307.172l-.151.848h1.113l.124-.73c.016-.094.187-.172.362-.172s.325.078.31.172l-.12.728h1.119l.134-.848c.014-.09.178-.172.366-.172s.319.081.305.172l-.155,1.014a.007.007,0,0,1-.007.006l.006,0c-.015.1-.179.172-.362.172" transform="translate(17.364 45.697)" fill="#37474f"/>
        <path id="Trazado_662678" data-name="Trazado 662678" d="M105.711,265.771c-1.149,0-1.99-.521-1.88-1.147a1.151,1.151,0,0,1,.58-.723.575.575,0,0,1,.464-.032c.132.062.134.178.019.25a.768.768,0,0,0-.406.5.568.568,0,0,0,.316.564,1.935,1.935,0,0,0,.968.228,2.365,2.365,0,0,0,1.045-.229.872.872,0,0,0,.505-.562.515.515,0,0,0-.236-.5c-.085-.071-.044-.187.1-.25a.535.535,0,0,1,.454.032.763.763,0,0,1,.336.723c-.1.625-1.112,1.145-2.268,1.148" transform="translate(17.555 44.612)" fill="#37474f"/>
        <path id="Trazado_662679" data-name="Trazado 662679" d="M116.895,285.912l3.992.782c.143.025.222.087.22.159a.1.1,0,0,1-.03.065.639.639,0,0,1-.5.094l-3.472-.675-.05.807c-.006.094-.188.172-.4.172s-.372-.078-.366-.172l.071-1.072a.056.056,0,0,1,.008-.032.28.28,0,0,1,.06-.067l.021-.008a.045.045,0,0,1,.027-.013.1.1,0,0,0,.029-.013.139.139,0,0,0,.027-.009.131.131,0,0,1,.035-.006.208.208,0,0,0,.035-.013l.034,0a.294.294,0,0,0,.034-.006,1.072,1.072,0,0,1,.151,0l.067.009" transform="translate(19.664 48.343)" fill="#fff"/>
        <path id="Trazado_662680" data-name="Trazado 662680" d="M119.831,278.632c.845,0,1.523.334,1.508.744s-.724.751-1.577.751a2.21,2.21,0,0,1-1.278-.334,1.941,1.941,0,0,1-.649.1c-.586,0-1.052-.231-1.032-.519s.511-.513,1.093-.513a1.826,1.826,0,0,1,.634.1,2.385,2.385,0,0,1,1.3-.334m-.015.34c-.459,0-.85.181-.862.4s.362.407.824.41.845-.185.855-.41-.358-.4-.817-.4m-1.961.582c.2,0,.374-.078.38-.179s-.159-.172-.359-.172-.361.078-.367.173.151.178.346.178" transform="translate(19.75 47.114)" fill="#fff"/>
        <path id="Trazado_662681" data-name="Trazado 662681" d="M118.724,272.835c-.825,0-1.468-.34-1.44-.76.026-.394.625-.717,1.371-.754l.013,0c.116,0,.231-.006.347-.006a6.7,6.7,0,0,1,1.244.109,2.482,2.482,0,0,1,1.028.4.633.633,0,0,1,.27.469c0,.1-.141.175-.332.182s-.336-.073-.35-.17a.39.39,0,0,0-.159-.293,1.266,1.266,0,0,0-.42-.2c-.048-.015-.1-.028-.158-.04a.431.431,0,0,1,.11.3c-.02.42-.7.761-1.524.761m.019-.347c.442,0,.82-.185.831-.414s-.346-.409-.786-.409-.811.182-.825.41.332.413.78.413" transform="translate(19.831 45.876)" fill="#fff"/>
        <path id="Trazado_662682" data-name="Trazado 662682" d="M119.608,265.42c-.191,0-.344-.084-.338-.185l.051-.975c0-.1.165-.184.354-.184s.334.084.33.184l-.047.975c0,.1-.165.185-.351.185" transform="translate(20.167 44.653)" fill="#37474f"/>
        <path id="Trazado_662683" data-name="Trazado 662683" d="M135.786,285.779c.21,0,.38.078.387.175l0,.03h.517c.212,0,.38.076.388.172s-.151.173-.362.173H136.2l.071.979v.007c0,.037-.015.075-.075.106a.693.693,0,0,1-.527.028l-3.216-1.157-.014-.006a.086.086,0,0,0-.028-.009.051.051,0,0,0-.021-.016.2.2,0,0,1-.021-.013c-.007-.006-.014-.009-.014-.019s-.021-.006-.021-.012-.007-.009-.015-.019a.012.012,0,0,0-.007-.013v-.054a.016.016,0,0,0,.006-.015c.007,0,.006-.013.013-.019l.006-.013a.216.216,0,0,0,.027-.015l.02-.015.006,0s.007-.009.013-.009l.028-.013c.006,0,.019-.006.026-.009l.034-.013a.075.075,0,0,0,.027-.006.252.252,0,0,1,.04-.006l.028,0a.133.133,0,0,1,.041,0l.034,0h2.77v-.032c-.007-.1.158-.175.361-.175m-2.021.551,1.727.622-.042-.622Z" transform="translate(22.372 48.322)" fill="#fff"/>
        <path id="Trazado_662684" data-name="Trazado 662684" d="M133.743,278.894a2.558,2.558,0,0,1,1.122-.228,2.8,2.8,0,0,1,1.146.228c.328.15.5.35.514.547v.006c.015.194-.125.4-.433.545a.661.661,0,0,1-.521,0c-.147-.065-.155-.181-.018-.25.17-.082.247-.188.239-.3s-.1-.216-.281-.3a1.524,1.524,0,0,0-.623-.125,1.36,1.36,0,0,0-.613.125c-.17.082-.241.187-.235.3s.092.22.272.3c.147.069.154.181.015.25-.025.013-.056.022-.082.035s-.02,0-.02,0a.07.07,0,0,0-.032.007c-.02,0-.033,0-.046,0l-.013,0a.581.581,0,0,1-.111,0l-1.69-.094a.57.57,0,0,1-.264-.078c-.006-.006-.006-.009-.013-.013s-.007-.006-.014-.009a.119.119,0,0,1-.043-.081l-.044-.924c0-.1.153-.178.36-.178s.365.078.371.178l.041.77.644.037a.454.454,0,0,1-.07-.21c-.011-.2.132-.4.441-.547" transform="translate(22.313 47.119)" fill="#fff"/>
        <path id="Trazado_662685" data-name="Trazado 662685" d="M134.38,271.314c.816,0,1.5.34,1.534.76.03.394-.53.717-1.278.754l-.012,0c-.117,0-.234.006-.351.006a7.022,7.022,0,0,1-1.268-.109,2.741,2.741,0,0,1-1.072-.4.7.7,0,0,1-.311-.469c-.012-.1.125-.177.314-.182s.34.072.364.17a.436.436,0,0,0,.187.293,1.419,1.419,0,0,0,.44.2c.05.015.106.028.162.04a.478.478,0,0,1-.14-.3c-.023-.419.615-.76,1.431-.76m.023.347c-.44,0-.795.185-.781.413s.394.41.837.41.791-.182.774-.41-.385-.413-.83-.413" transform="translate(22.256 45.876)" fill="#fff"/>
        <path id="Trazado_662686" data-name="Trazado 662686" d="M133.559,265.371c.006.091-.129.162-.291.164s-.306-.072-.312-.164l-.076-1.263c-.006-.091.127-.164.288-.164s.3.072.309.162Zm-1.57-.846h.029c.213,0,.39.1.4.215s-.16.216-.374.216h-.029c-.208,0-.386-.1-.392-.216s.161-.215.368-.215m2.4,0h.029c.213,0,.387.1.4.215s-.151.216-.365.216h-.029c-.213,0-.394-.1-.4-.215s.158-.216.371-.216" transform="translate(22.256 44.63)" fill="#37474f"/>
        <path id="Trazado_662687" data-name="Trazado 662687" d="M148.758,286.212h4.024c.212,0,.39.081.409.175s-.131.172-.344.172h-3.362l.179.125a.138.138,0,0,1,.07.088c.009.06-.049.116-.167.147a.694.694,0,0,1-.523-.056l-.563-.386c-.007,0-.008-.009-.015-.012s-.015-.009-.023-.016-.008-.012-.009-.019a.012.012,0,0,1-.009-.012.035.035,0,0,1-.011-.022v-.013l0-.022a.008.008,0,0,0,0-.012c0-.009.006-.013.011-.019a.011.011,0,0,1,.006-.013c.012-.009.018-.013.016-.019a.049.049,0,0,0,.019-.013c.007,0,.012-.009.019-.013a.073.073,0,0,1,.026-.012.063.063,0,0,1,.025-.009l.026-.013.013,0,.02,0a.118.118,0,0,1,.034-.007.17.17,0,0,0,.033-.006c.014,0,.027,0,.034,0a.111.111,0,0,0,.047-.006Z" transform="translate(25.094 48.395)" fill="#fff"/>
        <path id="Trazado_662688" data-name="Trazado 662688" d="M151.289,278.616c.2,0,.369.075.388.172l.213,1.107v.007c.009.047-.02.1-.092.129a.676.676,0,0,1-.51-.009l-1.908-.926a1.47,1.47,0,0,0-.644-.132,1.311,1.311,0,0,0-.544.1c-.175.081-.241.191-.222.3a.427.427,0,0,0,.26.272l.2.1c.148.072.154.179.015.244a.662.662,0,0,1-.509-.013l-.2-.1a.769.769,0,0,1-.485-.5c-.034-.2.108-.41.419-.558a2.4,2.4,0,0,1,1.007-.194,2.832,2.832,0,0,1,1.192.248l1.216.59-.125-.666c-.019-.1.129-.172.329-.172" transform="translate(24.898 47.111)" fill="#fff"/>
        <path id="Trazado_662689" data-name="Trazado 662689" d="M147.674,271.588a2.131,2.131,0,0,1,1.026-.229,2.7,2.7,0,0,1,1.116.229.883.883,0,0,1,.552.551c.037.2-.077.4-.344.547a.61.61,0,0,1-.492,0c-.148-.069-.17-.181-.047-.25.145-.082.2-.188.184-.3s-.12-.216-.295-.3a1.467,1.467,0,0,0-.609-.125,1.132,1.132,0,0,0-.559.125.3.3,0,0,0-.192.3c.014.05-.02.1-.088.129l-.006,0a.608.608,0,0,1-.49.006l-.692-.319.085.507c.016.1-.124.175-.322.175s-.357-.078-.372-.175l-.151-.922c-.016-.1.123-.179.312-.179a.69.69,0,0,1,.168.022.729.729,0,0,1,.09.03l.862.394a.763.763,0,0,1,.261-.219" transform="translate(24.684 45.884)" fill="#fff"/>
        <path id="Trazado_662690" data-name="Trazado 662690" d="M146.27,264.195l1.01.372.88-.373a.518.518,0,0,1,.42.032.176.176,0,0,1,.083.1c.009.049-.034.1-.1.137l-.731.313.851.313c.081.034.141.078.151.127a.1.1,0,0,1-.043.1.458.458,0,0,1-.411.035l-1.024-.375-.881.375a.49.49,0,0,1-.417-.034c-.112-.076-.1-.172.025-.229l.719-.313-.828-.312c-.143-.06-.188-.159-.1-.237a.463.463,0,0,1,.4-.032" transform="translate(24.658 44.667)" fill="#37474f"/>
        <path id="Trazado_662691" data-name="Trazado 662691" d="M167.765,286.417c-.039-.129.161-.235.441-.235s.538.106.576.235-.154.231-.434.231-.545-.1-.583-.231" transform="translate(28.366 48.39)" fill="#fff"/>
        <path id="Trazado_662692" data-name="Trazado 662692" d="M165.039,280.213a5.8,5.8,0,0,1-1.617-.213c-.454-.131-.816-.334-.884-.581s.179-.448.555-.58a4.556,4.556,0,0,1,1.482-.209,5.814,5.814,0,0,1,1.605.209c.447.131.821.338.894.579s-.173.45-.542.582a4.624,4.624,0,0,1-1.494.213m-.361-1.236a3.571,3.571,0,0,0-1.108.151c-.246.09-.346.194-.312.291s.181.2.48.3a4.524,4.524,0,0,0,1.2.15,3.59,3.59,0,0,0,1.106-.15c.25-.095.341-.2.312-.3s-.184-.2-.489-.291a4.466,4.466,0,0,0-1.19-.15" transform="translate(27.482 47.113)" fill="#fff"/>
        <path id="Trazado_662693" data-name="Trazado 662693" d="M162.191,272.683c-.192,0-.379-.082-.408-.186l-.276-.961c-.029-.1.109-.18.3-.18s.374.077.4.18l.281.961c.03.1-.1.186-.3.186m1.138,0c-.2,0-.389-.083-.42-.186l-.284-.961c-.03-.1.108-.18.309-.18s.386.077.417.18l.288.961c.032.1-.106.186-.31.186" transform="translate(27.309 45.883)" fill="#37474f"/>
        <path id="Trazado_662694" data-name="Trazado 662694" d="M160.747,264.91l.131.444c.028.094-.088.172-.268.172s-.343-.077-.369-.172l-.129-.444h-.8c-.185,0-.351-.077-.379-.178s.094-.179.277-.179h.8l-.129-.444c-.028-.094.094-.172.265-.172s.338.078.366.172l.131.444h.8c.184,0,.353.081.382.178s-.09.179-.275.179Z" transform="translate(26.873 44.629)" fill="#37474f"/>
        <path id="Trazado_662695" data-name="Trazado 662695" d="M101.831,278.3c.151,0,.265.058.251.134l-.07.394c.911.164,3.3.578,3.988.67a.652.652,0,0,1,.208.068c.043.029.065.06.06.091-.007.048-.05.09-.133.125,0,0-.911.417-1.232.548-.458.187-.649.105-.678.078s-.044-.051-.041-.075.046-.075.112-.118l.316-.136c.092-.039.175-.076.256-.112l.24-.108.267-.119c-.641-.1-3.147-.539-3.769-.656h0a.364.364,0,0,1-.085-.037c-.055-.023-.084-.061-.077-.1l.094-.513c.013-.076.148-.134.3-.134" transform="translate(17.152 47.057)" fill="#37474f"/>
        <path id="Trazado_662696" data-name="Trazado 662696" d="M97.835,261.447,88.762,294.49H71.084l12.561-33.04Z" transform="translate(12.02 44.208)" fill="#455a64"/>
        <path id="Trazado_662697" data-name="Trazado 662697" d="M81.121,274.209h6.138c.323,0,.531.136.484.292s-.338.286-.662.286H81.943l.17.209a.137.137,0,0,1,.034.146.516.516,0,0,1-.378.245.815.815,0,0,1-.754-.095l-.539-.641c-.008-.006,0-.016-.013-.021s-.015-.016-.022-.027,0-.021,0-.03,0-.016,0-.021,0-.027,0-.036l0-.016,0,0,.013-.037a.03.03,0,0,0,.018-.02c.006-.016.018-.021.032-.032a.031.031,0,0,1,.019-.021c.026-.015.039-.021.042-.032a.162.162,0,0,0,.039-.021c.012,0,.026-.015.039-.021a.188.188,0,0,1,.049-.02.231.231,0,0,1,.047-.016l.049-.021.022,0c.011,0,.023-.006.034-.006a.24.24,0,0,1,.055-.011.344.344,0,0,0,.056-.011c.021,0,.043,0,.054,0a.174.174,0,0,0,.076-.01Z" transform="translate(13.601 46.366)" fill="#fff"/>
        <path id="Trazado_662698" data-name="Trazado 662698" d="M88.087,271.623c.316,0,.523.125.473.286L88,273.758v.009a.392.392,0,0,1-.251.214.988.988,0,0,1-.8-.015l-2.268-1.544a1.623,1.623,0,0,0-.91-.219,2.614,2.614,0,0,0-.949.173.965.965,0,0,0-.6.5.387.387,0,0,0,.184.455l.234.161c.177.119.1.3-.18.407a.976.976,0,0,1-.8-.021l-.234-.161a.7.7,0,0,1-.345-.841,1.871,1.871,0,0,1,1.134-.928,4.766,4.766,0,0,1,1.754-.324,3.084,3.084,0,0,1,1.681.412l1.44.986.346-1.111c.05-.162.345-.288.661-.288" transform="translate(13.702 45.929)" fill="#fff"/>
        <path id="Trazado_662699" data-name="Trazado 662699" d="M85.085,269.371a4.671,4.671,0,0,1,1.873-.381,3.211,3.211,0,0,1,1.639.38.8.8,0,0,1,.451.919,1.72,1.72,0,0,1-1.017.913.994.994,0,0,1-.81,0c-.187-.115-.127-.3.131-.417a.921.921,0,0,0,.548-.5.431.431,0,0,0-.235-.5,1.736,1.736,0,0,0-.9-.208,2.481,2.481,0,0,0-1.021.209.978.978,0,0,0-.566.5c-.018.083-.113.161-.251.214,0,.006,0,.006-.012.006a1,1,0,0,1-.811.011l-.865-.532-.291.845c-.056.161-.353.291-.678.291s-.52-.13-.464-.291l.542-1.54c.06-.167.354-.3.664-.3a.921.921,0,0,1,.257.036.584.584,0,0,1,.122.051l1.077.657a2.482,2.482,0,0,1,.613-.365" transform="translate(13.832 45.483)" fill="#fff"/>
        <path id="Trazado_662700" data-name="Trazado 662700" d="M88.5,265.9c.3,0,.493.13.443.292l-.016.051h.741c.3,0,.5.125.449.286s-.322.288-.625.288h-.744l-.511,1.633,0,.006v0a.308.308,0,0,1-.174.178.929.929,0,0,1-.779.047l-3.886-1.929c0-.006-.008-.006-.016-.011a.1.1,0,0,0-.034-.015.038.038,0,0,0-.02-.027c-.008,0-.014-.015-.022-.02s-.014-.016-.008-.032c-.018-.006-.026-.011-.022-.021s0-.015-.008-.032.006-.015,0-.021l.013-.036,0-.01,0-.011.012-.032a.045.045,0,0,0,.019-.026c.012,0,.018-.021.03-.032s.015-.015.018-.021c.022-.011.036-.02.048-.026s.025-.015.039-.026,0-.006.012-.006a.035.035,0,0,1,.025-.015l.047-.021.044-.015a.373.373,0,0,1,.056-.021.159.159,0,0,0,.042-.011.474.474,0,0,1,.063-.011c.009,0,.03-.006.04-.006a.238.238,0,0,1,.061,0c.02,0,.032-.006.05-.006H87.85l.016-.051c.051-.161.337-.292.629-.292m-3.248.919,2.086,1.038.332-1.039Z" transform="translate(14.078 44.96)" fill="#fff"/>
        <path id="Trazado_662701" data-name="Trazado 662701" d="M86.955,263.727a4.328,4.328,0,0,1,1.8-.381,2.908,2.908,0,0,1,1.548.38.787.787,0,0,1,.42.913l0,.011a1.671,1.671,0,0,1-.982.908.872.872,0,0,1-.774,0c-.178-.11-.117-.3.132-.417a.908.908,0,0,0,.541-.5.424.424,0,0,0-.229-.5,1.586,1.586,0,0,0-.842-.208,2.306,2.306,0,0,0-.987.209.911.911,0,0,0-.537.5.414.414,0,0,0,.21.5c.174.116.113.3-.137.417-.046.021-.1.037-.145.058-.019,0-.028,0-.03,0a.125.125,0,0,0-.051.011c-.029,0-.05,0-.07,0s-.011.006-.021.006a.847.847,0,0,1-.164,0l-2.453-.155a.539.539,0,0,1-.34-.131c-.007-.011,0-.015-.013-.02s-.006-.01-.014-.016a.152.152,0,0,1-.009-.136l.542-1.54c.058-.167.343-.3.647-.3.286,0,.489.13.431.3l-.443,1.284.933.062a.732.732,0,0,1,.032-.35,1.765,1.765,0,0,1,1.005-.913" transform="translate(14.169 44.529)" fill="#fff"/>
      </g>
    </g>
  </g>
</svg>
