<svg xmlns="http://www.w3.org/2000/svg" xmlns:xlink="http://www.w3.org/1999/xlink" width="83.602" height="154.928" viewBox="0 0 83.602 154.928">
  <defs>
    <clipPath id="clip-path">
      <rect id="Rectángulo_352003" data-name="Rectángulo 352003" width="23.381" height="24.199" fill="none"/>
    </clipPath>
    <clipPath id="clip-path-2">
      <rect id="Rectángulo_352004" data-name="Rectángulo 352004" width="23.495" height="24.123" fill="none"/>
    </clipPath>
    <clipPath id="clip-path-3">
      <rect id="Rectángulo_352005" data-name="Rectángulo 352005" width="24.031" height="27.975" fill="none"/>
    </clipPath>
  </defs>
  <g id="Grupo_953335" data-name="Grupo 953335" transform="translate(-1261.252 -334.998)">
    <path id="Trazado_662573" data-name="Trazado 662573" d="M357.625,153.077c18.7,18.307,21.839,46.629,17.9,71.437-.1.564-.973.409-.973-.119,0-5.648.171-11.244.154-16.823-.1-.256-.188-.495-.29-.751-4.88-3.549-9.368-7.558-12.149-13.052-3.121-6.142-4.35-13.069-6.739-19.485-.222-.614.433-.434.862-.117,11.374,8.388,15,17.417,18.265,29.481a100.314,100.314,0,0,0-1.979-18.785c-2.457-11.449-7.32-22.795-15.543-31.292-.307-.324.171-.818.495-.495" transform="translate(924.108 223.588)" fill="#263238"/>
    <g id="Grupo_953297" data-name="Grupo 953297" transform="translate(1261.252 361.878)" opacity="0.1">
      <g id="Grupo_953296" data-name="Grupo 953296">
        <g id="Grupo_953295" data-name="Grupo 953295" clip-path="url(#clip-path)">
          <path id="Trazado_662575" data-name="Trazado 662575" d="M356.763,157.335c-3.217.109-5.233,5.25-7.741,6.75-1.326.8-2.618.749-3.551-.558-2.484-3.468.925-7.745,4.129-10.138-2.293.942-4.194,2.6-6.664,3.068a2.324,2.324,0,0,1-3.01-1.8c-1.088-4.728,4.841-6.83,8.91-6.929-1.972-1.371-7.626-5.1-4.623-6.932,3.043-1.84,9.677,3.489,11.841,5.245,3.18,2.58,6.972,6.436,7.115,10.472.187,4.711-3.93,1.812-6.407.824" transform="translate(-339.796 -140.414)"/>
        </g>
      </g>
    </g>
    <path id="Trazado_662576" data-name="Trazado 662576" d="M357.029,157.5c-4.113-1.869-12.015.822-12.687-.735-1.362-3.168,4.952-5.343,8.361-5.762-3.139-.851-9.154-2.206-8.969-5.233.227-3.7,9.225-.518,13.78,2.975,5.738,4.4,5.7,8.645,4.752,9.5-1.3,1.167-4.558-.431-5.238-.74" transform="translate(922.121 222.091)" fill="#ffc727"/>
    <path id="Trazado_662577" data-name="Trazado 662577" d="M396.849,151.526c-19.382,17.583-23.6,45.765-20.6,70.7.081.567.956.447.976-.082.215-5.643.257-11.242.486-16.816.112-.253.206-.488.318-.739,5.012-3.361,9.648-7.2,12.635-12.582,3.354-6.018,4.845-12.894,7.476-19.213.244-.606-.416-.45-.857-.151-11.685,7.95-15.652,16.834-19.373,28.764a100.347,100.347,0,0,1,2.692-18.7c2.891-11.346,8.181-22.5,16.723-30.677.319-.312-.14-.825-.476-.513" transform="translate(927.472 223.327)" fill="#263238"/>
    <g id="Grupo_953300" data-name="Grupo 953300" transform="translate(1321.358 360.627)" opacity="0.1">
      <g id="Grupo_953299" data-name="Grupo 953299">
        <g id="Grupo_953298" data-name="Grupo 953298" clip-path="url(#clip-path-2)">
          <path id="Trazado_662579" data-name="Trazado 662579" d="M397.6,155.836c3.21.23,5.029,5.446,7.479,7.04,1.294.849,2.587.849,3.568-.423,2.615-3.37-.628-7.774-3.74-10.287,2.254,1.029,4.092,2.756,6.542,3.319a2.324,2.324,0,0,0,3.076-1.686c1.268-4.683-4.577-7.01-8.638-7.264,2.023-1.3,7.814-4.8,4.882-6.752-2.971-1.954-9.8,3.119-12.031,4.791-3.276,2.457-7.212,6.166-7.508,10.193-.366,4.7,3.859,1.959,6.37,1.067" transform="translate(-391.209 -139.344)"/>
        </g>
      </g>
    </g>
    <path id="Trazado_662580" data-name="Trazado 662580" d="M396.678,155.973c4.182-1.713,11.975,1.278,12.706-.253,1.481-3.114-4.745-5.526-8.136-6.077,3.169-.731,9.23-1.855,9.161-4.887-.085-3.7-9.2-.869-13.883,2.448-5.9,4.179-6.026,8.422-5.109,9.308,1.256,1.215,4.571-.257,5.261-.54" transform="translate(930.113 221.903)" fill="#ffc727"/>
    <path id="Trazado_662581" data-name="Trazado 662581" d="M378.991,200.75a190.461,190.461,0,0,1-6.018,27.8.692.692,0,0,1-1.354-.274c1.273-8.567,3.594-16.976,4.867-25.543a128.623,128.623,0,0,0,1.488-26.224c-.816-14.437-4.736-29.794-14.156-41.09-.207-.268.233-.646.445-.4,18.861,21.991,15.86,48.953,15.842,51.37,2.67-9.1,5.422-19.54,15.522-28.811.435-.4.775-.209.7.47-1.806,16.886-6.5,25.7-16.29,34.73-.278,2.676-.623,5.339-1.049,7.969" transform="translate(925.509 220.539)" fill="#263238"/>
    <g id="Grupo_953303" data-name="Grupo 953303" transform="translate(1272.942 334.998)" opacity="0.1">
      <g id="Grupo_953302" data-name="Grupo 953302">
        <g id="Grupo_953301" data-name="Grupo 953301" clip-path="url(#clip-path-3)">
          <path id="Trazado_662583" data-name="Trazado 662583" d="M366.009,140.913c-3.393-1.507-8.073,2.813-11.43,3.107-1.777.161-3.092-.54-3.4-2.365-.832-4.849,4.858-7.572,9.388-8.441-2.853-.177-5.66.586-8.46-.171-1.692-.47-2.619-1.631-2.215-3.386,1.25-5.454,8.461-4.651,12.731-2.705-1.356-2.415-5.345-9.128-1.306-9.519,4.084-.376,8.283,8.491,9.645,11.4,2,4.278,3.994,10.187,2.111,14.446-2.178,4.981-4.991-.1-7.062-2.37" transform="translate(-349.796 -117.422)"/>
        </g>
      </g>
    </g>
    <path id="Trazado_662584" data-name="Trazado 662584" d="M366,141.488c-3.326-4.01-12.879-5.2-12.793-7.149.182-3.973,7.828-3.05,11.576-1.771-2.829-2.462-8.387-6.9-6.672-9.943,2.1-3.721,9.832,4.106,12.8,10.023,3.74,7.454,1.564,11.841.151,12.245-1.937.554-4.512-2.743-5.061-3.4" transform="translate(923.724 218.293)" fill="#ffc727"/>
    <path id="Trazado_662585" data-name="Trazado 662585" d="M393.521,195.59l8.318,63.555H351.222c1.043-5.631,10.463-63.629,10.463-63.629Z" transform="translate(923.388 230.781)" fill="#ffc727"/>
  </g>
</svg>
