<svg xmlns="http://www.w3.org/2000/svg" xmlns:xlink="http://www.w3.org/1999/xlink" width="75.091" height="76.673" viewBox="0 0 75.091 76.673">
  <defs>
    <clipPath id="clip-path">
      <rect id="Rectángulo_352020" data-name="Rectángulo 352020" width="75.091" height="76.673" fill="none"/>
    </clipPath>
  </defs>
  <g id="Grupo_953330" data-name="Grupo 953330" transform="translate(-361.909 -2015)">
    <g id="Grupo_953329" data-name="Grupo 953329" transform="translate(361.909 2015)">
      <g id="Grupo_953328" data-name="Grupo 953328" clip-path="url(#clip-path)">
        <path id="Trazado_662705" data-name="Trazado 662705" d="M7.892,196.275q.017-9.064.033-18.128c0-2.039.343-2.38,2.377-2.381h2.867v-1.051q0-7.452,0-14.9c0-1.654.452-2.1,2.125-2.1q10.586,0,21.172,0c1.573,0,2.2.624,2.2,2.2,0,2.183-.032,4.367.017,6.549a1.786,1.786,0,0,1-1.139,1.924,1.316,1.316,0,0,1-1.139-1.521c.009-2.225-.016-4.45-.027-6.675l-.167-.186H30.324c0,1.292,0,2.518,0,3.744,0,1.445-.645,2.1-2.1,2.1-1.673.01-3.347.007-5.02,0a1.454,1.454,0,0,1-1.667-1.646c-.024-1.325-.006-2.652-.007-3.977l-.228-.279-.07.039-1.921.02h-3.84V175.75h3.842c.948.014,1.9.04,2.845.041,4.431,0,8.862-.015,13.293.018.763.006,1.022-.23.964-.979-.056-.723.032-1.458-.024-2.182-.067-.874.255-1.318,1.155-1.283.836.047,1.107.6,1.127,1.321.028,1,.007,2.011.007,3.107H64.816c1.728,0,2.338.617,2.341,2.356q.017,9.062.033,18.125l.181.252q2.843.031,5.686.062a1.807,1.807,0,0,1,2.019,2.013c.019,1.3.021,2.594,0,3.891a1.718,1.718,0,0,1-1.956,1.947q-35.644,0-71.289,0C.4,204.44.009,204.045,0,202.627s0-2.847,0-4.271c0-1.222.487-1.745,1.737-1.76,1.835-.023,3.67-.005,5.506-.01a3.685,3.685,0,0,0,.466-.059l.182-.253m45.792-18.013-1.362-.269c-.088.181-.137.236-.137.291q-.016,1.077-.019,2.154c0,1.452,0,1.452,1.519,1.375a21.076,21.076,0,0,0,2.171,0c.239-.022.629-.345.643-.551.068-.992.031-1.99.031-3ZM25.2,163.582H27.98v-3.548H23.674c0,.778,0,1.466,0,2.155,0,1.469,0,1.469,1.521,1.393m-.378,18.058h3.538v-3.554h-5v3.554ZM2.24,201.977l.161.169H8.1c.221.012.441.034.662.034q31.572,0,63.145,0c.242,0,.484-.029.74-.046v-3.313H71.19q-4.653,0-9.306,0c-.849,0-1.491-.238-1.583-1.211a1.171,1.171,0,0,1,1.372-.965c.724.045,1.458-.043,2.179.023.848.077,1.071-.247,1.066-1.072-.033-5.562-.016-11.124-.02-16.685,0-.271-.034-.542-.053-.825H58.814l-.156.148c-.01,1.3-.024,2.591-.03,3.886s-.494,1.808-1.79,1.814q-2.514.012-5.028,0c-1.266-.005-1.767-.48-1.793-1.738-.023-1.138.01-2.277-.018-3.414a2.046,2.046,0,0,0-.273-.66c-.188-.089-.374-.253-.563-.256q-2.324-.031-4.649,0c-.184,0-.366.18-.548.276a2.966,2.966,0,0,0-.072.458q-.005,8.655,0,17.311a4.092,4.092,0,0,0,.086.606H47.81c2.556.022,5.113.086,7.669.046.991-.016,1.689.222,2.006,1.211a1.853,1.853,0,0,1-1.956,1.059q-23-.033-46-.013c-.409,0-.817.038-1.226.059H2.24Zm39.1-23.9-10.452.007-.161.146q-.023,1.891-.047,3.782a1.715,1.715,0,0,1-1.908,1.921c-1.925.012-3.85.008-5.774,0a1.79,1.79,0,0,1-1.98-2.015c-.016-1.23-.022-2.46-.033-3.689l-.158-.153-6.836.008H10.253v18.437H14a5.024,5.024,0,0,0,.561.061q13.239,0,26.478-.009a4.154,4.154,0,0,0,.559-.077c.022-.225.055-.411.055-.6q0-8.588,0-17.175a3.04,3.04,0,0,0-.129-.617l-.18-.031" transform="translate(0 -127.768)"/>
        <path id="Trazado_662706" data-name="Trazado 662706" d="M290.261,64.429v3.165c-.946-.121-1.171.4-1.159,1.224.026,1.772.008,3.545.008,5.317V78.07c-.542,0-.979,0-1.416,0L270.7,78.027q0-2.839.005-5.679l.375.083c.228.107.455.305.684.308q3.487.034,6.974,0a2.051,2.051,0,0,0,.694-.3c1.1-.8,1.1-1.477-.028-2.243-.2-.1-.409-.281-.614-.283q-3.533-.03-7.066,0c-.206,0-.411.182-.617.28l-.4.111q0-1.827,0-3.654a1.984,1.984,0,0,0,.5.138c3.843.007,7.686.027,11.529-.027a1.81,1.81,0,0,0,1.385-.662,1.151,1.151,0,0,0-.7-1.577,2.429,2.429,0,0,0-.784-.305q-5.393-.031-10.785,0a2.3,2.3,0,0,0-.771.32l-.382.206q0-1.893,0-3.785a7.069,7.069,0,0,0,1.1.175q5.507.02,11.015.006c.952,0,1.389-.368,1.365-1.143-.029-.913-.619-1.118-1.406-1.115q-5.934.019-11.869.015l-.218-1.743c.416-.361.846-.709,1.246-1.087a2.6,2.6,0,0,1,1.978-.6c2.974.031,5.949.006,8.924.017.759,0,1.3-.233,1.345-1.076.045-.769-.39-1.171-1.328-1.18-1.9-.017-3.8-.005-5.7-.005h-2.586l1.083-5.557h13.284l.146.212c.009.346.027.692.027,1.038q0,6.992,0,13.983c0,.826.128,1.5,1.156,1.527" transform="translate(-219.292 -38.618)" fill="#eaf6ff"/>
        <path id="Trazado_662707" data-name="Trazado 662707" d="M205.5,39.409l16.995.043h1.416V35.517c0-1.772.019-3.545-.008-5.317-.012-.825.213-1.345,1.159-1.224a1.074,1.074,0,0,1,1.1,1.236c0,3.2.012,6.393-.008,9.589a1.683,1.683,0,0,1-1.913,1.9q-12.345.016-24.69-.007c-1.037,0-1.482-.558-1.483-1.808q-.009-9.494,0-18.989V19.771a10.264,10.264,0,0,1-6.241-4.441,9.331,9.331,0,0,1-1.479-6.846c.742-4.183,3.27-7.4,7.946-8.3a10,10,0,0,1,11.458,6.563q7.111,0,14.235,0c1.568,0,2.174.6,2.174,2.145,0,5.1-.01,10.191.012,15.286a1.509,1.509,0,0,1-1.113,1.627c-1.028-.023-1.158-.7-1.156-1.527q.015-6.992,0-13.983c0-.346-.017-.692-.027-1.037l-.146-.212H210.448l-1.083,5.557h2.586c1.9,0,3.8-.012,5.7.005.938.009,1.374.411,1.328,1.18-.049.844-.586,1.079-1.345,1.076-2.974-.011-5.949.014-8.924-.017a2.6,2.6,0,0,0-1.978.6c-.4.379-.83.726-1.246,1.087-.854.332-1.694.709-2.567.981-.771.24-1.578.363-2.369.538a1.794,1.794,0,0,0-.214.547c-.025.725-.012,1.452-.01,2.179q.02,8.24.04,16.479l.2.161,4.935-.015M200.75,17.773a2.442,2.442,0,0,1,.441-.145,7.714,7.714,0,0,0,6.572-9.479c-.859-3.684-3.742-5.621-7.2-5.886a7.817,7.817,0,0,0-8.036,7.446,8.076,8.076,0,0,0,8.226,8.064" transform="translate(-154.088 0)" fill="#010101"/>
        <path id="Trazado_662708" data-name="Trazado 662708" d="M119.94,181.1c-.9-.035-1.223.409-1.155,1.283.056.724-.032,1.458.024,2.182.058.749-.2.985-.964.979-4.431-.033-8.862-.013-13.293-.018-.948,0-1.9-.027-2.845-.041q0-7.868,0-15.736l1.921-.02.148.172a.136.136,0,0,0,.151.067c0,1.326-.017,2.652.007,3.978a1.454,1.454,0,0,0,1.667,1.645c1.674.008,3.347.012,5.02,0,1.453-.009,2.094-.659,2.1-2.1,0-1.226,0-2.452,0-3.744h5.888l.167.186c.011,2.225.036,4.45.028,6.675a1.316,1.316,0,0,0,1.139,1.521q0,1.487,0,2.974" transform="translate(-82.394 -137.499)" fill="#fed2a4"/>
        <path id="Trazado_662709" data-name="Trazado 662709" d="M354.058,361.064l-.181-.252.181.252" transform="translate(-286.687 -292.305)" fill="#e2e3e4"/>
        <path id="Trazado_662710" data-name="Trazado 662710" d="M40.786,360.811l-.182.252.182-.252" transform="translate(-32.895 -292.304)" fill="#e2e3e4"/>
        <path id="Trazado_662711" data-name="Trazado 662711" d="M73.7,264.986l6.836-.008.158.153c.011,1.23.017,2.46.033,3.689a1.79,1.79,0,0,0,1.98,2.015c1.925.006,3.85.01,5.774,0a1.714,1.714,0,0,0,1.908-1.921q.025-1.891.048-3.782l.161-.146,10.452-.007.18.032a3.028,3.028,0,0,1,.129.617q.011,8.587,0,17.175c0,.186-.034.372-.055.6a4.15,4.15,0,0,1-.559.077q-13.239.01-26.478.009a5.028,5.028,0,0,1-.561-.061L73.7,264.986" transform="translate(-59.707 -214.667)" fill="#f6a96c"/>
        <path id="Trazado_662712" data-name="Trazado 662712" d="M253.687,265.059a2.035,2.035,0,0,1,.273.659c.028,1.138-.005,2.276.018,3.414.026,1.258.527,1.733,1.793,1.738q2.514.01,5.028,0c1.3-.006,1.784-.514,1.79-1.814s.02-2.591.03-3.886l.156-.148h6.032c.019.283.053.554.053.825,0,5.562-.013,11.124.019,16.685,0,.825-.219,1.15-1.066,1.072-.721-.066-1.455.021-2.179-.023a1.171,1.171,0,0,0-1.372.966l-2.817.165c-.317-.989-1.015-1.226-2.006-1.211-2.555.04-5.113-.024-7.669-.046q0-9.127-.007-18.254l1.925-.142" transform="translate(-203.96 -214.703)" fill="#fed2a4"/>
        <path id="Trazado_662713" data-name="Trazado 662713" d="M92.058,368.021l2.817-.165c.092.973.734,1.212,1.583,1.211q4.653-.009,9.305,0h1.461v3.313c-.257.017-.5.046-.74.046q-31.572,0-63.145,0c-.221,0-.441-.022-.662-.034q.1-1.632.2-3.263c.409-.021.817-.059,1.226-.059q23,0,46,.013a1.853,1.853,0,0,0,1.957-1.059" transform="translate(-34.574 -298.012)" fill="#fac700"/>
        <path id="Trazado_662714" data-name="Trazado 662714" d="M235.08,265.451q0,9.127.007,18.254H231.26a4.145,4.145,0,0,1-.086-.606q-.007-8.655,0-17.311a2.945,2.945,0,0,1,.072-.458l3.835.12" transform="translate(-187.278 -214.953)" fill="#ffbd86"/>
        <path id="Trazado_662715" data-name="Trazado 662715" d="M57.738,265.022l.008,18.437H54V265.022Z" transform="translate(-43.745 -214.703)" fill="#ea9b58"/>
        <path id="Trazado_662716" data-name="Trazado 662716" d="M85.32,169.83q0,7.868,0,15.736H81.48V169.83Z" transform="translate(-66.01 -137.585)" fill="#ffbd86"/>
        <path id="Trazado_662717" data-name="Trazado 662717" d="M17.855,374.545q-.1,1.632-.2,3.263h-5.7l-.161-.169v-3.095Z" transform="translate(-9.555 -303.431)" fill="#e9b900"/>
        <path id="Trazado_662718" data-name="Trazado 662718" d="M130.709,265.018h3.536v3.554h-3.538q0-1.777,0-3.554" transform="translate(-105.89 -214.699)" fill="#fd646f"/>
        <path id="Trazado_662719" data-name="Trazado 662719" d="M132.7,169.941h2.784v3.548H132.7q0-1.774,0-3.548" transform="translate(-107.5 -137.675)" fill="#fd646f"/>
        <path id="Trazado_662720" data-name="Trazado 662720" d="M282.741,265.937h2.845c0,1.013.037,2.012-.031,3-.014.206-.4.529-.643.551a21.071,21.071,0,0,1-2.171,0q0-1.776,0-3.551" transform="translate(-229.057 -215.444)" fill="#fd646f"/>
        <path id="Trazado_662721" data-name="Trazado 662721" d="M276.263,264.791q0,1.776,0,3.551c-1.519.077-1.521.077-1.519-1.375q0-1.077.019-2.154c0-.055.05-.11.137-.291l1.362.269" transform="translate(-222.579 -214.298)" fill="#fc4856"/>
        <path id="Trazado_662722" data-name="Trazado 662722" d="M124.468,265.018q0,1.777,0,3.554H123v-3.554Z" transform="translate(-99.649 -214.699)" fill="#fc4856"/>
        <path id="Trazado_662723" data-name="Trazado 662723" d="M126.206,169.941q0,1.774,0,3.548c-1.52.077-1.521.077-1.521-1.393v-2.155Z" transform="translate(-101.011 -137.675)" fill="#fc4856"/>
        <path id="Trazado_662724" data-name="Trazado 662724" d="M235.4,264.2l-3.835-.12c.183-.1.364-.273.548-.276q2.324-.034,4.649,0c.189,0,.375.167.563.256l-1.925.142" transform="translate(-187.596 -213.702)" fill="#080808"/>
        <path id="Trazado_662725" data-name="Trazado 662725" d="M190.883,169.994l-.167-.186.167.186" transform="translate(-154.505 -137.567)" fill="#e4bd93"/>
        <path id="Trazado_662726" data-name="Trazado 662726" d="M217.925,265.01l-.18-.031.18.031" transform="translate(-176.402 -214.668)" fill="#ea9b58"/>
        <path id="Trazado_662727" data-name="Trazado 662727" d="M309.1,265.022l-.156.148.156-.148" transform="translate(-250.283 -214.703)" fill="#e4bd93"/>
        <path id="Trazado_662728" data-name="Trazado 662728" d="M162.01,265.016l-.161.146.161-.146" transform="translate(-131.119 -214.698)" fill="#ea9b58"/>
        <path id="Trazado_662729" data-name="Trazado 662729" d="M109.863,265.135l-.158-.153.158.153" transform="translate(-88.875 -214.67)" fill="#ea9b58"/>
        <path id="Trazado_662730" data-name="Trazado 662730" d="M112.422,169.794a.136.136,0,0,1-.151-.067l-.077-.212.228.279" transform="translate(-90.892 -137.329)" fill="#886448"/>
        <path id="Trazado_662731" data-name="Trazado 662731" d="M111.893,169.516l.077.212-.148-.172.071-.039" transform="translate(-90.591 -137.33)" fill="#303030"/>
        <path id="Trazado_662732" data-name="Trazado 662732" d="M11.794,390.843l.161.169-.161-.169" transform="translate(-9.555 -316.634)" fill="#fac700"/>
        <path id="Trazado_662733" data-name="Trazado 662733" d="M249.639,118.517l-4.935.015c0-.055,0-.11-.005-.164q0-9.6-.009-19.2c.791-.175,1.6-.3,2.369-.538.873-.272,1.713-.649,2.567-.981l.218,1.743c-.968,1.051-.919,1.13-.209,2.062q0,1.893,0,3.785c-.937.639-.49,1.273.006,1.907q0,1.827,0,3.654a1.255,1.255,0,0,0,0,2.039q0,2.84-.005,5.679" transform="translate(-198.231 -79.108)" fill="#d8ecfe"/>
        <path id="Trazado_662734" data-name="Trazado 662734" d="M268.416,138.584c-.5-.634-.943-1.268-.006-1.907l.382-.206,12.341-.016a1.151,1.151,0,0,1,.7,1.577,1.81,1.81,0,0,1-1.385.662c-3.842.054-7.686.034-11.529.027a1.982,1.982,0,0,1-.5-.138" transform="translate(-217.004 -110.547)" fill="#010101"/>
        <path id="Trazado_662735" data-name="Trazado 662735" d="M268.49,108.823c-.71-.932-.759-1.011.209-2.062q5.934-.005,11.869-.015c.787,0,1.378.2,1.406,1.116.024.775-.413,1.142-1.364,1.143q-5.507.007-11.015-.006a7.071,7.071,0,0,1-1.1-.175" transform="translate(-217.086 -86.478)" fill="#010101"/>
        <path id="Trazado_662736" data-name="Trazado 662736" d="M268.549,168.474a1.256,1.256,0,0,1,0-2.04l.4-.111,8.3,0c1.124.767,1.132,1.447.028,2.243l-8.352-.013-.375-.083" transform="translate(-217.136 -134.744)" fill="#010101"/>
        <path id="Trazado_662737" data-name="Trazado 662737" d="M285.1,135.089l-12.341.016a2.3,2.3,0,0,1,.771-.32q5.392-.032,10.785,0a2.427,2.427,0,0,1,.784.305" transform="translate(-220.969 -109.181)" fill="#f8fafb"/>
        <path id="Trazado_662738" data-name="Trazado 662738" d="M272.758,178.087l8.352.013a2.056,2.056,0,0,1-.694.3q-3.487.033-6.974,0c-.229,0-.456-.2-.684-.308" transform="translate(-220.97 -144.274)" fill="#f8fafb"/>
        <path id="Trazado_662739" data-name="Trazado 662739" d="M281.2,165.069l-8.3,0c.205-.1.41-.278.617-.28q3.533-.03,7.066,0c.205,0,.41.184.614.283" transform="translate(-221.085 -133.486)" fill="#f8fafb"/>
        <path id="Trazado_662740" data-name="Trazado 662740" d="M366.8,47.669l.146.212-.146-.212" transform="translate(-297.157 -38.618)" fill="#c1cbd2"/>
        <path id="Trazado_662741" data-name="Trazado 662741" d="M228.468,11.923c3.461.265,6.343,2.2,7.2,5.886a7.714,7.714,0,0,1-6.572,9.478,2.442,2.442,0,0,0-.441.146,4.953,4.953,0,0,0-.521-.611,9.014,9.014,0,0,1-3.331-4.8,3.5,3.5,0,0,1,.083-1.035c.658.636,1.321,1.265,1.971,1.909a.977.977,0,0,0,1.5.031c1.562-1.519,3.119-3.048,4.6-4.649a1.5,1.5,0,0,0,.106-1.37c-.132-.262-.8-.367-1.211-.337a1.745,1.745,0,0,0-.925.567c-1.1,1.085-2.177,2.2-3.268,3.309l-3.007-2.828a8.573,8.573,0,0,1,2.882-4.716,12.682,12.682,0,0,0,.936-.984" transform="translate(-181.996 -9.659)" fill="#4fc023"/>
        <path id="Trazado_662742" data-name="Trazado 662742" d="M210.46,11.849a12.678,12.678,0,0,1-.936.984,8.573,8.573,0,0,0-2.882,4.716,1.153,1.153,0,0,0-1.561.771c-.088.373.307.916.59,1.306a13.364,13.364,0,0,0,1.209,1.291,3.5,3.5,0,0,0-.083,1.035,9.014,9.014,0,0,0,3.331,4.8,4.955,4.955,0,0,1,.521.611,8.077,8.077,0,0,1-8.226-8.064,7.817,7.817,0,0,1,8.036-7.446" transform="translate(-163.988 -9.585)" fill="#46a81f"/>
        <path id="Trazado_662743" data-name="Trazado 662743" d="M243.713,105.645q0,9.6.009,19.2l-.192,0q-.021-8.239-.041-16.479c0-.726-.015-1.453.01-2.178a1.8,1.8,0,0,1,.214-.547" transform="translate(-197.254 -85.586)" fill="#eaf6ff"/>
        <path id="Trazado_662744" data-name="Trazado 662744" d="M243.724,206.777l.192,0c0,.055,0,.11.005.164l-.2-.161" transform="translate(-197.449 -167.514)" fill="#c1cbd2"/>
        <path id="Trazado_662745" data-name="Trazado 662745" d="M218.177,40.817a13.386,13.386,0,0,1-1.209-1.291c-.283-.389-.678-.933-.59-1.306a1.153,1.153,0,0,1,1.561-.771l3.007,2.828c1.09-1.11,2.164-2.224,3.267-3.309a1.746,1.746,0,0,1,.925-.567c.413-.03,1.079.076,1.211.337a1.5,1.5,0,0,1-.107,1.37c-1.477,1.6-3.033,3.13-4.6,4.649a.977.977,0,0,1-1.5-.031c-.65-.644-1.313-1.274-1.971-1.91" transform="translate(-175.284 -29.486)" fill="#010101"/>
      </g>
    </g>
  </g>
</svg>
