<svg id="Grupo_949394" data-name="Grupo 949394" xmlns="http://www.w3.org/2000/svg" xmlns:xlink="http://www.w3.org/1999/xlink" width="67.155" height="72.5" viewBox="0 0 67.155 72.5">
  <defs>
    <clipPath id="clip-path">
      <rect id="Rectángulo_350401" data-name="Rectángulo 350401" width="67.155" height="72.5" fill="none"/>
    </clipPath>
  </defs>
  <g id="Grupo_949394-2" data-name="Grupo 949394" clip-path="url(#clip-path)">
    <path id="Trazado_656995" data-name="Trazado 656995" d="M228.97,180.731a31.6,31.6,0,0,1-2.767,11.188,33.078,33.078,0,0,1-8.277,11.384,29.877,29.877,0,0,1-9.576,5.993c-.9.332-.865.9-.746,1.593.411,2.37-1.673,3.1-3.292,2.416-2.3-.966-4.66-1.8-7.011-2.648a2.338,2.338,0,0,1-1.692-1.786,2.092,2.092,0,0,1,.87-2.185c2.338-1.864,4.59-3.837,6.885-5.756.4-.331,2.189.3,2.53.9a2.022,2.022,0,0,1,.371,1.089c-.014.406.118.579.632.349a31.786,31.786,0,0,0,6.68-4.3,19.959,19.959,0,0,0,3.538-3.7,26.109,26.109,0,0,0,3.594-6.106,32.817,32.817,0,0,0,1.512-4.627,22.621,22.621,0,0,0,.558-3.471c.09-1.306.12-2.608.151-3.914.023-.968-.24-1.907-.195-2.881a2.936,2.936,0,0,1,2.7-2.683c2.239-.216,3.5,1.42,3.5,3.552,0,.314.02.629.031.943.009.294-.167.613.122.867l.008,2.226c-.319.494-.107,1.033-.131,1.551m-31.384,27.732c2.49,1.187,5.063,1.854,7.471,2.94.444.2.6-.2.494-.495-.168-.471-.061-.969-.217-1.412-.285-.812.052-1.176.785-1.45a31.472,31.472,0,0,0,6.692-3.386,33.664,33.664,0,0,0,6.893-6.153,29.58,29.58,0,0,0,4.345-6.81,32.292,32.292,0,0,0,2.228-6.719,50.068,50.068,0,0,0,.774-6.517c.1-1.228-.288-2.438-.2-3.683a1.155,1.155,0,0,0-1.367-1.1c-.728.078-.664.62-.69,1.146-.041.832.2,1.637.2,2.456a27.951,27.951,0,0,1-.89,8.3,26.786,26.786,0,0,1-1.638,4.805,36.157,36.157,0,0,1-3.778,6.082,35.242,35.242,0,0,1-5.316,5.267,36.741,36.741,0,0,1-6.85,4.031c-1.152.569-1.959.1-2-1.079a3.706,3.706,0,0,0-.083-.756c-.2-.811-.4-.865-1.066-.312l-5.79,4.84" transform="translate(-161.946 -142.079)" fill="#010101"/>
    <path id="Trazado_656996" data-name="Trazado 656996" d="M15.738,19.211c.205,1.057-.322,1.589-1.192,2.139-.5.317-1.206.711-1.366,1.48-.03.145-.2.265-.313.39a24.793,24.793,0,0,0-4.86,8.041,27.8,27.8,0,0,0-1.722,7.181c-.219,2.193.055,4.36.025,6.538a2.911,2.911,0,0,1-1.251,2.568A3.147,3.147,0,0,1,1.482,47.5,3.476,3.476,0,0,1,.124,44.614c-.037-1.73-.179-3.464-.1-5.188A28.572,28.572,0,0,1,.7,34.213c.207-.887.352-1.8.644-2.656A37.807,37.807,0,0,1,4.9,23.628,33.818,33.818,0,0,1,11.361,16a30.244,30.244,0,0,1,8.916-5.565c1.133-.441,1.4-.791,1.144-1.98a2.025,2.025,0,0,1,2.772-2.308c2,.748,3.974,1.541,5.976,2.268a17.517,17.517,0,0,1,2.231.873,1.949,1.949,0,0,1,.466,3.215A68.222,68.222,0,0,1,25.9,18.231a1.949,1.949,0,0,1-3.071-1.181c-.3-1-.26-1.024-1.152-.556-.783.411-1.564.827-2.326,1.273a1.086,1.086,0,0,1-1.508-.144c-.337-1.03-.214-1.265.749-1.836a38.03,38.03,0,0,1,4.124-2.028,1.221,1.221,0,0,1,1.83,1.163c.03.512.156,1.018.259,1.654l6.68-5.507c-2.145-.808-4.2-1.6-6.272-2.348-.56-.2-1.268-.784-1.686-.383-.312.3.028,1.156.22,1.723a.961.961,0,0,1-.559,1.308c-.616.327-1.285.533-1.919.809A32.72,32.72,0,0,0,15.613,15.3a33.954,33.954,0,0,0-6.359,5.87,27.486,27.486,0,0,0-4.562,7.376A31.787,31.787,0,0,0,2.46,36.252a49.879,49.879,0,0,0-.261,8.77,1.108,1.108,0,0,0,1.238,1c.605-.116.984-.494.8-1.126a8.169,8.169,0,0,1-.1-2.624,36.021,36.021,0,0,1,.224-5.429,35.378,35.378,0,0,1,1.558-6.157,29.721,29.721,0,0,1,3.724-6.7,29.308,29.308,0,0,1,4.223-4.688,1.26,1.26,0,0,1,1.866-.082" transform="translate(0 -4.968)" fill="#010101"/>
    <path id="Trazado_656997" data-name="Trazado 656997" d="M128.671,150.512l-.053.165c-.194.045-.134.218-.171.342a.3.3,0,0,0-.153.041c-.166.02-.4-.176-.474.141-.077.469-.47.351-.745.359q-1.5.04-3.007.01a2.461,2.461,0,0,1-2.485-2.515c-.019-.674-.115-1.345-.164-2.018-.027-.364-.263-.521-.558-.66a3.92,3.92,0,0,1-1.169-.63c-.928-.954-1.872-.712-2.859-.173a4.862,4.862,0,0,1-1.606.636,2.249,2.249,0,0,1-2.54-1.238,16.668,16.668,0,0,1-1.578-2.919,2.291,2.291,0,0,1,.96-2.7c.656-.469,1.312-.94,1.982-1.388.207-.139.377-.284.307-.536a4.89,4.89,0,0,1,.006-2.732c.057-.2-.084-.27-.236-.381-.659-.481-1.248-1.073-1.945-1.485a2.417,2.417,0,0,1-.69-3.6c.336-.472.564-1.019.856-1.523,1.208-2.085,1.963-2.129,3.833-1.356a3.781,3.781,0,0,0,3.751.041,2.877,2.877,0,0,0,1.642-2.858,2.959,2.959,0,0,1,.786-2.127,2.476,2.476,0,0,1,2.113-.841c1.04.105,2.1-.186,3.131.191a2.185,2.185,0,0,1,1.6,2.351c.021.765.291,1.52.313,2.3.007.253.261.427.515.509a6.609,6.609,0,0,1,2.1,1.19c.272.218.435.191.741.037.765-.383,1.57-.689,2.368-1a2.277,2.277,0,0,1,3.023,1.144c.479.847.978,1.685,1.416,2.553a2.254,2.254,0,0,1-.627,2.759,25.835,25.835,0,0,1-2.093,1.525.723.723,0,0,0-.387.911,3.754,3.754,0,0,1-.007,2.228.572.572,0,0,0,.234.675c.521.386,1.01.819,1.548,1.177,2.247,1.5,1.757,2.5.951,4.027-.364.688-.793,1.343-1.208,2a2.141,2.141,0,0,1-2.9.851,20.851,20.851,0,0,1-2.011-.91,1.216,1.216,0,0,0-1.28.143,5.93,5.93,0,0,1-2.081,1.168.365.365,0,0,0-.316.349c.015.675-.324,1.349-.246,1.955.062.484-.209.865-.105,1.3-.335.006-.546.129-.483.511m-3.2-27.878v.006c-.458,0-.917-.01-1.374.007-.1,0-.337-.063-.3.155.146.9-.516,1.707-.24,2.645a2,2,0,0,1-1.159,1.981,7.078,7.078,0,0,0-2.62,1.487,1.862,1.862,0,0,1-1.964.36,8.079,8.079,0,0,1-1.391-.592c-1.68-.8-1.676-.8-2.6.778-.143.244-.314.47-.472.7a.642.642,0,0,0,.2,1.052c.814.557,1.554,1.222,2.358,1.794a1.109,1.109,0,0,1,.546,1.135,9.485,9.485,0,0,0-.006,3.54,1.533,1.533,0,0,1-.819,1.7c-.686.5-1.334,1.045-2.039,1.511a.673.673,0,0,0-.22,1.112,12.442,12.442,0,0,1,1.018,1.666c.255.543.539.512,1,.3.836-.392,1.691-.749,2.554-1.078a1.538,1.538,0,0,1,1.79.311,7.147,7.147,0,0,0,2.139,1.332c1.542.667,1.634.875,1.626,2.631,0,.644.213,1.281.17,1.939-.024.372.258.4.524.4.859.005,1.719,0,2.578.005.356,0,.5-.123.5-.5a11.315,11.315,0,0,1,.193-1.292c.063-.484.38-.974.235-1.454a1.108,1.108,0,0,1,.813-1.514,6.5,6.5,0,0,0,2.486-1.387c.9-.866,1.714-.6,2.635-.233.776.308,1.457.808,2.27,1.054.349.106.481.113.639-.237a20,20,0,0,1,.928-1.771c.52-.9.482-1.076-.44-1.618-.731-.429-1.378-.974-2.063-1.466a1.14,1.14,0,0,1-.463-1.261,9.435,9.435,0,0,0,0-3.5,1.188,1.188,0,0,1,.458-1.264c.768-.629,1.668-1.05,2.424-1.688.453-.382.582-.736.2-1.265a5.91,5.91,0,0,1-.961-1.664c-.191-.627-.47-.522-.9-.38-.947.309-1.734.969-2.724,1.191-.532.119-1.076.305-1.527-.09a7.474,7.474,0,0,0-1.46-1c-1.146-.6-2.658-.838-2.424-2.73.071-.572-.318-1.192-.285-1.779.047-.842-.218-1.155-1.045-1.024a4.987,4.987,0,0,1-.772.006" transform="translate(-91.897 -99.827)" fill="#010101"/>
    <path id="Trazado_656998" data-name="Trazado 656998" d="M25.993,29.818a1.26,1.26,0,0,0-1.866.082A29.308,29.308,0,0,0,19.9,34.588a29.721,29.721,0,0,0-3.724,6.7,35.378,35.378,0,0,0-1.558,6.157,36.021,36.021,0,0,0-.224,5.429,8.169,8.169,0,0,0,.1,2.624c.185.632-.194,1.01-.8,1.126a1.108,1.108,0,0,1-1.238-1,49.879,49.879,0,0,1,.261-8.77,31.787,31.787,0,0,1,2.232-7.707,27.486,27.486,0,0,1,4.562-7.376,33.954,33.954,0,0,1,6.359-5.87,32.72,32.72,0,0,1,5.653-3.119c.634-.277,1.3-.482,1.919-.809A.961.961,0,0,0,34,20.668c-.192-.568-.532-1.424-.22-1.723.418-.4,1.126.182,1.686.383,2.072.747,4.127,1.541,6.272,2.348l-6.68,5.507c-.1-.637-.228-1.143-.259-1.654a1.221,1.221,0,0,0-1.83-1.163,38.03,38.03,0,0,0-4.124,2.028c-.963.571-1.085.805-.749,1.836a5.191,5.191,0,0,0-2.1,1.588" transform="translate(-10.256 -15.575)" fill="#00cca7"/>
    <path id="Trazado_656999" data-name="Trazado 656999" d="M207.335,218.581l5.79-4.84c.662-.553.864-.5,1.066.312a3.707,3.707,0,0,1,.083.756c.044,1.18.851,1.648,2,1.079a36.741,36.741,0,0,0,6.85-4.031,35.243,35.243,0,0,0,5.316-5.267,36.156,36.156,0,0,0,3.778-6.082,26.786,26.786,0,0,0,1.638-4.805,27.951,27.951,0,0,0,.89-8.3c0-.818-.243-1.624-.2-2.456.026-.526-.038-1.069.69-1.146a1.155,1.155,0,0,1,1.367,1.1c-.091,1.245.293,2.454.2,3.683a50.071,50.071,0,0,1-.774,6.517,32.291,32.291,0,0,1-2.228,6.719,29.58,29.58,0,0,1-4.345,6.81,33.663,33.663,0,0,1-6.893,6.153,31.472,31.472,0,0,1-6.692,3.386c-.733.274-1.071.639-.785,1.45.156.443.049.942.217,1.412.1.29-.05.695-.493.495-2.408-1.086-4.981-1.753-7.471-2.94" transform="translate(-171.695 -152.198)" fill="#ffd947"/>
    <path id="Trazado_657000" data-name="Trazado 657000" d="M135.976,132.509a5.009,5.009,0,0,0,.772-.006c.827-.131,1.093.182,1.045,1.024-.033.586.356,1.207.285,1.779-.234,1.892,1.278,2.127,2.424,2.731a7.478,7.478,0,0,1,1.46,1c.451.4.995.209,1.527.09.989-.222,1.777-.882,2.724-1.191.434-.141.713-.246.9.38a5.913,5.913,0,0,0,.961,1.664c.386.529.257.883-.2,1.265-.756.638-1.656,1.059-2.424,1.688a1.188,1.188,0,0,0-.458,1.264,9.439,9.439,0,0,1,0,3.5,1.14,1.14,0,0,0,.463,1.261c.685.492,1.333,1.037,2.063,1.466.922.542.96.716.44,1.618-.333.577-.655,1.165-.928,1.772-.158.35-.29.343-.639.237-.813-.246-1.494-.746-2.27-1.054-.92-.365-1.733-.633-2.635.233a6.5,6.5,0,0,1-2.486,1.387,1.108,1.108,0,0,0-.813,1.514c.145.48-.172.97-.235,1.454a11.31,11.31,0,0,0-.193,1.292c-.006.381-.145.508-.5.5-.859-.009-1.719,0-2.578-.005-.266,0-.548-.026-.524-.4.042-.658-.173-1.3-.17-1.939.009-1.756-.083-1.964-1.625-2.631a7.141,7.141,0,0,1-2.139-1.332,1.538,1.538,0,0,0-1.79-.311c-.863.329-1.718.686-2.555,1.078-.462.217-.746.248-1-.3a12.446,12.446,0,0,0-1.018-1.666.673.673,0,0,1,.22-1.112c.7-.466,1.353-1.016,2.039-1.511a1.533,1.533,0,0,0,.819-1.7,9.486,9.486,0,0,1,.006-3.54,1.109,1.109,0,0,0-.546-1.135c-.8-.572-1.544-1.237-2.358-1.794a.642.642,0,0,1-.2-1.052c.159-.234.33-.461.472-.7.926-1.583.922-1.58,2.6-.778a8.08,8.08,0,0,0,1.391.592,1.862,1.862,0,0,0,1.964-.36,7.075,7.075,0,0,1,2.62-1.486,2,2,0,0,0,1.159-1.981c-.275-.938.386-1.744.24-2.645-.035-.218.2-.151.3-.155.458-.017.916-.008,1.374-.008,0,0,0,0,0-.006m6.262,13.455c.2-3.38-2.634-6.666-7.6-6.382-2.337.134-4.954,3.388-4.956,6.339a6.209,6.209,0,0,0,6.313,6.387c3.256.018,6.506-2.938,6.244-6.344" transform="translate(-102.401 -109.702)" fill="#8c9ba7"/>
    <path id="Trazado_657001" data-name="Trazado 657001" d="M171.258,180.128c.263,3.405-2.988,6.361-6.244,6.343a6.209,6.209,0,0,1-6.313-6.386c0-2.951,2.619-6.2,4.956-6.339,4.966-.284,7.8,3,7.6,6.382m-2.062.014c.245-2.172-1.975-4.194-4.071-4.214a4.174,4.174,0,0,0-4.473,4.181,4.272,4.272,0,1,0,8.544.033" transform="translate(-131.422 -143.866)" fill="#010101"/>
    <path id="Trazado_657002" data-name="Trazado 657002" d="M57.093,324.877a8.546,8.546,0,1,1-8.546-8.546,8.546,8.546,0,0,1,8.546,8.546" transform="translate(-33.124 -261.955)" fill="#a50491"/>
    <path id="Trazado_657003" data-name="Trazado 657003" d="M43.578,329.488a9.578,9.578,0,1,1,9.578-9.578,9.589,9.589,0,0,1-9.578,9.578m0-17.093a7.515,7.515,0,1,0,7.515,7.515,7.524,7.524,0,0,0-7.515-7.515" transform="translate(-28.156 -256.987)"/>
    <path id="Trazado_657004" data-name="Trazado 657004" d="M246,6l-9.843,17.048h19.685Z" transform="translate(-195.562 -4.969)" fill="#e8edf2"/>
    <path id="Trazado_657005" data-name="Trazado 657005" d="M250.873,19.111H231.187a1.031,1.031,0,0,1-.893-1.547L240.137.516a1.031,1.031,0,0,1,1.786,0l9.843,17.048a1.031,1.031,0,0,1-.893,1.547m-17.9-2.063h16.113L241.03,3.094Z" transform="translate(-190.593)"/>
  </g>
</svg>
