<svg xmlns="http://www.w3.org/2000/svg" width="819.74" height="702.788" viewBox="0 0 819.74 702.788">
  <g id="Grupo_953326" data-name="Grupo 953326" transform="translate(-341 -702.673)">
    <path id="Trazado_657006" data-name="Trazado 657006" d="M447.187,535.333a2.184,2.184,0,1,1,2.477,1.845,2.677,2.677,0,0,1-.309.026,2.187,2.187,0,0,1-2.168-1.871m-85.3.52a2.157,2.157,0,1,1,.384.037,2.112,2.112,0,0,1-.384-.037m102.55-3.431a2.184,2.184,0,1,1,2.589,1.685,3.154,3.154,0,0,1-.459.05,2.172,2.172,0,0,1-2.13-1.735m-119.8-.172a2.186,2.186,0,1,1,.52.061,2.562,2.562,0,0,1-.52-.061M481.457,528.4a2.18,2.18,0,1,1,2.688,1.511,2.429,2.429,0,0,1-.582.087,2.192,2.192,0,0,1-2.106-1.6m-153.812-.879h0a2.19,2.19,0,1,1,.657.1,2.074,2.074,0,0,1-.657-.1m170.532-4.248a2.186,2.186,0,1,1,2.787,1.338,2.1,2.1,0,0,1-.718.123,2.192,2.192,0,0,1-2.069-1.461M311.012,521.7a2.179,2.179,0,1,1,.78.148,2.187,2.187,0,0,1-.78-.148m203.514-4.633a2.183,2.183,0,1,1,2.861,1.14,2.084,2.084,0,0,1-.854.186,2.209,2.209,0,0,1-2.007-1.326m-219.739-2.278h0a2.195,2.195,0,1,1,.917.2,2.176,2.176,0,0,1-.917-.2m235.641-5a2.191,2.191,0,1,1,1.945,1.189,2.181,2.181,0,0,1-1.945-1.189m-251.37-2.972a2.2,2.2,0,1,1,1.053.26,2.287,2.287,0,0,1-1.053-.26m266.753-5.351a2.184,2.184,0,1,1,1.882,1.066,2.181,2.181,0,0,1-1.882-1.066m-281.937-3.678a2.187,2.187,0,1,1,3.022-.656,2.191,2.191,0,0,1-3.022.656m296.7-5.66a2.2,2.2,0,1,1,1.808.941,2.185,2.185,0,0,1-1.808-.941m-311.229-4.384a2.182,2.182,0,1,1,3.047-.447,2.174,2.174,0,0,1-3.047.447m325.335-5.921a2.186,2.186,0,1,1,3.071.347v-.012a2.18,2.18,0,0,1-3.071-.335m-339.145-5.077h0a2.192,2.192,0,1,1,1.412.52,2.184,2.184,0,0,1-1.412-.52m352.509-6.181a2.187,2.187,0,1,1,3.084.125,2.128,2.128,0,0,1-1.474.581,2.173,2.173,0,0,1-1.61-.706M222.519,464.8a2.184,2.184,0,1,1,1.537.631,2.188,2.188,0,0,1-1.537-.631m378.072-6.4a2.2,2.2,0,1,1,1.511.6,2.2,2.2,0,0,1-1.511-.6M210.382,451.98h0a2.182,2.182,0,1,1,1.647.744,2.219,2.219,0,0,1-1.647-.744m401.876-6.6a2.183,2.183,0,1,1,3.071-.31,2.2,2.2,0,0,1-3.071.31m-413.06-7.06h0a2.179,2.179,0,1,1,3.059.422,2.224,2.224,0,0,1-1.325.445,2.169,2.169,0,0,1-1.734-.867m423.76-6.775a2.174,2.174,0,1,1,1.251.4,2.113,2.113,0,0,1-1.251-.4M189.03,423.891a2.2,2.2,0,1,1,1.833.99,2.193,2.193,0,0,1-1.833-.99m443.589-6.911a2.2,2.2,0,1,1,1.115.3,2.247,2.247,0,0,1-1.115-.3m-452.668-8.224a2.192,2.192,0,1,1,1.92,1.126,2.194,2.194,0,0,1-1.92-1.126M663.1,335.535a2.193,2.193,0,1,1,.334.024,1.567,1.567,0,0,1-.334-.024m-510-10.268a2.182,2.182,0,1,1,2.428,1.92c-.087,0-.174.012-.26.012a2.173,2.173,0,0,1-2.168-1.932M665.291,318.2a2.276,2.276,0,1,1,.162,0ZM151.713,307.668a2.188,2.188,0,1,1,2.267,2.092.191.191,0,0,1-.087.012,2.192,2.192,0,0,1-2.18-2.1m512.228-9.116a2.508,2.508,0,0,1,.025-.3,2.475,2.475,0,0,1-.025-.3,2.186,2.186,0,1,1,4.372-.013,1.343,1.343,0,0,1-.024.309,2.5,2.5,0,0,1,.024.3,2.186,2.186,0,0,1-4.372,0m-510.148-6.28a2.234,2.234,0,1,1,.075,0Zm509.443-11.617h0a2.18,2.18,0,1,1,2.352,2.007h-.173a2.177,2.177,0,0,1-2.179-2.007m-508.29-5.821a2.2,2.2,0,1,1,.26.013,1.74,1.74,0,0,1-.26-.013M661.18,263.465a2.188,2.188,0,1,1,2.5,1.808,1.629,1.629,0,0,1-.346.037,2.19,2.19,0,0,1-2.155-1.845m-503.72-5.933a2.208,2.208,0,1,1,.408.037,2.252,2.252,0,0,1-.408-.037M657.8,246.484h0a2.184,2.184,0,1,1,2.638,1.611,1.846,1.846,0,0,1-.52.062,2.189,2.189,0,0,1-2.118-1.673m-496.5-6.006a2.207,2.207,0,1,1,.582.074,2.45,2.45,0,0,1-.582-.074m491.818-10.639h0a2.18,2.18,0,1,1,2.749,1.412,2.49,2.49,0,0,1-.668.1,2.173,2.173,0,0,1-2.081-1.511m-486.653-6.082a2.188,2.188,0,1,1,2.8-1.312,2.165,2.165,0,0,1-2.044,1.436,2.259,2.259,0,0,1-.755-.124M647.159,213.6h0a2.193,2.193,0,1,1,2.019,1.35,2.184,2.184,0,0,1-2.019-1.35M172.9,207.484a2.184,2.184,0,1,1,.9.2,2.188,2.188,0,0,1-.9-.2m467.06-9.636a2.183,2.183,0,1,1,1.957,1.2,2.186,2.186,0,0,1-1.957-1.2M180.57,191.767a2.2,2.2,0,1,1,1.041.26,2.278,2.278,0,0,1-1.041-.26M631.6,182.688a2.183,2.183,0,1,1,3,.744,2.218,2.218,0,0,1-1.127.309,2.169,2.169,0,0,1-1.87-1.053m-442.215-6.031a2.18,2.18,0,1,1,3.022-.644v.012a2.192,2.192,0,0,1-1.833.991,2.116,2.116,0,0,1-1.189-.359m432.74-8.484h0a2.169,2.169,0,1,1,1.784.929,2.17,2.17,0,0,1-1.784-.929M199.3,162.265a2.2,2.2,0,1,1,1.313.433,2.163,2.163,0,0,1-1.313-.433m412.316-7.877a2.188,2.188,0,1,1,1.685.793,2.181,2.181,0,0,1-1.685-.793m-401.392-5.772a2.185,2.185,0,1,1,3.084-.2,2.184,2.184,0,0,1-3.084.2m389.912-7.22a2.186,2.186,0,1,1,3.17-3.01,2.186,2.186,0,0,1-3.17,3.01M222.1,135.785a2.166,2.166,0,1,1,1.548.657,2.175,2.175,0,0,1-1.548-.657M515.034,82.628a2.182,2.182,0,1,1,.854.174,2.109,2.109,0,0,1-.854-.174M309.105,78.491a2.186,2.186,0,1,1,2.836,1.239,2.247,2.247,0,0,1-.793.148,2.178,2.178,0,0,1-2.043-1.387m189.754-2.1a2.165,2.165,0,1,1,.718.124,2.435,2.435,0,0,1-.718-.124M325.552,72.534a2.183,2.183,0,1,1,2.737,1.424,2.4,2.4,0,0,1-.656.1,2.174,2.174,0,0,1-2.081-1.524M482.3,71.209a2.15,2.15,0,1,1,.582.087,2.391,2.391,0,0,1-.582-.087M342.346,67.667a2.182,2.182,0,1,1,2.651,1.6,2.71,2.71,0,0,1-.533.062,2.193,2.193,0,0,1-2.118-1.659m123.1-.545h0a2.161,2.161,0,1,1,.445.049,1.818,1.818,0,0,1-.445-.049M359.426,63.9a2.183,2.183,0,1,1,2.539,1.759,2.144,2.144,0,0,1-.4.038,2.186,2.186,0,0,1-2.142-1.8m88.926.236a2.172,2.172,0,0,1-1.858-2.465,2.183,2.183,0,1,1,4.322.62,2.172,2.172,0,0,1-2.155,1.87,1.242,1.242,0,0,1-.309-.025m-71.636-2.886a2.181,2.181,0,1,1,2.415,1.92,1.809,1.809,0,0,1-.248.012,2.172,2.172,0,0,1-2.167-1.932m54.383,1h0a2.18,2.18,0,1,1,.347-4.347h-.012a2.183,2.183,0,0,1-.162,4.36.781.781,0,0,1-.173-.013M394.129,59.7a2.183,2.183,0,1,1,2.292,2.068.333.333,0,0,1-.112.013,2.2,2.2,0,0,1-2.18-2.081m19.643,1.771a2.205,2.205,0,1,1,.025,0Z" transform="translate(341 702.673)" fill="#3c0060"/>
    <path id="Trazado_657007" data-name="Trazado 657007" d="M413.033,483.363a42.809,42.809,0,1,0,42.811,42.81,42.809,42.809,0,0,0-42.811-42.81m0,76.2a33.39,33.39,0,1,1,33.393-33.389,33.426,33.426,0,0,1-33.393,33.389" transform="translate(341 702.673)" fill="#a50491"/>
    <path id="Trazado_657008" data-name="Trazado 657008" d="M139.5,356.319a.27.27,0,0,0-.12-.012c.012-.144.022-.6.023-.7a2.566,2.566,0,0,0-5.13,0c0,.1.013.553.025.7a.268.268,0,0,0-.12.012c-.228.077-.309.447-.179.83.111.331.341.561.549.568a2.338,2.338,0,0,0,2.287,2.431h.008a2.337,2.337,0,0,0,2.287-2.431c.207-.007.435-.237.548-.568.13-.383.05-.753-.178-.83" transform="translate(341 702.673)" fill="#b3e5fc"/>
    <path id="Trazado_657009" data-name="Trazado 657009" d="M139.5,356.319a.27.27,0,0,0-.12-.012c.012-.144.022-.6.023-.7a2.566,2.566,0,0,0-5.13,0c0,.1.013.553.025.7a.268.268,0,0,0-.12.012c-.228.077-.309.447-.179.83.111.331.341.561.549.568a2.338,2.338,0,0,0,2.287,2.431h.008a2.337,2.337,0,0,0,2.287-2.431c.207-.007.435-.237.548-.568C139.811,356.766,139.731,356.4,139.5,356.319Z" transform="translate(341 702.673)" fill="none" stroke="#000" stroke-miterlimit="10" stroke-width="1"/>
    <path id="Trazado_657010" data-name="Trazado 657010" d="M148.029,370.61l-4.037-2.77-1.433-4.651a3.541,3.541,0,0,0-3.2-2.555l-1.143,1.143a.351.351,0,0,1-.5,0l-.886-.884,0,0v0l-.888.884a.349.349,0,0,1-.5,0l-1.144-1.143a3.537,3.537,0,0,0-3.311,3.52v8.415c0,1.383.808,1.94,1.974,2.147v-9.648a2.234,2.234,0,0,1,.294-1.2V389.82a1.721,1.721,0,1,0,3.441,0c0-.011,0-12.485,0-12.485a.139.139,0,0,1,.138-.143.14.14,0,0,1,.142.143V389.82a1.721,1.721,0,1,0,3.441,0V364.134c0-.139.032-.216.113-.234l1.445,4.846h.007a1.075,1.075,0,0,0,.438.635l4.381,3.009a1.08,1.08,0,1,0,1.222-1.78" transform="translate(341 702.673)" fill="#b3e5fc"/>
    <path id="Trazado_657011" data-name="Trazado 657011" d="M148.029,370.61l-4.037-2.77-1.433-4.651a3.541,3.541,0,0,0-3.2-2.555l-1.143,1.143a.351.351,0,0,1-.5,0l-.886-.884,0,0v0l-.888.884a.349.349,0,0,1-.5,0l-1.144-1.143a3.537,3.537,0,0,0-3.311,3.52v8.415c0,1.383.808,1.94,1.974,2.147v-9.648a2.234,2.234,0,0,1,.294-1.2V389.82a1.721,1.721,0,1,0,3.441,0c0-.011,0-12.485,0-12.485a.139.139,0,0,1,.138-.143.14.14,0,0,1,.142.143V389.82a1.721,1.721,0,1,0,3.441,0V364.134c0-.139.032-.216.113-.234l1.445,4.846h.007a1.075,1.075,0,0,0,.438.635l4.381,3.009a1.08,1.08,0,1,0,1.222-1.78Z" transform="translate(341 702.673)" fill="none" stroke="#000" stroke-miterlimit="10" stroke-width="1"/>
    <path id="Trazado_657012" data-name="Trazado 657012" d="M170.226,358.877H151.144a.33.33,0,0,0-.329.328v1.11a.331.331,0,0,0,.329.331h.392V376.7H169.77v-16.05h.456a.331.331,0,0,0,.328-.331V359.2a.331.331,0,0,0-.328-.328m-1.108,17.165H152.189v-15.4h16.929Z" transform="translate(341 702.673)" fill="#fb8c00"/>
    <path id="Trazado_657013" data-name="Trazado 657013" d="M170.226,358.877H151.144a.33.33,0,0,0-.329.328v1.11a.331.331,0,0,0,.329.331h.392V376.7H169.77v-16.05h.456a.331.331,0,0,0,.328-.331V359.2A.331.331,0,0,0,170.226,358.877Zm-1.108,17.165H152.189v-15.4h16.929Z" transform="translate(341 702.673)" fill="none" stroke="#000" stroke-miterlimit="10" stroke-width="1"/>
    <path id="Trazado_657014" data-name="Trazado 657014" d="M167.4,365.077l-1.568.5-.491.156.352.375.081.089-5.05,4.686-3.995-4.391-.225-.246-.24.225-2.746,2.574-.1.1v1.594l.548-.518,2.485-2.327,3.991,4.388.223.246.243-.224,5.659-5.249.084.089.35.379.193-.48.613-1.534.259-.645Z" transform="translate(341 702.673)" fill="#b61c1c"/>
    <path id="Trazado_657015" data-name="Trazado 657015" d="M167.4,365.077l-1.568.5-.491.156.352.375.081.089-5.05,4.686-3.995-4.391-.225-.246-.24.225-2.746,2.574-.1.1v1.594l.548-.518,2.485-2.327,3.991,4.388.223.246.243-.224,5.659-5.249.084.089.35.379.193-.48.613-1.534.259-.645Z" transform="translate(341 702.673)" fill="none" stroke="#000" stroke-miterlimit="10" stroke-width="0.5"/>
    <path id="Trazado_657016" data-name="Trazado 657016" d="M147.5,326.242a45.168,45.168,0,1,0,45.17,45.169,45.169,45.169,0,0,0-45.17-45.169m0,80.4a35.23,35.23,0,1,1,35.232-35.23,35.269,35.269,0,0,1-35.232,35.23" transform="translate(341 702.673)" fill="#a50491"/>
    <rect id="Rectángulo_350402" data-name="Rectángulo 350402" width="30.699" height="3.11" transform="translate(736.061 1241.141)" fill="#00acc2"/>
    <rect id="Rectángulo_350403" data-name="Rectángulo 350403" width="30.699" height="3.11" transform="translate(736.061 1241.141)" fill="none" stroke="#000" stroke-miterlimit="10" stroke-width="1"/>
    <path id="Trazado_657017" data-name="Trazado 657017" d="M433.173,527.068l-5.605-3.862a8.864,8.864,0,0,0-15.317-8.649v-.11h-17.19v1.025h16.592a8.818,8.818,0,0,0-1.138,3.852H395.061v1.025h15.45a8.81,8.81,0,0,0,.889,3.414h-4.5v.438H395.061v1.025H406.9v3.851h-2.731v-.543h-6.3v.543h-2.8V530.1h2.8v7.023h6.3V530.1H406.9v7.023h6.3V530.1h2.737v7.027h6.3V530.1h3.523v-1.025h-3.523v-.84a8.829,8.829,0,0,0,3.175-1.9l5.6,3.869a1.881,1.881,0,0,0,2.617-.479l.024-.034a1.889,1.889,0,0,0-.481-2.621M413.2,529.077V526.23a8.881,8.881,0,0,0,1.124.923c.126.086.26.175.393.253a8.433,8.433,0,0,0,1.22.619v1.052Zm3.759-2.949v-6.117h4.255V526.3a6.707,6.707,0,0,1-4.255-.168m8.786-4.183a6.69,6.69,0,0,1-2.16,3.13,6.545,6.545,0,0,1-1.346.845v-6.935h-6.3v6.648c-.133-.079-.263-.161-.39-.25a6.809,6.809,0,0,1-.83-.673,6.726,6.726,0,0,1-.885-8.681,6.719,6.719,0,0,1,11.913,5.916" transform="translate(341 702.673)" fill="#b3e5fc"/>
    <path id="Trazado_657018" data-name="Trazado 657018" d="M433.173,527.068l-5.605-3.862a8.864,8.864,0,0,0-15.317-8.649v-.11h-17.19v1.025h16.592a8.818,8.818,0,0,0-1.138,3.852H395.061v1.025h15.45a8.81,8.81,0,0,0,.889,3.414h-4.5v.438H395.061v1.025H406.9v3.851h-2.731v-.543h-6.3v.543h-2.8V530.1h2.8v7.023h6.3V530.1H406.9v7.023h6.3V530.1h2.737v7.027h6.3V530.1h3.523v-1.025h-3.523v-.84a8.829,8.829,0,0,0,3.175-1.9l5.6,3.869a1.881,1.881,0,0,0,2.617-.479l.024-.034A1.889,1.889,0,0,0,433.173,527.068ZM413.2,529.077V526.23a8.881,8.881,0,0,0,1.124.923c.126.086.26.175.393.253a8.433,8.433,0,0,0,1.22.619v1.052Zm3.759-2.949v-6.117h4.255V526.3A6.707,6.707,0,0,1,416.957,526.128Zm8.786-4.183a6.69,6.69,0,0,1-2.16,3.13,6.545,6.545,0,0,1-1.346.845v-6.935h-6.3v6.648c-.133-.079-.263-.161-.39-.25a6.809,6.809,0,0,1-.83-.673,6.726,6.726,0,0,1-.885-8.681,6.719,6.719,0,0,1,11.913,5.916Z" transform="translate(341 702.673)" fill="none" stroke="#000" stroke-miterlimit="10" stroke-width="1"/>
    <path id="Trazado_657019" data-name="Trazado 657019" d="M252.5,51A46.348,46.348,0,1,0,298.85,97.35,46.349,46.349,0,0,0,252.5,51m0,82.5A36.15,36.15,0,1,1,288.653,97.35,36.187,36.187,0,0,1,252.5,133.5" transform="translate(341 702.673)" fill="#a50491"/>
    <path id="Trazado_657020" data-name="Trazado 657020" d="M260.738,102.51c0-3.338,0-6.338,0-9.337,0-3.061.013-6.123-.03-9.184-.028-2.009-1.005-2.978-3.013-2.986q-8.373-.034-16.747,0c-2.12.006-3.126,1.046-3.125,3.17q.006,11.007.029,22.013a2.6,2.6,0,0,0,2.765,2.658c1.979.011,3.96.029,5.939,0a1.783,1.783,0,0,1,1.764.917,18.526,18.526,0,0,0,2.164,2.357c-.624.036-1.08.085-1.535.086-3.557.007-7.113.018-10.67,0a3.459,3.459,0,0,1-3.8-3.763c-.015-8.959-.042-17.918.02-26.876.015-2.164.608-3.426,3.387-3.376,7.786.139,15.575.047,23.364.049a2.379,2.379,0,0,1,2.645,2.642c.02,5.671.025,11.343-.019,17.014a3.13,3.13,0,0,1-.612,1.7c-.686.934-1.514,1.765-2.528,2.916" transform="translate(341 702.673)" fill="#fb8c00"/>
    <path id="Trazado_657021" data-name="Trazado 657021" d="M260.738,102.51c0-3.338,0-6.338,0-9.337,0-3.061.013-6.123-.03-9.184-.028-2.009-1.005-2.978-3.013-2.986q-8.373-.034-16.747,0c-2.12.006-3.126,1.046-3.125,3.17q.006,11.007.029,22.013a2.6,2.6,0,0,0,2.765,2.658c1.979.011,3.96.029,5.939,0a1.783,1.783,0,0,1,1.764.917,18.526,18.526,0,0,0,2.164,2.357c-.624.036-1.08.085-1.535.086-3.557.007-7.113.018-10.67,0a3.459,3.459,0,0,1-3.8-3.763c-.015-8.959-.042-17.918.02-26.876.015-2.164.608-3.426,3.387-3.376,7.786.139,15.575.047,23.364.049a2.379,2.379,0,0,1,2.645,2.642c.02,5.671.025,11.343-.019,17.014a3.13,3.13,0,0,1-.612,1.7C262.58,100.528,261.752,101.359,260.738,102.51Z" transform="translate(341 702.673)" fill="none" stroke="#000" stroke-miterlimit="10" stroke-width="1"/>
    <path id="Trazado_657022" data-name="Trazado 657022" d="M259.624,108.245c2.017-2.373,3.983-4.69,5.955-7,1.1-1.295,2.182-2.616,3.341-3.862a2.966,2.966,0,0,1,4.114-.346,2.8,2.8,0,0,1,.232,3.985c-2.646,3.216-5.355,6.38-8.056,9.55-1.1,1.3-2.221,2.584-3.395,3.817a2.877,2.877,0,0,1-3.876.176q-3.294-2.766-6.569-5.552c-1.524-1.3-1.741-3.015-.581-4.384,1.127-1.33,2.878-1.324,4.391,0,1.215,1.062,2.442,2.108,3.672,3.153a6.973,6.973,0,0,0,.772.467" transform="translate(341 702.673)" fill="#283593"/>
    <path id="Trazado_657023" data-name="Trazado 657023" d="M259.624,108.245c2.017-2.373,3.983-4.69,5.955-7,1.1-1.295,2.182-2.616,3.341-3.862a2.966,2.966,0,0,1,4.114-.346,2.8,2.8,0,0,1,.232,3.985c-2.646,3.216-5.355,6.38-8.056,9.55-1.1,1.3-2.221,2.584-3.395,3.817a2.877,2.877,0,0,1-3.876.176q-3.294-2.766-6.569-5.552c-1.524-1.3-1.741-3.015-.581-4.384,1.127-1.33,2.878-1.324,4.391,0,1.215,1.062,2.442,2.108,3.672,3.153A6.973,6.973,0,0,0,259.624,108.245Z" transform="translate(341 702.673)" fill="none" stroke="#000" stroke-miterlimit="10" stroke-width="1"/>
    <path id="Trazado_657024" data-name="Trazado 657024" d="M256.1,84.485c-.045.119-.243.377-.18.525a10.605,10.605,0,0,0,.882,1.665c.277.423.827.734.944,1.176a1.161,1.161,0,0,1-.781,1.6c-.88.28-.791.937-.569,1.72a2.353,2.353,0,0,1-.224,1.623,1.083,1.083,0,0,1-1.669.505c-.272-.15-1.371.469-1.477.89-.254,1.015-1.024.985-1.654,1.028a1.657,1.657,0,0,1-1.149-.762c-.536-.82-1.034-1.136-1.968-.525a1.329,1.329,0,0,1-1.26-.165c-.387-.377-.835-1.061-.736-1.495.236-1.024.192-1.586-.984-1.877-.393-.1-.8-.831-.869-1.319a1.557,1.557,0,0,1,.637-1.271,1.344,1.344,0,0,0,.664-2.056,1.941,1.941,0,0,1,.374-1.572,1.465,1.465,0,0,1,1.286-.459c1.016.322,1.431-.105,1.875-.924a1.863,1.863,0,0,1,1.284-.889,2.1,2.1,0,0,1,1.5.691c.6.713,1.039,1.129,1.979.483.633-.435,2.059.527,2.094,1.406m-2.6,3.947a2.4,2.4,0,0,0-2.455-2.34,2.371,2.371,0,0,0-2.275,2.5,2.343,2.343,0,0,0,2.371,2.261,2.369,2.369,0,0,0,2.359-2.426" transform="translate(341 702.673)" fill="#00acc2"/>
    <path id="Trazado_657025" data-name="Trazado 657025" d="M256.1,84.485c-.045.119-.243.377-.18.525a10.605,10.605,0,0,0,.882,1.665c.277.423.827.734.944,1.176a1.161,1.161,0,0,1-.781,1.6c-.88.28-.791.937-.569,1.72a2.353,2.353,0,0,1-.224,1.623,1.083,1.083,0,0,1-1.669.505c-.272-.15-1.371.469-1.477.89-.254,1.015-1.024.985-1.654,1.028a1.657,1.657,0,0,1-1.149-.762c-.536-.82-1.034-1.136-1.968-.525a1.329,1.329,0,0,1-1.26-.165c-.387-.377-.835-1.061-.736-1.495.236-1.024.192-1.586-.984-1.877-.393-.1-.8-.831-.869-1.319a1.557,1.557,0,0,1,.637-1.271,1.344,1.344,0,0,0,.664-2.056,1.941,1.941,0,0,1,.374-1.572,1.465,1.465,0,0,1,1.286-.459c1.016.322,1.431-.105,1.875-.924a1.863,1.863,0,0,1,1.284-.889,2.1,2.1,0,0,1,1.5.691c.6.713,1.039,1.129,1.979.483C254.639,82.644,256.065,83.606,256.1,84.485Zm-2.6,3.947a2.4,2.4,0,0,0-2.455-2.34,2.371,2.371,0,0,0-2.275,2.5,2.343,2.343,0,0,0,2.371,2.261A2.369,2.369,0,0,0,253.5,88.432Z" transform="translate(341 702.673)" fill="none" stroke="#000" stroke-miterlimit="10" stroke-width="1"/>
    <path id="Trazado_657026" data-name="Trazado 657026" d="M247.009,102.938a4.442,4.442,0,0,0-.782.743c-.689,1-1.746,1.041-2.261-.028-.352-.732-.731-.815-1.482-.6-1.034.294-1.667-.564-1.525-1.641a1.845,1.845,0,0,0-.587-1.428c-.827-.67-.957-1.639-.022-2.171a1.224,1.224,0,0,0,.7-1.712c-.276-.888.588-1.483,1.543-1.412a2.07,2.07,0,0,0,1.517-.552c.818-.932,1.6-.935,2.349.02a1.962,1.962,0,0,0,1.392.637c1.243-.011,1.739.537,1.579,1.717a1.815,1.815,0,0,0,.6,1.354,1.281,1.281,0,0,1-.076,2.262,1.689,1.689,0,0,0-.679,1.138c.071,1.657-.217,1.987-1.774,1.721-.088-.016-.178-.018-.494-.048m.077-4.1a1.677,1.677,0,0,0-1.866-1.808,1.893,1.893,0,0,0-1.9,2,1.823,1.823,0,0,0,1.85,1.776,1.921,1.921,0,0,0,1.915-1.972" transform="translate(341 702.673)" fill="#00acc2"/>
    <path id="Trazado_657027" data-name="Trazado 657027" d="M247.009,102.938a4.442,4.442,0,0,0-.782.743c-.689,1-1.746,1.041-2.261-.028-.352-.732-.731-.815-1.482-.6-1.034.294-1.667-.564-1.525-1.641a1.845,1.845,0,0,0-.587-1.428c-.827-.67-.957-1.639-.022-2.171a1.224,1.224,0,0,0,.7-1.712c-.276-.888.588-1.483,1.543-1.412a2.07,2.07,0,0,0,1.517-.552c.818-.932,1.6-.935,2.349.02a1.962,1.962,0,0,0,1.392.637c1.243-.011,1.739.537,1.579,1.717a1.815,1.815,0,0,0,.6,1.354,1.281,1.281,0,0,1-.076,2.262,1.689,1.689,0,0,0-.679,1.138c.071,1.657-.217,1.987-1.774,1.721C247.415,102.97,247.325,102.968,247.009,102.938Zm.077-4.1a1.677,1.677,0,0,0-1.866-1.808,1.893,1.893,0,0,0-1.9,2,1.823,1.823,0,0,0,1.85,1.776A1.921,1.921,0,0,0,247.086,98.834Z" transform="translate(341 702.673)" fill="none" stroke="#000" stroke-miterlimit="10" stroke-width="1"/>
    <path id="Trazado_657028" data-name="Trazado 657028" d="M410,212.462a73.3,73.3,0,1,0,73.3,73.3,73.3,73.3,0,0,0-73.3-73.3m0,130.472a57.173,57.173,0,1,1,57.171-57.172A57.239,57.239,0,0,1,410,342.934" transform="translate(341 702.673)" fill="#00cca7"/>
    <rect id="Rectángulo_350404" data-name="Rectángulo 350404" width="32.428" height="25.166" transform="translate(809.456 894.12) rotate(-55.384)" fill="#a50491"/>
    <path id="Trazado_657029" data-name="Trazado 657029" d="M513.908,147.746l-.374,20.105-.373,20.1-18.292-12.624-18.292-12.625,18.665-7.48Z" transform="translate(341 702.673)" fill="#a50491"/>
    <path id="Trazado_657030" data-name="Trazado 657030" d="M496.484,256.055l37.3-12.139c-18.36-51.007-63.788-84.2-118.283-85.894v37.839a93.248,93.248,0,0,1,80.983,60.194" transform="translate(341 702.673)" fill="#a50491"/>
    <rect id="Rectángulo_350405" data-name="Rectángulo 350405" width="25.166" height="32.429" transform="matrix(0.34, -0.94, 0.94, 0.34, 854.344, 1042.782)" fill="#a50491"/>
    <path id="Trazado_657031" data-name="Trazado 657031" d="M575.725,349.291l-11.98-16.149-11.981-16.149-7.558,20.9-7.561,20.9,19.541-4.75Z" transform="translate(341 702.673)" fill="#a50491"/>
    <path id="Trazado_657032" data-name="Trazado 657032" d="M536.679,252.251l-37.4,12.151a93.04,93.04,0,0,1-30.321,95.771l22.563,31.054c42.837-33.22,60.284-86.919,45.156-138.976" transform="translate(341 702.673)" fill="#a50491"/>
    <rect id="Rectángulo_350406" data-name="Rectángulo 350406" width="32.428" height="25.164" transform="matrix(0.013, -1, 1, 0.013, 739.893, 1138.676)" fill="#a50491"/>
    <path id="Trazado_657033" data-name="Trazado 657033" d="M411.092,465.519,422.42,448.9l11.33-16.611L411.526,432l-22.225-.289,10.895,16.9Z" transform="translate(341 702.673)" fill="#a50491"/>
    <path id="Trazado_657034" data-name="Trazado 657034" d="M409.462,381.693a92.566,92.566,0,0,1-49.923-14.547L338.3,396.38a128.034,128.034,0,0,0,146.133,0l-22.467-30.922a92.594,92.594,0,0,1-52.5,16.235" transform="translate(341 702.673)" fill="#a50491"/>
    <rect id="Rectángulo_350407" data-name="Rectángulo 350407" width="32.429" height="25.166" transform="translate(608.601 1030.148) rotate(-19.886)" fill="#a50491"/>
    <path id="Trazado_657035" data-name="Trazado 657035" d="M244.275,349.291l11.979-16.149,11.981-16.149,7.559,20.9,7.56,20.9-19.539-4.75Z" transform="translate(341 702.673)" fill="#a50491"/>
    <path id="Trazado_657036" data-name="Trazado 657036" d="M316.428,288.659a93.016,93.016,0,0,1,3.537-25.39l-33.912-11.018c-15.129,52.056,2.32,105.756,45.158,138.976l21.166-29.134a92.846,92.846,0,0,1-35.949-73.434" transform="translate(341 702.673)" fill="#a50491"/>
    <rect id="Rectángulo_350408" data-name="Rectángulo 350408" width="25.166" height="32.429" transform="matrix(0.823, -0.568, 0.568, 0.823, 657.14, 881.728)" fill="#a50491"/>
    <path id="Trazado_657037" data-name="Trazado 657037" d="M309.819,147.746l.374,20.105.374,20.1,18.292-12.624,18.292-12.625-18.665-7.48Z" transform="translate(341 702.673)" fill="#a50491"/>
    <path id="Trazado_657038" data-name="Trazado 657038" d="M406.831,195.689V158.022c-54.495,1.7-99.788,34.887-118.146,85.894l33.949,11.043a93.009,93.009,0,0,1,84.2-59.27" transform="translate(341 702.673)" fill="#a50491"/>
    <path id="Trazado_657039" data-name="Trazado 657039" d="M426.494,288.286c0,4.749-.009,9.5,0,14.247.012,4.944-3.063,7.992-8.011,7.974q-8.611-.033-17.222.006c-5.17.021-8.193-2.988-8.181-8.124q.034-14.169.013-28.339c-.005-4.8,2.981-7.857,7.766-7.866q9-.018,18.005,0a7.248,7.248,0,0,1,7.617,7.7c-.005,2.4.007,4.8.009,7.2s0,4.8,0,7.2" transform="translate(341 702.673)" fill="#3c0060"/>
    <path id="Trazado_657040" data-name="Trazado 657040" d="M399.93,239.368c3.785,0,7.487-.007,11.19.005a19.189,19.189,0,0,1,2.81.123c2.249.344,3.7,1.565,3.947,3.82a66.724,66.724,0,0,1,.151,7.646,1.99,1.99,0,0,0,1.126,2.1,4.767,4.767,0,0,1,2.312,5.486,5.074,5.074,0,0,1-9.721.572,4.707,4.707,0,0,1,1.686-5.7,2.762,2.762,0,0,0,1.328-2.713c-.045-1.774.035-3.55-.005-5.324-.049-2.173-.454-2.575-2.587-2.589-3.654-.025-7.308.019-10.961-.033a1.842,1.842,0,0,0-2.014,1.2,6.746,6.746,0,0,1-8.053,3.495,6.786,6.786,0,0,1,1.314-13.276c3.259-.358,5.821,1.383,7.477,5.181m-6.811,4.741a3.334,3.334,0,0,0,.03-6.668,3.446,3.446,0,0,0-3.427,3.331,3.369,3.369,0,0,0,3.4,3.337" transform="translate(341 702.673)" fill="#3c0060"/>
    <path id="Trazado_657041" data-name="Trazado 657041" d="M446.552,290.1c-1.044,0-2.091.051-3.131-.012-1.742-.106-3.118.035-4.344,1.763-1.6,2.253-5.077,2.079-7.065.061a5.079,5.079,0,0,1,.292-7.393,4.8,4.8,0,0,1,7.186.591,3.323,3.323,0,0,0,3.36,1.52c2.868-.067,5.74-.053,8.609-.019a1.58,1.58,0,0,0,1.769-1.074,6.8,6.8,0,0,1,13.019,2.647,6.773,6.773,0,0,1-5.17,6.788,6.642,6.642,0,0,1-7.7-3.631,1.876,1.876,0,0,0-2.128-1.253c-1.564.05-3.13.013-4.7.012m12.964-5.106a3.284,3.284,0,0,0-3.333,3.226,3.367,3.367,0,1,0,6.732.123,3.374,3.374,0,0,0-3.4-3.349" transform="translate(341 702.673)" fill="#3c0060"/>
    <path id="Trazado_657042" data-name="Trazado 657042" d="M426.109,320.835c-.574,0-1.149.029-1.721-.005-1.631-.1-2.883,0-3.96,1.779-1.511,2.492-5.14,2.532-7.278.507a5.071,5.071,0,0,1-.008-7.4,4.917,4.917,0,0,1,7.338.424,2.844,2.844,0,0,0,2.752,1.215c2.138-.044,4.28-.052,6.418.023,3.987.14,6.01,2.174,6.211,6.148a10.688,10.688,0,0,1,.009,1.409,1.809,1.809,0,0,0,1.174,2.017,8.882,8.882,0,0,1,3.124,2.912c1.569,2.491,1.207,3.733-1.342,5.114-2.333,1.263-4.791,2.293-7.171,3.473a1.8,1.8,0,0,1-2.349-.508,6.872,6.872,0,0,1,1.794-11c1.284-.668,1.673-2.088,1.183-4.288a2.246,2.246,0,0,0-2.416-1.791c-.157-.007-.312-.018-.47-.018h-3.288Zm8.2,15.707a3.444,3.444,0,0,0,3.306-3.453,3.4,3.4,0,0,0-3.4-3.348,3.441,3.441,0,0,0-3.28,3.478,3.29,3.29,0,0,0,3.375,3.323" transform="translate(341 702.673)" fill="#3c0060"/>
    <path id="Trazado_657043" data-name="Trazado 657043" d="M363.025,267.92a6.522,6.522,0,0,1,5.606,3.988,1.6,1.6,0,0,0,1.76,1.084c2.556-.044,5.115.041,7.667-.059a2.474,2.474,0,0,0,1.67-.929,5.248,5.248,0,0,1,5.766-2.156,5.114,5.114,0,1,1-5.787,7.618,2.49,2.49,0,0,0-1.69-.919c-2.5-.1-5.008,0-7.511-.064a1.631,1.631,0,0,0-1.84,1.184,6.552,6.552,0,0,1-8.042,3.68,6.854,6.854,0,0,1,2.4-13.427m2.806,6.886a3.36,3.36,0,1,0-3.451,3.332,3.4,3.4,0,0,0,3.451-3.332" transform="translate(341 702.673)" fill="#3c0060"/>
    <path id="Trazado_657044" data-name="Trazado 657044" d="M385.14,336.7l-2.748-1.39c.656-1.95.815-3.73-1.1-4.948-1.463-.932-2.967-.579-4.837,1.094l-2.942-2.2a33.551,33.551,0,0,1,3.375-2.4c.7-.381,1.029-.715.987-1.512a15.574,15.574,0,0,1,.1-2.343c.353-3.567,2.3-5.5,5.913-5.593,4.276-.112,8.557-.068,12.836-.048a2.265,2.265,0,0,0,2.2-1.036,4.991,4.991,0,0,1,8.984,3.431,5.04,5.04,0,0,1-4,4.629,4.8,4.8,0,0,1-5.433-2.421,1.81,1.81,0,0,0-1.906-1.148c-4.069.06-8.142-.037-12.209.087-.92.028-2.4.514-2.61,1.135a11.907,11.907,0,0,0-.22,4.267c.01.25.736.483,1.145.7a6.636,6.636,0,0,1,2.461,9.7" transform="translate(341 702.673)" fill="#3c0060"/>
    <path id="Trazado_657045" data-name="Trazado 657045" d="M453.441,245.875c2.046,2.029,3.533,3.753,3.4,6.659-.246,5.26-.053,10.54-.075,15.811a14.629,14.629,0,0,1-.269,2.639c-.749,3.988-3.226,6.04-7.317,6.079-2.453.023-4.909-.053-7.358.049a3.051,3.051,0,0,0-1.922.861,5.338,5.338,0,0,1-6.12,1.458,4.862,4.862,0,0,1-2.815-5.4,5.1,5.1,0,0,1,4.228-4.428,4.9,4.9,0,0,1,5.376,2.873,1.569,1.569,0,0,0,1.741,1.108c2.451-.06,4.906.015,7.358-.051,2.061-.056,3.082-.9,3.448-2.93a22.361,22.361,0,0,0,.256-3.893c.021-6.524.006-13.048.006-19.572,0-.3.03-.6.065-1.263" transform="translate(341 702.673)" fill="#3c0060"/>
    <path id="Trazado_657046" data-name="Trazado 657046" d="M371.009,294.835a7,7,0,0,1-7.168-5.773A6.815,6.815,0,0,1,376.6,284.8c1.105,2,1.963,2.048,3.361.175a4.93,4.93,0,0,1,5.691-1.806,5.1,5.1,0,0,1,3.479,4.879,5.165,5.165,0,0,1-3.592,4.81,5.031,5.031,0,0,1-5.656-1.966c-.293-.4-.606-.968-1.008-1.069a1.519,1.519,0,0,0-2.087.956,6.523,6.523,0,0,1-5.783,4.061m-.361-3.655a3.331,3.331,0,0,0,3.3-3.294,3.352,3.352,0,0,0-6.7-.051,3.325,3.325,0,0,0,3.4,3.345" transform="translate(341 702.673)" fill="#3c0060"/>
    <path id="Trazado_657047" data-name="Trazado 657047" d="M367.88,245.407a1.526,1.526,0,0,1,.131-.379c1.841-2.328,1.842-2.328,4.229-.641,4.435,3.133,8.931,6.183,13.281,9.43a11.81,11.81,0,0,0,8.286,2.588,17.469,17.469,0,0,1,2.506.012,1.848,1.848,0,0,0,2.149-1.245,4.817,4.817,0,0,1,5.468-2.683,5.087,5.087,0,0,1,.975,9.7,4.877,4.877,0,0,1-5.8-1.438,2.448,2.448,0,0,0-2.1-.992c-8.969-.166-7.472.941-16.426-5.317q-5.841-4.083-11.649-8.212c-.372-.262-.718-.56-1.052-.822" transform="translate(341 702.673)" fill="#3c0060"/>
    <path id="Trazado_657048" data-name="Trazado 657048" d="M455.214,320.61c0-3.909.024-7.817-.017-11.726a12.456,12.456,0,0,0-.371-2.936,3.5,3.5,0,0,0-3.579-2.935q-5.09-.1-10.18.083c-.49.017-1.045.68-1.417,1.162a5.212,5.212,0,0,1-6,1.839,5.085,5.085,0,0,1-3.257-5.481,5.013,5.013,0,0,1,4.31-4.341,4.656,4.656,0,0,1,4.937,2.3,1.781,1.781,0,0,0,1.866.969c2.661-.073,5.325-.061,7.989-.071,5.789-.022,8.629,2.483,9.059,8.246a34.293,34.293,0,0,1-.044,8.277c-.3,1.732-1.813,3.254-2.783,4.87l-.515-.255" transform="translate(341 702.673)" fill="#3c0060"/>
    <path id="Trazado_657049" data-name="Trazado 657049" d="M363.982,318.573c-1.932-2.115-3.93-4.135-3.5-7.32.242-1.8.072-3.665.37-5.454a7.1,7.1,0,0,1,7.132-6.252c3.234-.11,6.476-.024,9.714.016a1.8,1.8,0,0,0,1.884-.962,4.857,4.857,0,0,1,5.692-2.176,5.1,5.1,0,0,1,.044,9.759,4.95,4.95,0,0,1-5.77-2.011,2.083,2.083,0,0,0-2.1-1.178c-2.925.033-5.851-.05-8.776-.024-2.636.023-4.085,1.1-4.387,3.721-.315,2.736-.232,5.519-.3,8.282-.03,1.2-.005,2.4-.005,3.6" transform="translate(341 702.673)" fill="#3c0060"/>
    <path id="Trazado_657050" data-name="Trazado 657050" d="M451.091,325.8a4.352,4.352,0,0,1,3.376-3.678l-3.376,3.678" transform="translate(341 702.673)" fill="#3c0060"/>
    <path id="Trazado_657051" data-name="Trazado 657051" d="M693.308,365.378c-.018-.695-.763-1.049-1.458-1.031l-3.125.08a14.974,14.974,0,0,0-2.17-4.908l.009-.058,2.153-2.291a1.272,1.272,0,0,0-.046-1.791l-3.942-3.752a1.26,1.26,0,0,0-1.78.043l-2.116,2.264a13.991,13.991,0,0,0-4.9-1.873v-.014l-.08-3.126a1.271,1.271,0,0,0-1.363-1.16l-5.437.139c-.7.018-.94.524-.923,1.219l.081,3.125a15.3,15.3,0,0,0-4.965,2.171l-.087-.008-2.3-2.152a1.282,1.282,0,0,0-1.8.046l-3.755,3.943a1.259,1.259,0,0,0,.041,1.779l2.267,2.235a14.56,14.56,0,0,0-1.871,5.016h-.015l-3.126.08a.988.988,0,0,0-1.052,1.124l.139,5.437a1.061,1.061,0,0,0,1.111,1.162l3.126-.08a14.64,14.64,0,0,0,2.168,4.847l-.01.027-2.153,2.276a1.264,1.264,0,0,0,.045,1.784l3.943,3.747a1.259,1.259,0,0,0,1.78-.044l2.291-2.27a14.884,14.884,0,0,0,5.073,1.868v.014l.081,3.126c.017.695.321,1.309,1.016,1.291l5.436-.139a1.349,1.349,0,0,0,1.27-1.35l-.08-3.126a14.329,14.329,0,0,0,4.79-2.166v.01l2.262,2.154a1.253,1.253,0,0,0,1.776-.046l3.744-3.942a1.258,1.258,0,0,0-.046-1.779l-2.268-2.174a18.325,18.325,0,0,0,1.87-4.955h.014l3.127-.08a1.385,1.385,0,0,0,1.4-1.256Zm-15.7,3.954s-.031.2-.063.41l-.1.4a5.485,5.485,0,0,1-.3.773s-.022.047-.056.117a1.874,1.874,0,0,1-.136.25l-.148.244a.759.759,0,0,1-.072.107l-.248.332-.277.308a5.48,5.48,0,0,1-.621.548l-.1.078a1.9,1.9,0,0,1-.237.159l-.243.148a.7.7,0,0,1-.114.061l-.373.18-.389.145a5.408,5.408,0,0,1-.8.2l-.128.02a2.081,2.081,0,0,1-.283.032l-.414.021-.414-.021a2.081,2.081,0,0,1-.283-.032l-.128-.02a5.408,5.408,0,0,1-.8-.2l-.389-.145-.373-.18a.7.7,0,0,1-.114-.061l-.243-.148a1.9,1.9,0,0,1-.237-.159l-.1-.078a5.48,5.48,0,0,1-.621-.548l-.277-.308-.249-.332a.822.822,0,0,1-.071-.107l-.149-.244a1.858,1.858,0,0,1-.135-.25c-.034-.07-.056-.117-.056-.117a5.477,5.477,0,0,1-.3-.773l-.1-.4c-.032-.205-.063-.41-.063-.41a5.573,5.573,0,0,1-.031-.827s0-.052.007-.129a2.085,2.085,0,0,1,.024-.284c.031-.205.063-.41.063-.41l.1-.4a2.141,2.141,0,0,1,.089-.27l.045-.122a5.26,5.26,0,0,1,.354-.747s.1-.18.22-.351l.249-.332s.032-.041.085-.1.122-.134.192-.211a2.3,2.3,0,0,1,.2-.2c.057-.053.1-.087.1-.087a5.182,5.182,0,0,1,.661-.5l.11-.067a2.71,2.71,0,0,1,.247-.142l.373-.18.389-.145a2.038,2.038,0,0,1,.273-.081l.125-.032a5.4,5.4,0,0,1,.817-.134l.414-.021.414.021a5.4,5.4,0,0,1,.817.134l.125.032a2.038,2.038,0,0,1,.273.081l.389.145.373.18a2.7,2.7,0,0,1,.247.142l.11.067a5.252,5.252,0,0,1,.661.5l.1.087a2.3,2.3,0,0,1,.2.2c.07.077.139.154.192.211s.085.1.085.1l.248.332c.117.171.22.351.22.351a5.16,5.16,0,0,1,.355.747l.045.122a2.311,2.311,0,0,1,.089.27l.1.4s.032.2.063.41a2.255,2.255,0,0,1,.024.284c0,.077.007.129.007.129a5.708,5.708,0,0,1-.031.827" transform="translate(341 702.673)" fill="#00acc2"/>
    <path id="Trazado_657052" data-name="Trazado 657052" d="M693.308,365.378c-.018-.695-.763-1.049-1.458-1.031l-3.125.08a14.974,14.974,0,0,0-2.17-4.908l.009-.058,2.153-2.291a1.272,1.272,0,0,0-.046-1.791l-3.942-3.752a1.26,1.26,0,0,0-1.78.043l-2.116,2.264a13.991,13.991,0,0,0-4.9-1.873v-.014l-.08-3.126a1.271,1.271,0,0,0-1.363-1.16l-5.437.139c-.7.018-.94.524-.923,1.219l.081,3.125a15.3,15.3,0,0,0-4.965,2.171l-.087-.008-2.3-2.152a1.282,1.282,0,0,0-1.8.046l-3.755,3.943a1.259,1.259,0,0,0,.041,1.779l2.267,2.235a14.56,14.56,0,0,0-1.871,5.016h-.015l-3.126.08a.988.988,0,0,0-1.052,1.124l.139,5.437a1.061,1.061,0,0,0,1.111,1.162l3.126-.08a14.64,14.64,0,0,0,2.168,4.847l-.01.027-2.153,2.276a1.264,1.264,0,0,0,.045,1.784l3.943,3.747a1.259,1.259,0,0,0,1.78-.044l2.291-2.27a14.884,14.884,0,0,0,5.073,1.868v.014l.081,3.126c.017.695.321,1.309,1.016,1.291l5.436-.139a1.349,1.349,0,0,0,1.27-1.35l-.08-3.126a14.329,14.329,0,0,0,4.79-2.166v.01l2.262,2.154a1.253,1.253,0,0,0,1.776-.046l3.744-3.942a1.258,1.258,0,0,0-.046-1.779l-2.268-2.174a18.325,18.325,0,0,0,1.87-4.955h.014l3.127-.08a1.385,1.385,0,0,0,1.4-1.256Zm-15.7,3.954s-.031.2-.063.41l-.1.4a5.485,5.485,0,0,1-.3.773s-.022.047-.056.117a1.874,1.874,0,0,1-.136.25l-.148.244a.759.759,0,0,1-.072.107l-.248.332-.277.308a5.48,5.48,0,0,1-.621.548l-.1.078a1.9,1.9,0,0,1-.237.159l-.243.148a.7.7,0,0,1-.114.061l-.373.18-.389.145a5.408,5.408,0,0,1-.8.2l-.128.02a2.081,2.081,0,0,1-.283.032l-.414.021-.414-.021a2.081,2.081,0,0,1-.283-.032l-.128-.02a5.408,5.408,0,0,1-.8-.2l-.389-.145-.373-.18a.7.7,0,0,1-.114-.061l-.243-.148a1.9,1.9,0,0,1-.237-.159l-.1-.078a5.48,5.48,0,0,1-.621-.548l-.277-.308-.249-.332a.822.822,0,0,1-.071-.107l-.149-.244a1.858,1.858,0,0,1-.135-.25c-.034-.07-.056-.117-.056-.117a5.477,5.477,0,0,1-.3-.773l-.1-.4c-.032-.205-.063-.41-.063-.41a5.573,5.573,0,0,1-.031-.827s0-.052.007-.129a2.085,2.085,0,0,1,.024-.284c.031-.205.063-.41.063-.41l.1-.4a2.141,2.141,0,0,1,.089-.27l.045-.122a5.26,5.26,0,0,1,.354-.747s.1-.18.22-.351l.249-.332s.032-.041.085-.1.122-.134.192-.211a2.3,2.3,0,0,1,.2-.2c.057-.053.1-.087.1-.087a5.182,5.182,0,0,1,.661-.5l.11-.067a2.71,2.71,0,0,1,.247-.142l.373-.18.389-.145a2.038,2.038,0,0,1,.273-.081l.125-.032a5.4,5.4,0,0,1,.817-.134l.414-.021.414.021a5.4,5.4,0,0,1,.817.134l.125.032a2.038,2.038,0,0,1,.273.081l.389.145.373.18a2.7,2.7,0,0,1,.247.142l.11.067a5.252,5.252,0,0,1,.661.5l.1.087a2.3,2.3,0,0,1,.2.2c.07.077.139.154.192.211s.085.1.085.1l.248.332c.117.171.22.351.22.351a5.16,5.16,0,0,1,.355.747l.045.122a2.311,2.311,0,0,1,.089.27l.1.4s.032.2.063.41a2.255,2.255,0,0,1,.024.284c0,.077.007.129.007.129A5.708,5.708,0,0,1,677.6,369.332Z" transform="translate(341 702.673)" fill="none" stroke="#000" stroke-miterlimit="10" stroke-width="1"/>
    <path id="Trazado_657053" data-name="Trazado 657053" d="M672.5,326.241a42.813,42.813,0,1,0,42.811,42.814A42.814,42.814,0,0,0,672.5,326.241m0,76.207a33.393,33.393,0,1,1,33.392-33.393A33.43,33.43,0,0,1,672.5,402.448" transform="translate(341 702.673)" fill="#a50491"/>
    <path id="Trazado_657054" data-name="Trazado 657054" d="M663.958,372.66l.064.132a2.639,2.639,0,0,0,.147.287l.244.4.076.125a2.283,2.283,0,0,0,.18.267l.281.376c-.02.017.614.709.614.709l.1.108.238.218.347.316a.714.714,0,0,0,.112.094l.259.193.376.281.4.245.276.168a.973.973,0,0,0,.127.071l.423.2.291.14a1.324,1.324,0,0,0,.137.052s.878.333.886.306c0,0,.908.239.914.212l.463.07a2.218,2.218,0,0,0,.32.038l.147.007.468.024a2.206,2.206,0,0,0,.323,0l.146-.008.469-.023a2.019,2.019,0,0,0,.32-.032l.145-.022.464-.071a2.239,2.239,0,0,0,.315-.066l.143-.037.454-.117a2.541,2.541,0,0,0,.306-.1l.137-.05.441-.162c.214-.1.424-.2.424-.2l.421-.206.4-.244.126-.076a2.69,2.69,0,0,0,.27-.176l.376-.281.117-.088a2.038,2.038,0,0,0,.248-.206l.347-.315c.019.018.646-.68.646-.68l.1-.109.194-.258.281-.376a.869.869,0,0,0,.081-.121l.168-.276.244-.4.2-.423.14-.29a.88.88,0,0,0,.058-.135l.161-.44.111-.3c.027-.084.039-.142.039-.142s.059-.227.117-.454c.028-.114.061-.227.078-.313s.022-.145.022-.145.149-.927.121-.93c0,0,.053-.937.025-.937,0,0-.044-.938-.071-.935,0,0-.035-.232-.071-.464a2.165,2.165,0,0,0-.061-.316c-.022-.085-.036-.142-.036-.142s-.059-.227-.117-.455a2.071,2.071,0,0,0-.1-.307l-.05-.138-.162-.44a2.56,2.56,0,0,0-.132-.294l-.063-.132-.2-.423-.241-.4s-.118-.2-.247-.4l-.281-.376-.088-.117a2.381,2.381,0,0,0-.2-.251l-.316-.348-.1-.108a2.368,2.368,0,0,0-.23-.226l-.348-.315c.018-.021-.739-.577-.739-.577l-.118-.087-.276-.167-.4-.244a1.037,1.037,0,0,0-.129-.068l-.291-.14-.423-.2-.441-.162-.3-.111a.937.937,0,0,0-.139-.044l-.455-.117-.312-.08a1.137,1.137,0,0,0-.144-.025l-.464-.071-.319-.049-.147-.007-.468-.024-.323-.015-.146,0-.147,0c-.088,0-.205.005-.322.016-.234.014-.467.045-.467.045s-.234.023-.464.069-.459.093-.459.093-.23.048-.455.117-.447.141-.447.141l-.167.056-.43.171a9.407,9.407,0,0,0-1.244.651,8.474,8.474,0,0,0-1.129.835c-.147.123-.261.235-.342.313l-.127.121" transform="translate(341 702.673)" fill="none" stroke="#3c0060" stroke-miterlimit="10" stroke-width="0.962"/>
    <path id="Trazado_657055" data-name="Trazado 657055" d="M662.38,360.258l-.084.1c-.051.06-.12.138-.181.223l-.25.333-.078.105a2.756,2.756,0,0,0-.165.234l-.23.348s-.12.171-.22.354l-.209.36s-.107.18-.2.368-.187.373-.187.373-.023.047-.058.116l-.113.264-.164.383s-.023.047-.05.121l-.1.27c-.07.2-.141.392-.141.392s-.019.049-.039.124-.051.175-.08.276l-.116.4s-.015.05-.031.127-.04.178-.062.279c-.046.2-.091.407-.091.407l-.132.824-.079.83-.027.833s0,.209.007.417.019.416.019.416.012.209.033.416.044.415.044.415a13.2,13.2,0,0,0,.943,3.5" transform="translate(341 702.673)" fill="none" stroke="#3c0060" stroke-miterlimit="10" stroke-width="0.837"/>
    <path id="Trazado_657056" data-name="Trazado 657056" d="M668.28,381.206l.392.1.4.09.4.077.4.066s.2.03.4.053.4.04.4.04.2.021.4.029.406.016.406.016.2.009.405,0l.4-.018.405-.019.279-.012a.734.734,0,0,0,.126-.013l.8-.111.125-.017a2.373,2.373,0,0,0,.275-.047l.395-.092.4-.091.272-.064.12-.039.771-.254.12-.039a2.491,2.491,0,0,0,.259-.1l.373-.161.372-.16a2.084,2.084,0,0,0,.252-.119l.112-.06.714-.385s.045-.023.11-.062l.233-.153.339-.223.339-.223c.163-.121.32-.249.32-.249l.319-.251.219-.173a.936.936,0,0,0,.1-.081l.592-.555.092-.087a2.272,2.272,0,0,0,.2-.2l.271-.3s.545-.6.529-.614l.488-.649.076-.1c.043-.062.095-.15.149-.235l.215-.344.215-.344a2.616,2.616,0,0,0,.133-.245l.057-.113.368-.723s.084-.2.208-.512c.062-.154.134-.333.212-.525s.126-.409.193-.62.133-.421.182-.622.081-.392.114-.555l.112-.54" transform="translate(341 702.673)" fill="none" stroke="#3c0060" stroke-miterlimit="10" stroke-width="0.837"/>
    <path id="Trazado_657057" data-name="Trazado 657057" d="M684.43,362.976l-.214-.352-.147-.242a1.248,1.248,0,0,0-.073-.1l-.484-.667-.075-.1c-.05-.059-.116-.138-.183-.216l-.267-.313-.269-.312-.292-.29s-.581-.584-.594-.57l-.628-.533a1.109,1.109,0,0,0-.1-.078l-.23-.165-.334-.24-.105-.075a2.168,2.168,0,0,0-.235-.157l-.352-.213-.353-.212a2.366,2.366,0,0,0-.249-.135l-.115-.057-.369-.184-.253-.126c-.069-.035-.116-.054-.116-.054l-.766-.3a2.94,2.94,0,0,0-.387-.137l-.394-.12-.394-.121a2.775,2.775,0,0,0-.275-.065l-.126-.028-.4-.086-.277-.06a.9.9,0,0,0-.126-.022l-.817-.1a3.9,3.9,0,0,0-.558-.044c-.337-.009-.784-.049-1.233-.028a13.708,13.708,0,0,0-1.784.178" transform="translate(341 702.673)" fill="none" stroke="#3c0060" stroke-miterlimit="10" stroke-width="0.837"/>
    <path id="Trazado_657058" data-name="Trazado 657058" d="M663.6,361a1.989,1.989,0,1,1,1.917-2.06A1.991,1.991,0,0,1,663.6,361" transform="translate(341 702.673)" fill="#ffeb3c"/>
    <path id="Trazado_657059" data-name="Trazado 657059" d="M663.6,361a1.989,1.989,0,1,1,1.917-2.06A1.991,1.991,0,0,1,663.6,361Z" transform="translate(341 702.673)" fill="none" stroke="#000" stroke-miterlimit="10" stroke-width="1"/>
    <path id="Trazado_657060" data-name="Trazado 657060" d="M663.482,373.023a1.989,1.989,0,1,1,1.917-2.06,1.991,1.991,0,0,1-1.917,2.06" transform="translate(341 702.673)" fill="#ffeb3c"/>
    <path id="Trazado_657061" data-name="Trazado 657061" d="M663.482,373.023a1.989,1.989,0,1,1,1.917-2.06A1.991,1.991,0,0,1,663.482,373.023Z" transform="translate(341 702.673)" fill="none" stroke="#000" stroke-miterlimit="10" stroke-width="1"/>
    <path id="Trazado_657062" data-name="Trazado 657062" d="M666.422,381.826a1.989,1.989,0,1,1,1.917-2.06,1.991,1.991,0,0,1-1.917,2.06" transform="translate(341 702.673)" fill="#ffeb3c"/>
    <path id="Trazado_657063" data-name="Trazado 657063" d="M666.422,381.826a1.989,1.989,0,1,1,1.917-2.06A1.991,1.991,0,0,1,666.422,381.826Z" transform="translate(341 702.673)" fill="none" stroke="#000" stroke-miterlimit="10" stroke-width="1"/>
    <path id="Trazado_657064" data-name="Trazado 657064" d="M684.5,366.954a1.989,1.989,0,1,1,1.917-2.06,1.991,1.991,0,0,1-1.917,2.06" transform="translate(341 702.673)" fill="#ffeb3c"/>
    <path id="Trazado_657065" data-name="Trazado 657065" d="M684.5,366.954a1.989,1.989,0,1,1,1.917-2.06A1.991,1.991,0,0,1,684.5,366.954Z" transform="translate(341 702.673)" fill="none" stroke="#000" stroke-miterlimit="10" stroke-width="1"/>
    <path id="Trazado_657066" data-name="Trazado 657066" d="M567.5,51a42.813,42.813,0,1,0,42.81,42.813A42.812,42.812,0,0,0,567.5,51m0,76.205a33.393,33.393,0,1,1,33.391-33.392A33.431,33.431,0,0,1,567.5,127.207" transform="translate(341 702.673)" fill="#a50491"/>
    <path id="Trazado_657067" data-name="Trazado 657067" d="M581.977,86.75a14.906,14.906,0,1,0-24.029,11.7,6.077,6.077,0,0,1,2.445,4.8v.106a1.432,1.432,0,0,0,1.412,1.452h11.009a1.432,1.432,0,0,0,1.412-1.452v-.434a5.916,5.916,0,0,1,2.178-4.639,14.721,14.721,0,0,0,5.573-11.533" transform="translate(341 702.673)" fill="#afe7fe"/>
    <path id="Trazado_657068" data-name="Trazado 657068" d="M581.977,86.75a14.906,14.906,0,1,0-24.029,11.7,6.077,6.077,0,0,1,2.445,4.8v.106a1.432,1.432,0,0,0,1.412,1.452h11.009a1.432,1.432,0,0,0,1.412-1.452v-.434a5.916,5.916,0,0,1,2.178-4.639A14.721,14.721,0,0,0,581.977,86.75Z" transform="translate(341 702.673)" fill="none" stroke="#000" stroke-miterlimit="10" stroke-width="1"/>
    <path id="Trazado_657069" data-name="Trazado 657069" d="M559.932,109.984c.535,2.721,3.662,4.81,7.44,4.81s6.906-2.089,7.441-4.81Z" transform="translate(341 702.673)" fill="#f8ef3c"/>
    <path id="Trazado_657070" data-name="Trazado 657070" d="M559.932,109.984c.535,2.721,3.662,4.81,7.44,4.81s6.906-2.089,7.441-4.81Z" transform="translate(341 702.673)" fill="none" stroke="#000" stroke-miterlimit="10" stroke-width="1"/>
    <line id="Línea_210" data-name="Línea 210" y1="3.532" transform="translate(902.775 807.174)" fill="none" stroke="#3c0060" stroke-miterlimit="10" stroke-width="0.793"/>
    <line id="Línea_211" data-name="Línea 211" y1="0.81" transform="translate(902.775 806.363)" fill="none" stroke="#3c0060" stroke-miterlimit="10" stroke-width="0.793"/>
    <line id="Línea_212" data-name="Línea 212" y1="0.81" transform="translate(902.775 805.553)" fill="none" stroke="#3c0060" stroke-miterlimit="10" stroke-width="0.793"/>
    <line id="Línea_213" data-name="Línea 213" y1="0.81" transform="translate(902.775 804.742)" fill="none" stroke="#3c0060" stroke-miterlimit="10" stroke-width="0.793"/>
    <line id="Línea_214" data-name="Línea 214" y1="0.81" transform="translate(902.775 803.933)" fill="none" stroke="#3c0060" stroke-miterlimit="10" stroke-width="0.793"/>
    <line id="Línea_215" data-name="Línea 215" y1="0.81" transform="translate(902.775 803.122)" fill="none" stroke="#3c0060" stroke-miterlimit="10" stroke-width="0.793"/>
    <line id="Línea_216" data-name="Línea 216" y1="0.81" transform="translate(902.775 802.312)" fill="none" stroke="#3c0060" stroke-miterlimit="10" stroke-width="0.793"/>
    <line id="Línea_217" data-name="Línea 217" y1="0.81" transform="translate(902.775 801.501)" fill="none" stroke="#3c0060" stroke-miterlimit="10" stroke-width="0.793"/>
    <line id="Línea_218" data-name="Línea 218" y1="0.81" transform="translate(902.775 800.69)" fill="none" stroke="#3c0060" stroke-miterlimit="10" stroke-width="0.793"/>
    <line id="Línea_219" data-name="Línea 219" y1="0.81" transform="translate(902.775 799.88)" fill="none" stroke="#3c0060" stroke-miterlimit="10" stroke-width="0.793"/>
    <line id="Línea_220" data-name="Línea 220" y1="0.81" transform="translate(902.775 799.069)" fill="none" stroke="#3c0060" stroke-miterlimit="10" stroke-width="0.793"/>
    <line id="Línea_221" data-name="Línea 221" y1="0.811" transform="translate(902.775 798.258)" fill="none" stroke="#3c0060" stroke-miterlimit="10" stroke-width="0.793"/>
    <line id="Línea_222" data-name="Línea 222" y1="0.81" transform="translate(902.775 797.448)" fill="none" stroke="#3c0060" stroke-miterlimit="10" stroke-width="0.793"/>
    <line id="Línea_223" data-name="Línea 223" y1="0.81" transform="translate(902.775 796.638)" fill="none" stroke="#3c0060" stroke-miterlimit="10" stroke-width="0.793"/>
    <line id="Línea_224" data-name="Línea 224" y1="0.81" transform="translate(902.775 795.827)" fill="none" stroke="#3c0060" stroke-miterlimit="10" stroke-width="0.793"/>
    <line id="Línea_225" data-name="Línea 225" y1="0.81" transform="translate(902.775 795.017)" fill="none" stroke="#3c0060" stroke-miterlimit="10" stroke-width="0.793"/>
    <path id="Trazado_657071" data-name="Trazado 657071" d="M561.775,92.343V90.555L560.5,89.292" transform="translate(341 702.673)" fill="none" stroke="#3c0060" stroke-miterlimit="10" stroke-width="0.793"/>
    <line id="Línea_226" data-name="Línea 226" x1="0.58" y1="0.575" transform="translate(900.921 791.39)" fill="none" stroke="#3c0060" stroke-miterlimit="10" stroke-width="0.793"/>
    <line id="Línea_227" data-name="Línea 227" y1="3.593" transform="translate(905.112 803.741)" fill="none" stroke="#3c0060" stroke-miterlimit="10" stroke-width="0.793"/>
    <line id="Línea_228" data-name="Línea 228" y1="0.825" transform="translate(905.112 802.916)" fill="none" stroke="#3c0060" stroke-miterlimit="10" stroke-width="0.793"/>
    <line id="Línea_229" data-name="Línea 229" y1="0.825" transform="translate(905.112 802.092)" fill="none" stroke="#3c0060" stroke-miterlimit="10" stroke-width="0.793"/>
    <line id="Línea_230" data-name="Línea 230" y1="0.825" transform="translate(905.112 801.267)" fill="none" stroke="#3c0060" stroke-miterlimit="10" stroke-width="0.793"/>
    <line id="Línea_231" data-name="Línea 231" y1="0.825" transform="translate(905.112 800.442)" fill="none" stroke="#3c0060" stroke-miterlimit="10" stroke-width="0.793"/>
    <line id="Línea_232" data-name="Línea 232" y1="0.825" transform="translate(905.112 799.618)" fill="none" stroke="#3c0060" stroke-miterlimit="10" stroke-width="0.793"/>
    <line id="Línea_233" data-name="Línea 233" y1="0.825" transform="translate(905.112 798.793)" fill="none" stroke="#3c0060" stroke-miterlimit="10" stroke-width="0.793"/>
    <line id="Línea_234" data-name="Línea 234" y1="0.825" transform="translate(905.112 797.969)" fill="none" stroke="#3c0060" stroke-miterlimit="10" stroke-width="0.793"/>
    <line id="Línea_235" data-name="Línea 235" y1="0.825" transform="translate(905.112 797.145)" fill="none" stroke="#3c0060" stroke-miterlimit="10" stroke-width="0.793"/>
    <line id="Línea_236" data-name="Línea 236" y1="0.825" transform="translate(905.112 796.319)" fill="none" stroke="#3c0060" stroke-miterlimit="10" stroke-width="0.793"/>
    <line id="Línea_237" data-name="Línea 237" y1="0.825" transform="translate(905.112 795.495)" fill="none" stroke="#3c0060" stroke-miterlimit="10" stroke-width="0.793"/>
    <line id="Línea_238" data-name="Línea 238" y1="0.825" transform="translate(905.112 794.67)" fill="none" stroke="#3c0060" stroke-miterlimit="10" stroke-width="0.793"/>
    <line id="Línea_239" data-name="Línea 239" y1="0.825" transform="translate(905.112 793.846)" fill="none" stroke="#3c0060" stroke-miterlimit="10" stroke-width="0.793"/>
    <line id="Línea_240" data-name="Línea 240" y1="0.825" transform="translate(905.112 793.021)" fill="none" stroke="#3c0060" stroke-miterlimit="10" stroke-width="0.793"/>
    <line id="Línea_241" data-name="Línea 241" y1="0.825" transform="translate(905.112 792.196)" fill="none" stroke="#3c0060" stroke-miterlimit="10" stroke-width="0.793"/>
    <line id="Línea_242" data-name="Línea 242" y1="0.825" transform="translate(905.112 791.372)" fill="none" stroke="#3c0060" stroke-miterlimit="10" stroke-width="0.793"/>
    <line id="Línea_243" data-name="Línea 243" y1="0.825" transform="translate(905.112 790.548)" fill="none" stroke="#3c0060" stroke-miterlimit="10" stroke-width="0.793"/>
    <line id="Línea_244" data-name="Línea 244" y1="0.825" transform="translate(905.112 789.723)" fill="none" stroke="#3c0060" stroke-miterlimit="10" stroke-width="0.793"/>
    <line id="Línea_245" data-name="Línea 245" y1="0.825" transform="translate(905.112 788.898)" fill="none" stroke="#3c0060" stroke-miterlimit="10" stroke-width="0.793"/>
    <line id="Línea_246" data-name="Línea 246" y1="0.825" transform="translate(905.112 788.074)" fill="none" stroke="#3c0060" stroke-miterlimit="10" stroke-width="0.793"/>
    <line id="Línea_247" data-name="Línea 247" y1="0.825" transform="translate(905.112 787.249)" fill="none" stroke="#3c0060" stroke-miterlimit="10" stroke-width="0.793"/>
    <line id="Línea_248" data-name="Línea 248" y1="0.825" transform="translate(905.112 786.425)" fill="none" stroke="#3c0060" stroke-miterlimit="10" stroke-width="0.793"/>
    <line id="Línea_249" data-name="Línea 249" y1="0.825" transform="translate(905.112 785.601)" fill="none" stroke="#3c0060" stroke-miterlimit="10" stroke-width="0.793"/>
    <line id="Línea_250" data-name="Línea 250" y1="0.825" transform="translate(905.112 784.775)" fill="none" stroke="#3c0060" stroke-miterlimit="10" stroke-width="0.793"/>
    <line id="Línea_251" data-name="Línea 251" y1="0.825" transform="translate(905.112 783.951)" fill="none" stroke="#3c0060" stroke-miterlimit="10" stroke-width="0.793"/>
    <line id="Línea_252" data-name="Línea 252" y1="0.825" transform="translate(905.112 783.127)" fill="none" stroke="#3c0060" stroke-miterlimit="10" stroke-width="0.793"/>
    <line id="Línea_253" data-name="Línea 253" y1="3.552" transform="translate(907.786 807.913)" fill="none" stroke="#3c0060" stroke-miterlimit="10" stroke-width="0.793"/>
    <line id="Línea_254" data-name="Línea 254" y1="0.815" transform="translate(907.786 807.099)" fill="none" stroke="#3c0060" stroke-miterlimit="10" stroke-width="0.793"/>
    <line id="Línea_255" data-name="Línea 255" y1="0.815" transform="translate(907.786 806.283)" fill="none" stroke="#3c0060" stroke-miterlimit="10" stroke-width="0.793"/>
    <line id="Línea_256" data-name="Línea 256" y1="0.815" transform="translate(907.786 805.468)" fill="none" stroke="#3c0060" stroke-miterlimit="10" stroke-width="0.793"/>
    <line id="Línea_257" data-name="Línea 257" y1="0.815" transform="translate(907.786 804.652)" fill="none" stroke="#3c0060" stroke-miterlimit="10" stroke-width="0.793"/>
    <line id="Línea_258" data-name="Línea 258" y1="0.815" transform="translate(907.786 803.837)" fill="none" stroke="#3c0060" stroke-miterlimit="10" stroke-width="0.793"/>
    <line id="Línea_259" data-name="Línea 259" y1="0.815" transform="translate(907.786 803.022)" fill="none" stroke="#3c0060" stroke-miterlimit="10" stroke-width="0.793"/>
    <line id="Línea_260" data-name="Línea 260" y1="0.815" transform="translate(907.786 802.207)" fill="none" stroke="#3c0060" stroke-miterlimit="10" stroke-width="0.793"/>
    <line id="Línea_261" data-name="Línea 261" y1="0.815" transform="translate(907.786 801.392)" fill="none" stroke="#3c0060" stroke-miterlimit="10" stroke-width="0.793"/>
    <line id="Línea_262" data-name="Línea 262" y1="0.815" transform="translate(907.786 800.576)" fill="none" stroke="#3c0060" stroke-miterlimit="10" stroke-width="0.793"/>
    <line id="Línea_263" data-name="Línea 263" y1="0.815" transform="translate(907.786 799.762)" fill="none" stroke="#3c0060" stroke-miterlimit="10" stroke-width="0.793"/>
    <line id="Línea_264" data-name="Línea 264" y1="0.815" transform="translate(907.786 798.946)" fill="none" stroke="#3c0060" stroke-miterlimit="10" stroke-width="0.793"/>
    <line id="Línea_265" data-name="Línea 265" y1="0.815" transform="translate(907.786 798.131)" fill="none" stroke="#3c0060" stroke-miterlimit="10" stroke-width="0.793"/>
    <line id="Línea_266" data-name="Línea 266" y1="0.815" transform="translate(907.786 797.315)" fill="none" stroke="#3c0060" stroke-miterlimit="10" stroke-width="0.793"/>
    <line id="Línea_267" data-name="Línea 267" y1="0.815" transform="translate(907.786 796.5)" fill="none" stroke="#3c0060" stroke-miterlimit="10" stroke-width="0.793"/>
    <line id="Línea_268" data-name="Línea 268" y1="0.815" transform="translate(907.786 795.686)" fill="none" stroke="#3c0060" stroke-miterlimit="10" stroke-width="0.793"/>
    <line id="Línea_269" data-name="Línea 269" y1="0.815" transform="translate(907.786 794.87)" fill="none" stroke="#3c0060" stroke-miterlimit="10" stroke-width="0.793"/>
    <line id="Línea_270" data-name="Línea 270" y1="0.815" transform="translate(907.786 794.055)" fill="none" stroke="#3c0060" stroke-miterlimit="10" stroke-width="0.793"/>
    <line id="Línea_271" data-name="Línea 271" y1="0.815" transform="translate(907.786 793.239)" fill="none" stroke="#3c0060" stroke-miterlimit="10" stroke-width="0.793"/>
    <line id="Línea_272" data-name="Línea 272" y1="0.815" transform="translate(907.786 792.424)" fill="none" stroke="#3c0060" stroke-miterlimit="10" stroke-width="0.793"/>
    <line id="Línea_273" data-name="Línea 273" y1="0.815" transform="translate(907.786 791.609)" fill="none" stroke="#3c0060" stroke-miterlimit="10" stroke-width="0.793"/>
    <line id="Línea_274" data-name="Línea 274" y1="3.589" transform="translate(913.343 808.413)" fill="none" stroke="#3c0060" stroke-miterlimit="10" stroke-width="0.793"/>
    <line id="Línea_275" data-name="Línea 275" y1="0.824" transform="translate(913.343 807.589)" fill="none" stroke="#3c0060" stroke-miterlimit="10" stroke-width="0.793"/>
    <line id="Línea_276" data-name="Línea 276" y1="0.824" transform="translate(913.343 806.765)" fill="none" stroke="#3c0060" stroke-miterlimit="10" stroke-width="0.793"/>
    <line id="Línea_277" data-name="Línea 277" y1="0.824" transform="translate(913.343 805.941)" fill="none" stroke="#3c0060" stroke-miterlimit="10" stroke-width="0.793"/>
    <line id="Línea_278" data-name="Línea 278" y1="0.824" transform="translate(913.343 805.118)" fill="none" stroke="#3c0060" stroke-miterlimit="10" stroke-width="0.793"/>
    <line id="Línea_279" data-name="Línea 279" y1="0.824" transform="translate(913.343 804.294)" fill="none" stroke="#3c0060" stroke-miterlimit="10" stroke-width="0.793"/>
    <line id="Línea_280" data-name="Línea 280" y1="0.824" transform="translate(913.343 803.471)" fill="none" stroke="#3c0060" stroke-miterlimit="10" stroke-width="0.793"/>
    <line id="Línea_281" data-name="Línea 281" y1="0.824" transform="translate(913.343 802.646)" fill="none" stroke="#3c0060" stroke-miterlimit="10" stroke-width="0.793"/>
    <line id="Línea_282" data-name="Línea 282" y1="0.824" transform="translate(913.343 801.823)" fill="none" stroke="#3c0060" stroke-miterlimit="10" stroke-width="0.793"/>
    <line id="Línea_283" data-name="Línea 283" y1="0.824" transform="translate(913.343 801)" fill="none" stroke="#3c0060" stroke-miterlimit="10" stroke-width="0.793"/>
    <line id="Línea_284" data-name="Línea 284" y1="0.824" transform="translate(913.343 800.176)" fill="none" stroke="#3c0060" stroke-miterlimit="10" stroke-width="0.793"/>
    <line id="Línea_285" data-name="Línea 285" y1="0.824" transform="translate(913.343 799.353)" fill="none" stroke="#3c0060" stroke-miterlimit="10" stroke-width="0.793"/>
    <line id="Línea_286" data-name="Línea 286" y1="0.824" transform="translate(913.343 798.528)" fill="none" stroke="#3c0060" stroke-miterlimit="10" stroke-width="0.793"/>
    <line id="Línea_287" data-name="Línea 287" y1="0.824" transform="translate(913.343 797.705)" fill="none" stroke="#3c0060" stroke-miterlimit="10" stroke-width="0.793"/>
    <line id="Línea_288" data-name="Línea 288" y1="0.824" transform="translate(913.343 796.881)" fill="none" stroke="#3c0060" stroke-miterlimit="10" stroke-width="0.793"/>
    <line id="Línea_289" data-name="Línea 289" y1="0.824" transform="translate(913.343 796.058)" fill="none" stroke="#3c0060" stroke-miterlimit="10" stroke-width="0.793"/>
    <line id="Línea_290" data-name="Línea 290" y1="0.824" transform="translate(913.343 795.234)" fill="none" stroke="#3c0060" stroke-miterlimit="10" stroke-width="0.793"/>
    <line id="Línea_291" data-name="Línea 291" y1="0.824" transform="translate(913.343 794.41)" fill="none" stroke="#3c0060" stroke-miterlimit="10" stroke-width="0.793"/>
    <line id="Línea_292" data-name="Línea 292" y1="0.824" transform="translate(913.343 793.587)" fill="none" stroke="#3c0060" stroke-miterlimit="10" stroke-width="0.793"/>
    <path id="Trazado_657072" data-name="Trazado 657072" d="M572.343,90.914V89.126l1.274-1.264" transform="translate(341 702.673)" fill="none" stroke="#3c0060" stroke-miterlimit="10" stroke-width="0.793"/>
    <line id="Línea_293" data-name="Línea 293" y1="0.572" x2="0.577" transform="translate(914.617 789.963)" fill="none" stroke="#3c0060" stroke-miterlimit="10" stroke-width="0.793"/>
    <line id="Línea_294" data-name="Línea 294" y1="0.572" x2="0.577" transform="translate(915.193 789.391)" fill="none" stroke="#3c0060" stroke-miterlimit="10" stroke-width="0.793"/>
    <line id="Línea_295" data-name="Línea 295" y1="3.593" transform="translate(910.657 808.409)" fill="none" stroke="#3c0060" stroke-miterlimit="10" stroke-width="0.793"/>
    <line id="Línea_296" data-name="Línea 296" y1="0.825" transform="translate(910.657 807.584)" fill="none" stroke="#3c0060" stroke-miterlimit="10" stroke-width="0.793"/>
    <line id="Línea_297" data-name="Línea 297" y1="0.825" transform="translate(910.657 806.76)" fill="none" stroke="#3c0060" stroke-miterlimit="10" stroke-width="0.793"/>
    <line id="Línea_298" data-name="Línea 298" y1="0.825" transform="translate(910.657 805.935)" fill="none" stroke="#3c0060" stroke-miterlimit="10" stroke-width="0.793"/>
    <line id="Línea_299" data-name="Línea 299" y1="0.825" transform="translate(910.657 805.11)" fill="none" stroke="#3c0060" stroke-miterlimit="10" stroke-width="0.793"/>
    <line id="Línea_300" data-name="Línea 300" y1="0.825" transform="translate(910.657 804.285)" fill="none" stroke="#3c0060" stroke-miterlimit="10" stroke-width="0.793"/>
    <line id="Línea_301" data-name="Línea 301" y1="0.825" transform="translate(910.657 803.461)" fill="none" stroke="#3c0060" stroke-miterlimit="10" stroke-width="0.793"/>
    <line id="Línea_302" data-name="Línea 302" y1="0.825" transform="translate(910.657 802.637)" fill="none" stroke="#3c0060" stroke-miterlimit="10" stroke-width="0.793"/>
    <line id="Línea_303" data-name="Línea 303" y1="0.825" transform="translate(910.657 801.812)" fill="none" stroke="#3c0060" stroke-miterlimit="10" stroke-width="0.793"/>
    <line id="Línea_304" data-name="Línea 304" y1="0.825" transform="translate(910.657 800.987)" fill="none" stroke="#3c0060" stroke-miterlimit="10" stroke-width="0.793"/>
    <line id="Línea_305" data-name="Línea 305" y1="0.825" transform="translate(910.657 800.163)" fill="none" stroke="#3c0060" stroke-miterlimit="10" stroke-width="0.793"/>
    <line id="Línea_306" data-name="Línea 306" y1="0.825" transform="translate(910.657 799.338)" fill="none" stroke="#3c0060" stroke-miterlimit="10" stroke-width="0.793"/>
    <line id="Línea_307" data-name="Línea 307" y1="0.825" transform="translate(910.657 798.514)" fill="none" stroke="#3c0060" stroke-miterlimit="10" stroke-width="0.793"/>
    <line id="Línea_308" data-name="Línea 308" y1="0.825" transform="translate(910.657 797.689)" fill="none" stroke="#3c0060" stroke-miterlimit="10" stroke-width="0.793"/>
    <line id="Línea_309" data-name="Línea 309" y1="0.825" transform="translate(910.657 796.864)" fill="none" stroke="#3c0060" stroke-miterlimit="10" stroke-width="0.793"/>
    <line id="Línea_310" data-name="Línea 310" y1="0.825" transform="translate(910.657 796.04)" fill="none" stroke="#3c0060" stroke-miterlimit="10" stroke-width="0.793"/>
    <line id="Línea_311" data-name="Línea 311" y1="0.825" transform="translate(910.657 795.216)" fill="none" stroke="#3c0060" stroke-miterlimit="10" stroke-width="0.793"/>
    <line id="Línea_312" data-name="Línea 312" y1="0.825" transform="translate(910.657 794.391)" fill="none" stroke="#3c0060" stroke-miterlimit="10" stroke-width="0.793"/>
    <line id="Línea_313" data-name="Línea 313" y1="0.825" transform="translate(910.657 793.566)" fill="none" stroke="#3c0060" stroke-miterlimit="10" stroke-width="0.793"/>
    <line id="Línea_314" data-name="Línea 314" y1="0.825" transform="translate(910.657 792.742)" fill="none" stroke="#3c0060" stroke-miterlimit="10" stroke-width="0.793"/>
    <line id="Línea_315" data-name="Línea 315" y1="0.825" transform="translate(910.657 791.917)" fill="none" stroke="#3c0060" stroke-miterlimit="10" stroke-width="0.793"/>
    <line id="Línea_316" data-name="Línea 316" y1="0.825" transform="translate(910.657 791.093)" fill="none" stroke="#3c0060" stroke-miterlimit="10" stroke-width="0.793"/>
    <line id="Línea_317" data-name="Línea 317" y1="0.825" transform="translate(910.657 790.269)" fill="none" stroke="#3c0060" stroke-miterlimit="10" stroke-width="0.793"/>
    <line id="Línea_318" data-name="Línea 318" y1="0.825" transform="translate(910.657 789.443)" fill="none" stroke="#3c0060" stroke-miterlimit="10" stroke-width="0.793"/>
    <line id="Línea_319" data-name="Línea 319" y1="0.825" transform="translate(910.657 788.619)" fill="none" stroke="#3c0060" stroke-miterlimit="10" stroke-width="0.793"/>
    <line id="Línea_320" data-name="Línea 320" y1="0.825" transform="translate(910.657 787.795)" fill="none" stroke="#3c0060" stroke-miterlimit="10" stroke-width="0.793"/>
    <path id="Trazado_657073" data-name="Trazado 657073" d="M576.068,108.746a1.552,1.552,0,0,1-1.4,1.693l-14.243.072a1.526,1.526,0,1,1-.348-3.03l14.243-.073a1.559,1.559,0,0,1,1.748,1.338" transform="translate(341 702.673)" fill="#f8ef3c"/>
    <path id="Trazado_657074" data-name="Trazado 657074" d="M576.068,108.746a1.552,1.552,0,0,1-1.4,1.693l-14.243.072a1.526,1.526,0,1,1-.348-3.03l14.243-.073A1.559,1.559,0,0,1,576.068,108.746Z" transform="translate(341 702.673)" fill="none" stroke="#000" stroke-miterlimit="10" stroke-width="1"/>
    <path id="Trazado_657075" data-name="Trazado 657075" d="M576.068,105.737a1.551,1.551,0,0,1-1.4,1.692l-14.243.072a1.526,1.526,0,1,1-.348-3.029l14.243-.073a1.559,1.559,0,0,1,1.748,1.338" transform="translate(341 702.673)" fill="#f8ef3c"/>
    <path id="Trazado_657076" data-name="Trazado 657076" d="M576.068,105.737a1.551,1.551,0,0,1-1.4,1.692l-14.243.072a1.526,1.526,0,1,1-.348-3.029l14.243-.073A1.559,1.559,0,0,1,576.068,105.737Z" transform="translate(341 702.673)" fill="none" stroke="#000" stroke-miterlimit="10" stroke-width="1"/>
    <path id="Trazado_657077" data-name="Trazado 657077" d="M561.009,88.261a1.49,1.49,0,1,1-1.49-1.49,1.49,1.49,0,0,1,1.49,1.49" transform="translate(341 702.673)" fill="#f8ef3c"/>
    <path id="Trazado_657078" data-name="Trazado 657078" d="M561.009,88.261a1.49,1.49,0,1,1-1.49-1.49A1.49,1.49,0,0,1,561.009,88.261Z" transform="translate(341 702.673)" fill="none" stroke="#000" stroke-miterlimit="10" stroke-width="1"/>
    <path id="Trazado_657079" data-name="Trazado 657079" d="M565.6,79.789a1.49,1.49,0,1,1-1.49-1.49,1.49,1.49,0,0,1,1.49,1.49" transform="translate(341 702.673)" fill="#f8ef3c"/>
    <path id="Trazado_657080" data-name="Trazado 657080" d="M565.6,79.789a1.49,1.49,0,1,1-1.49-1.49A1.49,1.49,0,0,1,565.6,79.789Z" transform="translate(341 702.673)" fill="none" stroke="#000" stroke-miterlimit="10" stroke-width="1"/>
    <path id="Trazado_657081" data-name="Trazado 657081" d="M568.276,88.261a1.49,1.49,0,1,1-1.49-1.49,1.49,1.49,0,0,1,1.49,1.49" transform="translate(341 702.673)" fill="#f8ef3c"/>
    <path id="Trazado_657082" data-name="Trazado 657082" d="M568.276,88.261a1.49,1.49,0,1,1-1.49-1.49A1.49,1.49,0,0,1,568.276,88.261Z" transform="translate(341 702.673)" fill="none" stroke="#000" stroke-miterlimit="10" stroke-width="1"/>
    <path id="Trazado_657083" data-name="Trazado 657083" d="M571.256,84.83a1.49,1.49,0,1,1-1.49-1.49,1.49,1.49,0,0,1,1.49,1.49" transform="translate(341 702.673)" fill="#f8ef3c"/>
    <path id="Trazado_657084" data-name="Trazado 657084" d="M571.256,84.83a1.49,1.49,0,1,1-1.49-1.49A1.49,1.49,0,0,1,571.256,84.83Z" transform="translate(341 702.673)" fill="none" stroke="#000" stroke-miterlimit="10" stroke-width="1"/>
    <path id="Trazado_657085" data-name="Trazado 657085" d="M576.26,86.718a1.49,1.49,0,1,1-1.49-1.49,1.49,1.49,0,0,1,1.49,1.49" transform="translate(341 702.673)" fill="#f8ef3c"/>
    <path id="Trazado_657086" data-name="Trazado 657086" d="M576.26,86.718a1.49,1.49,0,1,1-1.49-1.49A1.49,1.49,0,0,1,576.26,86.718Z" transform="translate(341 702.673)" fill="none" stroke="#000" stroke-miterlimit="10" stroke-width="1"/>
    <rect id="Rectángulo_350409" data-name="Rectángulo 350409" width="819.74" height="702.788" transform="translate(341 702.673)" fill="none"/>
  </g>
</svg>
