<svg id="Grupo_953324" data-name="Grupo 953324" xmlns="http://www.w3.org/2000/svg" xmlns:xlink="http://www.w3.org/1999/xlink" width="70.408" height="67.184" viewBox="0 0 70.408 67.184">
  <defs>
    <clipPath id="clip-path">
      <rect id="Rectángulo_352017" data-name="Rectángulo 352017" width="70.408" height="67.184" transform="translate(0 0)" fill="none"/>
    </clipPath>
  </defs>
  <g id="Grupo_953322" data-name="Grupo 953322" clip-path="url(#clip-path)">
    <path id="Trazado_662702" data-name="Trazado 662702" d="M70.408,33.587a33.376,33.376,0,0,1-53.28,26.8L.771,64.567l6.81-15.23a33.388,33.388,0,1,1,62.827-15.75" fill="#fff"/>
    <path id="Trazado_662703" data-name="Trazado 662703" d="M70.408,33.587a33.6,33.6,0,0,1-4.955,17.524A37.035,37.035,0,0,1,62.8,54.886a37.487,37.487,0,0,1-3.195,3.329,22.344,22.344,0,0,1-1.738,1.518l-1.843,1.392c-.616.463-1.3.825-1.947,1.242l-.985.607c-.334.192-.688.345-1.032.52L49.983,64.5l-2.168.81a16.314,16.314,0,0,1-2.212.674c-.75.179-1.484.437-2.249.549a32.606,32.606,0,0,1-4.6.559,29.144,29.144,0,0,1-4.634-.007,33.584,33.584,0,0,1-17.209-6.41l.3.059L.88,64.993,0,65.222l.37-.834L7.141,49.141l.016.424A33.076,33.076,0,0,1,3.176,34.85,33.726,33.726,0,0,1,15.284,7.774,33.857,33.857,0,0,1,43.963.752,34.035,34.035,0,0,1,57.585,7.226,33.566,33.566,0,0,1,70.408,33.587m0,0A33.488,33.488,0,0,0,57.49,7.348a33.755,33.755,0,0,0-13.6-6.254,33.391,33.391,0,0,0-14.92.4A32.925,32.925,0,0,0,15.764,8.344,34.363,34.363,0,0,0,6.906,20.256,33.026,33.026,0,0,0,8,49.109l.113.21-.1.215L1.172,64.747l-.509-.605,16.377-4.1L17.207,60l.134.1a32.992,32.992,0,0,0,16.823,6.51,28.853,28.853,0,0,0,4.573.066,32.411,32.411,0,0,0,4.551-.494c.758-.1,1.487-.348,2.232-.514a16.1,16.1,0,0,0,2.2-.64l2.161-.775,2.078-.975c.343-.169.7-.317,1.032-.5l.985-.59c.648-.406,1.334-.758,1.952-1.209l1.848-1.368a21.943,21.943,0,0,0,1.738-1.5,37.337,37.337,0,0,0,3.2-3.3,36.848,36.848,0,0,0,2.659-3.75,33.549,33.549,0,0,0,5.035-17.475" fill="#263238"/>
    <path id="Trazado_662704" data-name="Trazado 662704" d="M33.4,51.208,20.977,38.634l4.174-4.123,7.256,7.345L47.482,18.222l4.947,3.154Z" fill="#ffc727"/>
  </g>
</svg>
