<svg xmlns="http://www.w3.org/2000/svg" width="63.241" height="59.215" viewBox="0 0 63.241 59.215">
  <g id="Grupo_953330" data-name="Grupo 953330" transform="translate(6364.244 4486.405)">
    <path id="Trazado_657512" data-name="Trazado 657512" d="M938.709,198.242a3.567,3.567,0,0,1,3.555-3.515h17.13a3.567,3.567,0,0,1,3.556,3.515v11.822H938.709Z" transform="translate(-7266 -4643.218)" fill="#e9efff"/>
    <path id="Trazado_657513" data-name="Trazado 657513" d="M903.7,198.242a3.567,3.567,0,0,1,3.555-3.515h17.13a3.568,3.568,0,0,1,3.556,3.515v11.822H903.7Z" transform="translate(-7266 -4643.218)" fill="#e9efff"/>
    <path id="Trazado_657514" data-name="Trazado 657514" d="M945.5,173.427H921.255V161.606a3.567,3.567,0,0,1,3.556-3.515h17.13a3.566,3.566,0,0,1,3.555,3.515Z" transform="translate(-7266 -4643.218)" fill="#e9efff"/>
    <path id="Trazado_657515" data-name="Trazado 657515" d="M958.964,157.452a2.024,2.024,0,1,1-2.047,2.024,2.036,2.036,0,0,1,2.047-2.024" transform="translate(-7266 -4643.218)" fill="#fec100"/>
    <path id="Trazado_657516" data-name="Trazado 657516" d="M921.256,182.8a3.3,3.3,0,1,1-3.34,3.3,3.322,3.322,0,0,1,3.34-3.3" transform="translate(-7266 -4643.218)" fill="#fec100"/>
    <path id="Trazado_657517" data-name="Trazado 657517" d="M962.95,210.064h1.4a5.3,5.3,0,0,1-5.386,5.325H942.8a5.318,5.318,0,0,1-3.771-1.6,5.4,5.4,0,0,1-1.615-3.728H962.95Z" transform="translate(-7266 -4643.218)" fill="#006c87"/>
    <path id="Trazado_657518" data-name="Trazado 657518" d="M927.935,210.064h1.4a5.3,5.3,0,0,1-5.387,5.325h-16.16a5.322,5.322,0,0,1-3.771-1.6,5.4,5.4,0,0,1-1.615-3.728h25.533Z" transform="translate(-7266 -4643.218)" fill="#006c87"/>
    <path id="Trazado_657519" data-name="Trazado 657519" d="M945.5,173.427h1.293a5.3,5.3,0,0,1-5.387,5.325H925.241a5.314,5.314,0,0,1-3.77-1.6,5.393,5.393,0,0,1-1.616-3.728H945.5Z" transform="translate(-7266 -4643.218)" fill="#006c87"/>
    <path id="Trazado_657520" data-name="Trazado 657520" d="M915.869,204.739a5.3,5.3,0,0,1,5.387,5.325H910.483a5.3,5.3,0,0,1,5.386-5.325" transform="translate(-7266 -4643.218)" fill="#8fe269"/>
    <path id="Trazado_657521" data-name="Trazado 657521" d="M933.322,168.1a5.3,5.3,0,0,1,5.387,5.325H927.936a5.372,5.372,0,0,1,5.386-5.325" transform="translate(-7266 -4643.218)" fill="#fe5a5a"/>
    <path id="Trazado_657522" data-name="Trazado 657522" d="M950.883,204.739a5.3,5.3,0,0,1,5.386,5.325H945.5a5.3,5.3,0,0,1,5.387-5.325" transform="translate(-7266 -4643.218)" fill="#fec100"/>
    <path id="Trazado_657523" data-name="Trazado 657523" d="M950.883,199.414a2.663,2.663,0,1,1-2.694,2.663,2.678,2.678,0,0,1,2.694-2.663" transform="translate(-7266 -4643.218)" fill="#ffd5ab"/>
    <path id="Trazado_657524" data-name="Trazado 657524" d="M915.869,199.414a2.663,2.663,0,1,1-2.693,2.663,2.678,2.678,0,0,1,2.693-2.663" transform="translate(-7266 -4643.218)" fill="#ffd5ab"/>
    <path id="Trazado_657525" data-name="Trazado 657525" d="M933.322,162.777a2.663,2.663,0,1,1-2.693,2.663,2.679,2.679,0,0,1,2.693-2.663" transform="translate(-7266 -4643.218)" fill="#ffd5ab"/>
    <path id="Trazado_657526" data-name="Trazado 657526" d="M961.226,168.848a.959.959,0,1,1-.969.958.964.964,0,0,1,.969-.958" transform="translate(-7266 -4643.218)"/>
    <path id="Trazado_657527" data-name="Trazado 657527" d="M951.206,183.439a.959.959,0,1,1-.969.958.964.964,0,0,1,.969-.958" transform="translate(-7266 -4643.218)"/>
    <path id="Trazado_657528" data-name="Trazado 657528" d="M934.292,193.45a.959.959,0,1,1-.97.958.964.964,0,0,1,.97-.958" transform="translate(-7266 -4643.218)"/>
    <path id="Trazado_657529" data-name="Trazado 657529" d="M916.839,176.2a.959.959,0,1,1-.97.958.964.964,0,0,1,.97-.958" transform="translate(-7266 -4643.218)"/>
    <path id="Trazado_657530" data-name="Trazado 657530" d="M911.452,158.2a.959.959,0,1,1-.969.958.964.964,0,0,1,.969-.958" transform="translate(-7266 -4643.218)"/>
    <path id="Trazado_657531" data-name="Trazado 657531" d="M905.419,176.835a.959.959,0,1,1-.97.958.964.964,0,0,1,.97-.958" transform="translate(-7266 -4643.218)"/>
    <path id="Trazado_657532" data-name="Trazado 657532" d="M923.949,216.028h-16.16a6.447,6.447,0,0,1-4.31-1.7,5.832,5.832,0,0,1-1.723-4.26.691.691,0,0,1,.646-.639H903.7a.639.639,0,1,1,0,1.278h-.646a5.154,5.154,0,0,0,1.292,2.662,4.75,4.75,0,0,0,3.34,1.385h16.16a4.637,4.637,0,0,0,4.633-4.047h-.646a.639.639,0,1,1,0-1.278h1.4a.691.691,0,0,1,.647.639,5.832,5.832,0,0,1-5.926,5.964" transform="translate(-7266 -4643.218)"/>
    <path id="Trazado_657533" data-name="Trazado 657533" d="M927.935,210.7H903.7a.692.692,0,0,1-.647-.639V198.242a4.183,4.183,0,0,1,4.2-4.153h17.13a4.183,4.183,0,0,1,4.2,4.153v11.822a.692.692,0,0,1-.647.639m-23.594-1.278h22.948V198.242a2.88,2.88,0,0,0-2.909-2.875H907.25a2.88,2.88,0,0,0-2.909,2.875Z" transform="translate(-7266 -4643.218)"/>
    <path id="Trazado_657534" data-name="Trazado 657534" d="M915.869,205.378a3.3,3.3,0,1,1,3.34-3.3,3.337,3.337,0,0,1-3.34,3.3m0-5.326a2.024,2.024,0,1,0,0,4.048,1.97,1.97,0,0,0,2.047-2.023,2.19,2.19,0,0,0-2.047-2.025" transform="translate(-7266 -4643.218)"/>
    <path id="Trazado_657535" data-name="Trazado 657535" d="M921.256,210.7a.691.691,0,0,1-.646-.639,4.741,4.741,0,0,0-9.481,0,.647.647,0,0,1-1.293,0,6.033,6.033,0,0,1,12.066,0,.691.691,0,0,1-.646.639" transform="translate(-7266 -4643.218)"/>
    <path id="Trazado_657536" data-name="Trazado 657536" d="M927.935,202.076h-5.387a.639.639,0,1,1,0-1.278h5.387a.639.639,0,1,1,0,1.278" transform="translate(-7266 -4643.218)"/>
    <path id="Trazado_657537" data-name="Trazado 657537" d="M909.082,202.076H903.7a.639.639,0,1,1,0-1.278h5.387a.639.639,0,1,1,0,1.278" transform="translate(-7266 -4643.218)"/>
    <path id="Trazado_657538" data-name="Trazado 657538" d="M958.964,216.028H942.8a6.446,6.446,0,0,1-4.31-1.7,5.829,5.829,0,0,1-1.724-4.26.691.691,0,0,1,.647-.639h1.4a.639.639,0,1,1,0,1.278h-.646a5.162,5.162,0,0,0,1.292,2.662,4.755,4.755,0,0,0,3.341,1.385h16.16A4.637,4.637,0,0,0,963.6,210.7h-.646a.639.639,0,1,1,0-1.278h1.4a.691.691,0,0,1,.647.639,5.989,5.989,0,0,1-6.033,5.964" transform="translate(-7266 -4643.218)"/>
    <path id="Trazado_657539" data-name="Trazado 657539" d="M962.949,210.7h-24.24a.692.692,0,0,1-.647-.639V198.242a4.183,4.183,0,0,1,4.2-4.153h17.13a4.183,4.183,0,0,1,4.2,4.153v11.822a.692.692,0,0,1-.647.639m-23.594-1.278H962.3V198.242a2.88,2.88,0,0,0-2.909-2.875h-17.13a2.88,2.88,0,0,0-2.909,2.875Z" transform="translate(-7266 -4643.218)"/>
    <path id="Trazado_657540" data-name="Trazado 657540" d="M950.883,205.378a3.3,3.3,0,1,1,3.34-3.3,3.337,3.337,0,0,1-3.34,3.3m0-5.326a2.024,2.024,0,1,0,0,4.048,1.97,1.97,0,0,0,2.047-2.023,2.19,2.19,0,0,0-2.047-2.025" transform="translate(-7266 -4643.218)"/>
    <path id="Trazado_657541" data-name="Trazado 657541" d="M956.27,210.7a.691.691,0,0,1-.646-.639,4.741,4.741,0,0,0-9.481,0,.647.647,0,0,1-1.293,0,6.033,6.033,0,0,1,12.066,0,.691.691,0,0,1-.646.639" transform="translate(-7266 -4643.218)"/>
    <path id="Trazado_657542" data-name="Trazado 657542" d="M962.95,202.076h-5.387a.639.639,0,1,1,0-1.278h5.387a.639.639,0,1,1,0,1.278" transform="translate(-7266 -4643.218)"/>
    <path id="Trazado_657543" data-name="Trazado 657543" d="M944.1,202.076h-5.387a.639.639,0,1,1,0-1.278H944.1a.639.639,0,1,1,0,1.278" transform="translate(-7266 -4643.218)"/>
    <path id="Trazado_657544" data-name="Trazado 657544" d="M941.4,179.391H925.242a6.445,6.445,0,0,1-4.309-1.7,5.831,5.831,0,0,1-1.724-4.26.691.691,0,0,1,.647-.639h1.4a.639.639,0,1,1,0,1.278h-.646a5.158,5.158,0,0,0,1.292,2.662,4.752,4.752,0,0,0,3.34,1.385H941.4a4.637,4.637,0,0,0,4.632-4.047h-.646a.639.639,0,1,1,0-1.278h1.4a.691.691,0,0,1,.647.639,5.989,5.989,0,0,1-6.033,5.964" transform="translate(-7266 -4643.218)"/>
    <path id="Trazado_657545" data-name="Trazado 657545" d="M945.5,174.066h-24.24a.692.692,0,0,1-.647-.639V161.711a4.184,4.184,0,0,1,4.2-4.153h17.13a4.183,4.183,0,0,1,4.2,4.153v11.823a.6.6,0,0,1-.647.532M921.9,172.788H944.85V161.711a2.881,2.881,0,0,0-2.909-2.875h-17.13a2.881,2.881,0,0,0-2.909,2.875Z" transform="translate(-7266 -4643.218)"/>
    <path id="Trazado_657546" data-name="Trazado 657546" d="M933.322,168.741a3.3,3.3,0,1,1,3.34-3.3,3.337,3.337,0,0,1-3.34,3.3m0-5.325a2.034,2.034,0,0,0-2.047,2.023,1.97,1.97,0,0,0,2.047,2.024,2.024,2.024,0,1,0,0-4.047" transform="translate(-7266 -4643.218)"/>
    <path id="Trazado_657547" data-name="Trazado 657547" d="M938.709,174.066a.691.691,0,0,1-.646-.639,4.741,4.741,0,0,0-9.481,0,.647.647,0,0,1-1.293,0,6.033,6.033,0,0,1,12.066,0,.617.617,0,0,1-.646.639" transform="translate(-7266 -4643.218)"/>
    <path id="Trazado_657548" data-name="Trazado 657548" d="M945.5,165.439h-5.387a.639.639,0,1,1,0-1.278H945.5a.639.639,0,1,1,0,1.278" transform="translate(-7266 -4643.218)"/>
    <path id="Trazado_657549" data-name="Trazado 657549" d="M926.643,165.439h-5.387a.639.639,0,1,1,0-1.278h5.387a.639.639,0,1,1,0,1.278" transform="translate(-7266 -4643.218)"/>
    <path id="Trazado_657550" data-name="Trazado 657550" d="M956.916,195.366a.691.691,0,0,1-.646-.639V167.464h-6.787a.64.64,0,1,1,0-1.279h7.433a.691.691,0,0,1,.647.639v28.009a.6.6,0,0,1-.647.533" transform="translate(-7266 -4643.218)"/>
    <path id="Trazado_657551" data-name="Trazado 657551" d="M909.728,195.366a.691.691,0,0,1-.646-.639v-27.9a.691.691,0,0,1,.646-.639h7.434a.64.64,0,1,1,0,1.279h-6.787v27.263c.108.427-.216.639-.647.639" transform="translate(-7266 -4643.218)"/>
    <path id="Trazado_657552" data-name="Trazado 657552" d="M958.964,162.138a2.663,2.663,0,1,1,2.693-2.662,2.721,2.721,0,0,1-2.693,2.662m0-4.047a1.385,1.385,0,1,0,1.4,1.385,1.589,1.589,0,0,0-1.4-1.385" transform="translate(-7266 -4643.218)"/>
    <path id="Trazado_657553" data-name="Trazado 657553" d="M921.256,190.042a4.047,4.047,0,1,1,4.094-4.047,4.139,4.139,0,0,1-4.094,4.047m0-6.6a2.663,2.663,0,1,0,2.693,2.663,2.72,2.72,0,0,0-2.693-2.663" transform="translate(-7266 -4643.218)"/>
  </g>
</svg>
