<svg id="Grupo_953143" data-name="Grupo 953143" xmlns="http://www.w3.org/2000/svg" xmlns:xlink="http://www.w3.org/1999/xlink" width="69.75" height="69.645" viewBox="0 0 69.75 69.645">
  <defs>
    <clipPath id="clip-path">
      <rect id="Rectángulo_351838" data-name="Rectángulo 351838" width="69.75" height="69.645" fill="none"/>
    </clipPath>
  </defs>
  <g id="Grupo_953143-2" data-name="Grupo 953143" clip-path="url(#clip-path)">
    <path id="Trazado_661777" data-name="Trazado 661777" d="M124.736,132.787q0,1.263,0,2.526c-.92.02-.915.67-.915,1.328q0,8.706,0,17.411a5.049,5.049,0,0,1-.018.774c-.041.258-.147.538-.483.495-1.519-.194-3.139.505-4.575-.59a2.574,2.574,0,0,0-1.261-.434c-2.55-.242-5.1-.029-7.654-.109a2.406,2.406,0,0,1-1.071-.086,3.528,3.528,0,0,0-2.087-4.777,8.705,8.705,0,0,0-3.307-.26,13.456,13.456,0,0,1-6.752-1.138,15.324,15.324,0,0,0-7.322-1.374c-1.493.036-2.988,0-4.482,0-.367,0-.565-.012-.65-.513-.128-.761-.38-1.654-1.239-1.857a10.362,10.362,0,0,0-1.842-.264q0-1.339,0-2.678c.862-.166,1.09-.71,1.088-1.548-.024-7.471,0-14.942-.036-22.413,0-.753.148-.971.914-.966q7.155.043,14.311-.016c.719-.006.833.236.825.873-.032,2.528.019,5.058-.028,7.586a1.62,1.62,0,0,0,2.685,1.266,17.756,17.756,0,0,0,1.574-1.116c.408-.392.723-.243,1.048-.014.554.39,1.072.831,1.614,1.24.813.612,2.461.051,2.548-.921a18.572,18.572,0,0,0,.209-2.117c-.046-2.039,0-4.08-.029-6.12-.008-.539.153-.678.677-.669,1.867.034,3.736.042,5.6.012.551-.009.664.176.661.689-.019,4.281,0,8.563-.019,12.844-.01,2.023.81,2.885,2.863,2.9l7.153.037M116.7,150.13v0c1.092,0,2.186.03,3.276-.012.566-.022,1.1-.278,1.1-.938a.983.983,0,0,0-1.061-1.084c-2.184,0-4.369,0-6.553.015a.88.88,0,0,0-.969,1.034c.057.545.291,1.017,1.019.991,1.062-.038,2.126-.01,3.19-.01m.017-4.118c1.032,0,2.065,0,3.1,0a1.128,1.128,0,0,0,1.264-1c.092-.762-.611-1-1.106-1.015-2.062-.074-4.13-.08-6.191,0-.577.022-1.3.363-1.275,1.1.027.776.686.932,1.373.922.946-.014,1.892,0,2.839,0" transform="translate(-67.083 -96.231)" fill="#e2ae83"/>
    <path id="Trazado_661778" data-name="Trazado 661778" d="M13.991,235.074a10.357,10.357,0,0,1,1.842.264c.859.2,1.111,1.1,1.239,1.857.085.5.283.514.65.513,1.494-.005,2.989.032,4.482,0a15.322,15.322,0,0,1,7.322,1.374,13.458,13.458,0,0,0,6.752,1.138,8.7,8.7,0,0,1,3.307.26,3.528,3.528,0,0,1,2.087,4.777,2.4,2.4,0,0,0,1.071.086c2.55.081,5.1-.133,7.655.109a2.574,2.574,0,0,1,1.261.434c1.436,1.1,3.055.4,4.575.59.335.043.442-.237.482-.495a5,5,0,0,0,.018-.774q0-8.706,0-17.411c0-.658-.005-1.309.915-1.329a1,1,0,0,1,1.046,1.055c.059.685.089,1.367.089,2.052q0,8.011,0,16.022a2.775,2.775,0,0,1-1.807,2.856,6.5,6.5,0,0,1-2.278.051c-.792-.049-1.247.061-1.2.989.091,1.8-2.02,3.445-3.854,3.432-10.481-.072-20.962-.037-31.444-.036-.315,0-.63.022-.944.034-.125-.047-.137.019-.117.117-.011.43-.032.86-.033,1.29a2.455,2.455,0,0,1-2.649,2.7q-6.252,0-12.5,0c-1.4,0-1.925-.534-1.925-1.968,0-5.892.035-11.785-.024-17.677-.017-1.643.522-2.281,2.352-2.276,3.564.01,7.129,0,10.693,0,.315,0,.631-.021.946-.032m37.414,13.839c-.094-1.015-.679-1.5-1.859-1.51-2.07-.011-4.139,0-6.209,0-3.335,0-6.669.011-10-.015-.36,0-.742.286-1.051.044-.415-.324-.985-.711-.821-1.284a1.24,1.24,0,0,1,1.352-.812c1.7.04,3.392.016,5.088.011a2.71,2.71,0,0,0,1.1-.122,1.414,1.414,0,0,0,.871-1.659,1.563,1.563,0,0,0-1.715-1.306c-1.264-.024-2.535-.082-3.793.011a11.667,11.667,0,0,1-5.328-1.192,13.922,13.922,0,0,0-4.983-1.295c-2.126-.042-4.254,0-6.382-.018-.4,0-.553.111-.55.534.025,2.989.028,5.977.039,8.966-.224,1.6-.224,1.6,1.288,1.6q9.052,0,18.1,0c4.4,0,8.792-.007,13.188-.037,1.225-.008,1.75-.652,1.669-1.905M7.94,246.046c0-2.726-.016-5.453.013-8.179.006-.571-.165-.733-.727-.717-1.491.043-2.985.054-4.476.021-.559-.013-.657.189-.655.692q.024,8.179,0,16.358c0,.532.1.754.694.737q2.15-.06,4.3.018c.656.024.877-.136.866-.838-.045-2.7-.018-5.395-.018-8.093m2.038.015c0,2.759.011,5.517-.011,8.276,0,.47.092.651.6.636,1.235-.038,2.471-.031,3.707,0,.586.013.819-.193.817-.8q-.021-8.1,0-16.206c0-.594-.218-.822-.811-.809-1.206.026-2.415.042-3.62-.007-.587-.024-.7.18-.7.723.026,2.73.012,5.46.012,8.189" transform="translate(0 -187.382)"/>
    <path id="Trazado_661779" data-name="Trazado 661779" d="M119.8,36.556l-7.153-.037c-2.053-.011-2.873-.873-2.863-2.9.022-4.281,0-8.563.019-12.844,0-.512-.11-.7-.661-.689-1.867.031-3.736.022-5.6-.012-.524-.01-.685.13-.677.669.032,2.04-.017,4.081.029,6.12a18.573,18.573,0,0,1-.209,2.117c-.088.972-1.735,1.533-2.548.921-.542-.408-1.059-.849-1.614-1.24-.325-.229-.639-.378-1.048.014A17.758,17.758,0,0,1,95.894,29.8a1.62,1.62,0,0,1-2.685-1.266c.047-2.528,0-5.057.028-7.586.008-.637-.106-.879-.825-.873q-7.155.061-14.311.016c-.766,0-.917.213-.914.966.036,7.471.012,14.942.036,22.413,0,.838-.225,1.382-1.088,1.548-.723-.067-1-.452-1-1.186q.025-11.249.009-22.5a7.064,7.064,0,0,1,0-1.456,2.335,2.335,0,0,1,2.386-1.811c10.431,0,20.862-.021,31.293-.005.763,0,1.019-.155.993-.967-.064-2.009-.006-4.022-.022-6.033a2.65,2.65,0,0,1,.825-2.029q3.849-3.747,7.687-7.5A5.119,5.119,0,0,1,119.8.243a2.393,2.393,0,0,1,2.878.648c1.485,1.4,2.885,2.884,4.342,4.312,1.126,1.1,2.313,2.146,3.415,3.271a4.285,4.285,0,0,1,1.167,2.58c.55,3.736.129,7.46.234,11.184.106,3.761.024,7.528.023,11.292,0,2.02-.938,2.967-2.93,2.976q-4.566.021-9.133.05m10-14.1h0c0-3.619-.009-7.238.009-10.856a1.866,1.866,0,0,0-.587-1.449c-1.843-1.81-3.659-3.648-5.5-5.461-.807-.795-1.662-1.54-2.467-2.337-.416-.412-.7-.308-1.068.067-2.581,2.6-5.18,5.191-7.769,7.786a1.509,1.509,0,0,0-.546,1.115q.022,11.158,0,22.316c0,.653.223.827.853.825q8.057-.027,16.114.01c.759,0,.985-.235.978-.988-.033-3.676-.015-7.352-.015-11.029m-28.993,5.2c0-2.409-.006-4.707.006-7.005,0-.385-.088-.575-.522-.57-1.465.019-2.931.015-4.4,0-.479,0-.632.188-.626.67.025,1.839-.02,3.679.031,5.517.013.466-.343.91-.064,1.44a6.036,6.036,0,0,0,1.174-.713c1.114-1.094,1.842-1.152,3.044-.212a3.776,3.776,0,0,0,1.354.869" transform="translate(-62.143 0)"/>
    <path id="Trazado_661780" data-name="Trazado 661780" d="M99.261,379.806c-.02-.1-.007-.164.117-.117l-.117.117" transform="translate(-82.125 -314.151)" fill="#ffcebf"/>
    <path id="Trazado_661781" data-name="Trazado 661781" d="M267.309,302.585c-1.063,0-2.128-.028-3.19.01-.728.026-.962-.446-1.019-.991a.88.88,0,0,1,.969-1.033c2.184-.019,4.369-.014,6.553-.015a.983.983,0,0,1,1.061,1.084c0,.66-.532.916-1.1.938-1.091.042-2.184.012-3.276.012Z" transform="translate(-217.689 -248.686)"/>
    <path id="Trazado_661782" data-name="Trazado 661782" d="M267.425,278.5c-.946,0-1.893-.011-2.839,0-.687.01-1.346-.146-1.373-.922-.026-.74.7-1.081,1.275-1.1,2.062-.078,4.129-.073,6.191,0,.5.018,1.2.253,1.106,1.015a1.129,1.129,0,0,1-1.264,1c-1.032,0-2.064,0-3.1,0" transform="translate(-217.788 -228.715)"/>
    <path id="Trazado_661783" data-name="Trazado 661783" d="M99.231,313c-.01-2.989-.014-5.977-.038-8.966,0-.422.147-.537.55-.534,2.127.015,4.255-.025,6.381.018a13.921,13.921,0,0,1,4.983,1.295,11.667,11.667,0,0,0,5.328,1.192c1.258-.093,2.529-.035,3.793-.011a1.563,1.563,0,0,1,1.714,1.306,1.414,1.414,0,0,1-.871,1.659,2.707,2.707,0,0,1-1.1.122c-1.7.005-3.393.029-5.088-.011a1.24,1.24,0,0,0-1.352.812c-.164.574.406.96.821,1.285.309.242.692-.047,1.051-.044,3.335.026,6.669.015,10,.015,2.07,0,4.14-.008,6.209,0,1.18.006,1.765.495,1.859,1.51a6.6,6.6,0,0,1-1.67.363q-16.289-.009-32.578-.014" transform="translate(-82.074 -251.121)" fill="#ffcebf"/>
    <path id="Trazado_661784" data-name="Trazado 661784" d="M17.986,297.281c0,2.7-.026,5.4.018,8.093.012.7-.209.861-.865.838q-2.15-.078-4.3-.018c-.6.017-.7-.205-.694-.737q.026-8.179,0-16.358c0-.5.1-.7.655-.692,1.491.034,2.985.023,4.476-.021.561-.016.732.145.727.717-.028,2.726-.013,5.453-.013,8.179" transform="translate(-10.046 -238.616)" fill="#7398d4"/>
    <path id="Trazado_661785" data-name="Trazado 661785" d="M57.762,297.284c0-2.73.014-5.46-.012-8.189-.005-.543.111-.746.7-.723,1.205.048,2.414.033,3.62.007.593-.013.812.215.811.809q-.02,8.1,0,16.206c0,.6-.231.81-.817.8-1.235-.027-2.472-.034-3.707,0-.513.016-.608-.165-.6-.636.021-2.758.011-5.517.011-8.276" transform="translate(-47.784 -238.605)" fill="#f8fafb"/>
    <path id="Trazado_661786" data-name="Trazado 661786" d="M98.9,356.889q16.289.007,32.578.015a6.6,6.6,0,0,0,1.67-.363c.081,1.253-.444,1.9-1.669,1.905-4.4.03-8.792.034-13.188.037q-9.051.008-18.1,0c-1.512,0-1.512,0-1.289-1.6" transform="translate(-81.746 -295.01)" fill="#e2ae83"/>
    <path id="Trazado_661787" data-name="Trazado 661787" d="M306.038,32.493c0,3.676-.018,7.353.015,11.029.007.753-.219.992-.978.988q-8.057-.044-16.114-.011c-.629,0-.854-.172-.853-.825q.024-11.158,0-22.316a1.508,1.508,0,0,1,.546-1.115c2.589-2.6,5.188-5.182,7.769-7.786.371-.374.652-.478,1.068-.067.8.8,1.661,1.542,2.467,2.337,1.84,1.813,3.656,3.651,5.5,5.461a1.867,1.867,0,0,1,.588,1.449c-.018,3.619-.009,7.238-.009,10.857Zm-7.6,3.548c.1.9-.514,1.3-1.2,1.518-.707.22-1.2-.186-1.485-.841a2.771,2.771,0,0,1-.26-.889c-.053-.585-.5-.665-1.01-.666-.473,0-.792.173-.86.631a2.955,2.955,0,0,0,1.213,2.994c.761.549,1.452,1.021,1.2,2.127-.106.465.285.69.65.892.429.237.712-.053.985-.271a1.211,1.211,0,0,0,.424-1.151,1.1,1.1,0,0,1,.681-1.283,3.073,3.073,0,0,0,1.578-1.847,3.457,3.457,0,0,0-3.34-4.655,1.619,1.619,0,0,1-1.462-1.106,1.41,1.41,0,0,1,1.177-1.83,1.346,1.346,0,0,1,1.719,1.205c.1.645.319,1.268,1.079,1.333.525.045,1.03-.753.978-1.474a2.921,2.921,0,0,0-1.061-2.058c-.743-.633-1.6-1.106-1.392-2.375.106-.64-.991-1.018-1.578-.632a1.119,1.119,0,0,0-.458,1.121,1.238,1.238,0,0,1-.773,1.428c-1.67.866-2.079,2.568-1.349,4.388a3.355,3.355,0,0,0,3.077,2.057c1,.1,1.481.544,1.471,1.385m1.9-16.366a3.192,3.192,0,0,0-3.339-3.3,3.294,3.294,0,0,0-3.366,3.348,3.479,3.479,0,0,0,3.275,3.376,3.339,3.339,0,0,0,3.43-3.426" transform="translate(-238.385 -10.033)" fill="#dc4955"/>
    <path id="Trazado_661788" data-name="Trazado 661788" d="M196.79,123.976a3.776,3.776,0,0,1-1.354-.869c-1.2-.941-1.931-.883-3.044.212a6.035,6.035,0,0,1-1.174.713c-.279-.529.077-.974.064-1.44-.051-1.838-.006-3.678-.031-5.517-.007-.481.147-.673.626-.67,1.466.011,2.932.015,4.4,0,.434-.006.524.184.522.57-.012,2.3-.006,4.6-.006,7.005" transform="translate(-158.13 -96.313)" fill="#dc4955"/>
    <path id="Trazado_661789" data-name="Trazado 661789" d="M324.533,100.2c.009-.843-.471-1.288-1.472-1.386a3.354,3.354,0,0,1-3.077-2.057c-.731-1.819-.321-3.521,1.349-4.388a1.238,1.238,0,0,0,.773-1.428,1.119,1.119,0,0,1,.458-1.121c.587-.386,1.684-.008,1.578.632-.21,1.269.649,1.743,1.392,2.375a2.922,2.922,0,0,1,1.061,2.058c.052.721-.453,1.519-.978,1.474-.76-.065-.982-.688-1.079-1.333a1.346,1.346,0,0,0-1.719-1.205,1.41,1.41,0,0,0-1.176,1.83,1.618,1.618,0,0,0,1.462,1.106,3.457,3.457,0,0,1,3.34,4.655,3.073,3.073,0,0,1-1.578,1.847,1.1,1.1,0,0,0-.681,1.283,1.211,1.211,0,0,1-.424,1.151c-.273.219-.556.509-.985.271-.364-.2-.756-.427-.65-.892.253-1.106-.438-1.578-1.2-2.127a2.955,2.955,0,0,1-1.213-2.994c.068-.458.387-.632.86-.631.51,0,.957.081,1.01.666a2.767,2.767,0,0,0,.26.889c.289.655.778,1.061,1.485.841.689-.215,1.3-.616,1.2-1.517" transform="translate(-264.475 -74.191)"/>
    <path id="Trazado_661790" data-name="Trazado 661790" d="M326.824,40.063a3.339,3.339,0,0,1-3.43,3.426,3.478,3.478,0,0,1-3.275-3.376,3.294,3.294,0,0,1,3.366-3.348,3.192,3.192,0,0,1,3.339,3.3m-2.07.072a1.14,1.14,0,0,0-1.2-1.3,1.319,1.319,0,0,0-1.392,1.265,1.344,1.344,0,0,0,1.426,1.329,1.265,1.265,0,0,0,1.162-1.29" transform="translate(-264.87 -30.421)"/>
    <path id="Trazado_661791" data-name="Trazado 661791" d="M334.592,50.033a1.265,1.265,0,0,1-1.162,1.29A1.344,1.344,0,0,1,332,49.994a1.319,1.319,0,0,1,1.392-1.265,1.14,1.14,0,0,1,1.2,1.3" transform="translate(-274.708 -40.319)" fill="#f8fafb"/>
  </g>
</svg>
