<svg id="Grupo_949482" data-name="Grupo 949482" xmlns="http://www.w3.org/2000/svg" xmlns:xlink="http://www.w3.org/1999/xlink" width="67.587" height="81.333" viewBox="0 0 67.587 81.333">
  <defs>
    <clipPath id="clip-path">
      <rect id="Rectángulo_350486" data-name="Rectángulo 350486" width="67.587" height="81.333" fill="none"/>
    </clipPath>
  </defs>
  <g id="Grupo_949482-2" data-name="Grupo 949482" clip-path="url(#clip-path)">
    <path id="Trazado_657353" data-name="Trazado 657353" d="M74.419,4.451l2.315-.005a.056.056,0,0,0,.031-.01q-.006.48-.012.96l-.013.028.022.023c.026.278.238.2.4.2q7.586,0,15.172,0c.165,0,.329.016.494.025.19.122.164.362.3.527A4.662,4.662,0,0,1,94.22,9.359q-.024,9.671,0,19.342c.03,10.9-.088,21.81.063,32.714a3.524,3.524,0,0,1-1.7.41q-9.17,0-18.339.007c-.121,0-.242-.006-.364-.01a.267.267,0,0,0-.32,0h-.21a.476.476,0,0,0-.451,0c-.13.072-.065.2-.073.3a7.7,7.7,0,0,1-.031.885L70.292,63c0-.033,0-.067-.005-.1v-.285c-.005-.117,0-.234-.017-.35-.018-.161.062-.348-.114-.472a.026.026,0,0,0-.043-.005c-.275.012-.55.035-.825.035q-12.4.005-24.795.006c-.364,0-.728-.006-1.092-.009a.981.981,0,0,0-.649,0l-.145,0c-.019-.028-.038-.027-.057,0l-.214,0a.03.03,0,0,0-.032-.028.732.732,0,0,1-.04-.358q0-10.2,0-20.4,0-17.519-.009-35.038c0-.328.14-.341.4-.341q15.593.008,31.186,0c.121,0,.243-.009.364,0,.16.013.21-.052.208-.209-.006-.331.006-.662.01-.993M44.732,19.639c-.136,0-.146.072-.11.177.01.165.029.329.029.494q0,12.66,0,25.322a1.872,1.872,0,0,1-.044.591.03.03,0,0,0,.013.039l.129.117.013.011.015-.009c.132-.008.264-.023.4-.023q5.1,0,10.2.005H84.317a12.514,12.514,0,0,0,1.454-.026h-.007c.12.009.241.024.361.024q2.779,0,5.558,0c.517,0,1.035.011,1.552.018a.164.164,0,0,0,.16,0c.241-.007.324-.131.3-.366a4.061,4.061,0,0,1-.012-.5q0-12.737.006-25.475c0-.311-.075-.417-.4-.415-2.583.013-5.166.007-7.749.007h-40.8" transform="translate(-31.023 -3.257)" fill="#2e93f6"/>
    <path id="Trazado_657354" data-name="Trazado 657354" d="M11.607,58.554l.214,0,.029.009.028-.01.145,0,.649,0c.364,0,.728.009,1.092.009q12.4,0,24.795-.006c.275,0,.55-.023.825-.035l.02.016.023-.011c.176.124.1.31.114.472.013.116.011.233.016.349a.368.368,0,0,0,0,.285c0,.033,0,.066.005.1q-.01.195-.019.389l-.015.015.015-.009c0,.033,0,.066,0,.1.016.885-.034.725-.7.725q-16.175,0-32.351-.006A3.518,3.518,0,0,0,3.486,62.4a2.905,2.905,0,0,0-.68,1.746c0,1.59-.007,3.18-.008,4.769a2.438,2.438,0,0,0,.037.526A3.647,3.647,0,0,0,6.4,72.336c1.423-.026,2.848,0,4.271,0,.842,0,.844,0,.843-.83,0-2.241,0-4.482-.015-6.724,0-.27.119-.3.343-.3q20.017.006,40.034.005a7.222,7.222,0,0,1,1.115.048c.174.027.224.074.221.238-.006.452,0,.905,0,1.358,0,.733,0,.734-.74.734q-13.162,0-26.325-.005c-.271,0-.357.064-.354.348.016,1.435.006,2.871.009,4.306,0,.823,0,.823.822.818h.054c.077,0,.154.005.232.005q16.8,0,33.594,0a11.7,11.7,0,0,0,1.715-.059,1.691,1.691,0,0,0,.262,0,3.533,3.533,0,0,0,2.984-3.421c.022-.793.006-1.588.006-2.381q0-3.192,0-6.384c0-.081.05-.188-.048-.239-.081-.042-.142.041-.2.083a5.952,5.952,0,0,1-1.678.787,6.435,6.435,0,0,1-1.887.236q-9.1.025-18.209.011c-.126,0-.264.042-.365-.09a.175.175,0,0,0-.216-.033c-.178.106-.366.032-.546.059s-.243-.036-.243-.229a4.6,4.6,0,0,0-.025-.923,7.689,7.689,0,0,0,.031-.885c.009-.1-.056-.224.073-.3l.451,0h.53c.121,0,.242.01.364.01q9.169,0,18.339-.007a3.525,3.525,0,0,0,1.7-.409,2.492,2.492,0,0,0,.835-.584,3.975,3.975,0,0,0,1.107-2.9q-.01-23.452,0-46.9c0-.585-.005-1.17,0-1.756a3.589,3.589,0,0,0-.637-2.082,3.338,3.338,0,0,0-2.751-1.512c-.165-.009-.329-.025-.494-.025q-7.586,0-15.172,0c-.161,0-.373.075-.4-.2a.036.036,0,0,0-.008-.052q.006-.48.012-.96a.032.032,0,0,0,0-.053C46.126.808,46,.477,46.1.15c.033-.107.02-.154.137-.142a1.564,1.564,0,0,0,.166,0C51.431.01,56.453,0,61.476.018a6.4,6.4,0,0,1,2.636.428,6.794,6.794,0,0,1,1.7,1.055,5.6,5.6,0,0,1,1.621,2.276,6.958,6.958,0,0,1,.437,2.447q0,30.528,0,61.056c0,.585.031,1.174-.019,1.755a5.875,5.875,0,0,1-3.644,5.2,6.3,6.3,0,0,1-2.6.48q-17.186-.009-34.372,0c-.408,0-.817,0-1.225,0a.126.126,0,0,0-.174.065,2.193,2.193,0,0,0-.029.69q-.009,2.75,0,5.5c0,.368-.083.435-.448.333s-.716-.217-1.077-.313c-1.574-.422-3.164-.793-4.718-1.278a3.613,3.613,0,0,0-2.144.1c-1.164.321-2.329.635-3.5.926-.673.167-1.332.384-2.01.536-.388.087-.379.1-.38-.31q0-2.766-.008-5.532c0-.709-.005-.706-.73-.71-1.711-.01-3.423.052-5.131-.039a4.925,4.925,0,0,1-2.226-.748,5.9,5.9,0,0,1-2.94-4.177,7.662,7.662,0,0,1-.078-1.407q0-16.763,0-33.526c0-.611,0-.61.6-.612.2,0,.4-.011.595-.017.11.006.22.016.33.017.858.007.858.007.859.868q0,10.749,0,21.5c0,.927,0,1.855,0,2.782,0,.105-.058.24.056.3s.178-.061.257-.111a5.807,5.807,0,0,1,2.458-.909A29.889,29.889,0,0,1,8.8,58.58c.254,0,.367-.035.367-.334Q9.154,30.472,9.161,2.7c0-.227-.058-.31-.3-.307-.883.012-1.766,0-2.649.009a2.648,2.648,0,0,0-1.141.176A3.8,3.8,0,0,0,2.783,6.232q.029,12.273.01,24.545c0,.221.01.442.008.662,0,.247-.071.409-.379.381a8,8,0,0,0-.859.009c-.308-.005-.616-.02-.924-.011-.177.005-.231-.059-.228-.228.006-.32,0-.639-.006-.958a1.4,1.4,0,0,0,0-.484q0-3.014,0-6.027C.409,18.18.423,12.241.4,6.3A6.236,6.236,0,0,1,1.73,2.227,6.2,6.2,0,0,1,4.2.412,4.581,4.581,0,0,1,5.968.083c12.4-.162,24.8-.03,37.2-.077.443,0,.537.054.513.527-.011.22.005.441.009.661,0,.331-.015.662-.01.993,0,.157-.048.222-.208.209-.12-.01-.242,0-.364,0q-15.593,0-31.186,0c-.256,0-.4.013-.4.34q.014,17.519.009,35.038,0,10.2,0,20.4a.732.732,0,0,0,.04.358l.005.027ZM23.421,72.577h0c0-1.778-.005-3.555.006-5.333,0-.28-.062-.381-.366-.38q-4.42.014-8.84,0c-.241,0-.329.06-.328.314q.013,5.134.009,10.268c0,.2,0,.4,0,.6s.074.246.274.191c1.164-.324,2.328-.65,3.5-.943a2.466,2.466,0,0,1,1.257-.2q2.069.55,4.135,1.115c.338.093.357.1.358-.254q0-2.683,0-5.366" transform="translate(-0.292 0.001)"/>
    <path id="Trazado_657355" data-name="Trazado 657355" d="M4.778,38.432a8.059,8.059,0,0,1,.859-.009c.308.028.377-.134.379-.381,0-.221-.008-.442-.008-.662q0-12.273-.01-24.545A3.8,3.8,0,0,1,8.291,9.178,2.649,2.649,0,0,1,9.432,9c.883-.012,1.766,0,2.649-.009.238,0,.3.079.3.307q-.005,27.774.006,55.549c0,.3-.112.334-.366.334a29.828,29.828,0,0,0-3.241.049,5.8,5.8,0,0,0-2.458.909c-.079.05-.158.165-.258.111s-.056-.2-.056-.3c0-.927,0-1.855,0-2.782q0-10.749,0-21.5c0-.861,0-.861-.858-.868-.11,0-.22-.011-.33-.017,0-.644.005-1.287,0-1.931,0-.141-.027-.281-.041-.422" transform="translate(-3.508 -6.603)" fill="#ff5377"/>
    <path id="Trazado_657356" data-name="Trazado 657356" d="M.112,113.411a1.4,1.4,0,0,1,0,.484.318.318,0,0,1,0-.484" transform="translate(0 -83.263)" fill="#ff5377"/>
    <path id="Trazado_657357" data-name="Trazado 657357" d="M96.085,281.052a.127.127,0,0,1,.174-.065c.053.055.01.1-.03.12-.064.039-.109,0-.144-.056" transform="translate(-70.543 -206.283)" fill="#ff5377"/>
    <path id="Trazado_657358" data-name="Trazado 657358" d="M171.985,4.238a.032.032,0,0,1,0,.053.061.061,0,0,1-.031.01l.029-.063" transform="translate(-126.245 -3.111)" fill="#016ef1"/>
    <path id="Trazado_657359" data-name="Trazado 657359" d="M68.851,237.282a11.7,11.7,0,0,1-1.715.059q-16.8,0-33.594,0c-.077,0-.154,0-.231-.005.049-.048.02-.079-.028-.079s-.078.032-.027.079c-.818.006-.821.006-.822-.817,0-1.435.007-2.871-.009-4.306,0-.284.083-.349.354-.349q13.163.01,26.325.005c.74,0,.74,0,.74-.734,0-.453-.006-.905,0-1.358,0-.164-.048-.211-.221-.238a7.224,7.224,0,0,0-1.115-.048q-20.017,0-40.034-.005c-.224,0-.345.029-.343.3.012,2.241.012,4.482.015,6.724,0,.828,0,.83-.843.83-1.424,0-2.848-.025-4.271,0a3.647,3.647,0,0,1-3.565-2.894,2.438,2.438,0,0,1-.037-.526c0-1.59.009-3.18.008-4.769a2.907,2.907,0,0,1,.68-1.746,3.519,3.519,0,0,1,3.006-1.442q16.176.02,32.351.006c.666,0,.716.16.7-.725,0-.033,0-.066,0-.1v-.007q.009-.195.019-.389l2.494,0a4.6,4.6,0,0,1,.025.923c0,.193.061.255.242.229s.368.047.547-.059a.175.175,0,0,1,.215.033c.1.132.239.09.365.09q9.1,0,18.21-.011a6.435,6.435,0,0,0,1.887-.236,8.708,8.708,0,0,0-.065,1.681c0,2.054,0,4.108,0,6.162a5.021,5.021,0,0,1-1.032,3.152.823.823,0,0,0-.226.565m-6.641-6.74c-.183.133-.185.266,0,.4,0,.231.007.462,0,.693-.009.165.037.241.217.239q.942-.009,1.883,0c.185,0,.251-.06.242-.25-.028-.592.07-1.181.05-1.777-.01-.3-.111-.357-.362-.355-.628,0-1.256.006-1.883-.008-.174,0-.187.064-.2.209-.022.287.116.561.054.847" transform="translate(-6.921 -165.004)" fill="#fefefe"/>
    <path id="Trazado_657360" data-name="Trazado 657360" d="M51.253,88.343l-.128-.117a.024.024,0,0,0-.013-.04,1.873,1.873,0,0,0,.044-.591q0-12.661,0-25.322c0-.165-.019-.329-.029-.494l.109-.177h40.8c2.583,0,5.166.005,7.749-.008.328,0,.4.1.4.415q-.012,12.737-.006,25.475a4.055,4.055,0,0,0,.012.5c.029.235-.054.359-.295.366a.143.143,0,0,0-.16,0c-.517-.006-1.035-.017-1.552-.018q-2.779,0-5.558,0c-.12,0-.24-.016-.361-.024l0-.029,0,.029a12.452,12.452,0,0,1-1.454.026H61.876q-5.1,0-10.2-.006c-.132,0-.263.014-.4.023l-.013-.015-.015.012M95.878,64a1.284,1.284,0,0,0-.131-.013q-20.959,0-41.918-.008c-.264,0-.3.1-.3.328q.008,9.953.006,19.906c0,.486.015.972-.012,1.456-.013.241.08.285.281.28.276-.007.552,0,.828,0q20.115,0,40.229,0a6.112,6.112,0,0,0,1.089-.035c.549.01,1.1.022,1.648.029.144,0,.215-.062.2-.226-.018-.252-.014-.507-.014-.761q0-10.273,0-20.546c0-.28-.1-.424-.388-.42-.507.007-1.014.007-1.521.01" transform="translate(-37.525 -45.221)"/>
    <path id="Trazado_657361" data-name="Trazado 657361" d="M232.487,9.108a3.338,3.338,0,0,1,2.751,1.512,3.585,3.585,0,0,1,.637,2.082c0,.585,0,1.17,0,1.756q0,23.452,0,46.9a3.978,3.978,0,0,1-1.107,2.9,2.5,2.5,0,0,1-.835.584c-.15-10.9-.033-21.809-.062-32.714q-.026-9.671,0-19.342a4.662,4.662,0,0,0-1.092-3.154c-.14-.165-.114-.4-.3-.527" transform="translate(-170.685 -6.687)" fill="#016ef1"/>
    <path id="Trazado_657362" data-name="Trazado 657362" d="M44.777,220.155l-.649,0a.981.981,0,0,1,.649,0" transform="translate(-32.398 -161.589)" fill="#016ef1"/>
    <path id="Trazado_657363" data-name="Trazado 657363" d="M157.95,220.157l-.451,0a.477.477,0,0,1,.451,0" transform="translate(-115.631 -161.593)" fill="#016ef1"/>
    <path id="Trazado_657364" data-name="Trazado 657364" d="M160.306,220.163h-.32a.268.268,0,0,1,.32,0" transform="translate(-117.457 -161.599)" fill="#016ef1"/>
    <path id="Trazado_657365" data-name="Trazado 657365" d="M51.216,61.627l-.109.177c-.037-.1-.027-.18.109-.177" transform="translate(-37.507 -45.245)" fill="#016ef1"/>
    <path id="Trazado_657366" data-name="Trazado 657366" d="M147.625,223.587a.367.367,0,0,1,0-.285v.285" transform="translate(-108.361 -163.942)" fill="#016ef1"/>
    <path id="Trazado_657367" data-name="Trazado 657367" d="M234.028,162.163a.142.142,0,0,1,.159,0,.164.164,0,0,1-.159,0" transform="translate(-171.817 -119.037)" fill="#016ef1"/>
    <path id="Trazado_657368" data-name="Trazado 657368" d="M147.1,220.172l-.023.011-.02-.016a.026.026,0,0,1,.043,0" transform="translate(-107.963 -161.634)" fill="#016ef1"/>
    <path id="Trazado_657369" data-name="Trazado 657369" d="M43.426,220.229l-.028.01-.029-.009c.019-.027.038-.028.057,0" transform="translate(-31.84 -161.671)" fill="#016ef1"/>
    <path id="Trazado_657370" data-name="Trazado 657370" d="M205.932,161.985l0-.029,0,.029h.007" transform="translate(-151.184 -118.904)" fill="#016ef1"/>
    <path id="Trazado_657371" data-name="Trazado 657371" d="M42.474,220.2h-.027l-.005-.027a.031.031,0,0,1,.032.028" transform="translate(-31.16 -161.641)" fill="#016ef1"/>
    <path id="Trazado_657372" data-name="Trazado 657372" d="M51.644,162.18l.015-.012.013.015-.015.009Z" transform="translate(-37.916 -119.059)" fill="#016ef1"/>
    <path id="Trazado_657373" data-name="Trazado 657373" d="M51.1,161.626a.024.024,0,0,1,.013.039.03.03,0,0,1-.013-.039" transform="translate(-37.517 -118.661)" fill="#016ef1"/>
    <path id="Trazado_657374" data-name="Trazado 657374" d="M171.99,8.048A.036.036,0,0,1,172,8.1l-.022-.023Z" transform="translate(-126.26 -5.909)" fill="#016ef1"/>
    <path id="Trazado_657375" data-name="Trazado 657375" d="M60.68,257.235q0,2.683,0,5.366c0,.351-.019.347-.358.254q-2.065-.568-4.135-1.115a2.466,2.466,0,0,0-1.257.2c-1.172.293-2.336.619-3.5.943-.2.056-.271,0-.274-.191s0-.4,0-.6q0-5.134-.009-10.268c0-.255.088-.315.328-.314q4.42.014,8.84,0c.3,0,.367.1.366.38-.011,1.777-.006,3.555-.006,5.333Z" transform="translate(-37.551 -184.657)" fill="#ff5377"/>
    <path id="Trazado_657376" data-name="Trazado 657376" d="M232.963,237.537a.822.822,0,0,1,.226-.565,5.022,5.022,0,0,0,1.032-3.153c0-2.054,0-4.108,0-6.162a8.665,8.665,0,0,1,.065-1.681,5.97,5.97,0,0,0,1.678-.787c.059-.042.12-.125.2-.083.1.051.048.158.048.239q0,3.192,0,6.383c0,.794.016,1.588-.006,2.381a3.533,3.533,0,0,1-2.984,3.421,1.725,1.725,0,0,1-.262,0" transform="translate(-171.033 -165.259)" fill="#f8f9fb"/>
    <path id="Trazado_657377" data-name="Trazado 657377" d="M98.993,271.883c-.051-.047-.021-.079.027-.079s.077.031.028.079h-.055" transform="translate(-72.659 -199.551)" fill="#ff5377"/>
    <path id="Trazado_657378" data-name="Trazado 657378" d="M147.613,226.214v.007l-.015.008.015-.015" transform="translate(-108.362 -166.08)" fill="#ff5377"/>
    <path id="Trazado_657379" data-name="Trazado 657379" d="M207.832,243.625c.062-.287-.075-.561-.054-.847.011-.145.024-.213.2-.209.627.014,1.255.013,1.883.008.251,0,.352.06.362.355.02.6-.078,1.184-.05,1.777.009.189-.057.252-.242.25q-.941-.012-1.883,0c-.18,0-.226-.074-.217-.239.012-.23,0-.462,0-.693q0-.2,0-.4" transform="translate(-152.543 -178.087)"/>
    <path id="Trazado_657380" data-name="Trazado 657380" d="M207.606,246.543q0,.2,0,.4c-.186-.132-.185-.265,0-.4" transform="translate(-152.317 -181.005)" fill="#f8f9fb"/>
    <path id="Trazado_657381" data-name="Trazado 657381" d="M102.585,92.489a6.138,6.138,0,0,1-1.089.036q-20.115,0-40.229,0c-.276,0-.552-.007-.828,0-.2.005-.294-.04-.281-.28.027-.484.013-.971.012-1.456q0-9.953-.006-19.906c0-.23.04-.328.3-.328q20.959.01,41.918.007a1.287,1.287,0,0,1,.131.013,2.923,2.923,0,0,0-.067.849q0,2.1,0,4.194c0,1.266,0,2.532,0,3.8,0,.222.026.478-.272.567l-.027.006v.02l-6.264,0c-.418,0-.418,0-.354.387l-.012.007.012,0c0,.551.025,1.1,0,1.651-.014.271.053.347.318.343.936-.014,1.872-.01,2.808-.008a.663.663,0,0,1,.387.04c.061.08.128.064.2.011.072-.077.165-.039.25-.047.249-.021.383.033.255.324a3.333,3.333,0,0,0-.132.495,4.2,4.2,0,0,1-2.49,3.034,4.736,4.736,0,0,1-3.627-.029,5.538,5.538,0,0,1-2.19-1.505,5.026,5.026,0,0,1-1.309-4.084,5.124,5.124,0,0,1,.554-1.855,5.489,5.489,0,0,1,3.42-2.749,5.057,5.057,0,0,1,4.2.563c.2.12.281.08.391-.087.311-.474.6-.964.959-1.4.228-.282.144-.412-.108-.556a7.563,7.563,0,0,0-5.459-.959,8.11,8.11,0,0,0-3.832,1.927,7.239,7.239,0,0,0-2.484,4.678,7.852,7.852,0,0,0,.566,4.022,7.615,7.615,0,0,0,4.02,4.069,7.524,7.524,0,0,0,4.2.562,6.436,6.436,0,0,0,5.315-4.454c.188-.605.316-1.219.456-1.832.146-.009.187.069.187.2,0,.605.045,1.211.052,1.814.029,2.4.014,4.792.01,7.188a1.379,1.379,0,0,0,.136.729M65.648,86.431c0-1.233.02-2.466,0-3.7,0-.291.078-.356.341-.354,1.09.011,2.18,0,3.269.016.261.005.326-.077.322-.312-.011-.583-.006-1.166-.012-1.75,0-.116.034-.248-.094-.329-.026-.046-.058-.034-.092-.011l-3.588.015,0-.018-.008.016c-.125-.03-.132-.118-.131-.228.007-1.225.016-2.451.009-3.676,0-.214.071-.253.266-.251,1.247.009,2.494,0,3.741.006.185,0,.328-.01.323-.255-.012-.607-.019-1.214-.013-1.821,0-.235-.1-.3-.317-.3q-3.063.005-6.125,0c-.2,0-.27.041-.269.253q.011,6.325.009,12.651c0,.751.009,1.5,0,2.252,0,.2.032.29.267.288q3.063-.014,6.125,0c.238,0,.313-.095.311-.306-.005-.6-.019-1.192-.008-1.787,0-.25-.085-.306-.324-.3-1.214.012-2.428.008-3.642,0-.119,0-.269.073-.357-.083l.015-.007Zm16.9-2.077c-.031-.006-.047,0-.051-.01Q81.249,82.337,80,80.33q-2.07-3.307-4.142-6.612a.4.4,0,0,0-.4-.215c-.639.02-1.278.027-1.917.034-.152,0-.229.016-.228.214q0,7.5-.012,15c0,.163.031.246.212.246.64,0,1.28,0,1.92.009.212,0,.3-.108.254-.284a3.811,3.811,0,0,1-.027-.993c.009-1.346-.011-2.693-.008-4.04q.005-2.583.037-5.166c0-.135-.185-.336.017-.393.124-.036.23.189.321.318.006.009.01.019.016.028l3.646,5.834q1.349,2.158,2.7,4.318a.522.522,0,0,0,.528.292c.54-.027,1.081-.008,1.622-.008.442,0,.447,0,.447-.457q0-4.058,0-8.115c0-2.164-.007-4.328,0-6.492,0-.28-.054-.393-.362-.375-.462.028-.927.007-1.39,0-.631-.005-.634-.007-.634.608q0,4.935,0,9.87c0,.132.039.28-.052.4" transform="translate(-44.166 -51.799)" fill="#fefefe"/>
    <path id="Trazado_657382" data-name="Trazado 657382" d="M218.167,80.012c.3-.089.271-.344.272-.567.006-1.266,0-2.532,0-3.8V71.454a2.914,2.914,0,0,1,.067-.849c.507,0,1.014,0,1.521-.01.291,0,.389.14.389.42q-.007,10.273,0,20.546c0,.253,0,.508.014.76.011.164-.06.228-.2.226-.55-.007-1.1-.019-1.648-.03a1.379,1.379,0,0,1-.136-.729c0-2.4.02-4.793-.01-7.188-.007-.6-.052-1.209-.052-1.814,0-.135-.041-.213-.187-.2-.065-.732.092-1.458.056-2.189-.006-.123.054-.271-.1-.353a.033.033,0,0,0,.022-.029" transform="translate(-160.156 -51.829)" fill="#f8f9fb"/>
    <path id="Trazado_657383" data-name="Trazado 657383" d="M118.846,92.413c.091-.119.052-.266.052-.4q0-4.935,0-9.87c0-.615,0-.613.634-.608.464,0,.928.025,1.39,0,.307-.019.363.094.362.375-.009,2.164,0,4.328,0,6.492q0,4.057,0,8.115c0,.457,0,.457-.447.457-.541,0-1.082-.019-1.622.008a.522.522,0,0,1-.528-.292q-1.342-2.162-2.7-4.318l-3.646-5.834c-.006-.009-.01-.02-.016-.028-.092-.129-.2-.353-.321-.318-.2.057-.015.258-.017.393q-.035,2.583-.037,5.166c0,1.347.016,2.693.008,4.04a3.811,3.811,0,0,0,.027.993c.045.175-.042.288-.254.284-.64-.01-1.28-.012-1.92-.009-.181,0-.212-.083-.212-.246q.013-7.5.012-15c0-.2.076-.212.228-.214.639-.006,1.278-.014,1.917-.034a.4.4,0,0,1,.4.215q2.063,3.311,4.142,6.612,1.255,2,2.5,4.014c0,.006.019,0,.051.01" transform="translate(-80.461 -59.859)"/>
    <path id="Trazado_657384" data-name="Trazado 657384" d="M177.9,87.935c.155.082.1.229.1.352.036.731-.121,1.457-.057,2.189-.14.614-.268,1.227-.456,1.832a6.436,6.436,0,0,1-5.315,4.454,7.524,7.524,0,0,1-4.2-.562,7.615,7.615,0,0,1-4.02-4.068,7.853,7.853,0,0,1-.566-4.023,7.239,7.239,0,0,1,2.484-4.678,8.109,8.109,0,0,1,3.832-1.927,7.562,7.562,0,0,1,5.459.959c.251.144.335.275.108.556-.355.44-.648.93-.959,1.4-.11.167-.193.207-.391.087a5.056,5.056,0,0,0-4.2-.563A5.489,5.489,0,0,0,166.3,86.7a5.13,5.13,0,0,0-.554,1.855,5.027,5.027,0,0,0,1.309,4.084,5.537,5.537,0,0,0,2.191,1.505,4.734,4.734,0,0,0,3.626.029,4.2,4.2,0,0,0,2.49-3.034,3.381,3.381,0,0,1,.132-.495c.128-.291-.006-.345-.255-.324-.085.007-.178-.03-.25.045-.062-.1-.128-.1-.2-.009a.662.662,0,0,0-.386-.04c-.936,0-1.872-.006-2.808.008-.265,0-.332-.072-.318-.343.029-.549.006-1.1,0-1.651l.011-.005h-.011c-.065-.385-.065-.387.354-.387l6.264,0,.005,0" transform="translate(-119.915 -59.723)"/>
    <path id="Trazado_657385" data-name="Trazado 657385" d="M74.238,94.5c.088.157.238.083.357.083,1.214.006,2.428.011,3.642,0,.239,0,.329.053.324.3-.011.6,0,1.192.008,1.787,0,.211-.072.307-.311.306q-3.062-.014-6.125,0c-.235,0-.269-.09-.267-.288.007-.751,0-1.5,0-2.252q0-6.326-.009-12.651c0-.212.073-.254.269-.253q3.063.01,6.125,0c.217,0,.319.069.317.3-.006.607,0,1.214.013,1.821.005.245-.138.256-.323.255-1.247,0-2.494,0-3.741-.006-.2,0-.267.037-.266.251.006,1.225,0,2.45-.009,3.676,0,.11.006.2.131.228l0,.016.008-.014,3.587-.015a.057.057,0,0,0,.093.011c.128.082.093.214.094.33.006.583,0,1.167.012,1.75,0,.235-.061.317-.322.312-1.09-.021-2.18-.006-3.269-.016-.263,0-.346.062-.341.354.02,1.232,0,2.466,0,3.7l-.013.007Z" transform="translate(-52.754 -59.862)"/>
    <path id="Trazado_657386" data-name="Trazado 657386" d="M206.433,115.046c.069-.086.136-.092.2.009-.069.055-.136.071-.2-.009" transform="translate(-151.557 -84.415)" fill="#ff5377"/>
    <path id="Trazado_657387" data-name="Trazado 657387" d="M94.95,106.012a.057.057,0,0,1-.093-.011c.035-.022.067-.035.093.011" transform="translate(-69.641 -77.808)" fill="#ff5377"/>
    <path id="Trazado_657388" data-name="Trazado 657388" d="M218.131,106.049l-.005,0v-.021l.027-.006a.034.034,0,0,1-.022.029" transform="translate(-160.142 -77.837)" fill="#ff5377"/>
    <path id="Trazado_657389" data-name="Trazado 657389" d="M80.781,130.286l-.015,0,.013-.007.017,0Z" transform="translate(-59.296 -95.644)" fill="#ff5377"/>
    <path id="Trazado_657390" data-name="Trazado 657390" d="M193.2,107.588h.011l-.011.005-.012,0Z" transform="translate(-141.831 -78.987)" fill="#ff5377"/>
    <path id="Trazado_657391" data-name="Trazado 657391" d="M81.329,106.064l-.008.014,0-.016.009-.016Z" transform="translate(-59.7 -77.856)" fill="#ff5377"/>
  </g>
</svg>
