<svg xmlns="http://www.w3.org/2000/svg" xmlns:xlink="http://www.w3.org/1999/xlink" width="85" height="69" viewBox="0 0 85 69">
  <defs>
    <clipPath id="clip-path">
      <rect id="Rect치ngulo_350421" data-name="Rect치ngulo 350421" width="48" height="51.462" fill="none"/>
    </clipPath>
  </defs>
  <g id="Grupo_946462" data-name="Grupo 946462" transform="translate(-36 -1860)">
    <rect id="Rect치ngulo_348428" data-name="Rect치ngulo 348428" width="85" height="69" rx="8" transform="translate(36 1860)" fill="#d9f8f2"/>
    <g id="Grupo_949407" data-name="Grupo 949407" transform="translate(55 1869)">
      <g id="Grupo_949407-2" data-name="Grupo 949407" clip-path="url(#clip-path)">
        <path id="Trazado_657178" data-name="Trazado 657178" d="M35.99,37.78c-.083-.1-.2-.056-.293-.056q-3.161,0-6.322,0a1.357,1.357,0,0,1-1.049-.453c-.941-.978-1.91-1.93-2.875-2.884-.16-.158-.4-.09-.59-.092-1.8-.012-3.592-.033-5.387.008a3.12,3.12,0,0,1-1.743-.533c-.429-.259-.883-.478-1.322-.721-.121-.067-.121,0-.121.084,0,.185,0,.371,0,.557q0,6.411-.005,12.822a.4.4,0,0,0,.17.357c.553.386,1.078.808,1.618,1.21.381.284.751.584,1.15.843a1.061,1.061,0,0,1,.5,1.016,5.709,5.709,0,0,1-.036.747.82.82,0,0,1-.74.739,2.142,2.142,0,0,1-.244.012c-2.181,0-4.363-.008-6.544.008a.939.939,0,0,1-1.022-1.028,23.041,23.041,0,0,0-.008-2.38c-.049-.594-.13-1.187-.208-1.779-.041-.317-.056-.64-.1-.96-.069-.513-.124-1.028-.179-1.542-.049-.458-.086-.918-.135-1.376-.072-.675-.129-1.352-.229-2.023-.088-.591-.116-1.188-.21-1.778-.074-.46-.081-.931-.143-1.394a2.159,2.159,0,0,0-.117-.666,3.167,3.167,0,0,0-.264.718c-.343.929-.668,1.864-1,2.8-.3.848-.588,1.7-.888,2.547-.308.87-.639,1.732-.932,2.607-.179.534-.369,1.064-.554,1.6a.21.21,0,0,0,.061.253q.468.472.929.95c.27.28.573.533.838.819.2.213.485.377.521.7a2.527,2.527,0,0,1-.094,1.516.784.784,0,0,1-.749.416c-.616,0-1.232,0-1.848,0l-4.83,0a.89.89,0,0,1-.967-.61A.542.542,0,0,1,0,50.614C0,49.709,0,48.8.007,47.9a3.22,3.22,0,0,1,.119-.613c.2-.958.388-1.92.586-2.879.165-.8.341-1.6.51-2.4.07-.331.133-.663.2-.994.091-.432.189-.863.279-1.3.132-.637.256-1.277.389-1.914.113-.542.236-1.082.349-1.623.138-.654.27-1.31.405-1.964q.234-1.137.47-2.274.257-1.238.515-2.476c.14-.672.278-1.344.422-2.015a1.756,1.756,0,0,0,.022-.375q0-3.629.005-7.257a4.371,4.371,0,0,1,.506-1.985A4.226,4.226,0,0,1,6.42,16.089a4.456,4.456,0,0,1,1.7-.608,7.991,7.991,0,0,1,.924-.043c.359-.006.377-.029.376-.384,0-.986.007-1.972,0-2.959A3,3,0,0,1,9.6,11.074a2.683,2.683,0,0,1,1.535-1.489,2.912,2.912,0,0,1,1.291-.113,2.325,2.325,0,0,1,1.455.786,2.594,2.594,0,0,1,.676,1.65c.006.122.079.1.15.1.46,0,.92.008,1.38,0,.172,0,.211.052.208.215-.01.437-.008.875,0,1.313,0,.153-.053.191-.193.19-.46,0-.92.012-1.38,0-.142,0-.172.04-.17.174.008.453.009.905,0,1.358,0,.144.034.187.181.183a6.811,6.811,0,0,1,1.727.13,4.108,4.108,0,0,1,2.379,1.538c.959,1.236,1.928,2.464,2.889,3.7.5.635.982,1.278,1.476,1.914a2.3,2.3,0,0,1,.256.322c.06.113.172.1.274.1.9,0,1.8,0,2.693,0a3.45,3.45,0,0,1,1.881.491,3.885,3.885,0,0,1,1.014.907,3.412,3.412,0,0,1,.517.974,1.854,1.854,0,0,1,.121.815c-.023.182.041.254.234.244.281-.014.564,0,.846,0,.138,0,.249-.025.293-.175.049-.169.252-.274.2-.485.28-.081.27-.382.406-.569.259-.359.468-.76.7-1.144.311-.525.6-1.066.96-1.56a.856.856,0,0,1,.736-.354c.475,0,.95,0,1.424,0,.18,0,.27-.052.237-.242l.011-.006L36,22.042q0-4.271-.009-8.542c0-.091.041-.194-.046-.272.031.025.052.016.056-.021s.02-.078-.045-.064c.075-.221.053-.254-.178-.272h-.049c-1.558,0-3.116-.006-4.673,0a1.016,1.016,0,0,1-1.057-.643c-.2-.455-.447-.891-.677-1.332-.107-.205-.189-.458-.285-.672a5.846,5.846,0,0,0-.408-.754c-.036-.056-.1-.1-.131.023a5.148,5.148,0,0,0-.221,1.1c-.008,1.276,0,2.552,0,3.828a1.591,1.591,0,0,1-.18.739c-.241.475-.488.947-.715,1.428a.955.955,0,0,1-.938.568c-.467.005-.935,0-1.4,0-.125,0-.191.025-.19.171q.01,1.981.011,3.962v0c.005.126-.062.159-.179.157-.3-.006-.607,0-.911,0-.14,0-.278.018-.419.013-.193-.006-.228-.076-.227-.245.008-1.1.008-2.2.011-3.307q0-.311,0-.621v0c0-.162-.118-.12-.206-.121q-.767-.008-1.535-.01a.747.747,0,0,1-.7-.417c-.309-.588-.6-1.187-.891-1.784a1,1,0,0,1-.087-.453c0-1.031-.005-2.062,0-3.093a5.944,5.944,0,0,0-.215-1.819c-.227-.744-.388-1.509-.589-2.262a2.607,2.607,0,0,1-.09-.683q0-2.915,0-5.83a.821.821,0,0,1,.751-.778A7.915,7.915,0,0,1,20.735.008q6.43,0,12.86,0c-.034.031-.014.053.018.053s.051-.022.017-.053l.623,0a.9.9,0,0,1,.887.92c-.014,1.61,0,3.22-.013,4.831,0,.2.059.248.249.247q4.1-.007,8.192,0a.93.93,0,0,1,.865.422,1.08,1.08,0,0,1,.132.591q0,8.359,0,16.719c0,.7.018,1.4-.008,2.092a1.152,1.152,0,0,0,.288.822c.94,1.153,1.867,2.317,2.8,3.473a1.484,1.484,0,0,1,.353.985q-.012,9.662,0,19.324a.907.907,0,0,1-.589.951,1.21,1.21,0,0,1-.439.051q-11.587,0-23.174,0a2.685,2.685,0,0,1-.855-.014.861.861,0,0,1-.638-.671,1.608,1.608,0,0,1-.025-.332q0-1.558,0-3.117a.961.961,0,0,1,.277-.782.837.837,0,0,1,.591-.221c1.744,0,3.488,0,5.231,0a.43.43,0,0,0,.433-.249c.563-.965,1.145-1.92,1.72-2.878.133-.221.267-.441.4-.664a.925.925,0,0,1,.871-.5c1.3.008,2.6,0,3.9,0,.2,0,.291-.029.289-.275-.012-1.149,0-2.3.009-3.448,0-.163.005-.326.008-.489l.008-.015ZM1.7,49.612c-.015.02-.018.037.01.049.058.107.16.058.24.058q2.058,0,4.115,0h.358a.089.089,0,0,0-.032-.115c-.473-.47-.95-.937-1.419-1.411a.31.31,0,0,0-.308-.069c-.507.095-1.01.208-1.517.3a10.508,10.508,0,0,1-1.234.225c-.137.009-.193.068-.194.2,0,.252-.012.5-.019.755m22.389-1.591-.056,0c-.077.056-.039.136-.039.2,0,.415.008.831-.006,1.246-.006.193.044.253.245.252q3.271-.013,6.542-.008,7.655,0,15.309.008c.149,0,.193-.041.189-.187-.011-.408-.007-.816-.016-1.223,0-.1.045-.208-.028-.3l0-.009,0,.008a.2.2,0,0,0-.169.008l-.005-.01-.005.009c-.2-.005-.4-.015-.6-.015l-19.843,0c-.5,0-1.008.007-1.512.011m9.332-45.98c.02-.317.02-.316-.3-.316q-6.176,0-12.351-.006c-.167,0-.214.043-.213.21.007,1.2,0,2.4,0,3.605,0,.467,0,.468.459.468l12.062,0c.363,0,.363,0,.333-.37q0-1.8,0-3.595m9.43,23.5a.031.031,0,0,0-.007-.039c0-.14.006-.281.006-.422q0-8.133-.005-16.266c0-.05.02-.11-.039-.138a.136.136,0,0,0-.143.03c-.38.273-.757.551-1.128.833-.529.4-1.061.8-1.588,1.212-.674.521-1.36,1.029-2.048,1.531a.419.419,0,0,0-.2.383q.007,6.42,0,12.84c0,.171.039.22.216.219,1.424-.008,2.848-.005,4.272,0a.773.773,0,0,1,.259.03c.182.061.405-.07.4-.21M37.926,42c1.016,0,2.033.013,3.049,0a1.055,1.055,0,0,1,1,.565c.7,1.18,1.405,2.353,2.1,3.533a.34.34,0,0,0,.338.191c.46-.007.92,0,1.38,0s.471,0,.471-.47q0-7.211.006-14.422a.634.634,0,0,0-.144-.426q-1.367-1.7-2.721-3.413a.342.342,0,0,0-.295-.122c-1.736,0-3.472.006-5.207,0-.157,0-.2.048-.2.2q.006,7.078.005,14.155c0,.064-.047.154.06.188a.161.161,0,0,0,.155.016M8.923,28.3H8.745c-.89,0-1.78,0-2.671,0-.188,0-.283.05-.3.257a3.638,3.638,0,0,1-.11.538c-.2.921-.381,1.844-.59,2.763-.195.857-.347,1.724-.523,2.585-.2.99-.4,1.98-.618,2.967-.138.639-.284,1.278-.412,1.919q-.285,1.42-.581,2.837c-.175.835-.35,1.67-.533,2.5-.153.694-.262,1.4-.441,2.086-.022.086-.012.13.085.124a1.558,1.558,0,0,0,.2-.018q1-.189,1.989-.383A.38.38,0,0,0,4.58,46.2c.136-.43.294-.853.443-1.28s.3-.866.454-1.3.3-.852.449-1.278.3-.868.463-1.3c.154-.4.275-.813.419-1.217.77-2.153,1.526-4.312,2.288-6.468.138-.391.268-.785.432-1.165a.838.838,0,0,1,.882-.466.882.882,0,0,1,.707.659c.033.157.041.319.059.479q.112,1.007.223,2.015c.087.793.158,1.588.262,2.38s.181,1.6.27,2.4.179,1.611.268,2.416c.09.822.178,1.644.27,2.465.083.739.173,1.478.254,2.218.015.134.047.18.195.138.341-.1.689-.172,1.033-.26.193-.049.438-.05.563-.172.142-.138.04-.394.04-.6q.009-6.844.011-13.688a.321.321,0,0,0-.192-.329c-.636-.349-1.263-.717-1.893-1.077A.878.878,0,0,1,12,29.936c.011-.467,0-.935.012-1.4.005-.185-.054-.244-.241-.242-.95.008-1.9,0-2.849,0m18.545,4.283q4.139,0,8.278,0c.188,0,.248-.041.246-.248q-.018-1.9,0-3.8c0-.193-.048-.235-.233-.235q-10.457.005-20.913,0c-.334,0-.668.006-1,.009-.1,0-.2.026-.17.144a3.874,3.874,0,0,1,.032.881.293.293,0,0,0,.163.283q2.523,1.431,5.038,2.874a.658.658,0,0,0,.348.1q4.106,0,8.211,0M15.445,22.167h-.007c0-.186,0-.371,0-.557a1.163,1.163,0,0,1,.087-.565.854.854,0,0,1,1.406-.155q.688.772,1.342,1.574c.123.151.2.132.331.029.422-.327.849-.647,1.283-.957.135-.1.13-.161.036-.28-.8-1.022-1.593-2.049-2.392-3.071a2.488,2.488,0,0,0-1.609-.987,11.055,11.055,0,0,0-1.488-.04c-.118,0-.14.085-.168.172-.111.337-.216.677-.341,1.01a2.043,2.043,0,0,1-3.826.079c-.132-.361-.252-.727-.373-1.092-.033-.1-.066-.177-.192-.173a7.393,7.393,0,0,0-1.374.069,2.776,2.776,0,0,0-1.315,4.71q1.017,1.013,2.023,2.037c.107.108.175.081.27-.016.51-.518,1.021-1.035,1.542-1.542.118-.115.056-.172-.021-.249-.284-.283-.561-.572-.853-.846-.112-.105-.107-.162,0-.264.3-.287.591-.584.882-.88.2-.2.195-.2.4,0q1.4,1.4,2.8,2.8a.417.417,0,0,0,.3.175c.364,0,.727-.007,1.09,0,.154,0,.183-.071.178-.207-.01-.259,0-.519,0-.779M41.072,7.777c-.049-.064-.1-.047-.138-.047l-10.861,0c-.081,0-.163,0-.245,0-.146-.011-.141.049-.088.155q.768,1.526,1.53,3.056a.35.35,0,0,0,.362.222q2.3-.013,4.607,0a.888.888,0,0,0,.572-.19q1.882-1.421,3.771-2.831c.162-.122.326-.242.49-.364M36.438,46.293v0h5.407c.067,0,.134,0,.2,0,.124-.006.135-.061.07-.157-.464-.688-.868-1.413-1.289-2.127a.534.534,0,0,0-.533-.3q-3.9.01-7.81,0a.45.45,0,0,0-.439.258c-.435.732-.842,1.48-1.328,2.181-.069.1-.007.119.051.137a.585.585,0,0,0,.177.009h5.5M23.97,11.162v-.006c-.786,0-1.572,0-2.358,0-.145,0-.2.042-.194.19.005.957,0,1.913,0,2.869a.712.712,0,0,0,.084.341c.113.216.232.431.33.654a.354.354,0,0,0,.376.238c1.06-.009,2.122-.036,3.18.007a.827.827,0,0,0,.949-.587,2.578,2.578,0,0,0,.237-1.041c-.018-.793-.008-1.587-.006-2.38,0-.256-.021-.281-.287-.282H23.97m1.269,15.416v0q1.446,0,2.892,0c.081,0,.167,0,.14-.1a2.727,2.727,0,0,0-.148-.611,1.69,1.69,0,0,0-1.6-1c-1.075,0-2.151-.008-3.226,0a1.077,1.077,0,0,1-.93-.456c-.382-.5-.774-.994-1.156-1.495-.085-.112-.163-.131-.277-.046-.409.307-.817.614-1.232.914-.15.108-.126.188-.016.315q1,1.15,1.982,2.314a.479.479,0,0,0,.5.187,1.528,1.528,0,0,1,.328-.028q1.368,0,2.736,0m-9.781-.006v.006c1.076,0,2.151,0,3.227,0,.12,0,.162-.027.151-.143a1.632,1.632,0,0,0-.161-.607A1.674,1.674,0,0,0,17.1,24.87c-1.039,0-2.077,0-3.116,0a1.3,1.3,0,0,1-1.08-.449c-.237-.284-.52-.528-.781-.792-.082-.083-.139-.124-.25-.011-.518.531-1.048,1.049-1.575,1.571-.067.066-.1.114-.008.2.172.152.326.324.495.48a2.423,2.423,0,0,0,1.665.7c1,0,2,0,3,0M31.926,34.3V34.3H28.053c-.057,0-.133-.028-.165.03-.045.083.049.112.091.155.427.433.865.856,1.282,1.3a.661.661,0,0,0,.523.231q2.949-.008,5.9,0c.059,0,.119,0,.178,0,.1,0,.14-.061.139-.16-.006-.452-.014-.9-.01-1.357,0-.144-.042-.191-.191-.19-1.291.006-2.582,0-3.873,0M24,7.734c-.994,0-1.987,0-2.98,0-.2,0-.22.066-.169.232.127.409.213.83.321,1.244.05.191.115.232.29.229.563-.008,1.127,0,1.69,0l3.4,0c.114,0,.211.009.245-.151q.145-.667.327-1.325c.049-.177.027-.227-.168-.226-.986.009-1.972,0-2.958,0M34.592,26.582v-.005c.393,0,.786-.006,1.179,0,.153,0,.2-.039.2-.2,0-.734.008-1.468.018-2.2,0-.118-.031-.182-.162-.18-.289,0-.578,0-.868,0a.352.352,0,0,0-.328.214c-.427.729-.868,1.449-1.307,2.171-.03.049-.09.086-.053.153s.1.043.159.043h1.157M17.39,49.72a.759.759,0,0,0-.092-.113c-.655-.444-1.272-.942-1.905-1.416a.4.4,0,0,0-.356-.063c-.677.167-1.35.352-2.028.516-.126.031-.153.08-.151.192,0,.23.012.461,0,.69-.01.16.042.2.2.2,1.209-.006,2.418,0,3.627,0h.71M6.033,23.519A.7.7,0,0,0,6,23.633c0,.934,0,1.868,0,2.8,0,.108.039.144.141.143.912,0,1.824,0,2.735,0,.041,0,.095.017.115-.038s-.024-.082-.054-.112c-.137-.135-.278-.267-.414-.4-.82-.825-1.639-1.651-2.487-2.506m5.961-9.794v0c-.229,0-.459.007-.687,0-.13-.006-.171.045-.169.166,0,.237-.009.474,0,.71a.848.848,0,0,0,.85.842.857.857,0,0,0,.863-.858c.009-.222,0-.444.007-.665.005-.15-.065-.193-.2-.189-.222.006-.444,0-.666,0m-.033-1.715c.237,0,.474,0,.711,0,.179,0,.223-.063.159-.231a.883.883,0,0,0-.894-.628.92.92,0,0,0-.8.691c-.033.119,0,.175.135.17.229-.01.459,0,.689,0m.575,5.1a3.739,3.739,0,0,1-1.117.021,1.368,1.368,0,0,1,.119.26,1.3,1.3,0,0,0,.194.475.311.311,0,0,0,.561-.051c.091-.213.153-.439.243-.7" transform="translate(0 0)"/>
        <path id="Trazado_657179" data-name="Trazado 657179" d="M201.116,73.555c.064-.014.048.033.045.064s-.025.047-.056.021c-.016-.031-.026-.062.012-.086" transform="translate(-165.164 -60.412)" fill="#4875f2"/>
        <path id="Trazado_657180" data-name="Trazado 657180" d="M187.994.032c.034.03.015.053-.017.053s-.052-.021-.018-.053h.034" transform="translate(-154.365 -0.026)" fill="#4875f2"/>
        <path id="Trazado_657181" data-name="Trazado 657181" d="M199.926,72.043h.049c.017.03.008.054-.025.054s-.042-.024-.024-.054" transform="translate(-164.2 -59.172)" fill="#fed773"/>
        <path id="Trazado_657182" data-name="Trazado 657182" d="M201.3,123.33l.01.008-.011.006-.038,0c0-.038.017-.031.038-.017" transform="translate(-165.304 -101.288)" fill="#4875f2"/>
        <path id="Trazado_657183" data-name="Trazado 657183" d="M201.4,211.471l.016,0-.008.015s-.011,0-.013,0a.019.019,0,0,1-.006-.014s.007-.005.011-.008" transform="translate(-165.406 -173.69)" fill="#4875f2"/>
        <path id="Trazado_657184" data-name="Trazado 657184" d="M139.151,119.173v0l.013,0Z" transform="translate(-114.291 -97.88)" fill="#fed773"/>
        <path id="Trazado_657185" data-name="Trazado 657185" d="M129.449,96.744v0l-.01.005Z" transform="translate(-106.315 -79.46)" fill="#4875f2"/>
        <path id="Trazado_657186" data-name="Trazado 657186" d="M211.09,168.133c-.107-.034-.06-.124-.06-.188q0-7.077-.005-14.155c0-.154.041-.2.2-.2,1.736,0,3.472,0,5.208,0a.342.342,0,0,1,.295.122q1.357,1.709,2.721,3.413a.634.634,0,0,1,.144.426q-.006,7.211-.006,14.422c0,.47,0,.47-.471.47s-.92,0-1.38,0a.34.34,0,0,1-.338-.191c-.7-1.18-1.405-2.353-2.1-3.533a1.054,1.054,0,0,0-1-.565c-1.016.01-2.032,0-3.049,0a.175.175,0,0,0-.155-.016" transform="translate(-173.32 -126.145)" fill="#ffc430"/>
        <path id="Trazado_657187" data-name="Trazado 657187" d="M17.938,158.364c.95,0,1.9,0,2.849,0,.187,0,.246.057.241.242-.012.467,0,.935-.012,1.4a.878.878,0,0,0,.479.839c.63.36,1.256.728,1.893,1.077a.321.321,0,0,1,.192.329q-.008,6.844-.011,13.688c0,.2.1.46-.04.6-.125.122-.369.123-.563.172-.344.088-.692.163-1.033.26-.147.042-.18,0-.195-.138-.081-.74-.171-1.479-.254-2.218-.092-.821-.18-1.643-.271-2.465q-.133-1.208-.268-2.416c-.089-.8-.165-1.6-.27-2.4s-.175-1.586-.262-2.38q-.11-1.008-.223-2.015c-.018-.16-.027-.322-.059-.479a.882.882,0,0,0-.707-.659.838.838,0,0,0-.882.466c-.164.38-.294.774-.432,1.165-.763,2.156-1.518,4.315-2.288,6.468-.145.4-.266.816-.419,1.217-.164.428-.311.864-.463,1.3s-.3.852-.449,1.278-.3.866-.454,1.3-.307.85-.443,1.28a.38.38,0,0,1-.336.269q-.994.193-1.989.383a1.6,1.6,0,0,1-.2.018c-.1.006-.107-.038-.085-.124.178-.689.288-1.392.441-2.086.183-.833.359-1.668.533-2.5q.3-1.417.581-2.837c.128-.641.274-1.28.412-1.919.214-.987.416-1.977.618-2.967.176-.861.328-1.728.523-2.585.209-.919.392-1.842.59-2.763a3.638,3.638,0,0,0,.109-.538c.012-.207.108-.259.3-.258.89.006,1.78,0,2.671,0h.178" transform="translate(-9.016 -130.067)" fill="#4875f2"/>
        <path id="Trazado_657188" data-name="Trazado 657188" d="M90.308,162.658q-4.106,0-8.211,0a.658.658,0,0,1-.348-.1q-2.515-1.445-5.038-2.874a.293.293,0,0,1-.163-.283,3.874,3.874,0,0,0-.032-.881c-.031-.118.072-.143.17-.144.334,0,.667-.009,1-.009q10.457,0,20.913,0c.186,0,.235.042.233.235q-.017,1.9,0,3.8c0,.207-.058.248-.246.248q-4.139-.007-8.278,0" transform="translate(-62.841 -130.078)" fill="#feb300"/>
        <path id="Trazado_657189" data-name="Trazado 657189" d="M216.195,65.4c0,.14-.22.271-.4.21a.782.782,0,0,0-.259-.03c-1.424,0-2.848,0-4.272,0-.177,0-.216-.048-.216-.219q.007-6.42,0-12.84a.419.419,0,0,1,.2-.383c.689-.5,1.374-1.01,2.048-1.531.527-.407,1.059-.809,1.588-1.212.371-.282.748-.561,1.128-.833a.137.137,0,0,1,.143-.03c.058.028.039.087.039.138q0,8.133,0,16.266c0,.141,0,.281-.006.422,0,0-.008.01-.007.013a.174.174,0,0,0,.014.026" transform="translate(-173.34 -39.855)" fill="#ffc430"/>
        <path id="Trazado_657190" data-name="Trazado 657190" d="M127.965,13.539c.03.369.03.37-.333.37l-12.062,0c-.46,0-.46,0-.459-.468,0-1.2,0-2.4,0-3.605,0-.167.046-.211.213-.21q6.176.009,12.351.006c.316,0,.316,0,.3.316-.046.049-.032.111-.032.169q0,1.628,0,3.257c0,.058-.014.119.031.17" transform="translate(-94.542 -7.903)" fill="#fed773"/>
        <path id="Trazado_657191" data-name="Trazado 657191" d="M43,101.032c0,.26-.007.519,0,.779,0,.136-.024.209-.178.207-.363,0-.727,0-1.09,0a.418.418,0,0,1-.3-.175l-2.8-2.8c-.2-.2-.2-.2-.4,0-.292.3-.582.593-.882.88-.106.1-.111.159,0,.264.292.274.57.563.853.846.078.077.139.135.021.249-.521.507-1.032,1.024-1.542,1.542-.1.1-.163.124-.27.016Q35.42,101.814,34.4,100.8a2.776,2.776,0,0,1,1.315-4.71,7.376,7.376,0,0,1,1.374-.069c.126,0,.159.075.192.174.121.365.24.731.373,1.092a2.043,2.043,0,0,0,3.826-.079c.125-.332.229-.672.341-1.01.029-.087.05-.175.168-.172a11.085,11.085,0,0,1,1.488.04,2.489,2.489,0,0,1,1.609.987c.8,1.023,1.592,2.049,2.392,3.071.093.119.1.184-.036.28-.435.309-.862.63-1.283.957-.134.1-.207.122-.331-.029q-.654-.8-1.342-1.574a.854.854,0,0,0-1.406.155,1.162,1.162,0,0,0-.087.564c0,.185,0,.371,0,.557H43" transform="translate(-27.558 -78.865)" fill="#4875f2"/>
        <path id="Trazado_657192" data-name="Trazado 657192" d="M156.515,268.683c.073.094.026.2.028.3.009.408,0,.816.016,1.223,0,.146-.04.187-.189.187q-7.655-.009-15.309-.008-3.271,0-6.542.008c-.2,0-.252-.06-.245-.252.014-.415,0-.831.006-1.246,0-.068-.038-.149.039-.2l.056,0c.5,0,1.008-.011,1.512-.011l19.843,0c.2,0,.4.01.6.015h.01a.2.2,0,0,1,.169-.008h.006" transform="translate(-110.282 -220.667)" fill="#fed773"/>
        <path id="Trazado_657193" data-name="Trazado 657193" d="M177.642,43.31c-.164.122-.328.242-.49.364q-1.886,1.414-3.771,2.831a.888.888,0,0,1-.572.19q-2.3-.01-4.607,0a.349.349,0,0,1-.362-.222q-.758-1.531-1.53-3.056c-.053-.106-.058-.166.088-.155.081.006.163,0,.245,0l10.861,0c.041,0,.089-.016.138.047" transform="translate(-136.571 -35.532)" fill="#ffc430"/>
        <path id="Trazado_657194" data-name="Trazado 657194" d="M177.5,247.23h-5.5a.592.592,0,0,1-.177-.009c-.058-.019-.119-.039-.051-.137.486-.7.893-1.449,1.328-2.181a.451.451,0,0,1,.439-.258q3.9.01,7.81,0a.535.535,0,0,1,.533.3c.421.714.825,1.439,1.289,2.127.065.1.054.151-.07.157-.067,0-.133,0-.2,0H177.5Z" transform="translate(-141.066 -200.937)" fill="#feb300"/>
        <path id="Trazado_657195" data-name="Trazado 657195" d="M122.433,62.435h2.313c.266,0,.287.025.287.282,0,.793-.012,1.587.006,2.38a2.578,2.578,0,0,1-.237,1.041.827.827,0,0,1-.949.587c-1.058-.043-2.12-.015-3.18-.007a.354.354,0,0,1-.376-.238c-.1-.223-.216-.438-.33-.654a.712.712,0,0,1-.084-.341c0-.956,0-1.913,0-2.869,0-.148.049-.191.194-.19.786.006,1.572,0,2.358,0v.006" transform="translate(-98.463 -51.273)" fill="#feb300"/>
        <path id="Trazado_657196" data-name="Trazado 657196" d="M115.339,131.513q-1.368,0-2.736,0a1.53,1.53,0,0,0-.328.028.479.479,0,0,1-.5-.187c-.652-.778-1.315-1.548-1.982-2.314-.11-.127-.134-.207.016-.315.414-.3.823-.607,1.231-.914.113-.085.191-.066.277.046.382.5.774.994,1.156,1.495a1.077,1.077,0,0,0,.93.456c1.075-.013,2.151-.008,3.226,0a1.69,1.69,0,0,1,1.6,1,2.728,2.728,0,0,1,.148.611c.027.109-.058.1-.139.1q-1.446,0-2.892,0Z" transform="translate(-90.101 -104.935)" fill="#fed773"/>
        <path id="Trazado_657197" data-name="Trazado 657197" d="M62.513,134.841c-1,0-2,0-3,0a2.422,2.422,0,0,1-1.665-.7c-.169-.155-.323-.327-.495-.48-.092-.082-.058-.13.008-.2.527-.522,1.057-1.041,1.575-1.571.111-.113.168-.073.25.011.261.264.544.508.781.792a1.3,1.3,0,0,0,1.08.449c1.039,0,2.077-.006,3.116,0a1.674,1.674,0,0,1,1.573.961,1.638,1.638,0,0,1,.161.607c.011.116-.031.144-.151.143-1.076-.006-2.152,0-3.227,0v-.007" transform="translate(-47.056 -108.269)" fill="#fed773"/>
        <path id="Trazado_657198" data-name="Trazado 657198" d="M160.079,191.953c1.291,0,2.582,0,3.873,0,.149,0,.192.046.191.19,0,.452,0,.9.01,1.357,0,.1-.037.156-.139.16-.059,0-.119,0-.178,0q-2.949,0-5.9,0a.661.661,0,0,1-.523-.231c-.418-.442-.855-.865-1.282-1.3-.042-.042-.136-.072-.091-.154.032-.058.108-.03.165-.03h3.872v.005" transform="translate(-128.154 -157.65)" fill="#feb300"/>
        <path id="Trazado_657199" data-name="Trazado 657199" d="M119.771,43.275c.986,0,1.972.005,2.958,0,.2,0,.217.049.168.225q-.182.657-.326,1.325c-.035.16-.132.151-.245.151l-3.4,0c-.563,0-1.127-.006-1.69,0-.175,0-.24-.038-.289-.229-.108-.414-.195-.835-.321-1.244-.051-.166-.03-.234.169-.232.994.009,1.987,0,2.981,0" transform="translate(-95.766 -35.54)" fill="#ffc430"/>
        <path id="Trazado_657200" data-name="Trazado 657200" d="M9.536,270.8c.007-.252.018-.5.019-.755,0-.137.057-.2.194-.2a10.494,10.494,0,0,0,1.234-.225c.507-.095,1.01-.208,1.517-.3a.31.31,0,0,1,.308.069c.469.474.946.941,1.419,1.411a.09.09,0,0,1,.032.115H13.9q-2.058,0-4.115,0c-.08,0-.182.048-.24-.058,0-.006.011-.013.01-.017a.2.2,0,0,0-.02-.032" transform="translate(-7.832 -221.186)" fill="#f8f9fb"/>
        <path id="Trazado_657201" data-name="Trazado 657201" d="M187.52,136.918h-1.157c-.057,0-.123.022-.159-.043s.023-.1.053-.153c.439-.721.88-1.442,1.307-2.17a.352.352,0,0,1,.328-.214c.289,0,.578,0,.868,0,.13,0,.163.061.161.18-.01.734-.02,1.468-.018,2.2,0,.16-.051.2-.2.2-.393-.009-.786,0-1.179,0v.005" transform="translate(-152.928 -110.336)" fill="#feb300"/>
        <path id="Trazado_657202" data-name="Trazado 657202" d="M76.481,270.909h-.71c-1.209,0-2.418,0-3.627,0-.156,0-.208-.037-.2-.2.014-.229.007-.46,0-.69,0-.112.025-.161.151-.192.678-.164,1.351-.349,2.028-.516a.4.4,0,0,1,.356.064c.633.474,1.25.971,1.905,1.416a.759.759,0,0,1,.092.113" transform="translate(-59.092 -221.188)" fill="#f8f9fb"/>
        <path id="Trazado_657203" data-name="Trazado 657203" d="M33.6,131.648c.848.855,1.667,1.681,2.487,2.506.136.137.277.268.414.4.03.03.073.061.054.112s-.074.038-.115.038c-.912,0-1.824,0-2.735,0-.1,0-.142-.036-.141-.144,0-.934,0-1.868,0-2.8a.7.7,0,0,1,.032-.114" transform="translate(-27.571 -108.128)" fill="#4875f2"/>
        <path id="Trazado_657204" data-name="Trazado 657204" d="M63.187,76.794c.222,0,.444,0,.666,0,.137,0,.208.039.2.189-.008.222,0,.444-.007.666a.857.857,0,0,1-.863.858.848.848,0,0,1-.85-.842c-.013-.236,0-.473,0-.71,0-.12.039-.171.169-.166.229.01.458,0,.687,0Z" transform="translate(-51.193 -63.068)" fill="#fed773"/>
        <path id="Trazado_657205" data-name="Trazado 657205" d="M63.106,63.278c-.23,0-.46-.007-.689,0-.139.006-.168-.051-.135-.17a.92.92,0,0,1,.8-.691.884.884,0,0,1,.894.628c.063.168.019.235-.159.231-.237-.005-.474,0-.711,0" transform="translate(-51.146 -51.268)" fill="#4875f2"/>
        <path id="Trazado_657206" data-name="Trazado 657206" d="M65.033,95.748c-.09.266-.152.491-.243.7a.311.311,0,0,1-.561.051,1.3,1.3,0,0,1-.194-.475,1.368,1.368,0,0,0-.119-.26,3.739,3.739,0,0,0,1.117-.021" transform="translate(-52.497 -78.642)" fill="#fed773"/>
        <path id="Trazado_657207" data-name="Trazado 657207" d="M186.927,15.021c-.044-.05-.031-.112-.031-.17q0-1.628,0-3.257c0-.058-.014-.119.032-.169q0,1.8,0,3.6" transform="translate(-153.505 -9.385)" fill="#ffc430"/>
        <path id="Trazado_657208" data-name="Trazado 657208" d="M211.413,234.975a.175.175,0,0,1,.155.016.161.161,0,0,1-.155-.016" transform="translate(-173.643 -192.986)" fill="#feb300"/>
        <path id="Trazado_657209" data-name="Trazado 657209" d="M134.6,268.79l-.056,0,.056,0" transform="translate(-110.503 -220.769)" fill="#feb300"/>
        <path id="Trazado_657210" data-name="Trazado 657210" d="M9.484,277.7a.2.2,0,0,1,.02.032s-.006.011-.01.017c-.028-.011-.025-.029-.01-.049" transform="translate(-7.78 -228.085)" fill="#4875f2"/>
        <path id="Trazado_657211" data-name="Trazado 657211" d="M239.805,142.8a.172.172,0,0,1-.014-.026s0-.009.007-.013a.031.031,0,0,1,.007.039" transform="translate(-196.951 -117.254)" fill="#feb300"/>
        <path id="Trazado_657212" data-name="Trazado 657212" d="M257.755,268.752h-.01l.005-.009Z" transform="translate(-211.697 -220.73)" fill="#feb300"/>
        <path id="Trazado_657213" data-name="Trazado 657213" d="M258.754,268.717h-.006l0-.008Z" transform="translate(-212.521 -220.701)" fill="#feb300"/>
      </g>
    </g>
  </g>
</svg>
