<svg id="Grupo_949514" data-name="Grupo 949514" xmlns="http://www.w3.org/2000/svg" xmlns:xlink="http://www.w3.org/1999/xlink" width="69.947" height="76.673" viewBox="0 0 69.947 76.673">
  <defs>
    <clipPath id="clip-path">
      <rect id="Rectángulo_350613" data-name="Rectángulo 350613" width="69.947" height="76.673" fill="none"/>
    </clipPath>
  </defs>
  <g id="Grupo_949514-2" data-name="Grupo 949514" clip-path="url(#clip-path)">
    <path id="Trazado_658378" data-name="Trazado 658378" d="M34.012,26.9c0-1.948.011-3.9.011-5.845q0-7.851,0-15.7a1.121,1.121,0,0,1,1.2-1.286c.081-.005.167.02.241-.034a.239.239,0,0,0,.352,0,.5.5,0,0,0,.273.029q5.088,0,10.176,0a.489.489,0,0,0,.273-.03.173.173,0,0,0,.29-.006c.6.116.646.087.885-.423.446-.951.927-1.887,1.34-2.852A1.2,1.2,0,0,1,50.226.011c.093-.006.187,0,.28,0Q58.093.008,65.68,0a1.3,1.3,0,0,1,1.232.772c.488.951.936,1.922,1.373,2.9a.575.575,0,0,0,.623.4c3.172-.016,6.343-.009,9.515-.01.113,0,.225-.015.338-.023l.023.007.024-.007c.175.01.351.01.524.033.869.113,1.1.441,1.164,1.228.032.412.006.829.006,1.244q0,24.967,0,49.935a1.227,1.227,0,0,1-.6,1.255,1.626,1.626,0,0,1-.757.138h-19.1c-.165,0-.33.016-.5.025a3.054,3.054,0,0,0-.713-.022c-2.82,0-5.64,0-8.461-.011-.3,0-.485.063-.549.376a1.7,1.7,0,0,1-.486.772,3.177,3.177,0,0,1-1.892.954.477.477,0,0,0-.426.375,2.6,2.6,0,0,1-.638,1.076,2.969,2.969,0,0,1-1.947.96c-.171.014-.344.014-.434.26a2.779,2.779,0,0,1-2.725,1.829.5.5,0,0,0-.5.282A2.9,2.9,0,0,1,38,66.334a4.951,4.951,0,0,1-1.089-.024,18.462,18.462,0,0,1-2.992-.945.4.4,0,0,0-.473.07,3.346,3.346,0,0,1-2.432.916A3,3,0,0,1,28.3,64.164c-.059-.25-.152-.327-.412-.322a3.009,3.009,0,0,1-2.88-1.977.4.4,0,0,0-.445-.313,2.616,2.616,0,0,1-2.483-1.459,3.3,3.3,0,0,1-.368-1.772.4.4,0,0,0-.268-.45,2.668,2.668,0,0,1-1.481-2.443,2.768,2.768,0,0,1,.4-1.446c.067-.124.14-.227,0-.355-.334-.31-.661-.629-.99-.945a.246.246,0,0,0-.357-.025,3.062,3.062,0,0,1-2.438.431,2.847,2.847,0,0,1-2.442-2.4,2.925,2.925,0,0,1,.479-2.248q1.754-2.606,3.512-5.211c1.075-1.592,2.145-3.188,3.233-4.771a3.013,3.013,0,0,1,3.614-1.164,2.945,2.945,0,0,1,1.962,3.3c-.1.589-.093.582.478.886s1.192.485,1.782.74a1.294,1.294,0,0,0,1.593-.343c.933-.911,1.931-1.757,2.915-2.615a.726.726,0,0,0,.323-.589q-.011-5.631,0-11.262a1.51,1.51,0,0,1-.01-.51M56.739,52.65c-.03.142,0,.285-.034.431a3.149,3.149,0,0,1-3.973,2.127A3.2,3.2,0,0,1,50.82,53.4c-.1-.236-.183-.264-.4-.147a8.938,8.938,0,0,1-1.047.467c-.207.078-.229.145-.1.325a3.862,3.862,0,0,1,.633,1.373c.049.228.155.29.381.289,1.621-.01,3.243-.007,4.864-.007H77.692c.166,0,.332.009.5,0s.325-.07.273-.3a1.19,1.19,0,0,1-.006-.248q0-23.485,0-46.97c0-.549,0-1.1.007-1.648,0-.222-.055-.3-.3-.3q-4.214.012-8.428,0c-.19,0-.229.058-.16.209.3.649.565,1.314.91,1.943a1.967,1.967,0,0,1,.373.905,1.235,1.235,0,0,1-1.143,1.128.026.026,0,0,0-.042,0c-.1,0-.207.009-.311.009q-9.182,0-18.364,0c-1.667,0-3.334-.014-5-.017a.594.594,0,0,1-.484-.223,1.438,1.438,0,0,1-.434-.965c.332-.921.864-1.748,1.24-2.648.144-.344.162-.338-.22-.338-3.192,0-6.385,0-9.578-.009-.285,0-.337.087-.336.352q.01,14.96.006,29.92a1.36,1.36,0,0,0,.022.581c.1.19.358.032.541.079.01,0,.021,0,.031,0,.834.179,1.677.3,2.52.424.586.179,1.2.187,1.8.312.686.144,1.386.222,2.078.341.758.131,1.51.3,2.271.407.857.12,1.707.283,2.561.42.791.127,1.58.261,2.369.4a.272.272,0,0,0,.35-.2,2.743,2.743,0,0,1,.4-.755,3.058,3.058,0,0,1,4.936-.175,3.242,3.242,0,0,1,.713,2.115q.013,5.74,0,11.48a1.9,1.9,0,0,1-.051.606c0,.041,0,.082,0,.124m-28.026-.436a2.149,2.149,0,0,1,.958.14,2.528,2.528,0,0,1,1.554,1.434,3.141,3.141,0,0,1,.242,1.548.286.286,0,0,0,.226.343,2.744,2.744,0,0,1,1.772,3.2.275.275,0,0,0,.209.372,3.057,3.057,0,0,1,1.778,4.085c-.1.217-.069.328.179.409a10.589,10.589,0,0,0,1.959.466,1.544,1.544,0,0,0,.969-.119.373.373,0,0,0,.1-.638q-.758-.752-1.513-1.506c-.242-.242-.494-.476-.712-.738a.948.948,0,0,1-.28-.877,1.025,1.025,0,0,1,1.731-.514c.792.73,1.554,1.5,2.3,2.276a.942.942,0,0,0,1.447.054c.31-.33.311-.4-.017-.693-.571-.517-1.141-1.034-1.718-1.544C39.2,59.3,38.5,58.688,37.8,58.079a1.157,1.157,0,0,1-.46-.774,1.119,1.119,0,0,1,.68-1.037.858.858,0,0,1,.913.082,2.6,2.6,0,0,1,.294.228c1.351,1.21,2.7,2.425,4.054,3.63a.777.777,0,0,0,.528.288c.576,0,.838-.408,1.087-.823a.4.4,0,0,0-.14-.594,4.216,4.216,0,0,1-.522-.467q-1.2-1.088-2.395-2.174c-.513-.468-1.04-.923-1.529-1.414a.874.874,0,0,1-.159-1.178,1.025,1.025,0,0,1,1.077-.515,1.411,1.411,0,0,1,.7.434q2.254,2.044,4.5,4.1a.725.725,0,0,0,.84.2.876.876,0,0,0,.562-.76,2.664,2.664,0,0,0-.714-2.144,22.755,22.755,0,0,0-1.691-1.695c-1.852-1.645-3.736-3.254-5.567-4.924-.712-.649-1.455-1.264-2.192-1.886-.365-.308-.449-.3-.847-.051-.974.611-1.952,1.215-2.923,1.83a3.732,3.732,0,0,1-1.769.66,3.317,3.317,0,0,1-2.863-1.055,3.351,3.351,0,0,1-.767-3.316c.049-.177.062-.3-.147-.358a12.333,12.333,0,0,1-2.392-1.025c-.143-.077-.243-.038-.336.1-.657.99-1.325,1.973-1.982,2.963-1,1.5-2.05,2.96-3.009,4.485-.1.16-.071.228.04.324.313.272.633.535.937.817.37.342.364.349.8.081a2.843,2.843,0,0,1,3.833.855c.112.214.2.136.324.026a2.927,2.927,0,0,1,2.149-.777m21.805-5.967H50.51c0-1.462-.005-2.924,0-4.386,0-.251-.069-.367-.328-.354a3.566,3.566,0,0,1-.967-.161c-.865-.2-1.751-.258-2.618-.459-.515-.12-1.067-.152-1.6-.238-1.19-.194-2.382-.373-3.571-.573-1.43-.24-2.858-.5-4.287-.744a.421.421,0,0,0-.394.088c-1.526,1.356-3.06,2.7-4.587,4.059a11.573,11.573,0,0,0-1.413,1.308,1.371,1.371,0,0,0,.738,2.17,1.964,1.964,0,0,0,1.452-.395c1.307-.82,2.613-1.644,3.938-2.435a1.1,1.1,0,0,1,1.595.181q.817.719,1.639,1.433,3.579,3.121,7.152,6.249a.517.517,0,0,0,.622.106c.778-.339,1.553-.686,2.332-1.022a.446.446,0,0,0,.306-.473c-.011-1.452-.005-2.9-.005-4.355M57.877,8.269h9.238c.228,0,.456,0,.684,0,.187,0,.214-.075.137-.231-.283-.571-.567-1.142-.843-1.717s-.5-1.146-.8-1.693c-.4-.724-.728-1.477-1.057-2.229a.446.446,0,0,0-.478-.337q-6.89,0-13.779-.006a.45.45,0,0,0-.443.268c-.216.407-.417.827-.6,1.245-.641,1.471-1.4,2.885-2.06,4.347-.163.361-.181.352.2.352h9.8M52.6,46.146h0q0,2.519,0,5.037c0,.394,0,.788.029,1.18a1.024,1.024,0,0,0,.835.916,1.088,1.088,0,0,0,1.075-.41,1.334,1.334,0,0,0,.205-.82q0-5.784,0-11.568a1.709,1.709,0,0,0-.354-1.048c-.188-.261-.432-.141-.637-.2a1.016,1.016,0,0,0-1.151.922q0,3,0,6M24.875,40.112a.906.906,0,0,0-.716-.91A1.083,1.083,0,0,0,23,39.513c-.2.278-.388.561-.579.844L18.618,46q-1.091,1.62-2.184,3.238a1.577,1.577,0,0,0-.375.928,1.045,1.045,0,0,0,.975.929,1.03,1.03,0,0,0,1.053-.56q1.286-1.923,2.584-3.838,1.97-2.922,3.94-5.844a1.223,1.223,0,0,0,.265-.746m-.488,19.441a1.069,1.069,0,0,0,.792-.37q1.893-1.658,3.777-3.325a1.511,1.511,0,0,0,.213-.225.917.917,0,0,0-.069-1.192c-.232-.245-.591-.235-.991.03a1.774,1.774,0,0,0-.2.153l-3.747,3.312a1.457,1.457,0,0,0-.416.534.761.761,0,0,0,.636,1.084m6.144-1.86a.634.634,0,0,0-.5.135c-.973.834-1.926,1.688-2.845,2.581a.9.9,0,0,0,.019,1.179.915.915,0,0,0,1.07.256,4.763,4.763,0,0,0,.9-.748c.671-.6,1.336-1.2,1.983-1.828a.883.883,0,0,0,.251-1.043.827.827,0,0,0-.875-.531m-.306,5.627a.971.971,0,0,0,1.339.908,7.48,7.48,0,0,0,1.873-1.5.685.685,0,0,0,.131-.244.928.928,0,0,0-.215-1.053.951.951,0,0,0-1.218-.171,11.823,11.823,0,0,0-1.625,1.37.846.846,0,0,0-.286.691m-5.778-8.961a.567.567,0,0,0-.31-.6.784.784,0,0,0-.8.066c-.38.286-.755.581-1.114.893a.727.727,0,0,0-.163.976.765.765,0,0,0,1.016.074c.365-.272.716-.563,1.064-.856a.73.73,0,0,0,.3-.557" transform="translate(-10.565 0)" fill="#193650"/>
    <path id="Trazado_658379" data-name="Trazado 658379" d="M23.447,107.748a1.516,1.516,0,0,0,.01.51q0,5.631,0,11.262a.726.726,0,0,1-.323.589c-.984.858-1.981,1.7-2.915,2.615a1.294,1.294,0,0,1-1.593.343c-.589-.256-1.21-.436-1.782-.74s-.582-.3-.478-.886a2.946,2.946,0,0,0-1.962-3.3,3.013,3.013,0,0,0-3.614,1.164c-1.088,1.583-2.157,3.179-3.233,4.771q-1.758,2.6-3.512,5.211a2.926,2.926,0,0,0-.479,2.248,2.847,2.847,0,0,0,2.442,2.4,3.062,3.062,0,0,0,2.438-.431.246.246,0,0,1,.357.025c.329.316.656.634.99.945.138.128.065.231,0,.355a2.768,2.768,0,0,0-.4,1.446,2.668,2.668,0,0,0,1.481,2.443.4.4,0,0,1,.268.45,3.3,3.3,0,0,0,.368,1.772A2.616,2.616,0,0,0,14,142.4a.4.4,0,0,1,.445.313,3.009,3.009,0,0,0,2.88,1.977c.261,0,.353.073.412.322A3,3,0,0,0,20.45,147.2a3.346,3.346,0,0,0,2.432-.916.4.4,0,0,1,.474-.07,18.455,18.455,0,0,0,2.992.945,4.949,4.949,0,0,0,1.089.024,2.9,2.9,0,0,0,2.785-1.584.5.5,0,0,1,.5-.282,2.778,2.778,0,0,0,2.725-1.829c.089-.246.263-.246.434-.26a2.968,2.968,0,0,0,1.947-.96,2.6,2.6,0,0,0,.638-1.076.477.477,0,0,1,.426-.375,3.178,3.178,0,0,0,1.892-.954,1.7,1.7,0,0,0,.486-.772c.064-.313.246-.378.549-.376,2.82.013,5.64.008,8.461.011a3.054,3.054,0,0,1,.713.022,13.314,13.314,0,0,1-.91,2.992,24.005,24.005,0,0,1-3.34,5.926,25.6,25.6,0,0,1-2.056,2.39,25.036,25.036,0,0,1-5,3.94,26.441,26.441,0,0,1-5.336,2.411,21.565,21.565,0,0,1-2.8.693c-.687.13-1.382.212-2.07.333a10.543,10.543,0,0,1-1.481.08c-.746.023-1.493-.005-2.239.009a18.109,18.109,0,0,1-2.485-.271c-1-.118-1.955-.414-2.934-.612a16.422,16.422,0,0,1-2.775-.931,24.21,24.21,0,0,1-7.416-4.683,25.831,25.831,0,0,1-3.8-4.344,25.927,25.927,0,0,1-3.871-9.249,21.5,21.5,0,0,1-.412-3.386c-.02-.588-.073-1.174-.058-1.764a27.372,27.372,0,0,1,.31-3.543A25.048,25.048,0,0,1,8.245,114.12c.622-.56,1.284-1.065,1.942-1.579a10.468,10.468,0,0,1,1.353-.955c.665-.365,1.319-.755,1.985-1.121a30.126,30.126,0,0,1,3.852-1.617c.338-.129.727-.188,1.076-.3a8.444,8.444,0,0,1,1.809-.427c.862-.076,1.7-.322,2.566-.322.206,0,.412-.033.618-.051" transform="translate(0 -80.852)" fill="#4ebf9e"/>
    <path id="Trazado_658380" data-name="Trazado 658380" d="M100.09,15.986a.239.239,0,0,1-.352,0,.308.308,0,0,1,.352,0" transform="translate(-74.841 -11.953)" fill="#4ebf9e"/>
    <path id="Trazado_658381" data-name="Trazado 658381" d="M144.39,15.984a.173.173,0,0,1-.29.005.228.228,0,0,1,.29-.005" transform="translate(-108.13 -11.957)" fill="#4ebf9e"/>
    <path id="Trazado_658382" data-name="Trazado 658382" d="M273.243,16.053l-.024.007-.023-.007.024-.042.023.042" transform="translate(-205.001 -12.014)" fill="#4ebf9e"/>
    <path id="Trazado_658383" data-name="Trazado 658383" d="M120.723,36.9a1.436,1.436,0,0,0,.434.965.592.592,0,0,0,.484.223c1.667,0,3.334.016,5,.017q9.182,0,18.364,0c.1,0,.207-.006.31-.009l.014.05.028-.055a1.235,1.235,0,0,0,1.143-1.128c.145,0,.292.008.435-.007,1.261-.129,2.525-.022,3.787-.056.133,0,.174.058.187.186.036.37.061.739.061,1.112q0,20.778,0,41.556c0,.516,0,.516-.515.516q-8.63,0-17.26,0c-.234,0-.467.111-.7.008a.118.118,0,0,0-.114-.065,1.906,1.906,0,0,0,.051-.606q0-5.74,0-11.48a3.241,3.241,0,0,0-.713-2.115,3.058,3.058,0,0,0-4.935.175,2.735,2.735,0,0,0-.4.756.273.273,0,0,1-.35.2c-.789-.137-1.578-.272-2.369-.4-.854-.137-1.7-.3-2.561-.42-.761-.106-1.513-.276-2.271-.407-.692-.119-1.392-.2-2.078-.341-.6-.125-1.213-.134-1.8-.312,0-.2-.068-.382-.068-.583q.008-13.634.005-27.268a2.029,2.029,0,0,1,.018-.34c.013-.078.055-.188.155-.157a2.181,2.181,0,0,0,.673-.024c1.663.012,3.326.007,4.99.008m21.861,39.619c.053-.017.049-.051.027-.091q0-.109,0-.217l.011-.016-.012-.016q0-.3,0-.594a.424.424,0,0,0,0-.276c0-.165,0-.33.011-.495.016-.212-.059-.286-.282-.281-.5.012-1.01-.005-1.515-.011a.125.125,0,0,0-.182-.009,6.457,6.457,0,0,0,0,2.044c.014.03.032.033.056.01l1.7.017c0,.069.045.073.1.067.066-.007.068-.054.062-.105a.117.117,0,0,0,.028-.029m-5.189.049c.2.05.319-.008.317-.239-.007-.557-.007-1.115-.011-1.672,0-.006.012-.015.011-.018a.227.227,0,0,0-.026-.03l-.091-.082c-.021-.03-.042-.029-.063,0l-1.493,0c-.018-.031-.038-.035-.061-.005l-.132-.012c-.073-.037-.14-.052-.178.046-.021.056-.068.115-.06.166a11.373,11.373,0,0,1,.057,1.687c0,.191.151.17.269.17.475,0,.949,0,1.424-.007l.019.013Zm8.35-2.042c-.019-.03-.04-.033-.062,0-.127-.005-.215.022-.2.182.008.131-.006.264-.01.4-.158.087-.159.172,0,.256v.179c-.043,0-.082.016-.082.066s.039.063.083.066q0,.183,0,.366c-.139.064-.139.129,0,.194l0,.179c-.073.012-.11.055-.084.126s.092.06.152.042c.5,0,1.009,0,1.514-.006.151,0,.31.05.45-.053l.025-.009-.008-.025.019-1.915c0-.039.007-.077-.05-.04l-1.742,0M124.305,58.68a4.5,4.5,0,0,0,.1-.577c-.005-1.326.006-2.653-.009-3.98a1.4,1.4,0,0,0-.3-.9,1.222,1.222,0,0,0-1.055-.38c-1.295-.031-2.591-.026-3.885,0a1.123,1.123,0,0,0-1.227,1.278c0,1.306.014,2.612-.006,3.918a1.166,1.166,0,0,0,1.283,1.278c1.316-.024,2.632-.013,3.948-.006a1.26,1.26,0,0,0,1.128-.565c.008,0,.021-.008.022-.013a.237.237,0,0,0,0-.046m-1.083-10.252c.023.031.044.027.063,0a1.141,1.141,0,0,0,1.121-1.322c-.007-1.306.007-2.612-.005-3.918a1.11,1.11,0,0,0-1.215-1.24c-1.337-.018-2.674-.014-4.011,0a1.139,1.139,0,0,0-1.247,1.257c.02,1.3.03,2.592,0,3.887a1.217,1.217,0,0,0,1.35,1.342c1.315-.032,2.632,0,3.948,0m14.245,6.555-5.193.011c-.28,0-.561-.008-.839.012a1.133,1.133,0,0,0-1.057.983,1.121,1.121,0,0,0,.778,1.108,2.041,2.041,0,0,0,.646.076l14.028,0c.218,0,.436.012.653,0a1.233,1.233,0,0,0,1.072-.825.878.878,0,0,0-.2-.975,1.108,1.108,0,0,0-.889-.37c-.529-.008-1.057,0-1.586,0l-7.339-.01-.034-.074-.035.073m1.466-10.888v.011q-3.67,0-7.34,0a1.63,1.63,0,0,0-.546.081,1.1,1.1,0,0,0-.616,1.285,1.182,1.182,0,0,0,1.266.788q7.325-.006,14.649,0a1.217,1.217,0,0,0,1.164-.726.919.919,0,0,0-.322-1.188,1.706,1.706,0,0,0-.979-.25q-3.639,0-7.278,0m2.6,23.834v.016q2.349,0,4.7,0a1.961,1.961,0,0,0,.554-.059,1.356,1.356,0,0,0,.827-.97,1.044,1.044,0,0,0-.551-1,1.789,1.789,0,0,0-.843-.131c-3.179.018-6.36-.091-9.539.048a1,1,0,0,0-1.011.973,1.019,1.019,0,0,0,.982,1.123q2.441,0,4.883,0" transform="translate(-86.205 -27.681)" fill="#fefeff"/>
    <path id="Trazado_658384" data-name="Trazado 658384" d="M162.394,71.3c.234.1.467-.008.7-.007q8.63.009,17.26,0c.515,0,.515,0,.515-.516q0-20.778,0-41.556c0-.373-.026-.742-.062-1.113-.012-.128-.054-.19-.187-.186-1.262.034-2.526-.073-3.787.056-.144.015-.29.005-.435.007a1.966,1.966,0,0,0-.373-.905c-.344-.629-.61-1.294-.91-1.943-.07-.151-.03-.21.16-.209q4.214.011,8.428,0c.241,0,.3.081.3.3-.012.549-.007,1.1-.007,1.648q0,23.485,0,46.97A1.19,1.19,0,0,0,184,74.1c.051.235-.094.292-.273.3s-.332,0-.5,0H160.684c-1.621,0-3.243,0-4.864.006-.226,0-.332-.061-.381-.289a3.854,3.854,0,0,0-.633-1.373c-.124-.179-.1-.247.1-.325a8.9,8.9,0,0,0,1.047-.466c.22-.117.307-.089.4.147a3.2,3.2,0,0,0,1.912,1.806,3.149,3.149,0,0,0,3.973-2.127c.03-.146,0-.289.034-.431a.119.119,0,0,0,.115-.058" transform="translate(-116.105 -18.71)" fill="#e0e5e9"/>
    <path id="Trazado_658385" data-name="Trazado 658385" d="M48.226,182.373a2.928,2.928,0,0,0-2.149.777c-.122.111-.212.188-.324-.025a2.842,2.842,0,0,0-3.833-.855c-.432.268-.426.262-.8-.081-.3-.281-.624-.545-.937-.817-.111-.1-.141-.164-.04-.324.959-1.525,2.013-2.985,3.009-4.485.658-.99,1.325-1.973,1.982-2.963.093-.141.193-.179.336-.1a12.323,12.323,0,0,0,2.392,1.025c.208.06.2.182.147.359a3.4,3.4,0,0,0,3.63,4.371,3.737,3.737,0,0,0,1.77-.66c.971-.615,1.949-1.219,2.923-1.83.4-.249.482-.256.847.051.737.622,1.48,1.237,2.192,1.886,1.83,1.67,3.714,3.279,5.567,4.924a22.714,22.714,0,0,1,1.691,1.694,2.665,2.665,0,0,1,.714,2.144.875.875,0,0,1-.562.76.725.725,0,0,1-.839-.2c-1.492-1.374-3-2.735-4.5-4.1a1.41,1.41,0,0,0-.7-.434,1.025,1.025,0,0,0-1.077.516.874.874,0,0,0,.159,1.178c.489.492,1.016.947,1.529,1.414q1.2,1.089,2.394,2.174a4.217,4.217,0,0,0,.522.467.4.4,0,0,1,.141.594c-.249.416-.511.821-1.087.824a.777.777,0,0,1-.528-.288c-1.356-1.2-2.7-2.42-4.054-3.63a2.572,2.572,0,0,0-.294-.228.857.857,0,0,0-.913-.082,1.119,1.119,0,0,0-.68,1.037,1.156,1.156,0,0,0,.46.774c.7.609,1.4,1.217,2.093,1.831.577.51,1.147,1.027,1.718,1.544.328.3.328.362.017.692a.942.942,0,0,1-1.447-.054c-.743-.78-1.5-1.546-2.3-2.276a1.025,1.025,0,0,0-1.731.514.949.949,0,0,0,.28.878c.218.262.471.5.712.737q.754.756,1.514,1.507a.373.373,0,0,1-.1.638,1.545,1.545,0,0,1-.969.119,10.572,10.572,0,0,1-1.959-.466c-.248-.081-.284-.193-.179-.409a3.057,3.057,0,0,0-1.778-4.085.275.275,0,0,1-.209-.372,2.744,2.744,0,0,0-1.772-3.2.286.286,0,0,1-.226-.343,3.143,3.143,0,0,0-.242-1.548,2.529,2.529,0,0,0-1.554-1.434,2.148,2.148,0,0,0-.958-.14" transform="translate(-30.078 -130.16)" fill="#e0bb9b"/>
    <path id="Trazado_658386" data-name="Trazado 658386" d="M99.775,164.442c0,1.452-.006,2.9.005,4.355a.446.446,0,0,1-.306.473c-.779.336-1.554.682-2.332,1.022a.517.517,0,0,1-.622-.106q-3.565-3.138-7.152-6.249-.82-.715-1.639-1.433a1.1,1.1,0,0,0-1.595-.181c-1.325.791-2.63,1.615-3.938,2.435a1.965,1.965,0,0,1-1.452.395,1.371,1.371,0,0,1-.739-2.17,11.61,11.61,0,0,1,1.413-1.308c1.527-1.355,3.061-2.7,4.587-4.059a.421.421,0,0,1,.394-.089c1.429.248,2.857.5,4.287.745,1.189.2,2.381.378,3.571.572.533.087,1.085.119,1.6.238.867.2,1.753.262,2.618.459a3.547,3.547,0,0,0,.967.161c.259-.013.33.1.328.354-.01,1.462-.005,2.924-.005,4.386Z" transform="translate(-59.823 -118.195)" fill="#e0bb9b"/>
    <path id="Trazado_658387" data-name="Trazado 658387" d="M111.5,27.927c-1.663,0-3.327,0-4.99-.008a2.18,2.18,0,0,1-.673.024c-.1-.031-.142.079-.155.157a2.029,2.029,0,0,0-.018.34q0,13.634-.005,27.268c0,.2.071.386.067.583-.843-.123-1.686-.245-2.52-.424-.01,0-.021,0-.031,0-.183-.047-.44.111-.541-.079a1.361,1.361,0,0,1-.023-.582q0-14.96-.006-29.92c0-.265.052-.353.337-.352,3.192.011,6.385.008,9.578.009.382,0,.364-.006.22.338-.375.9-.908,1.728-1.24,2.648" transform="translate(-76.983 -18.708)" fill="#e0e5e9"/>
    <path id="Trazado_658388" data-name="Trazado 658388" d="M159.141,14.454h-9.8c-.384,0-.365.009-.2-.352.658-1.462,1.419-2.875,2.06-4.347.182-.418.382-.838.6-1.245a.449.449,0,0,1,.443-.268q6.89.009,13.779.006a.446.446,0,0,1,.478.337c.329.752.661,1.505,1.057,2.229.3.547.531,1.13.8,1.693s.56,1.146.843,1.717c.077.156.051.234-.137.231-.228,0-.456,0-.684,0h-9.238Z" transform="translate(-111.829 -6.185)" fill="#f16051"/>
    <path id="Trazado_658389" data-name="Trazado 658389" d="M168.37,163.99q0-3,0-6a1.016,1.016,0,0,1,1.151-.922c.2.064.448-.056.637.2a1.709,1.709,0,0,1,.354,1.048q0,5.784,0,11.569a1.333,1.333,0,0,1-.205.82,1.088,1.088,0,0,1-1.075.41,1.024,1.024,0,0,1-.835-.916c-.029-.392-.028-.787-.029-1.18q0-2.519,0-5.037Z" transform="translate(-126.337 -117.844)" fill="#fefeff"/>
    <path id="Trazado_658390" data-name="Trazado 658390" d="M30.821,157.792a1.229,1.229,0,0,1-.266.746q-1.968,2.923-3.94,5.844-1.293,1.918-2.584,3.838a1.03,1.03,0,0,1-1.052.56,1.045,1.045,0,0,1-.975-.929,1.576,1.576,0,0,1,.375-.928q1.093-1.618,2.184-3.238,1.9-2.823,3.8-5.647c.191-.283.382-.566.579-.844a1.082,1.082,0,0,1,1.159-.311.908.908,0,0,1,.716.911" transform="translate(-16.51 -117.68)" fill="#f8f9fb"/>
    <path id="Trazado_658391" data-name="Trazado 658391" d="M53.266,222.673a.761.761,0,0,1-.636-1.084,1.457,1.457,0,0,1,.416-.534l3.747-3.312a1.775,1.775,0,0,1,.2-.153c.4-.265.76-.275.991-.03a.917.917,0,0,1,.069,1.192,1.512,1.512,0,0,1-.213.225q-1.887,1.665-3.777,3.325a1.07,1.07,0,0,1-.792.371" transform="translate(-39.444 -163.12)" fill="#e0bb9b"/>
    <path id="Trazado_658392" data-name="Trazado 658392" d="M69.283,231.107a.827.827,0,0,1,.875.531.883.883,0,0,1-.251,1.043c-.648.624-1.312,1.23-1.983,1.828a4.757,4.757,0,0,1-.9.748.916.916,0,0,1-1.07-.256.9.9,0,0,1-.019-1.179c.919-.892,1.873-1.747,2.845-2.581a.634.634,0,0,1,.5-.135" transform="translate(-49.318 -173.414)" fill="#e0bb9b"/>
    <path id="Trazado_658393" data-name="Trazado 658393" d="M78.749,247a.844.844,0,0,1,.285-.691,11.843,11.843,0,0,1,1.625-1.371.95.95,0,0,1,1.218.171.928.928,0,0,1,.215,1.053.686.686,0,0,1-.131.245,7.486,7.486,0,0,1-1.873,1.5A.971.971,0,0,1,78.749,247" transform="translate(-59.088 -183.683)" fill="#e0bb9b"/>
    <path id="Trazado_658394" data-name="Trazado 658394" d="M48.074,215.745a.73.73,0,0,1-.3.557c-.348.293-.7.584-1.064.856a.765.765,0,0,1-1.016-.074.727.727,0,0,1,.163-.976c.359-.312.733-.607,1.114-.893a.784.784,0,0,1,.8-.066.567.567,0,0,1,.31.6" transform="translate(-34.192 -161.386)" fill="#e0bb9b"/>
    <path id="Trazado_658395" data-name="Trazado 658395" d="M185.09,210.488a.119.119,0,0,1-.115.058v-.124a.118.118,0,0,1,.114.065" transform="translate(-138.801 -157.897)" fill="#f8f9fb"/>
    <path id="Trazado_658396" data-name="Trazado 658396" d="M236.848,41.675l-.028.055-.014-.05a.027.027,0,0,1,.042,0" transform="translate(-177.694 -31.266)" fill="#4ebf9e"/>
    <path id="Trazado_658397" data-name="Trazado 658397" d="M184.1,109.374l7.339.01c.529,0,1.057,0,1.586,0a1.11,1.11,0,0,1,.889.37.879.879,0,0,1,.2.975,1.234,1.234,0,0,1-1.072.825c-.217.014-.435,0-.653,0q-7.014,0-14.028,0a2.048,2.048,0,0,1-.645-.076,1.121,1.121,0,0,1-.778-1.107A1.133,1.133,0,0,1,178,109.4c.279-.02.56-.011.839-.012l5.193-.011Z" transform="translate(-132.771 -82.071)" fill="#193650"/>
    <path id="Trazado_658398" data-name="Trazado 658398" d="M132.368,63.587c-1.316,0-2.633-.032-3.948,0a1.217,1.217,0,0,1-1.35-1.342c.035-1.295.024-2.592,0-3.887a1.139,1.139,0,0,1,1.247-1.257c1.337-.011,2.674-.015,4.011,0a1.11,1.11,0,0,1,1.215,1.24c.012,1.306,0,2.612.005,3.918a1.141,1.141,0,0,1-1.121,1.322l-.063,0m-1.749-2.053.452,0c.015.03.03.031.046,0l.2.006c.017.034.033.033.05,0,.176-.013.138-.147.138-.253,0-.548-.016-1.1,0-1.644.009-.264-.121-.358-.337-.362-.579-.01-1.158,0-1.737,0-.1,0-.189.006-.186.142.017.7-.037,1.4.029,2.1,0,.03.017.042.044.019l.247,0a.372.372,0,0,0,.3-.009h.2c.016.031.032.03.047,0h.2c.015.031.031.031.047,0h.2c.016.031.032.031.047,0" transform="translate(-95.35 -42.841)" fill="#193650"/>
    <path id="Trazado_658399" data-name="Trazado 658399" d="M133.447,106.623a1.259,1.259,0,0,1-1.128.565c-1.316-.007-2.632-.018-3.948.006a1.166,1.166,0,0,1-1.283-1.278c.02-1.306,0-2.612.006-3.917a1.123,1.123,0,0,1,1.227-1.278c1.295-.023,2.591-.028,3.885,0a1.222,1.222,0,0,1,1.055.38,1.4,1.4,0,0,1,.3.9c.014,1.326,0,2.653.009,3.98a4.462,4.462,0,0,1-.1.577l-.017.059m-4.186-3.5c0,.549.007,1.1-.009,1.646-.007.221.067.288.282.284.569-.011,1.138-.009,1.707,0,.216,0,.288-.075.283-.291-.012-.579-.011-1.159,0-1.739,0-.181-.033-.261-.236-.257-.59.011-1.18,0-1.77,0-.088,0-.191-.031-.251.073-.165.091-.159.184-.005.281" transform="translate(-95.364 -75.565)" fill="#193650"/>
    <path id="Trazado_658400" data-name="Trazado 658400" d="M185.538,65.752q3.639,0,7.278,0a1.706,1.706,0,0,1,.979.25.919.919,0,0,1,.322,1.188,1.217,1.217,0,0,1-1.164.726q-7.325-.011-14.649,0a1.182,1.182,0,0,1-1.267-.788,1.1,1.1,0,0,1,.616-1.285,1.628,1.628,0,0,1,.546-.081q3.67.008,7.34,0Z" transform="translate(-132.81 -49.338)" fill="#193650"/>
    <path id="Trazado_658401" data-name="Trazado 658401" d="M204.013,154.716q-2.442,0-4.883,0a1.019,1.019,0,0,1-.982-1.123,1,1,0,0,1,1.011-.973c3.179-.14,6.359-.03,9.539-.048a1.789,1.789,0,0,1,.843.131,1.044,1.044,0,0,1,.551,1,1.356,1.356,0,0,1-.827.97,1.96,1.96,0,0,1-.554.059q-2.349,0-4.7,0v-.016" transform="translate(-148.686 -114.469)" fill="#193650"/>
    <path id="Trazado_658402" data-name="Trazado 658402" d="M239.436,189.646c-.14.1-.3.051-.45.053-.5.005-1.01,0-1.514.006l-.068-.168,0-.179a.26.26,0,0,0,0-.195q0-.183,0-.366v-.311a.42.42,0,0,0,0-.256c0-.132.019-.264.011-.4-.01-.16.078-.188.2-.182l.063,0,1.742,0,.049.04q-.009.957-.019,1.915l-.022.009Z" transform="translate(-178.14 -140.81)" fill="#193650"/>
    <path id="Trazado_658403" data-name="Trazado 658403" d="M198.147,187.578l.132.012.062.006,1.493,0h.063l.091.082c0,.006-.012.015-.011.018a.247.247,0,0,0,.026.03c0,.557,0,1.115.011,1.672,0,.231-.113.289-.316.239-.012-.031-.025-.03-.039,0-.475,0-.949.009-1.424.007-.118,0-.266.021-.269-.17a11.406,11.406,0,0,0-.057-1.687c-.008-.051.039-.111.06-.166l.178-.046" transform="translate(-148.506 -140.755)" fill="#193650"/>
    <path id="Trazado_658404" data-name="Trazado 658404" d="M219.82,189.312l0,.217c-.043.02-.039.054-.027.091a.119.119,0,0,1-.028.029c-.056,0-.118-.024-.159.038l-1.7-.017-.056-.01a6.456,6.456,0,0,1,0-2.044.226.226,0,0,0,.182.009c.5.006,1.01.023,1.515.011.223-.006.3.069.282.281-.012.164-.008.33-.011.494a.276.276,0,0,0,0,.277q0,.3,0,.593l-.018.005.018.027" transform="translate(-163.409 -140.782)" fill="#193650"/>
    <path id="Trazado_658405" data-name="Trazado 658405" d="M237.053,189.968a.42.42,0,0,1,0,.256c-.161-.084-.159-.17,0-.256" transform="translate(-177.791 -142.548)" fill="#e0e5e9"/>
    <path id="Trazado_658406" data-name="Trazado 658406" d="M237.135,195.2l.068.168c-.06.018-.124.032-.152-.042s.011-.114.084-.126" transform="translate(-177.872 -146.476)" fill="#e0e5e9"/>
    <path id="Trazado_658407" data-name="Trazado 658407" d="M225.112,195.782c.041-.063.1-.041.158-.038.006.051,0,.1-.062.105-.051.006-.1,0-.1-.067" transform="translate(-168.919 -146.878)" fill="#4ebf9e"/>
    <path id="Trazado_658408" data-name="Trazado 658408" d="M237.092,193.707a.258.258,0,0,1,0,.194c-.138-.066-.138-.131,0-.194" transform="translate(-177.831 -145.354)" fill="#e0e5e9"/>
    <path id="Trazado_658409" data-name="Trazado 658409" d="M225.864,191.075a.275.275,0,0,1,0-.276.424.424,0,0,1,0,.276" transform="translate(-169.456 -143.172)" fill="#4ebf9e"/>
    <path id="Trazado_658410" data-name="Trazado 658410" d="M237.17,191.714v.132c-.043,0-.083-.016-.083-.066s.039-.064.082-.066" transform="translate(-177.906 -143.858)" fill="#e0e5e9"/>
    <path id="Trazado_658411" data-name="Trazado 658411" d="M218.279,187.517a.226.226,0,0,1-.183-.009.125.125,0,0,1,.183.009" transform="translate(-163.655 -140.676)" fill="#e0e5e9"/>
    <path id="Trazado_658412" data-name="Trazado 658412" d="M198.331,187.493l-.178.046c.037-.1.1-.083.178-.046" transform="translate(-148.69 -140.669)" fill="#e0e5e9"/>
    <path id="Trazado_658413" data-name="Trazado 658413" d="M225.837,195.372c-.011-.037-.015-.071.027-.091.022.04.026.074-.027.091" transform="translate(-169.457 -146.535)" fill="#4ebf9e"/>
    <path id="Trazado_658414" data-name="Trazado 658414" d="M205.428,109.155h-.068l.035-.073.034.074" transform="translate(-154.098 -81.852)" fill="#e0e5e9"/>
    <path id="Trazado_658415" data-name="Trazado 658415" d="M225.931,194.316l-.018-.027.018-.005.012.016Z" transform="translate(-169.52 -145.787)" fill="#4ebf9e"/>
    <path id="Trazado_658416" data-name="Trazado 658416" d="M206.22,188.043a.231.231,0,0,1-.026-.03s.007-.012.011-.018a.246.246,0,0,1,.026.03s-.007.012-.011.018" transform="translate(-154.723 -141.068)" fill="#4ebf9e"/>
    <path id="Trazado_658417" data-name="Trazado 658417" d="M148.295,83.1l.063,0c-.019.03-.04.034-.063,0" transform="translate(-111.277 -62.357)" fill="#e0e5e9"/>
    <path id="Trazado_658418" data-name="Trazado 658418" d="M152.561,124.243l.017-.059a.219.219,0,0,1,0,.046s-.014.009-.022.013" transform="translate(-114.479 -93.185)" fill="#f8f9fb"/>
    <path id="Trazado_658419" data-name="Trazado 658419" d="M245.542,195.539l0-.025.022-.009.008.025Z" transform="translate(-184.246 -146.703)" fill="#4ebf9e"/>
    <path id="Trazado_658420" data-name="Trazado 658420" d="M204.92,195.774c.014-.029.027-.03.039,0l-.02.012Z" transform="translate(-153.768 -146.888)" fill="#4ebf9e"/>
    <path id="Trazado_658421" data-name="Trazado 658421" d="M218.094,195.8l.056.01c-.024.023-.042.02-.056-.01" transform="translate(-163.653 -146.927)" fill="#4ebf9e"/>
    <path id="Trazado_658422" data-name="Trazado 658422" d="M245.552,187.668l-.049-.04c.057-.036.054,0,.049.04" transform="translate(-184.22 -140.781)" fill="#e0e5e9"/>
    <path id="Trazado_658423" data-name="Trazado 658423" d="M238.335,187.591l-.062,0c.022-.031.043-.028.062,0" transform="translate(-178.795 -140.746)" fill="#e0e5e9"/>
    <path id="Trazado_658424" data-name="Trazado 658424" d="M199.455,187.572l-.061-.005c.023-.03.044-.025.061.005" transform="translate(-149.621 -140.731)" fill="#e0e5e9"/>
    <path id="Trazado_658425" data-name="Trazado 658425" d="M205.683,187.6h-.063c.021-.03.042-.031.063,0" transform="translate(-154.293 -140.754)" fill="#e0e5e9"/>
    <path id="Trazado_658426" data-name="Trazado 658426" d="M137.852,68.1l-.2-.006a.029.029,0,0,0-.046,0l-.451,0a.03.03,0,0,0-.047,0h-.2a.03.03,0,0,0-.047,0h-.2a.03.03,0,0,0-.047,0h-.2a.419.419,0,0,0-.3.009l-.247,0c-.006-.023-.021-.029-.044-.018-.066-.7-.012-1.4-.029-2.1,0-.136.085-.142.186-.142.579,0,1.158-.006,1.737,0,.217,0,.347.1.338.362-.019.547,0,1.1,0,1.644,0,.107.039.24-.138.253a.034.034,0,0,0-.05,0" transform="translate(-101.885 -49.4)" fill="#fefeff"/>
    <path id="Trazado_658427" data-name="Trazado 658427" d="M137.079,74.83a.419.419,0,0,1,.3-.009.373.373,0,0,1-.3.009" transform="translate(-102.861 -56.126)" fill="#4ebf9e"/>
    <path id="Trazado_658428" data-name="Trazado 658428" d="M144.087,74.874a.034.034,0,0,1,.05,0c-.017.033-.033.034-.05,0" transform="translate(-108.12 -56.176)" fill="#4ebf9e"/>
    <path id="Trazado_658429" data-name="Trazado 658429" d="M143.1,74.846a.03.03,0,0,1,.046,0c-.016.03-.031.03-.046,0" transform="translate(-107.376 -56.155)" fill="#4ebf9e"/>
    <path id="Trazado_658430" data-name="Trazado 658430" d="M141.1,74.855a.03.03,0,0,1,.047,0c-.016.031-.031.032-.047,0" transform="translate(-105.877 -56.161)" fill="#4ebf9e"/>
    <path id="Trazado_658431" data-name="Trazado 658431" d="M140.1,74.854a.03.03,0,0,1,.047,0c-.016.031-.032.03-.047,0" transform="translate(-105.13 -56.16)" fill="#4ebf9e"/>
    <path id="Trazado_658432" data-name="Trazado 658432" d="M139.1,74.854a.03.03,0,0,1,.047,0c-.016.031-.031.032-.047,0" transform="translate(-104.381 -56.16)" fill="#4ebf9e"/>
    <path id="Trazado_658433" data-name="Trazado 658433" d="M135.914,74.825c.023-.01.037,0,.044.019-.027.023-.04.011-.044-.019" transform="translate(-101.987 -56.143)" fill="#4ebf9e"/>
    <path id="Trazado_658434" data-name="Trazado 658434" d="M135.768,109.06c.06-.1.162-.073.251-.073.59,0,1.18.008,1.77,0,.2,0,.239.076.236.257-.01.58-.011,1.159,0,1.739,0,.216-.067.295-.284.291-.569-.01-1.139-.011-1.707,0-.215,0-.289-.063-.282-.284.016-.548.008-1.1.009-1.646l.005-.281" transform="translate(-101.867 -81.778)" fill="#fefeff"/>
    <path id="Trazado_658435" data-name="Trazado 658435" d="M135.445,109.292l-.005.281c-.154-.1-.16-.19.005-.281" transform="translate(-101.544 -82.01)" fill="#4ebf9e"/>
  </g>
</svg>
