<svg xmlns="http://www.w3.org/2000/svg" width="59.077" height="57.499" viewBox="0 0 59.077 57.499">
  <g id="Grupo_953329" data-name="Grupo 953329" transform="translate(-447.157 -7212.233)">
    <path id="Trazado_657393" data-name="Trazado 657393" d="M317.433,77.232H279.5v-44.4h30.348v7.5h7.587Z" transform="translate(180 7180)" fill="#e9efff"/>
    <path id="Trazado_657394" data-name="Trazado 657394" d="M310.453,72.232v5h-5.058v-5Z" transform="translate(180 7180)" fill="#e50058"/>
    <rect id="Rectángulo_350490" data-name="Rectángulo 350490" width="5.058" height="5" transform="translate(485.395 7242.232)" fill="#e50058"/>
    <rect id="Rectángulo_350491" data-name="Rectángulo 350491" width="5.058" height="5" transform="translate(485.395 7247.232)" fill="#fe5a5a"/>
    <rect id="Rectángulo_350492" data-name="Rectángulo 350492" width="5.058" height="4.4" transform="translate(485.395 7237.832)" fill="#fe5a5a"/>
    <rect id="Rectángulo_350493" data-name="Rectángulo 350493" width="5.058" height="5" transform="translate(475.886 7247.232)" fill="#b3e5fc"/>
    <rect id="Rectángulo_350494" data-name="Rectángulo 350494" width="5.058" height="5" transform="translate(475.886 7237.232)" fill="#b3e5fc"/>
    <path id="Trazado_657395" data-name="Trazado 657395" d="M300.944,72.232v5h-5.058v-5Z" transform="translate(180 7180)" fill="#00acc2"/>
    <rect id="Rectángulo_350495" data-name="Rectángulo 350495" width="5.058" height="5" transform="translate(475.886 7242.232)" fill="#00acc2"/>
    <rect id="Rectángulo_350496" data-name="Rectángulo 350496" width="5.058" height="6.3" transform="translate(475.886 7230.933)" fill="#00acc2"/>
    <rect id="Rectángulo_350497" data-name="Rectángulo 350497" width="5.058" height="5" transform="translate(466.377 7247.232)" fill="#fd9c20"/>
    <rect id="Rectángulo_350498" data-name="Rectángulo 350498" width="5.058" height="5" transform="translate(466.377 7237.232)" fill="#fd9c20"/>
    <rect id="Rectángulo_350499" data-name="Rectángulo 350499" width="5.058" height="5" transform="translate(466.377 7227.232)" fill="#fd9c20"/>
    <path id="Trazado_657396" data-name="Trazado 657396" d="M291.435,72.232v5h-5.058v-5Z" transform="translate(180 7180)" fill="#fed943"/>
    <rect id="Rectángulo_350500" data-name="Rectángulo 350500" width="5.058" height="5" transform="translate(466.377 7242.232)" fill="#fed943"/>
    <rect id="Rectángulo_350501" data-name="Rectángulo 350501" width="5.058" height="5" transform="translate(466.377 7232.232)" fill="#fed943"/>
    <path id="Trazado_657397" data-name="Trazado 657397" d="M322.8,40.933a2.8,2.8,0,1,1-2.833,2.8,2.816,2.816,0,0,1,2.833-2.8" transform="translate(180 7180)" fill="#fe5a5a"/>
    <path id="Trazado_657398" data-name="Trazado 657398" d="M322.188,52.833a.9.9,0,1,1-.911.9.9.9,0,0,1,.911-.9" transform="translate(180 7180)"/>
    <path id="Trazado_657399" data-name="Trazado 657399" d="M321.479,83.433a.9.9,0,1,1-.91.9.906.906,0,0,1,.91-.9" transform="translate(180 7180)"/>
    <path id="Trazado_657400" data-name="Trazado 657400" d="M320.569,34.133a.9.9,0,1,1-.911.9.9.9,0,0,1,.911-.9" transform="translate(180 7180)"/>
    <rect id="Rectángulo_350502" data-name="Rectángulo 350502" width="37.935" height="6.9" transform="translate(459.498 7257.233)" fill="#d3dcfb"/>
    <path id="Trazado_657401" data-name="Trazado 657401" d="M317.433,40.333h-7.587v-7.5l7.587,7.5" transform="translate(180 7180)" fill="#d3dcfb"/>
    <path id="Trazado_657402" data-name="Trazado 657402" d="M309.846,84.033v5h-35.4v-50H279.5v45Z" transform="translate(180 7180)" fill="#ffea99"/>
    <rect id="Rectángulo_350503" data-name="Rectángulo 350503" width="5.058" height="8.8" transform="translate(466.377 7218.433)" fill="#fed943"/>
    <path id="Trazado_657403" data-name="Trazado 657403" d="M273.125,34.732a.9.9,0,1,1-.91.9.906.906,0,0,1,.91-.9" transform="translate(180 7180)"/>
    <path id="Trazado_657404" data-name="Trazado 657404" d="M271.911,82.833a.9.9,0,1,1-.91.9.906.906,0,0,1,.91-.9" transform="translate(180 7180)"/>
    <path id="Trazado_657405" data-name="Trazado 657405" d="M269.686,70.333a1.9,1.9,0,1,1-1.922,1.9,1.912,1.912,0,0,1,1.922-1.9" transform="translate(180 7180)" fill="#fe5a5a"/>
    <path id="Trazado_657406" data-name="Trazado 657406" d="M269.99,49.732a.9.9,0,1,1-.91.9.906.906,0,0,1,.91-.9" transform="translate(180 7180)"/>
    <path id="Trazado_657407" data-name="Trazado 657407" d="M309.846,89.732h-35.4a.649.649,0,0,1-.607-.6v-50a.649.649,0,0,1,.607-.6H279.5a.6.6,0,1,1,0,1.2h-4.45v48.7h34.191v-4.4a.607.607,0,0,1,1.214,0v5a.671.671,0,0,1-.607.7" transform="translate(180 7180)"/>
    <path id="Trazado_657408" data-name="Trazado 657408" d="M317.433,40.933h-7.587a.649.649,0,0,1-.607-.6v-7.5a.607.607,0,0,1,1.214,0v6.9h6.98a.6.6,0,1,1,0,1.2" transform="translate(180 7180)"/>
    <path id="Trazado_657409" data-name="Trazado 657409" d="M269.686,74.733a2.5,2.5,0,1,1,2.529-2.5,2.49,2.49,0,0,1-2.529,2.5m0-3.8a1.3,1.3,0,1,0,1.315,1.3,1.331,1.331,0,0,0-1.315-1.3" transform="translate(180 7180)"/>
    <path id="Trazado_657410" data-name="Trazado 657410" d="M317.433,84.733H279.5a.649.649,0,0,1-.607-.6v-51.3a.649.649,0,0,1,.607-.6h30.348a.53.53,0,0,1,.4.2l7.586,7.5a.758.758,0,0,1,.2.4v43.8a.649.649,0,0,1-.607.6m-37.328-1.3h36.721v-42.9l-7.284-7.1H280.105Z" transform="translate(180 7180)"/>
    <path id="Trazado_657411" data-name="Trazado 657411" d="M322.8,47.233a3.4,3.4,0,1,1,3.439-3.4,3.391,3.391,0,0,1-3.439,3.4m0-5.7a2.2,2.2,0,1,0,2.225,2.2,2.233,2.233,0,0,0-2.225-2.2" transform="translate(180 7180)"/>
    <path id="Trazado_657412" data-name="Trazado 657412" d="M291.435,77.833a.649.649,0,0,1-.607-.6v-38.2h-3.743v38.1a.607.607,0,0,1-1.214,0v-38.7a.649.649,0,0,1,.607-.6h5.058a.649.649,0,0,1,.607.6v38.8a.674.674,0,0,1-.708.6" transform="translate(180 7180)"/>
    <path id="Trazado_657413" data-name="Trazado 657413" d="M300.944,77.833a.649.649,0,0,1-.607-.6v-25.7h-3.844v25.6a.607.607,0,0,1-1.214,0v-26.2a.649.649,0,0,1,.607-.6h5.058a.649.649,0,0,1,.607.6v26.3a.579.579,0,0,1-.607.6" transform="translate(180 7180)"/>
    <path id="Trazado_657414" data-name="Trazado 657414" d="M300.944,72.833h-5.058a.6.6,0,1,1,0-1.2h5.058a.649.649,0,0,1,.607.6.579.579,0,0,1-.607.6" transform="translate(180 7180)"/>
    <path id="Trazado_657415" data-name="Trazado 657415" d="M300.944,67.833h-5.058a.6.6,0,1,1,0-1.2h5.058a.649.649,0,0,1,.607.6.579.579,0,0,1-.607.6" transform="translate(180 7180)"/>
    <path id="Trazado_657416" data-name="Trazado 657416" d="M300.944,62.833h-5.058a.6.6,0,1,1,0-1.2h5.058a.649.649,0,0,1,.607.6.579.579,0,0,1-.607.6" transform="translate(180 7180)"/>
    <path id="Trazado_657417" data-name="Trazado 657417" d="M300.944,57.833h-5.058a.6.6,0,1,1,0-1.2h5.058a.649.649,0,0,1,.607.6.579.579,0,0,1-.607.6" transform="translate(180 7180)"/>
    <path id="Trazado_657418" data-name="Trazado 657418" d="M310.453,77.833a.649.649,0,0,1-.607-.6v-18.8H306v18.8a.607.607,0,0,1-1.214,0v-19.4a.649.649,0,0,1,.607-.6h5.058a.649.649,0,0,1,.607.6v19.4a.649.649,0,0,1-.607.6" transform="translate(180 7180)"/>
    <path id="Trazado_657419" data-name="Trazado 657419" d="M310.453,72.833h-5.058a.6.6,0,1,1,0-1.2h5.058a.6.6,0,1,1,0,1.2" transform="translate(180 7180)"/>
    <path id="Trazado_657420" data-name="Trazado 657420" d="M310.453,67.833h-5.058a.6.6,0,1,1,0-1.2h5.058a.6.6,0,1,1,0,1.2" transform="translate(180 7180)"/>
    <path id="Trazado_657421" data-name="Trazado 657421" d="M310.453,62.833h-5.058a.6.6,0,1,1,0-1.2h5.058a.6.6,0,1,1,0,1.2" transform="translate(180 7180)"/>
    <path id="Trazado_657422" data-name="Trazado 657422" d="M291.435,72.833h-5.058a.6.6,0,1,1,0-1.2h5.058a.649.649,0,0,1,.607.6.58.58,0,0,1-.607.6" transform="translate(180 7180)"/>
    <path id="Trazado_657423" data-name="Trazado 657423" d="M291.435,67.833h-5.058a.6.6,0,1,1,0-1.2h5.058a.649.649,0,0,1,.607.6.58.58,0,0,1-.607.6" transform="translate(180 7180)"/>
    <path id="Trazado_657424" data-name="Trazado 657424" d="M291.435,62.833h-5.058a.6.6,0,1,1,0-1.2h5.058a.649.649,0,0,1,.607.6.58.58,0,0,1-.607.6" transform="translate(180 7180)"/>
    <path id="Trazado_657425" data-name="Trazado 657425" d="M291.435,57.833h-5.058a.6.6,0,1,1,0-1.2h5.058a.649.649,0,0,1,.607.6c.1.3-.2.6-.607.6" transform="translate(180 7180)"/>
    <path id="Trazado_657426" data-name="Trazado 657426" d="M291.435,52.833h-5.058a.6.6,0,1,1,0-1.2h5.058a.649.649,0,0,1,.607.6c.1.3-.2.6-.607.6" transform="translate(180 7180)"/>
    <path id="Trazado_657427" data-name="Trazado 657427" d="M291.435,47.833h-5.058a.6.6,0,1,1,0-1.2h5.058a.649.649,0,0,1,.607.6c.1.3-.2.6-.607.6" transform="translate(180 7180)"/>
    <path id="Trazado_657428" data-name="Trazado 657428" d="M317.433,77.833H279.5a.6.6,0,1,1,0-1.2h37.935a.6.6,0,1,1,0,1.2" transform="translate(180 7180)"/>
    <path id="Trazado_657429" data-name="Trazado 657429" d="M283.241,80.333a.649.649,0,0,1-.607-.6v-2.5a.607.607,0,0,1,1.214,0v2.5a.579.579,0,0,1-.607.6" transform="translate(180 7180)"/>
    <path id="Trazado_657430" data-name="Trazado 657430" d="M288.3,80.333a.649.649,0,0,1-.607-.6v-2.5a.607.607,0,0,1,1.214,0v2.5a.58.58,0,0,1-.607.6" transform="translate(180 7180)"/>
    <path id="Trazado_657431" data-name="Trazado 657431" d="M293.357,80.333a.649.649,0,0,1-.607-.6v-2.5a.607.607,0,0,1,1.214,0v2.5a.579.579,0,0,1-.607.6" transform="translate(180 7180)"/>
    <path id="Trazado_657432" data-name="Trazado 657432" d="M298.415,80.333a.649.649,0,0,1-.607-.6v-2.5a.607.607,0,0,1,1.214,0v2.5a.579.579,0,0,1-.607.6" transform="translate(180 7180)"/>
    <path id="Trazado_657433" data-name="Trazado 657433" d="M303.474,80.333a.649.649,0,0,1-.608-.6v-2.5a.608.608,0,0,1,1.215,0v2.5a.58.58,0,0,1-.607.6" transform="translate(180 7180)"/>
    <path id="Trazado_657434" data-name="Trazado 657434" d="M308.531,80.333a.649.649,0,0,1-.607-.6v-2.5a.607.607,0,0,1,1.214,0v2.5a.579.579,0,0,1-.607.6" transform="translate(180 7180)"/>
    <path id="Trazado_657435" data-name="Trazado 657435" d="M313.589,80.333a.649.649,0,0,1-.607-.6v-2.5a.607.607,0,0,1,1.214,0v2.5a.579.579,0,0,1-.607.6" transform="translate(180 7180)"/>
    <path id="Trazado_657436" data-name="Trazado 657436" d="M313.589,46.533h-8.194a.6.6,0,1,1,0-1.2h8.194a.649.649,0,0,1,.607.6.579.579,0,0,1-.607.6" transform="translate(180 7180)"/>
    <path id="Trazado_657437" data-name="Trazado 657437" d="M313.589,49.732h-8.194a.6.6,0,1,1,0-1.2h8.194a.649.649,0,0,1,.607.6.579.579,0,0,1-.607.6" transform="translate(180 7180)"/>
  </g>
</svg>
