<svg xmlns="http://www.w3.org/2000/svg" xmlns:xlink="http://www.w3.org/1999/xlink" width="1032.314" height="371.075" viewBox="0 0 1032.314 371.075">
  <defs>
    <clipPath id="clip-path">
      <rect id="Rect치ngulo_350460" data-name="Rect치ngulo 350460" width="1032.314" height="371.075" fill="none"/>
    </clipPath>
  </defs>
  <g id="Grupo_953327" data-name="Grupo 953327" transform="translate(-283.843 -4637)">
    <g id="Grupo_949444" data-name="Grupo 949444" transform="translate(283.843 4637)" clip-path="url(#clip-path)">
      <path id="Trazado_657270" data-name="Trazado 657270" d="M876.25,205.252c24.344,10.08,52.534-1.108,62.835-24.938s-1.121-51.422-25.465-61.5-52.533,1.106-62.834,24.935,1.123,51.427,25.464,61.506" fill="#fff"/>
      <path id="Trazado_657271" data-name="Trazado 657271" d="M639.329,209.407a46.457,46.457,0,0,0-17.838,64.033c13.113,22.467,42.451,30.293,65.406,17.452a46.458,46.458,0,0,0,17.839-64.032c-13.118-22.461-42.458-30.293-65.407-17.453" fill="#fff"/>
      <path id="Trazado_657272" data-name="Trazado 657272" d="M505.211,97.489c22.6,13.423,52.135,6.344,65.845-15.779A46.412,46.412,0,0,0,554.95,17.245C532.358,3.824,502.813,10.9,489.1,33.027a46.415,46.415,0,0,0,16.113,64.462" fill="#fff"/>
      <path id="Trazado_657273" data-name="Trazado 657273" d="M413.961,292.769c10.634-23.693-.4-51.435-24.6-61.84s-52.54.4-63.173,24.1.4,51.433,24.6,61.838,52.538-.4,63.174-24.1" fill="#fff"/>
      <path id="Trazado_657274" data-name="Trazado 657274" d="M142.129,116.933c-24.73,9.144-37.256,36.278-27.922,60.482s37.045,36.466,61.776,27.325,37.259-36.273,27.924-60.484-37.048-36.464-61.778-27.323" fill="#fff"/>
      <path id="Trazado_657275" data-name="Trazado 657275" d="M394.931,231.866c1.892-4.834,3.809-9.865,5.7-14.956l1.279.457c-1.892,5.1-3.815,10.136-5.708,14.976Z"/>
      <path id="Trazado_657276" data-name="Trazado 657276" d="M181.563,207.524c1.322,4.558,2.742,9.246,4.255,14l-1.3.4c-1.553-4.88-3.012-9.7-4.367-14.369l1.389-.006Z"/>
      <path id="Trazado_657277" data-name="Trazado 657277" d="M919.071,90.673c2.745-4.9,5.542-9.56,8.314-13.834l1.147.715c-2.756,4.249-5.538,8.878-8.268,13.759Z"/>
      <path id="Trazado_657278" data-name="Trazado 657278" d="M590.917,74.849l1.1-.775c2.993,4.112,6.011,8.616,8.979,13.384l-1.159.692c-2.955-4.743-5.957-9.218-8.925-13.3"/>
      <path id="Trazado_657279" data-name="Trazado 657279" d="M206.793,194.094c.981,1.894,1.139,4.51.249,7.71-2.478,8.887-6.527,23.425-9,32.311s-10.927,12.009-18.781,6.945-20.709-13.358-28.563-18.427c-2.829-1.823-4.477-3.892-5.019-5.949A58.15,58.15,0,0,1,104.238,181.1c-11.426-29.639,3.854-62.73,34.13-73.923s64.081,3.767,75.5,33.4a56.3,56.3,0,0,1-7.079,53.519m-64.664-77.161c-24.73,9.144-37.256,36.278-27.922,60.482s37.045,36.466,61.776,27.325,37.259-36.273,27.924-60.484-37.048-36.464-61.778-27.323" fill="#b61c1c"/>
      <path id="Trazado_657280" data-name="Trazado 657280" d="M423.711,296.963c-13.016,29-47.586,42.188-77.21,29.451s-43.092-46.577-30.071-75.585a58.358,58.358,0,0,1,43.31-33.394c.653-2.024,2.409-4,5.335-5.682,8.12-4.654,21.4-12.267,29.522-16.922s16.387-1.1,18.377,7.9,5.246,23.728,7.238,32.729c.717,3.241.416,5.849-.665,7.69a56.253,56.253,0,0,1,4.164,53.81m-9.75-4.194c10.634-23.693-.4-51.435-24.6-61.84s-52.54.4-63.173,24.1.4,51.433,24.6,61.838,52.538-.4,63.174-24.1" fill="#fb8c00"/>
      <path id="Trazado_657281" data-name="Trazado 657281" d="M883.817,105.712c.624-2.034,2.355-4.036,5.255-5.752,8.05-4.76,21.226-12.553,29.287-17.314s16.369-1.316,18.484,7.655,5.579,23.658,7.689,32.629c.765,3.228.5,5.841-.555,7.7a56.279,56.279,0,0,1,4.92,53.747c-12.616,29.178-47,42.822-76.795,30.481s-43.733-46-31.125-75.171a58.314,58.314,0,0,1,42.84-33.974m-7.567,99.54c24.344,10.08,52.534-1.108,62.835-24.938s-1.121-51.422-25.465-61.5-52.533,1.106-62.834,24.935,1.123,51.427,25.464,61.506" fill="#283593"/>
      <path id="Trazado_657282" data-name="Trazado 657282" d="M499.681,106.406C472.02,89.978,463.2,54.7,479.992,27.618S532.811-8.1,560.483,8.328a57.11,57.11,0,0,1,28.129,46.405c1.969.9,3.741,2.865,5.056,5.923,3.644,8.484,9.613,22.376,13.26,30.865s-1.039,16.048-10.414,16.8-24.72,1.982-34.1,2.739c-3.379.269-5.975-.366-7.7-1.656a59.624,59.624,0,0,1-55.037-3m5.53-8.917c22.6,13.423,52.135,6.344,65.845-15.779A46.412,46.412,0,0,0,554.95,17.245C532.358,3.824,502.813,10.9,489.1,33.027a46.415,46.415,0,0,0,16.113,64.462" fill="#ffca00"/>
      <path id="Trazado_657283" data-name="Trazado 657283" d="M1032.174,55.973,1029.45,45.15l-2.727-10.824-7.544,6.451-7.542,6.449L1021.9,51.6Z" fill="#12263f"/>
    </g>
    <path id="Trazado_662714" data-name="Trazado 662714" d="M22.017,0H14.073V-30.621L4.59-27.679v-6.459l16.575-5.937h.852Z" transform="translate(426.75 4814.288)" fill="#b61c1c"/>
    <path id="Trazado_662717" data-name="Trazado 662717" d="M30.153,0H2.721V-5.442l12.946-13.8a31.939,31.939,0,0,0,3.944-5.085,8.17,8.17,0,0,0,1.278-4.123,6.113,6.113,0,0,0-1.347-4.192A4.862,4.862,0,0,0,15.7-34.166a5.244,5.244,0,0,0-4.247,1.855A7.349,7.349,0,0,0,9.9-27.432H1.924A13.12,13.12,0,0,1,3.67-34.111,12.3,12.3,0,0,1,8.6-38.853a15,15,0,0,1,7.229-1.718q6.185,0,9.607,2.969t3.422,8.384a13.456,13.456,0,0,1-1.539,6.047A33.6,33.6,0,0,1,22.045-16L12.946-6.4H30.153Z" transform="translate(637.794 4927.325)" fill="#fb8c00"/>
    <path id="Trazado_662720" data-name="Trazado 662720" d="M10.8-23.529h4.233a5.965,5.965,0,0,0,4.48-1.512,5.54,5.54,0,0,0,1.457-4.013A4.9,4.9,0,0,0,19.53-32.82a5.593,5.593,0,0,0-3.972-1.347,5.862,5.862,0,0,0-3.821,1.251A4,4,0,0,0,10.2-29.659H2.254a9.769,9.769,0,0,1,1.69-5.621,11.265,11.265,0,0,1,4.728-3.889,15.779,15.779,0,0,1,6.693-1.4q6.35,0,9.95,3.037a10.363,10.363,0,0,1,3.6,8.37,8.421,8.421,0,0,1-1.677,5.058,10.893,10.893,0,0,1-4.4,3.546,9.944,9.944,0,0,1,5.044,3.628,9.842,9.842,0,0,1,1.663,5.717,10.535,10.535,0,0,1-3.889,8.548Q21.77.55,15.365.55a14.828,14.828,0,0,1-9.8-3.161,10.323,10.323,0,0,1-3.807-8.356H9.7a4.6,4.6,0,0,0,1.69,3.683,6.229,6.229,0,0,0,4.164,1.429A6.259,6.259,0,0,0,20-7.353,5.171,5.171,0,0,0,21.6-11.325q0-5.992-6.6-5.992H10.8Z" transform="translate(797.78 4711.102)" fill="#ffca00"/>
    <path id="Trazado_662723" data-name="Trazado 662723" d="M26.223-15.063h4.535v6.4H26.223V0H18.279V-8.658H1.869l-.357-5L18.2-40.021h8.026Zm-16.795,0h8.851V-29.191l-.522.907Z" transform="translate(928.269 4900.924)" fill="#00acc2"/>
    <path id="Trazado_662726" data-name="Trazado 662726" d="M3.9-19.681l2.309-20.34H28.642V-33.4H12.727l-.99,8.6a12.594,12.594,0,0,1,6.02-1.512q5.717,0,8.961,3.546t3.243,9.923A14.51,14.51,0,0,1,28.325-5.9a11.543,11.543,0,0,1-4.687,4.755,14.63,14.63,0,0,1-7.2,1.69A15.536,15.536,0,0,1,9.7-.921,11.945,11.945,0,0,1,4.8-5.058a11.275,11.275,0,0,1-1.91-6.075h7.861a5.872,5.872,0,0,0,1.745,3.889A5.534,5.534,0,0,0,16.41-5.855,4.884,4.884,0,0,0,20.56-7.793a8.977,8.977,0,0,0,1.457-5.484A7.423,7.423,0,0,0,20.34-18.5a6.153,6.153,0,0,0-4.755-1.814,6.876,6.876,0,0,0-4.59,1.484l-.77.715Z" transform="translate(1162.618 4815.357)" fill="#283593"/>
    <path id="Trazado_662715" data-name="Trazado 662715" d="M11.188-4.263A4.528,4.528,0,0,1,9.664-1.011,5.355,5.355,0,0,1,6.038.176,4.816,4.816,0,0,1,2.167-1.481,6.793,6.793,0,0,1,.756-6.029v-.782a7.671,7.671,0,0,1,.65-3.252,4.874,4.874,0,0,1,1.859-2.158,5.207,5.207,0,0,1,2.808-.751,5.217,5.217,0,0,1,3.568,1.187,4.866,4.866,0,0,1,1.564,3.331H8.569a2.673,2.673,0,0,0-.69-1.8,2.555,2.555,0,0,0-1.806-.558A2.24,2.24,0,0,0,4.1-9.866a5.3,5.3,0,0,0-.672,2.931v.967a5.667,5.667,0,0,0,.628,3.032,2.2,2.2,0,0,0,1.982.958,2.6,2.6,0,0,0,1.824-.558,2.521,2.521,0,0,0,.69-1.727ZM18.264,0a2.821,2.821,0,0,1-.255-.853,3.073,3.073,0,0,1-2.4,1.028,3.376,3.376,0,0,1-2.316-.809,2.6,2.6,0,0,1-.918-2.039A2.687,2.687,0,0,1,13.5-4.992a5.529,5.529,0,0,1,3.239-.817H17.9v-.545a1.567,1.567,0,0,0-.338-1.055A1.331,1.331,0,0,0,16.5-7.8a1.513,1.513,0,0,0-1.006.308,1.045,1.045,0,0,0-.365.844h-2.54a2.551,2.551,0,0,1,.51-1.529,3.37,3.37,0,0,1,1.441-1.1,5.253,5.253,0,0,1,2.092-.4,4.15,4.15,0,0,1,2.791.883,3.09,3.09,0,0,1,1.033,2.483V-2.2A4.546,4.546,0,0,0,20.83-.149V0Zm-2.1-1.767a2.188,2.188,0,0,0,1.037-.25,1.645,1.645,0,0,0,.7-.672V-4.324h-.949q-1.907,0-2.03,1.318l-.009.149a1.017,1.017,0,0,0,.334.782A1.3,1.3,0,0,0,16.163-1.767ZM24.741-9.51l.079,1.1a3.32,3.32,0,0,1,2.733-1.274A2.759,2.759,0,0,1,29.8-8.8a4.142,4.142,0,0,1,.756,2.654V0H28.02V-6.082a1.648,1.648,0,0,0-.352-1.173A1.574,1.574,0,0,0,26.5-7.62a1.747,1.747,0,0,0-1.608.914V0h-2.54V-9.51Zm10.784-2.338V-9.51h1.626v1.863H35.525V-2.9a1.133,1.133,0,0,0,.2.756,1.015,1.015,0,0,0,.773.229,4.051,4.051,0,0,0,.747-.062V-.053A5.229,5.229,0,0,1,35.71.176a2.425,2.425,0,0,1-2.725-2.7V-7.646H31.6V-9.51h1.389v-2.338ZM41.247,0H38.7V-9.51h2.549Zm-2.7-11.971a1.251,1.251,0,0,1,.382-.94,1.436,1.436,0,0,1,1.042-.369,1.44,1.44,0,0,1,1.037.369,1.244,1.244,0,0,1,.387.94,1.247,1.247,0,0,1-.391.949,1.443,1.443,0,0,1-1.033.369,1.443,1.443,0,0,1-1.033-.369A1.247,1.247,0,0,1,38.549-11.971Zm4.395,7.146a5.731,5.731,0,0,1,1-3.542A3.237,3.237,0,0,1,46.67-9.686a2.913,2.913,0,0,1,2.294,1.037V-13.5h2.549V0H49.219L49.1-1.011A2.989,2.989,0,0,1,46.652.176a3.228,3.228,0,0,1-2.694-1.323A5.916,5.916,0,0,1,42.943-4.825Zm2.54.189a3.754,3.754,0,0,0,.466,2.051,1.517,1.517,0,0,0,1.354.713,1.7,1.7,0,0,0,1.661-.995V-6.625A1.675,1.675,0,0,0,47.32-7.62Q45.483-7.62,45.483-4.636ZM58.992,0a2.821,2.821,0,0,1-.255-.853,3.073,3.073,0,0,1-2.4,1.028,3.376,3.376,0,0,1-2.316-.809A2.6,2.6,0,0,1,53.1-2.672a2.687,2.687,0,0,1,1.121-2.32,5.529,5.529,0,0,1,3.239-.817h1.169v-.545a1.567,1.567,0,0,0-.338-1.055,1.331,1.331,0,0,0-1.068-.4,1.513,1.513,0,0,0-1.006.308,1.045,1.045,0,0,0-.365.844h-2.54a2.551,2.551,0,0,1,.51-1.529,3.37,3.37,0,0,1,1.441-1.1,5.253,5.253,0,0,1,2.092-.4,4.15,4.15,0,0,1,2.791.883,3.09,3.09,0,0,1,1.033,2.483V-2.2a4.546,4.546,0,0,0,.378,2.048V0Zm-2.1-1.767a2.188,2.188,0,0,0,1.037-.25,1.645,1.645,0,0,0,.7-.672V-4.324h-.949q-1.907,0-2.03,1.318l-.009.149a1.017,1.017,0,0,0,.334.782A1.3,1.3,0,0,0,56.892-1.767Zm5.845-3.059a5.731,5.731,0,0,1,1-3.542,3.237,3.237,0,0,1,2.729-1.318,2.913,2.913,0,0,1,2.294,1.037V-13.5h2.549V0H69.012l-.123-1.011A2.989,2.989,0,0,1,66.445.176a3.228,3.228,0,0,1-2.694-1.323A5.916,5.916,0,0,1,62.736-4.825Zm2.54.189a3.754,3.754,0,0,0,.466,2.051,1.517,1.517,0,0,0,1.354.713,1.7,1.7,0,0,0,1.661-.995V-6.625a1.675,1.675,0,0,0-1.644-.995Q65.276-7.62,65.276-4.636Zm12.085-.189a5.731,5.731,0,0,1,1-3.542,3.237,3.237,0,0,1,2.729-1.318,2.913,2.913,0,0,1,2.294,1.037V-13.5h2.549V0H83.637l-.123-1.011A2.989,2.989,0,0,1,81.07.176a3.228,3.228,0,0,1-2.694-1.323A5.916,5.916,0,0,1,77.361-4.825Zm2.54.189a3.754,3.754,0,0,0,.466,2.051,1.517,1.517,0,0,0,1.354.713,1.7,1.7,0,0,0,1.661-.995V-6.625a1.675,1.675,0,0,0-1.644-.995Q79.9-7.62,79.9-4.636ZM92.276.176a4.668,4.668,0,0,1-3.406-1.283,4.561,4.561,0,0,1-1.314-3.419v-.246a5.745,5.745,0,0,1,.554-2.562,4.064,4.064,0,0,1,1.569-1.74A4.4,4.4,0,0,1,92-9.686a3.947,3.947,0,0,1,3.072,1.23,5,5,0,0,1,1.121,3.489v1.037H90.132a2.36,2.36,0,0,0,.743,1.494,2.245,2.245,0,0,0,1.569.563,2.742,2.742,0,0,0,2.294-1.063l1.248,1.4A3.813,3.813,0,0,1,94.438-.277,5.075,5.075,0,0,1,92.276.176Zm-.29-7.813a1.587,1.587,0,0,0-1.226.512,2.651,2.651,0,0,0-.6,1.466h3.533v-.2a1.891,1.891,0,0,0-.457-1.311A1.638,1.638,0,0,0,91.986-7.638Z" transform="translate(573.279 4792.296)" fill="#12263f"/>
    <path id="Trazado_662716" data-name="Trazado 662716" d="M4.017-11.848V-9.51H5.643v1.863H4.017V-2.9a1.133,1.133,0,0,0,.2.756,1.015,1.015,0,0,0,.773.229,4.051,4.051,0,0,0,.747-.062V-.053A5.229,5.229,0,0,1,4.2.176a2.425,2.425,0,0,1-2.725-2.7V-7.646H.088V-9.51H1.477v-2.338ZM12.568,0a2.821,2.821,0,0,1-.255-.853A3.073,3.073,0,0,1,9.914.176,3.376,3.376,0,0,1,7.6-.633,2.6,2.6,0,0,1,6.68-2.672,2.687,2.687,0,0,1,7.8-4.992a5.529,5.529,0,0,1,3.239-.817h1.169v-.545a1.567,1.567,0,0,0-.338-1.055A1.331,1.331,0,0,0,10.8-7.8,1.513,1.513,0,0,0,9.8-7.5a1.045,1.045,0,0,0-.365.844H6.891A2.551,2.551,0,0,1,7.4-8.183a3.37,3.37,0,0,1,1.441-1.1,5.253,5.253,0,0,1,2.092-.4,4.15,4.15,0,0,1,2.791.883,3.09,3.09,0,0,1,1.033,2.483V-2.2a4.546,4.546,0,0,0,.378,2.048V0Zm-2.1-1.767a2.188,2.188,0,0,0,1.037-.25,1.645,1.645,0,0,0,.7-.672V-4.324h-.949q-1.907,0-2.03,1.318l-.009.149a1.017,1.017,0,0,0,.334.782A1.3,1.3,0,0,0,10.468-1.767ZM22.052-7.128a6.9,6.9,0,0,0-.914-.07,1.86,1.86,0,0,0-1.89.976V0h-2.54V-9.51h2.4l.07,1.134A2.354,2.354,0,0,1,21.3-9.686a2.662,2.662,0,0,1,.791.114ZM25.963-9.51V.519a3.4,3.4,0,0,1-.835,2.448,3.174,3.174,0,0,1-2.408.875,5.165,5.165,0,0,1-1.257-.149V1.679a4.768,4.768,0,0,0,.8.079q1.151,0,1.151-1.222V-9.51Zm-2.751-2.461a1.251,1.251,0,0,1,.382-.94,1.436,1.436,0,0,1,1.042-.369,1.436,1.436,0,0,1,1.042.369,1.251,1.251,0,0,1,.382.94,1.247,1.247,0,0,1-.391.949,1.443,1.443,0,0,1-1.033.369,1.443,1.443,0,0,1-1.033-.369A1.247,1.247,0,0,1,23.212-11.971ZM32.326.176A4.668,4.668,0,0,1,28.92-1.107a4.561,4.561,0,0,1-1.314-3.419v-.246a5.745,5.745,0,0,1,.554-2.562,4.064,4.064,0,0,1,1.569-1.74,4.4,4.4,0,0,1,2.316-.611,3.947,3.947,0,0,1,3.072,1.23,5,5,0,0,1,1.121,3.489v1.037H30.182a2.36,2.36,0,0,0,.743,1.494,2.245,2.245,0,0,0,1.569.563,2.742,2.742,0,0,0,2.294-1.063l1.248,1.4A3.813,3.813,0,0,1,34.488-.277,5.075,5.075,0,0,1,32.326.176Zm-.29-7.813a1.587,1.587,0,0,0-1.226.512,2.651,2.651,0,0,0-.6,1.466h3.533v-.2a1.891,1.891,0,0,0-.457-1.311A1.638,1.638,0,0,0,32.036-7.638Zm8.684-4.21V-9.51h1.626v1.863H40.72V-2.9a1.133,1.133,0,0,0,.2.756,1.015,1.015,0,0,0,.773.229,4.051,4.051,0,0,0,.747-.062V-.053A5.229,5.229,0,0,1,40.9.176a2.425,2.425,0,0,1-2.725-2.7V-7.646H36.791V-9.51H38.18v-2.338ZM49.271,0a2.821,2.821,0,0,1-.255-.853,3.073,3.073,0,0,1-2.4,1.028A3.376,3.376,0,0,1,44.3-.633a2.6,2.6,0,0,1-.918-2.039A2.687,2.687,0,0,1,44.5-4.992a5.529,5.529,0,0,1,3.239-.817h1.169v-.545a1.567,1.567,0,0,0-.338-1.055A1.331,1.331,0,0,0,47.5-7.8,1.513,1.513,0,0,0,46.5-7.5a1.045,1.045,0,0,0-.365.844h-2.54a2.551,2.551,0,0,1,.51-1.529,3.37,3.37,0,0,1,1.441-1.1,5.253,5.253,0,0,1,2.092-.4,4.15,4.15,0,0,1,2.791.883A3.09,3.09,0,0,1,51.46-6.319V-2.2a4.546,4.546,0,0,0,.378,2.048V0Zm-2.1-1.767a2.188,2.188,0,0,0,1.037-.25,1.645,1.645,0,0,0,.7-.672V-4.324h-.949q-1.907,0-2.03,1.318l-.009.149a1.017,1.017,0,0,0,.334.782A1.3,1.3,0,0,0,47.171-1.767Zm11.391-.861a.818.818,0,0,0-.461-.734,5.241,5.241,0,0,0-1.481-.479q-3.393-.712-3.393-2.883a2.613,2.613,0,0,1,1.05-2.114,4.237,4.237,0,0,1,2.747-.848,4.56,4.56,0,0,1,2.9.853A2.687,2.687,0,0,1,61-6.618h-2.54a1.229,1.229,0,0,0-.352-.9,1.488,1.488,0,0,0-1.1-.356,1.52,1.52,0,0,0-.993.29.916.916,0,0,0-.352.738.783.783,0,0,0,.4.681,4.114,4.114,0,0,0,1.349.448,11.019,11.019,0,0,1,1.6.426,2.628,2.628,0,0,1,2.013,2.558,2.481,2.481,0,0,1-1.116,2.1,4.815,4.815,0,0,1-2.883.8A5.029,5.029,0,0,1,54.91-.25a3.561,3.561,0,0,1-1.455-1.169,2.716,2.716,0,0,1-.527-1.6h2.408a1.326,1.326,0,0,0,.5,1.037,1.987,1.987,0,0,0,1.248.36,1.839,1.839,0,0,0,1.1-.277A.861.861,0,0,0,58.562-2.628Z" transform="translate(573.279 4813.896)" fill="#12263f"/>
    <path id="Trazado_662718" data-name="Trazado 662718" d="M1.143,0V-12.8H5.625a5.886,5.886,0,0,1,3.533.892,3.05,3.05,0,0,1,1.2,2.615,2.891,2.891,0,0,1-.483,1.657,2.792,2.792,0,0,1-1.345,1.05,2.7,2.7,0,0,1,1.551.993,2.936,2.936,0,0,1,.567,1.828A3.377,3.377,0,0,1,9.475-.967,5.3,5.3,0,0,1,6.117,0ZM3.779-5.572v3.454H6.038a2.18,2.18,0,0,0,1.455-.444,1.522,1.522,0,0,0,.523-1.226A1.607,1.607,0,0,0,6.2-5.572Zm0-1.863H5.73q2-.035,2-1.591a1.47,1.47,0,0,0-.505-1.252,2.658,2.658,0,0,0-1.6-.382H3.779Zm8.288,2.593a5.64,5.64,0,0,1,.545-2.522,3.989,3.989,0,0,1,1.569-1.714,4.577,4.577,0,0,1,2.377-.606A4.33,4.33,0,0,1,19.7-8.508a4.727,4.727,0,0,1,1.358,3.2l.018.65a4.97,4.97,0,0,1-1.222,3.511A4.247,4.247,0,0,1,16.576.176a4.268,4.268,0,0,1-3.283-1.318,5.058,5.058,0,0,1-1.226-3.586Zm2.54.18a3.555,3.555,0,0,0,.51,2.073,1.682,1.682,0,0,0,1.459.717,1.686,1.686,0,0,0,1.441-.709,3.89,3.89,0,0,0,.519-2.267,3.519,3.519,0,0,0-.519-2.06,1.686,1.686,0,0,0-1.459-.731,1.658,1.658,0,0,0-1.441.726A3.955,3.955,0,0,0,14.607-4.662ZM27.984-7.128a6.9,6.9,0,0,0-.914-.07,1.86,1.86,0,0,0-1.89.976V0h-2.54V-9.51h2.4l.07,1.134a2.354,2.354,0,0,1,2.118-1.31,2.662,2.662,0,0,1,.791.114Zm.515,2.3a5.731,5.731,0,0,1,1-3.542,3.237,3.237,0,0,1,2.729-1.318A2.913,2.913,0,0,1,34.52-8.648V-13.5h2.549V0H34.775l-.123-1.011A2.989,2.989,0,0,1,32.209.176a3.228,3.228,0,0,1-2.694-1.323A5.916,5.916,0,0,1,28.5-4.825Zm2.54.189a3.754,3.754,0,0,0,.466,2.051,1.517,1.517,0,0,0,1.354.713,1.7,1.7,0,0,0,1.661-.995V-6.625a1.675,1.675,0,0,0-1.644-.995Q31.04-7.62,31.04-4.636ZM43.415.176a4.668,4.668,0,0,1-3.406-1.283,4.561,4.561,0,0,1-1.314-3.419v-.246a5.745,5.745,0,0,1,.554-2.562,4.064,4.064,0,0,1,1.569-1.74,4.4,4.4,0,0,1,2.316-.611,3.947,3.947,0,0,1,3.072,1.23,5,5,0,0,1,1.121,3.489v1.037H41.27a2.36,2.36,0,0,0,.743,1.494,2.245,2.245,0,0,0,1.569.563,2.742,2.742,0,0,0,2.294-1.063l1.248,1.4A3.813,3.813,0,0,1,45.577-.277,5.075,5.075,0,0,1,43.415.176Zm-.29-7.813a1.587,1.587,0,0,0-1.226.512,2.651,2.651,0,0,0-.6,1.466H44.83v-.2a1.891,1.891,0,0,0-.457-1.311A1.638,1.638,0,0,0,43.125-7.638Zm10.793,5.01a.818.818,0,0,0-.461-.734,5.241,5.241,0,0,0-1.481-.479q-3.393-.712-3.393-2.883a2.613,2.613,0,0,1,1.05-2.114,4.237,4.237,0,0,1,2.747-.848,4.56,4.56,0,0,1,2.9.853,2.687,2.687,0,0,1,1.085,2.215h-2.54a1.229,1.229,0,0,0-.352-.9,1.488,1.488,0,0,0-1.1-.356,1.52,1.52,0,0,0-.993.29.916.916,0,0,0-.352.738.783.783,0,0,0,.4.681,4.114,4.114,0,0,0,1.349.448,11.019,11.019,0,0,1,1.6.426,2.628,2.628,0,0,1,2.013,2.558,2.481,2.481,0,0,1-1.116,2.1,4.815,4.815,0,0,1-2.883.8A5.029,5.029,0,0,1,50.266-.25a3.561,3.561,0,0,1-1.455-1.169,2.716,2.716,0,0,1-.527-1.6h2.408a1.326,1.326,0,0,0,.5,1.037,1.987,1.987,0,0,0,1.248.36,1.839,1.839,0,0,0,1.1-.277A.861.861,0,0,0,53.918-2.628Zm8.191-2.2a5.731,5.731,0,0,1,1-3.542,3.237,3.237,0,0,1,2.729-1.318,2.913,2.913,0,0,1,2.294,1.037V-13.5h2.549V0H68.384l-.123-1.011A2.989,2.989,0,0,1,65.818.176a3.228,3.228,0,0,1-2.694-1.323A5.916,5.916,0,0,1,62.109-4.825Zm2.54.189a3.754,3.754,0,0,0,.466,2.051,1.517,1.517,0,0,0,1.354.713,1.7,1.7,0,0,0,1.661-.995V-6.625a1.675,1.675,0,0,0-1.644-.995Q64.649-7.62,64.649-4.636ZM77.024.176a4.668,4.668,0,0,1-3.406-1.283A4.561,4.561,0,0,1,72.3-4.526v-.246a5.745,5.745,0,0,1,.554-2.562,4.064,4.064,0,0,1,1.569-1.74,4.4,4.4,0,0,1,2.316-.611,3.947,3.947,0,0,1,3.072,1.23,5,5,0,0,1,1.121,3.489v1.037H74.879a2.36,2.36,0,0,0,.743,1.494,2.245,2.245,0,0,0,1.569.563,2.742,2.742,0,0,0,2.294-1.063l1.248,1.4A3.813,3.813,0,0,1,79.186-.277,5.075,5.075,0,0,1,77.024.176Zm-.29-7.813a1.587,1.587,0,0,0-1.226.512,2.651,2.651,0,0,0-.6,1.466h3.533v-.2a1.891,1.891,0,0,0-.457-1.311A1.638,1.638,0,0,0,76.734-7.638Z" transform="translate(788.595 4904.059)" fill="#12263f"/>
    <path id="Trazado_662719" data-name="Trazado 662719" d="M6.126-2.628a.818.818,0,0,0-.461-.734,5.241,5.241,0,0,0-1.481-.479Q.791-4.553.791-6.724a2.613,2.613,0,0,1,1.05-2.114,4.237,4.237,0,0,1,2.747-.848,4.56,4.56,0,0,1,2.9.853A2.687,2.687,0,0,1,8.569-6.618H6.029a1.229,1.229,0,0,0-.352-.9,1.488,1.488,0,0,0-1.1-.356,1.52,1.52,0,0,0-.993.29.916.916,0,0,0-.352.738.783.783,0,0,0,.4.681,4.114,4.114,0,0,0,1.349.448,11.019,11.019,0,0,1,1.6.426A2.628,2.628,0,0,1,8.6-2.733a2.481,2.481,0,0,1-1.116,2.1A4.815,4.815,0,0,1,4.6.176,5.029,5.029,0,0,1,2.474-.25,3.561,3.561,0,0,1,1.02-1.419a2.716,2.716,0,0,1-.527-1.6H2.9a1.326,1.326,0,0,0,.5,1.037,1.987,1.987,0,0,0,1.248.36,1.839,1.839,0,0,0,1.1-.277A.861.861,0,0,0,6.126-2.628Zm9.8,1.661a3.185,3.185,0,0,1-2.6,1.143A3,3,0,0,1,10.991-.7a3.752,3.752,0,0,1-.822-2.575V-9.51h2.54v6.151q0,1.487,1.354,1.487a1.834,1.834,0,0,0,1.775-.9V-9.51h2.549V0H16ZM22.992-9.51V.519a3.4,3.4,0,0,1-.835,2.448,3.174,3.174,0,0,1-2.408.875,5.165,5.165,0,0,1-1.257-.149V1.679a4.768,4.768,0,0,0,.8.079q1.151,0,1.151-1.222V-9.51Zm-2.751-2.461a1.251,1.251,0,0,1,.382-.94,1.436,1.436,0,0,1,1.042-.369,1.436,1.436,0,0,1,1.042.369,1.251,1.251,0,0,1,.382.94,1.247,1.247,0,0,1-.391.949,1.443,1.443,0,0,1-1.033.369,1.443,1.443,0,0,1-1.033-.369A1.247,1.247,0,0,1,20.241-11.971ZM29.355.176A4.668,4.668,0,0,1,25.95-1.107a4.561,4.561,0,0,1-1.314-3.419v-.246a5.745,5.745,0,0,1,.554-2.562,4.064,4.064,0,0,1,1.569-1.74,4.4,4.4,0,0,1,2.316-.611,3.947,3.947,0,0,1,3.072,1.23,5,5,0,0,1,1.121,3.489v1.037H27.211a2.36,2.36,0,0,0,.743,1.494,2.245,2.245,0,0,0,1.569.563,2.742,2.742,0,0,0,2.294-1.063l1.248,1.4A3.813,3.813,0,0,1,31.518-.277,5.075,5.075,0,0,1,29.355.176Zm-.29-7.813a1.587,1.587,0,0,0-1.226.512,2.651,2.651,0,0,0-.6,1.466h3.533v-.2a1.891,1.891,0,0,0-.457-1.311A1.638,1.638,0,0,0,29.065-7.638Zm9.6,5.766a1.666,1.666,0,0,0,1.143-.387,1.355,1.355,0,0,0,.457-1.028h2.382a3.258,3.258,0,0,1-.527,1.771A3.48,3.48,0,0,1,40.7-.268a4.442,4.442,0,0,1-1.991.444,4.129,4.129,0,0,1-3.217-1.3A5.13,5.13,0,0,1,34.313-4.7v-.167a5.071,5.071,0,0,1,1.169-3.507,4.08,4.08,0,0,1,3.208-1.31A4,4,0,0,1,41.55-8.67a3.594,3.594,0,0,1,1.094,2.7H40.263a1.745,1.745,0,0,0-.457-1.206,1.524,1.524,0,0,0-1.16-.464,1.53,1.53,0,0,0-1.34.647,3.749,3.749,0,0,0-.453,2.1v.264A3.8,3.8,0,0,0,37.3-2.515,1.549,1.549,0,0,0,38.663-1.872ZM46.775,0H44.227V-9.51h2.549Zm-2.7-11.971a1.251,1.251,0,0,1,.382-.94A1.436,1.436,0,0,1,45.5-13.28a1.44,1.44,0,0,1,1.037.369,1.244,1.244,0,0,1,.387.94,1.247,1.247,0,0,1-.391.949,1.443,1.443,0,0,1-1.033.369,1.443,1.443,0,0,1-1.033-.369A1.247,1.247,0,0,1,44.077-11.971Zm4.395,7.128a5.64,5.64,0,0,1,.545-2.522,3.989,3.989,0,0,1,1.569-1.714,4.577,4.577,0,0,1,2.377-.606A4.33,4.33,0,0,1,56.1-8.508a4.727,4.727,0,0,1,1.358,3.2l.018.65a4.97,4.97,0,0,1-1.222,3.511A4.247,4.247,0,0,1,52.98.176,4.268,4.268,0,0,1,49.7-1.143a5.058,5.058,0,0,1-1.226-3.586Zm2.54.18a3.555,3.555,0,0,0,.51,2.073,1.682,1.682,0,0,0,1.459.717,1.686,1.686,0,0,0,1.441-.709,3.89,3.89,0,0,0,.519-2.267,3.519,3.519,0,0,0-.519-2.06,1.686,1.686,0,0,0-1.459-.731,1.658,1.658,0,0,0-1.441.726A3.955,3.955,0,0,0,51.012-4.662ZM53.464-13.5h2.769L53.8-10.775H51.732Zm7.919,3.99.079,1.1A3.32,3.32,0,0,1,64.2-9.686a2.759,2.759,0,0,1,2.25.888A4.142,4.142,0,0,1,67.2-6.144V0h-2.54V-6.082a1.648,1.648,0,0,0-.352-1.173,1.574,1.574,0,0,0-1.169-.365,1.747,1.747,0,0,0-1.608.914V0h-2.54V-9.51Z" transform="translate(788.595 4925.658)" fill="#12263f"/>
    <path id="Trazado_662725" data-name="Trazado 662725" d="M3.779-4.509V0H1.143V-12.8H6.135a5.776,5.776,0,0,1,2.536.527,3.886,3.886,0,0,1,1.683,1.5,4.178,4.178,0,0,1,.589,2.21A3.674,3.674,0,0,1,9.655-5.594,5.363,5.363,0,0,1,6.091-4.509Zm0-2.136H6.135a2.316,2.316,0,0,0,1.6-.492,1.79,1.79,0,0,0,.549-1.406,2.111,2.111,0,0,0-.554-1.521,2.068,2.068,0,0,0-1.529-.6H3.779Zm14.15-.483a6.9,6.9,0,0,0-.914-.07,1.86,1.86,0,0,0-1.89.976V0h-2.54V-9.51h2.4l.07,1.134a2.354,2.354,0,0,1,2.118-1.31,2.662,2.662,0,0,1,.791.114Zm.2,2.285a5.64,5.64,0,0,1,.545-2.522,3.989,3.989,0,0,1,1.569-1.714,4.577,4.577,0,0,1,2.377-.606,4.33,4.33,0,0,1,3.142,1.178,4.727,4.727,0,0,1,1.358,3.2l.018.65a4.97,4.97,0,0,1-1.222,3.511A4.247,4.247,0,0,1,22.642.176,4.268,4.268,0,0,1,19.36-1.143a5.058,5.058,0,0,1-1.226-3.586Zm2.54.18a3.555,3.555,0,0,0,.51,2.073,1.682,1.682,0,0,0,1.459.717,1.686,1.686,0,0,0,1.441-.709A3.89,3.89,0,0,0,24.6-4.847a3.519,3.519,0,0,0-.519-2.06,1.686,1.686,0,0,0-1.459-.731,1.658,1.658,0,0,0-1.441.726A3.955,3.955,0,0,0,20.673-4.662Zm11.988,2.79A1.666,1.666,0,0,0,33.8-2.259a1.355,1.355,0,0,0,.457-1.028h2.382a3.258,3.258,0,0,1-.527,1.771A3.48,3.48,0,0,1,34.7-.268a4.442,4.442,0,0,1-1.991.444,4.129,4.129,0,0,1-3.217-1.3A5.13,5.13,0,0,1,28.311-4.7v-.167A5.071,5.071,0,0,1,29.48-8.376a4.08,4.08,0,0,1,3.208-1.31A4,4,0,0,1,35.549-8.67a3.594,3.594,0,0,1,1.094,2.7H34.261A1.745,1.745,0,0,0,33.8-7.174a1.524,1.524,0,0,0-1.16-.464,1.53,1.53,0,0,0-1.34.647,3.749,3.749,0,0,0-.453,2.1v.264A3.8,3.8,0,0,0,31.3-2.515,1.549,1.549,0,0,0,32.662-1.872ZM42.47.176a4.668,4.668,0,0,1-3.406-1.283,4.561,4.561,0,0,1-1.314-3.419v-.246A5.745,5.745,0,0,1,38.3-7.334a4.064,4.064,0,0,1,1.569-1.74,4.4,4.4,0,0,1,2.316-.611,3.947,3.947,0,0,1,3.072,1.23,5,5,0,0,1,1.121,3.489v1.037H40.326a2.36,2.36,0,0,0,.743,1.494,2.245,2.245,0,0,0,1.569.563,2.742,2.742,0,0,0,2.294-1.063l1.248,1.4A3.813,3.813,0,0,1,44.632-.277,5.075,5.075,0,0,1,42.47.176Zm-.29-7.813a1.587,1.587,0,0,0-1.226.512,2.651,2.651,0,0,0-.6,1.466h3.533v-.2a1.891,1.891,0,0,0-.457-1.311A1.638,1.638,0,0,0,42.18-7.638Zm10.793,5.01a.818.818,0,0,0-.461-.734,5.241,5.241,0,0,0-1.481-.479q-3.393-.712-3.393-2.883a2.613,2.613,0,0,1,1.05-2.114,4.237,4.237,0,0,1,2.747-.848,4.56,4.56,0,0,1,2.9.853,2.687,2.687,0,0,1,1.085,2.215h-2.54a1.229,1.229,0,0,0-.352-.9,1.488,1.488,0,0,0-1.1-.356,1.52,1.52,0,0,0-.993.29.916.916,0,0,0-.352.738.783.783,0,0,0,.4.681,4.114,4.114,0,0,0,1.349.448,11.019,11.019,0,0,1,1.6.426,2.628,2.628,0,0,1,2.013,2.558,2.481,2.481,0,0,1-1.116,2.1,4.815,4.815,0,0,1-2.883.8A5.029,5.029,0,0,1,49.321-.25a3.561,3.561,0,0,1-1.455-1.169,2.716,2.716,0,0,1-.527-1.6h2.408a1.326,1.326,0,0,0,.5,1.037,1.987,1.987,0,0,0,1.248.36A1.839,1.839,0,0,0,52.6-1.9.861.861,0,0,0,52.973-2.628Zm3.709-2.215a5.64,5.64,0,0,1,.545-2.522A3.989,3.989,0,0,1,58.8-9.079a4.577,4.577,0,0,1,2.377-.606,4.33,4.33,0,0,1,3.142,1.178,4.727,4.727,0,0,1,1.358,3.2l.018.65a4.97,4.97,0,0,1-1.222,3.511A4.247,4.247,0,0,1,61.191.176a4.268,4.268,0,0,1-3.283-1.318,5.058,5.058,0,0,1-1.226-3.586Zm2.54.18a3.555,3.555,0,0,0,.51,2.073,1.682,1.682,0,0,0,1.459.717,1.686,1.686,0,0,0,1.441-.709,3.89,3.89,0,0,0,.519-2.267,3.519,3.519,0,0,0-.519-2.06,1.686,1.686,0,0,0-1.459-.731,1.658,1.658,0,0,0-1.441.726A3.955,3.955,0,0,0,59.222-4.662Zm12.12-.163a5.731,5.731,0,0,1,1-3.542,3.237,3.237,0,0,1,2.729-1.318,2.913,2.913,0,0,1,2.294,1.037V-13.5h2.549V0H77.618l-.123-1.011A2.989,2.989,0,0,1,75.051.176a3.228,3.228,0,0,1-2.694-1.323A5.916,5.916,0,0,1,71.342-4.825Zm2.54.189a3.754,3.754,0,0,0,.466,2.051,1.517,1.517,0,0,0,1.354.713,1.7,1.7,0,0,0,1.661-.995V-6.625a1.675,1.675,0,0,0-1.644-.995Q73.882-7.62,73.882-4.636ZM86.257.176a4.668,4.668,0,0,1-3.406-1.283,4.561,4.561,0,0,1-1.314-3.419v-.246a5.745,5.745,0,0,1,.554-2.562,4.064,4.064,0,0,1,1.569-1.74,4.4,4.4,0,0,1,2.316-.611,3.947,3.947,0,0,1,3.072,1.23,5,5,0,0,1,1.121,3.489v1.037H84.113a2.36,2.36,0,0,0,.743,1.494,2.245,2.245,0,0,0,1.569.563,2.742,2.742,0,0,0,2.294-1.063l1.248,1.4A3.813,3.813,0,0,1,88.42-.277,5.075,5.075,0,0,1,86.257.176Zm-.29-7.813a1.587,1.587,0,0,0-1.226.512,2.651,2.651,0,0,0-.6,1.466h3.533v-.2a1.891,1.891,0,0,0-.457-1.311A1.638,1.638,0,0,0,85.967-7.638Z" transform="translate(1004.109 4792.296)" fill="#12263f"/>
    <path id="Trazado_662724" data-name="Trazado 662724" d="M6.126-2.628a.818.818,0,0,0-.461-.734,5.241,5.241,0,0,0-1.481-.479Q.791-4.553.791-6.724a2.613,2.613,0,0,1,1.05-2.114,4.237,4.237,0,0,1,2.747-.848,4.56,4.56,0,0,1,2.9.853A2.687,2.687,0,0,1,8.569-6.618H6.029a1.229,1.229,0,0,0-.352-.9,1.488,1.488,0,0,0-1.1-.356,1.52,1.52,0,0,0-.993.29.916.916,0,0,0-.352.738.783.783,0,0,0,.4.681,4.114,4.114,0,0,0,1.349.448,11.019,11.019,0,0,1,1.6.426A2.628,2.628,0,0,1,8.6-2.733a2.481,2.481,0,0,1-1.116,2.1A4.815,4.815,0,0,1,4.6.176,5.029,5.029,0,0,1,2.474-.25,3.561,3.561,0,0,1,1.02-1.419a2.716,2.716,0,0,1-.527-1.6H2.9a1.326,1.326,0,0,0,.5,1.037,1.987,1.987,0,0,0,1.248.36,1.839,1.839,0,0,0,1.1-.277A.861.861,0,0,0,6.126-2.628ZM9.835-4.843a5.64,5.64,0,0,1,.545-2.522,3.989,3.989,0,0,1,1.569-1.714,4.577,4.577,0,0,1,2.377-.606,4.33,4.33,0,0,1,3.142,1.178,4.727,4.727,0,0,1,1.358,3.2l.018.65a4.97,4.97,0,0,1-1.222,3.511A4.247,4.247,0,0,1,14.344.176a4.268,4.268,0,0,1-3.283-1.318A5.058,5.058,0,0,1,9.835-4.729Zm2.54.18a3.555,3.555,0,0,0,.51,2.073,1.682,1.682,0,0,0,1.459.717,1.686,1.686,0,0,0,1.441-.709A3.89,3.89,0,0,0,16.3-4.847a3.519,3.519,0,0,0-.519-2.06,1.686,1.686,0,0,0-1.459-.731,1.658,1.658,0,0,0-1.441.726A3.955,3.955,0,0,0,12.375-4.662ZM23.089,0H20.54V-13.5h2.549Zm1.7-4.825a5.731,5.731,0,0,1,1-3.542,3.237,3.237,0,0,1,2.729-1.318,2.913,2.913,0,0,1,2.294,1.037V-13.5h2.549V0H31.061l-.123-1.011A2.989,2.989,0,0,1,28.494.176,3.228,3.228,0,0,1,25.8-1.147,5.916,5.916,0,0,1,24.785-4.825Zm2.54.189a3.754,3.754,0,0,0,.466,2.051,1.517,1.517,0,0,0,1.354.713,1.7,1.7,0,0,0,1.661-.995V-6.625a1.675,1.675,0,0,0-1.644-.995Q27.325-7.62,27.325-4.636ZM40.834,0a2.821,2.821,0,0,1-.255-.853A3.073,3.073,0,0,1,38.18.176a3.376,3.376,0,0,1-2.316-.809,2.6,2.6,0,0,1-.918-2.039,2.687,2.687,0,0,1,1.121-2.32A5.529,5.529,0,0,1,39.3-5.81h1.169v-.545a1.567,1.567,0,0,0-.338-1.055,1.331,1.331,0,0,0-1.068-.4,1.513,1.513,0,0,0-1.006.308,1.045,1.045,0,0,0-.365.844h-2.54a2.551,2.551,0,0,1,.51-1.529,3.37,3.37,0,0,1,1.441-1.1,5.253,5.253,0,0,1,2.092-.4A4.15,4.15,0,0,1,41.99-8.8a3.09,3.09,0,0,1,1.033,2.483V-2.2A4.546,4.546,0,0,0,43.4-.149V0Zm-2.1-1.767a2.188,2.188,0,0,0,1.037-.25,1.645,1.645,0,0,0,.7-.672V-4.324h-.949q-1.907,0-2.03,1.318l-.009.149a1.017,1.017,0,0,0,.334.782A1.3,1.3,0,0,0,38.733-1.767Zm5.845-3.059a5.731,5.731,0,0,1,1-3.542A3.237,3.237,0,0,1,48.3-9.686,2.913,2.913,0,0,1,50.6-8.648V-13.5h2.549V0H50.854L50.73-1.011A2.989,2.989,0,0,1,48.287.176a3.228,3.228,0,0,1-2.694-1.323A5.916,5.916,0,0,1,44.578-4.825Zm2.54.189a3.754,3.754,0,0,0,.466,2.051,1.517,1.517,0,0,0,1.354.713A1.7,1.7,0,0,0,50.6-2.867V-6.625a1.675,1.675,0,0,0-1.644-.995Q47.118-7.62,47.118-4.636ZM60.812-.967A3.185,3.185,0,0,1,58.21.176,3,3,0,0,1,55.876-.7a3.752,3.752,0,0,1-.822-2.575V-9.51h2.54v6.151q0,1.487,1.354,1.487a1.834,1.834,0,0,0,1.775-.9V-9.51h2.549V0H60.882Zm9.721-6.161a6.9,6.9,0,0,0-.914-.07,1.86,1.86,0,0,0-1.89.976V0h-2.54V-9.51h2.4l.07,1.134a2.354,2.354,0,0,1,2.118-1.31,2.662,2.662,0,0,1,.791.114ZM76.767,0a2.821,2.821,0,0,1-.255-.853,3.073,3.073,0,0,1-2.4,1.028A3.376,3.376,0,0,1,71.8-.633a2.6,2.6,0,0,1-.918-2.039A2.687,2.687,0,0,1,72-4.992a5.529,5.529,0,0,1,3.239-.817h1.169v-.545a1.567,1.567,0,0,0-.338-1.055A1.331,1.331,0,0,0,75-7.8a1.513,1.513,0,0,0-1.006.308,1.045,1.045,0,0,0-.365.844h-2.54a2.551,2.551,0,0,1,.51-1.529,3.37,3.37,0,0,1,1.441-1.1,5.253,5.253,0,0,1,2.092-.4,4.15,4.15,0,0,1,2.791.883,3.09,3.09,0,0,1,1.033,2.483V-2.2a4.546,4.546,0,0,0,.378,2.048V0Zm-2.1-1.767a2.188,2.188,0,0,0,1.037-.25,1.645,1.645,0,0,0,.7-.672V-4.324h-.949q-1.907,0-2.03,1.318l-.009.149a1.017,1.017,0,0,0,.334.782A1.3,1.3,0,0,0,74.666-1.767Z" transform="translate(1004.109 4813.896)" fill="#12263f"/>
    <path id="Trazado_662727" data-name="Trazado 662727" d="M3.779-4.509V0H1.143V-12.8H6.135a5.776,5.776,0,0,1,2.536.527,3.886,3.886,0,0,1,1.683,1.5,4.178,4.178,0,0,1,.589,2.21A3.674,3.674,0,0,1,9.655-5.594,5.363,5.363,0,0,1,6.091-4.509Zm0-2.136H6.135a2.316,2.316,0,0,0,1.6-.492,1.79,1.79,0,0,0,.549-1.406,2.111,2.111,0,0,0-.554-1.521,2.068,2.068,0,0,0-1.529-.6H3.779Zm14.15-.483a6.9,6.9,0,0,0-.914-.07,1.86,1.86,0,0,0-1.89.976V0h-2.54V-9.51h2.4l.07,1.134a2.354,2.354,0,0,1,2.118-1.31,2.662,2.662,0,0,1,.791.114Zm.2,2.285a5.64,5.64,0,0,1,.545-2.522,3.989,3.989,0,0,1,1.569-1.714,4.577,4.577,0,0,1,2.377-.606,4.33,4.33,0,0,1,3.142,1.178,4.727,4.727,0,0,1,1.358,3.2l.018.65a4.97,4.97,0,0,1-1.222,3.511A4.247,4.247,0,0,1,22.642.176,4.268,4.268,0,0,1,19.36-1.143a5.058,5.058,0,0,1-1.226-3.586Zm2.54.18a3.555,3.555,0,0,0,.51,2.073,1.682,1.682,0,0,0,1.459.717,1.686,1.686,0,0,0,1.441-.709A3.89,3.89,0,0,0,24.6-4.847a3.519,3.519,0,0,0-.519-2.06,1.686,1.686,0,0,0-1.459-.731,1.658,1.658,0,0,0-1.441.726A3.955,3.955,0,0,0,20.673-4.662Zm11.988,2.79A1.666,1.666,0,0,0,33.8-2.259a1.355,1.355,0,0,0,.457-1.028h2.382a3.258,3.258,0,0,1-.527,1.771A3.48,3.48,0,0,1,34.7-.268a4.442,4.442,0,0,1-1.991.444,4.129,4.129,0,0,1-3.217-1.3A5.13,5.13,0,0,1,28.311-4.7v-.167A5.071,5.071,0,0,1,29.48-8.376a4.08,4.08,0,0,1,3.208-1.31A4,4,0,0,1,35.549-8.67a3.594,3.594,0,0,1,1.094,2.7H34.261A1.745,1.745,0,0,0,33.8-7.174a1.524,1.524,0,0,0-1.16-.464,1.53,1.53,0,0,0-1.34.647,3.749,3.749,0,0,0-.453,2.1v.264A3.8,3.8,0,0,0,31.3-2.515,1.549,1.549,0,0,0,32.662-1.872ZM42.47.176a4.668,4.668,0,0,1-3.406-1.283,4.561,4.561,0,0,1-1.314-3.419v-.246A5.745,5.745,0,0,1,38.3-7.334a4.064,4.064,0,0,1,1.569-1.74,4.4,4.4,0,0,1,2.316-.611,3.947,3.947,0,0,1,3.072,1.23,5,5,0,0,1,1.121,3.489v1.037H40.326a2.36,2.36,0,0,0,.743,1.494,2.245,2.245,0,0,0,1.569.563,2.742,2.742,0,0,0,2.294-1.063l1.248,1.4A3.813,3.813,0,0,1,44.632-.277,5.075,5.075,0,0,1,42.47.176Zm-.29-7.813a1.587,1.587,0,0,0-1.226.512,2.651,2.651,0,0,0-.6,1.466h3.533v-.2a1.891,1.891,0,0,0-.457-1.311A1.638,1.638,0,0,0,42.18-7.638Zm10.793,5.01a.818.818,0,0,0-.461-.734,5.241,5.241,0,0,0-1.481-.479q-3.393-.712-3.393-2.883a2.613,2.613,0,0,1,1.05-2.114,4.237,4.237,0,0,1,2.747-.848,4.56,4.56,0,0,1,2.9.853,2.687,2.687,0,0,1,1.085,2.215h-2.54a1.229,1.229,0,0,0-.352-.9,1.488,1.488,0,0,0-1.1-.356,1.52,1.52,0,0,0-.993.29.916.916,0,0,0-.352.738.783.783,0,0,0,.4.681,4.114,4.114,0,0,0,1.349.448,11.019,11.019,0,0,1,1.6.426,2.628,2.628,0,0,1,2.013,2.558,2.481,2.481,0,0,1-1.116,2.1,4.815,4.815,0,0,1-2.883.8A5.029,5.029,0,0,1,49.321-.25a3.561,3.561,0,0,1-1.455-1.169,2.716,2.716,0,0,1-.527-1.6h2.408a1.326,1.326,0,0,0,.5,1.037,1.987,1.987,0,0,0,1.248.36A1.839,1.839,0,0,0,52.6-1.9.861.861,0,0,0,52.973-2.628Zm3.709-2.215a5.64,5.64,0,0,1,.545-2.522A3.989,3.989,0,0,1,58.8-9.079a4.577,4.577,0,0,1,2.377-.606,4.33,4.33,0,0,1,3.142,1.178,4.727,4.727,0,0,1,1.358,3.2l.018.65a4.97,4.97,0,0,1-1.222,3.511A4.247,4.247,0,0,1,61.191.176a4.268,4.268,0,0,1-3.283-1.318,5.058,5.058,0,0,1-1.226-3.586Zm2.54.18a3.555,3.555,0,0,0,.51,2.073,1.682,1.682,0,0,0,1.459.717,1.686,1.686,0,0,0,1.441-.709,3.89,3.89,0,0,0,.519-2.267,3.519,3.519,0,0,0-.519-2.06,1.686,1.686,0,0,0-1.459-.731,1.658,1.658,0,0,0-1.441.726A3.955,3.955,0,0,0,59.222-4.662Zm12.12-.163a5.731,5.731,0,0,1,1-3.542,3.237,3.237,0,0,1,2.729-1.318,2.913,2.913,0,0,1,2.294,1.037V-13.5h2.549V0H77.618l-.123-1.011A2.989,2.989,0,0,1,75.051.176a3.228,3.228,0,0,1-2.694-1.323A5.916,5.916,0,0,1,71.342-4.825Zm2.54.189a3.754,3.754,0,0,0,.466,2.051,1.517,1.517,0,0,0,1.354.713,1.7,1.7,0,0,0,1.661-.995V-6.625a1.675,1.675,0,0,0-1.644-.995Q73.882-7.62,73.882-4.636ZM86.257.176a4.668,4.668,0,0,1-3.406-1.283,4.561,4.561,0,0,1-1.314-3.419v-.246a5.745,5.745,0,0,1,.554-2.562,4.064,4.064,0,0,1,1.569-1.74,4.4,4.4,0,0,1,2.316-.611,3.947,3.947,0,0,1,3.072,1.23,5,5,0,0,1,1.121,3.489v1.037H84.113a2.36,2.36,0,0,0,.743,1.494,2.245,2.245,0,0,0,1.569.563,2.742,2.742,0,0,0,2.294-1.063l1.248,1.4A3.813,3.813,0,0,1,88.42-.277,5.075,5.075,0,0,1,86.257.176Zm-.29-7.813a1.587,1.587,0,0,0-1.226.512,2.651,2.651,0,0,0-.6,1.466h3.533v-.2a1.891,1.891,0,0,0-.457-1.311A1.638,1.638,0,0,0,85.967-7.638Z" transform="translate(1220.733 4904.057)" fill="#12263f"/>
    <rect id="Rect치ngulo_350461" data-name="Rect치ngulo 350461" width="1032.314" height="371.075" transform="translate(283.843 4637)" fill="none"/>
    <path id="Trazado_662728" data-name="Trazado 662728" d="M3.656,0H1.107V-9.51H3.656ZM.958-11.971a1.251,1.251,0,0,1,.382-.94,1.436,1.436,0,0,1,1.042-.369,1.44,1.44,0,0,1,1.037.369,1.244,1.244,0,0,1,.387.94,1.247,1.247,0,0,1-.391.949,1.443,1.443,0,0,1-1.033.369,1.443,1.443,0,0,1-1.033-.369A1.247,1.247,0,0,1,.958-11.971ZM8.086-9.51l.079,1.1A3.32,3.32,0,0,1,10.9-9.686a2.759,2.759,0,0,1,2.25.888A4.142,4.142,0,0,1,13.9-6.144V0h-2.54V-6.082a1.648,1.648,0,0,0-.352-1.173A1.574,1.574,0,0,0,9.844-7.62a1.747,1.747,0,0,0-1.608.914V0H5.7V-9.51ZM20.979-2.628a.818.818,0,0,0-.461-.734,5.241,5.241,0,0,0-1.481-.479q-3.393-.712-3.393-2.883a2.613,2.613,0,0,1,1.05-2.114,4.237,4.237,0,0,1,2.747-.848,4.56,4.56,0,0,1,2.9.853,2.687,2.687,0,0,1,1.085,2.215h-2.54a1.229,1.229,0,0,0-.352-.9,1.488,1.488,0,0,0-1.1-.356,1.52,1.52,0,0,0-.993.29.916.916,0,0,0-.352.738.783.783,0,0,0,.4.681,4.114,4.114,0,0,0,1.349.448,11.019,11.019,0,0,1,1.6.426,2.628,2.628,0,0,1,2.013,2.558,2.481,2.481,0,0,1-1.116,2.1,4.815,4.815,0,0,1-2.883.8A5.029,5.029,0,0,1,17.328-.25a3.561,3.561,0,0,1-1.455-1.169,2.716,2.716,0,0,1-.527-1.6h2.408a1.326,1.326,0,0,0,.5,1.037,1.987,1.987,0,0,0,1.248.36,1.839,1.839,0,0,0,1.1-.277A.861.861,0,0,0,20.979-2.628ZM33.645-4.667a5.7,5.7,0,0,1-1,3.52A3.2,3.2,0,0,1,29.953.176a2.963,2.963,0,0,1-2.329-1V3.656h-2.54V-9.51h2.355l.088.932a2.985,2.985,0,0,1,2.408-1.107,3.22,3.22,0,0,1,2.733,1.3A5.858,5.858,0,0,1,33.645-4.8ZM31.1-4.852a3.743,3.743,0,0,0-.47-2.048,1.532,1.532,0,0,0-1.367-.721,1.663,1.663,0,0,0-1.644.914v3.894a1.692,1.692,0,0,0,1.661.94Q31.1-1.872,31.1-4.852ZM39.595.176a4.668,4.668,0,0,1-3.406-1.283,4.561,4.561,0,0,1-1.314-3.419v-.246a5.745,5.745,0,0,1,.554-2.562A4.064,4.064,0,0,1,37-9.075a4.4,4.4,0,0,1,2.316-.611,3.947,3.947,0,0,1,3.072,1.23,5,5,0,0,1,1.121,3.489v1.037H37.45a2.36,2.36,0,0,0,.743,1.494,2.245,2.245,0,0,0,1.569.563,2.742,2.742,0,0,0,2.294-1.063l1.248,1.4A3.813,3.813,0,0,1,41.757-.277,5.075,5.075,0,0,1,39.595.176ZM39.3-7.638a1.587,1.587,0,0,0-1.226.512,2.651,2.651,0,0,0-.6,1.466H41.01v-.2a1.891,1.891,0,0,0-.457-1.311A1.638,1.638,0,0,0,39.3-7.638Zm9.6,5.766a1.666,1.666,0,0,0,1.143-.387A1.355,1.355,0,0,0,50.5-3.287h2.382a3.258,3.258,0,0,1-.527,1.771A3.48,3.48,0,0,1,50.937-.268a4.442,4.442,0,0,1-1.991.444,4.129,4.129,0,0,1-3.217-1.3A5.13,5.13,0,0,1,44.552-4.7v-.167a5.071,5.071,0,0,1,1.169-3.507,4.08,4.08,0,0,1,3.208-1.31A4,4,0,0,1,51.79-8.67a3.594,3.594,0,0,1,1.094,2.7H50.5a1.745,1.745,0,0,0-.457-1.206,1.524,1.524,0,0,0-1.16-.464,1.53,1.53,0,0,0-1.34.647,3.749,3.749,0,0,0-.453,2.1v.264a3.8,3.8,0,0,0,.448,2.113A1.549,1.549,0,0,0,48.9-1.872Zm9.387,0a1.666,1.666,0,0,0,1.143-.387,1.355,1.355,0,0,0,.457-1.028h2.382a3.258,3.258,0,0,1-.527,1.771A3.48,3.48,0,0,1,60.324-.268a4.442,4.442,0,0,1-1.991.444,4.129,4.129,0,0,1-3.217-1.3A5.13,5.13,0,0,1,53.938-4.7v-.167a5.071,5.071,0,0,1,1.169-3.507,4.08,4.08,0,0,1,3.208-1.31A4,4,0,0,1,61.176-8.67a3.594,3.594,0,0,1,1.094,2.7H59.889a1.745,1.745,0,0,0-.457-1.206,1.524,1.524,0,0,0-1.16-.464,1.53,1.53,0,0,0-1.34.647,3.749,3.749,0,0,0-.453,2.1v.264a3.8,3.8,0,0,0,.448,2.113A1.549,1.549,0,0,0,58.289-1.872ZM66.4,0H63.853V-9.51H66.4ZM63.7-11.971a1.251,1.251,0,0,1,.382-.94,1.436,1.436,0,0,1,1.042-.369,1.44,1.44,0,0,1,1.037.369,1.244,1.244,0,0,1,.387.94,1.247,1.247,0,0,1-.391.949,1.443,1.443,0,0,1-1.033.369,1.443,1.443,0,0,1-1.033-.369A1.247,1.247,0,0,1,63.7-11.971ZM68.1-4.843a5.64,5.64,0,0,1,.545-2.522,3.989,3.989,0,0,1,1.569-1.714,4.577,4.577,0,0,1,2.377-.606,4.33,4.33,0,0,1,3.142,1.178,4.727,4.727,0,0,1,1.358,3.2l.018.65a4.97,4.97,0,0,1-1.222,3.511A4.247,4.247,0,0,1,72.606.176a4.268,4.268,0,0,1-3.283-1.318A5.058,5.058,0,0,1,68.1-4.729Zm2.54.18a3.555,3.555,0,0,0,.51,2.073,1.682,1.682,0,0,0,1.459.717,1.686,1.686,0,0,0,1.441-.709,3.89,3.89,0,0,0,.519-2.267,3.519,3.519,0,0,0-.519-2.06,1.686,1.686,0,0,0-1.459-.731,1.658,1.658,0,0,0-1.441.726A3.955,3.955,0,0,0,70.638-4.662ZM73.09-13.5h2.769l-2.435,2.725H71.358Zm7.919,3.99.079,1.1a3.32,3.32,0,0,1,2.733-1.274,2.759,2.759,0,0,1,2.25.888,4.142,4.142,0,0,1,.756,2.654V0h-2.54V-6.082a1.648,1.648,0,0,0-.352-1.173,1.574,1.574,0,0,0-1.169-.365,1.747,1.747,0,0,0-1.608.914V0h-2.54V-9.51Z" transform="translate(1220.733 4925.656)" fill="#12263f"/>
    <path id="Trazado_662721" data-name="Trazado 662721" d="M8.367-2.637H3.744L2.865,0H.062L4.825-12.8H7.269L12.059,0h-2.8ZM4.456-4.772h3.2L6.047-9.562Zm16.356.105a5.7,5.7,0,0,1-1,3.52A3.2,3.2,0,0,1,17.12.176a2.963,2.963,0,0,1-2.329-1V3.656h-2.54V-9.51h2.355l.088.932A2.985,2.985,0,0,1,17.1-9.686a3.22,3.22,0,0,1,2.733,1.3A5.858,5.858,0,0,1,20.812-4.8Zm-2.54-.185A3.743,3.743,0,0,0,17.8-6.9a1.532,1.532,0,0,0-1.367-.721,1.663,1.663,0,0,0-1.644.914v3.894a1.692,1.692,0,0,0,1.661.94Q18.272-1.872,18.272-4.852ZM25.065,0H22.517V-13.5h2.549Zm4.772,0H27.289V-9.51h2.549Zm-2.7-11.971a1.251,1.251,0,0,1,.382-.94,1.436,1.436,0,0,1,1.042-.369,1.44,1.44,0,0,1,1.037.369,1.244,1.244,0,0,1,.387.94,1.247,1.247,0,0,1-.391.949,1.443,1.443,0,0,1-1.033.369,1.443,1.443,0,0,1-1.033-.369A1.247,1.247,0,0,1,27.14-11.971Zm8.745,10.1a1.666,1.666,0,0,0,1.143-.387,1.355,1.355,0,0,0,.457-1.028h2.382a3.258,3.258,0,0,1-.527,1.771A3.48,3.48,0,0,1,37.919-.268a4.442,4.442,0,0,1-1.991.444,4.129,4.129,0,0,1-3.217-1.3A5.13,5.13,0,0,1,31.534-4.7v-.167A5.071,5.071,0,0,1,32.7-8.376a4.08,4.08,0,0,1,3.208-1.31A4,4,0,0,1,38.772-8.67a3.594,3.594,0,0,1,1.094,2.7H37.484a1.745,1.745,0,0,0-.457-1.206,1.524,1.524,0,0,0-1.16-.464,1.53,1.53,0,0,0-1.34.647,3.749,3.749,0,0,0-.453,2.1v.264a3.8,3.8,0,0,0,.448,2.113A1.549,1.549,0,0,0,35.885-1.872ZM46.827,0a2.821,2.821,0,0,1-.255-.853,3.073,3.073,0,0,1-2.4,1.028,3.376,3.376,0,0,1-2.316-.809,2.6,2.6,0,0,1-.918-2.039,2.687,2.687,0,0,1,1.121-2.32A5.529,5.529,0,0,1,45.3-5.81h1.169v-.545a1.567,1.567,0,0,0-.338-1.055,1.331,1.331,0,0,0-1.068-.4,1.513,1.513,0,0,0-1.006.308,1.045,1.045,0,0,0-.365.844h-2.54a2.551,2.551,0,0,1,.51-1.529,3.37,3.37,0,0,1,1.441-1.1,5.253,5.253,0,0,1,2.092-.4,4.15,4.15,0,0,1,2.791.883,3.09,3.09,0,0,1,1.033,2.483V-2.2a4.546,4.546,0,0,0,.378,2.048V0Zm-2.1-1.767a2.188,2.188,0,0,0,1.037-.25,1.645,1.645,0,0,0,.7-.672V-4.324h-.949q-1.907,0-2.03,1.318l-.009.149a1.017,1.017,0,0,0,.334.782A1.3,1.3,0,0,0,44.727-1.767Zm10.2-.105a1.666,1.666,0,0,0,1.143-.387,1.355,1.355,0,0,0,.457-1.028H58.9a3.258,3.258,0,0,1-.527,1.771A3.48,3.48,0,0,1,56.957-.268a4.442,4.442,0,0,1-1.991.444,4.129,4.129,0,0,1-3.217-1.3A5.13,5.13,0,0,1,50.571-4.7v-.167A5.071,5.071,0,0,1,51.74-8.376a4.08,4.08,0,0,1,3.208-1.31A4,4,0,0,1,57.809-8.67a3.594,3.594,0,0,1,1.094,2.7H56.522a1.745,1.745,0,0,0-.457-1.206,1.524,1.524,0,0,0-1.16-.464,1.53,1.53,0,0,0-1.34.647,3.749,3.749,0,0,0-.453,2.1v.264a3.8,3.8,0,0,0,.448,2.113A1.549,1.549,0,0,0,54.922-1.872ZM63.034,0H60.485V-9.51h2.549Zm-2.7-11.971a1.251,1.251,0,0,1,.382-.94,1.436,1.436,0,0,1,1.042-.369,1.44,1.44,0,0,1,1.037.369,1.244,1.244,0,0,1,.387.94,1.247,1.247,0,0,1-.391.949,1.443,1.443,0,0,1-1.033.369,1.443,1.443,0,0,1-1.033-.369A1.247,1.247,0,0,1,60.336-11.971Zm4.395,7.128a5.64,5.64,0,0,1,.545-2.522,3.989,3.989,0,0,1,1.569-1.714,4.577,4.577,0,0,1,2.377-.606,4.33,4.33,0,0,1,3.142,1.178,4.727,4.727,0,0,1,1.358,3.2l.018.65a4.97,4.97,0,0,1-1.222,3.511A4.247,4.247,0,0,1,69.239.176a4.268,4.268,0,0,1-3.283-1.318,5.058,5.058,0,0,1-1.226-3.586Zm2.54.18a3.555,3.555,0,0,0,.51,2.073,1.682,1.682,0,0,0,1.459.717,1.686,1.686,0,0,0,1.441-.709A3.89,3.89,0,0,0,71.2-4.847a3.519,3.519,0,0,0-.519-2.06,1.686,1.686,0,0,0-1.459-.731,1.658,1.658,0,0,0-1.441.726A3.955,3.955,0,0,0,67.271-4.662ZM69.723-13.5h2.769l-2.435,2.725H67.991Zm7.919,3.99.079,1.1a3.32,3.32,0,0,1,2.733-1.274A2.759,2.759,0,0,1,82.7-8.8a4.142,4.142,0,0,1,.756,2.654V0H80.92V-6.082a1.648,1.648,0,0,0-.352-1.173A1.574,1.574,0,0,0,79.4-7.62a1.747,1.747,0,0,0-1.608.914V0h-2.54V-9.51Zm11.83,4.685a5.731,5.731,0,0,1,1-3.542A3.237,3.237,0,0,1,93.2-9.686a2.913,2.913,0,0,1,2.294,1.037V-13.5h2.549V0H95.747l-.123-1.011A2.989,2.989,0,0,1,93.181.176a3.228,3.228,0,0,1-2.694-1.323A5.916,5.916,0,0,1,89.472-4.825Zm2.54.189a3.754,3.754,0,0,0,.466,2.051,1.517,1.517,0,0,0,1.354.713,1.7,1.7,0,0,0,1.661-.995V-6.625a1.675,1.675,0,0,0-1.644-.995Q92.012-7.62,92.012-4.636ZM104.387.176a4.668,4.668,0,0,1-3.406-1.283,4.561,4.561,0,0,1-1.314-3.419v-.246a5.745,5.745,0,0,1,.554-2.562,4.064,4.064,0,0,1,1.569-1.74,4.4,4.4,0,0,1,2.316-.611,3.947,3.947,0,0,1,3.072,1.23A5,5,0,0,1,108.3-4.966v1.037h-6.056a2.36,2.36,0,0,0,.743,1.494,2.245,2.245,0,0,0,1.569.563,2.742,2.742,0,0,0,2.294-1.063l1.248,1.4a3.813,3.813,0,0,1-1.547,1.261A5.075,5.075,0,0,1,104.387.176Zm-.29-7.813a1.587,1.587,0,0,0-1.226.512,2.651,2.651,0,0,0-.6,1.466H105.8v-.2a1.891,1.891,0,0,0-.457-1.311A1.638,1.638,0,0,0,104.1-7.638ZM116.9,0h-2.549V-13.5H116.9Zm7.6,0a2.821,2.821,0,0,1-.255-.853,3.073,3.073,0,0,1-2.4,1.028,3.376,3.376,0,0,1-2.316-.809,2.6,2.6,0,0,1-.918-2.039,2.687,2.687,0,0,1,1.121-2.32,5.529,5.529,0,0,1,3.239-.817h1.169v-.545a1.567,1.567,0,0,0-.338-1.055,1.331,1.331,0,0,0-1.068-.4,1.513,1.513,0,0,0-1.006.308,1.045,1.045,0,0,0-.365.844h-2.54a2.551,2.551,0,0,1,.51-1.529,3.37,3.37,0,0,1,1.441-1.1,5.253,5.253,0,0,1,2.092-.4,4.15,4.15,0,0,1,2.791.883,3.09,3.09,0,0,1,1.033,2.483V-2.2a4.546,4.546,0,0,0,.378,2.048V0Zm-2.1-1.767a2.188,2.188,0,0,0,1.037-.25,1.645,1.645,0,0,0,.7-.672V-4.324H123.2q-1.907,0-2.03,1.318l-.009.149a1.017,1.017,0,0,0,.334.782A1.3,1.3,0,0,0,122.4-1.767Z" transform="translate(948.592 4689.137)" fill="#12263f"/>
    <path id="Trazado_662722" data-name="Trazado 662722" d="M6.126-2.628a.818.818,0,0,0-.461-.734,5.241,5.241,0,0,0-1.481-.479Q.791-4.553.791-6.724a2.613,2.613,0,0,1,1.05-2.114,4.237,4.237,0,0,1,2.747-.848,4.56,4.56,0,0,1,2.9.853A2.687,2.687,0,0,1,8.569-6.618H6.029a1.229,1.229,0,0,0-.352-.9,1.488,1.488,0,0,0-1.1-.356,1.52,1.52,0,0,0-.993.29.916.916,0,0,0-.352.738.783.783,0,0,0,.4.681,4.114,4.114,0,0,0,1.349.448,11.019,11.019,0,0,1,1.6.426A2.628,2.628,0,0,1,8.6-2.733a2.481,2.481,0,0,1-1.116,2.1A4.815,4.815,0,0,1,4.6.176,5.029,5.029,0,0,1,2.474-.25,3.561,3.561,0,0,1,1.02-1.419a2.716,2.716,0,0,1-.527-1.6H2.9a1.326,1.326,0,0,0,.5,1.037,1.987,1.987,0,0,0,1.248.36,1.839,1.839,0,0,0,1.1-.277A.861.861,0,0,0,6.126-2.628ZM9.835-4.843a5.64,5.64,0,0,1,.545-2.522,3.989,3.989,0,0,1,1.569-1.714,4.577,4.577,0,0,1,2.377-.606,4.33,4.33,0,0,1,3.142,1.178,4.727,4.727,0,0,1,1.358,3.2l.018.65a4.97,4.97,0,0,1-1.222,3.511A4.247,4.247,0,0,1,14.344.176a4.268,4.268,0,0,1-3.283-1.318A5.058,5.058,0,0,1,9.835-4.729Zm2.54.18a3.555,3.555,0,0,0,.51,2.073,1.682,1.682,0,0,0,1.459.717,1.686,1.686,0,0,0,1.441-.709A3.89,3.89,0,0,0,16.3-4.847a3.519,3.519,0,0,0-.519-2.06,1.686,1.686,0,0,0-1.459-.731,1.658,1.658,0,0,0-1.441.726A3.955,3.955,0,0,0,12.375-4.662ZM23.089,0H20.54V-13.5h2.549Zm1.7-4.825a5.731,5.731,0,0,1,1-3.542,3.237,3.237,0,0,1,2.729-1.318,2.913,2.913,0,0,1,2.294,1.037V-13.5h2.549V0H31.061l-.123-1.011A2.989,2.989,0,0,1,28.494.176,3.228,3.228,0,0,1,25.8-1.147,5.916,5.916,0,0,1,24.785-4.825Zm2.54.189a3.754,3.754,0,0,0,.466,2.051,1.517,1.517,0,0,0,1.354.713,1.7,1.7,0,0,0,1.661-.995V-6.625a1.675,1.675,0,0,0-1.644-.995Q27.325-7.62,27.325-4.636ZM40.834,0a2.821,2.821,0,0,1-.255-.853A3.073,3.073,0,0,1,38.18.176a3.376,3.376,0,0,1-2.316-.809,2.6,2.6,0,0,1-.918-2.039,2.687,2.687,0,0,1,1.121-2.32A5.529,5.529,0,0,1,39.3-5.81h1.169v-.545a1.567,1.567,0,0,0-.338-1.055,1.331,1.331,0,0,0-1.068-.4,1.513,1.513,0,0,0-1.006.308,1.045,1.045,0,0,0-.365.844h-2.54a2.551,2.551,0,0,1,.51-1.529,3.37,3.37,0,0,1,1.441-1.1,5.253,5.253,0,0,1,2.092-.4A4.15,4.15,0,0,1,41.99-8.8a3.09,3.09,0,0,1,1.033,2.483V-2.2A4.546,4.546,0,0,0,43.4-.149V0Zm-2.1-1.767a2.188,2.188,0,0,0,1.037-.25,1.645,1.645,0,0,0,.7-.672V-4.324h-.949q-1.907,0-2.03,1.318l-.009.149a1.017,1.017,0,0,0,.334.782A1.3,1.3,0,0,0,38.733-1.767Zm5.845-3.059a5.731,5.731,0,0,1,1-3.542A3.237,3.237,0,0,1,48.3-9.686,2.913,2.913,0,0,1,50.6-8.648V-13.5h2.549V0H50.854L50.73-1.011A2.989,2.989,0,0,1,48.287.176a3.228,3.228,0,0,1-2.694-1.323A5.916,5.916,0,0,1,44.578-4.825Zm2.54.189a3.754,3.754,0,0,0,.466,2.051,1.517,1.517,0,0,0,1.354.713A1.7,1.7,0,0,0,50.6-2.867V-6.625a1.675,1.675,0,0,0-1.644-.995Q47.118-7.62,47.118-4.636ZM60.812-.967A3.185,3.185,0,0,1,58.21.176,3,3,0,0,1,55.876-.7a3.752,3.752,0,0,1-.822-2.575V-9.51h2.54v6.151q0,1.487,1.354,1.487a1.834,1.834,0,0,0,1.775-.9V-9.51h2.549V0H60.882Zm9.721-6.161a6.9,6.9,0,0,0-.914-.07,1.86,1.86,0,0,0-1.89.976V0h-2.54V-9.51h2.4l.07,1.134a2.354,2.354,0,0,1,2.118-1.31,2.662,2.662,0,0,1,.791.114ZM76.767,0a2.821,2.821,0,0,1-.255-.853,3.073,3.073,0,0,1-2.4,1.028A3.376,3.376,0,0,1,71.8-.633a2.6,2.6,0,0,1-.918-2.039A2.687,2.687,0,0,1,72-4.992a5.529,5.529,0,0,1,3.239-.817h1.169v-.545a1.567,1.567,0,0,0-.338-1.055A1.331,1.331,0,0,0,75-7.8a1.513,1.513,0,0,0-1.006.308,1.045,1.045,0,0,0-.365.844h-2.54a2.551,2.551,0,0,1,.51-1.529,3.37,3.37,0,0,1,1.441-1.1,5.253,5.253,0,0,1,2.092-.4,4.15,4.15,0,0,1,2.791.883,3.09,3.09,0,0,1,1.033,2.483V-2.2a4.546,4.546,0,0,0,.378,2.048V0Zm-2.1-1.767a2.188,2.188,0,0,0,1.037-.25,1.645,1.645,0,0,0,.7-.672V-4.324h-.949q-1.907,0-2.03,1.318l-.009.149a1.017,1.017,0,0,0,.334.782A1.3,1.3,0,0,0,74.666-1.767ZM89.766.176A4.668,4.668,0,0,1,86.36-1.107a4.561,4.561,0,0,1-1.314-3.419v-.246A5.745,5.745,0,0,1,85.6-7.334a4.064,4.064,0,0,1,1.569-1.74,4.4,4.4,0,0,1,2.316-.611,3.947,3.947,0,0,1,3.072,1.23,5,5,0,0,1,1.121,3.489v1.037H87.621a2.36,2.36,0,0,0,.743,1.494,2.245,2.245,0,0,0,1.569.563,2.742,2.742,0,0,0,2.294-1.063l1.248,1.4A3.813,3.813,0,0,1,91.928-.277,5.075,5.075,0,0,1,89.766.176Zm-.29-7.813a1.587,1.587,0,0,0-1.226.512,2.651,2.651,0,0,0-.6,1.466h3.533v-.2a1.891,1.891,0,0,0-.457-1.311A1.638,1.638,0,0,0,89.476-7.638Zm7.98-1.872.079,1.1a3.32,3.32,0,0,1,2.733-1.274,2.759,2.759,0,0,1,2.25.888,4.142,4.142,0,0,1,.756,2.654V0h-2.54V-6.082a1.648,1.648,0,0,0-.352-1.173,1.574,1.574,0,0,0-1.169-.365,1.747,1.747,0,0,0-1.608.914V0h-2.54V-9.51Zm20.786,4.843a5.7,5.7,0,0,1-1,3.52A3.2,3.2,0,0,1,114.551.176a2.963,2.963,0,0,1-2.329-1V3.656h-2.54V-9.51h2.355l.088.932a2.985,2.985,0,0,1,2.408-1.107,3.22,3.22,0,0,1,2.733,1.3,5.858,5.858,0,0,1,.976,3.586Zm-2.54-.185a3.743,3.743,0,0,0-.47-2.048,1.532,1.532,0,0,0-1.367-.721,1.663,1.663,0,0,0-1.644.914v3.894a1.692,1.692,0,0,0,1.661.94Q115.7-1.872,115.7-4.852ZM125.327,0a2.821,2.821,0,0,1-.255-.853,3.073,3.073,0,0,1-2.4,1.028,3.376,3.376,0,0,1-2.316-.809,2.6,2.6,0,0,1-.918-2.039,2.687,2.687,0,0,1,1.121-2.32A5.529,5.529,0,0,1,123.8-5.81h1.169v-.545a1.567,1.567,0,0,0-.338-1.055,1.331,1.331,0,0,0-1.068-.4,1.513,1.513,0,0,0-1.006.308,1.045,1.045,0,0,0-.365.844h-2.54a2.551,2.551,0,0,1,.51-1.529,3.37,3.37,0,0,1,1.441-1.1,5.253,5.253,0,0,1,2.092-.4,4.15,4.15,0,0,1,2.791.883,3.09,3.09,0,0,1,1.033,2.483V-2.2a4.546,4.546,0,0,0,.378,2.048V0Zm-2.1-1.767a2.188,2.188,0,0,0,1.037-.25,1.645,1.645,0,0,0,.7-.672V-4.324h-.949q-1.907,0-2.03,1.318l-.009.149a1.017,1.017,0,0,0,.334.782A1.3,1.3,0,0,0,123.226-1.767Zm11.391-.861a.818.818,0,0,0-.461-.734,5.241,5.241,0,0,0-1.481-.479q-3.393-.712-3.393-2.883a2.613,2.613,0,0,1,1.05-2.114,4.237,4.237,0,0,1,2.747-.848,4.56,4.56,0,0,1,2.9.853,2.687,2.687,0,0,1,1.085,2.215h-2.54a1.229,1.229,0,0,0-.352-.9,1.488,1.488,0,0,0-1.1-.356,1.52,1.52,0,0,0-.993.29.916.916,0,0,0-.352.738.783.783,0,0,0,.4.681,4.114,4.114,0,0,0,1.349.448,11.019,11.019,0,0,1,1.6.426,2.628,2.628,0,0,1,2.013,2.558,2.481,2.481,0,0,1-1.116,2.1,4.815,4.815,0,0,1-2.883.8,5.029,5.029,0,0,1-2.123-.426,3.561,3.561,0,0,1-1.455-1.169,2.716,2.716,0,0,1-.527-1.6h2.408a1.326,1.326,0,0,0,.5,1.037,1.987,1.987,0,0,0,1.248.36,1.839,1.839,0,0,0,1.1-.277A.861.861,0,0,0,134.617-2.628Zm7.146-9.22V-9.51h1.626v1.863h-1.626V-2.9a1.133,1.133,0,0,0,.2.756,1.015,1.015,0,0,0,.773.229,4.051,4.051,0,0,0,.747-.062V-.053a5.229,5.229,0,0,1-1.538.229,2.425,2.425,0,0,1-2.725-2.7V-7.646h-1.389V-9.51h1.389v-2.338ZM150.314,0a2.821,2.821,0,0,1-.255-.853,3.073,3.073,0,0,1-2.4,1.028,3.376,3.376,0,0,1-2.316-.809,2.6,2.6,0,0,1-.918-2.039,2.687,2.687,0,0,1,1.121-2.32,5.529,5.529,0,0,1,3.239-.817h1.169v-.545a1.567,1.567,0,0,0-.338-1.055,1.331,1.331,0,0,0-1.068-.4,1.513,1.513,0,0,0-1.006.308,1.045,1.045,0,0,0-.365.844h-2.54a2.551,2.551,0,0,1,.51-1.529,3.37,3.37,0,0,1,1.441-1.1,5.253,5.253,0,0,1,2.092-.4,4.15,4.15,0,0,1,2.791.883A3.09,3.09,0,0,1,152.5-6.319V-2.2a4.546,4.546,0,0,0,.378,2.048V0Zm-2.1-1.767a2.188,2.188,0,0,0,1.037-.25,1.645,1.645,0,0,0,.7-.672V-4.324H149q-1.907,0-2.03,1.318l-.009.149a1.017,1.017,0,0,0,.334.782A1.3,1.3,0,0,0,148.213-1.767Z" transform="translate(948.592 4710.737)" fill="#12263f"/>
    <path id="Trazado_657284" data-name="Trazado 657284" d="M452.723,96.3c2.988-4.8,6.034-9.4,9.045-13.672l1.136.768c-3,4.252-6.029,8.829-9,13.608Z" transform="translate(283.843 4637)"/>
    <path id="Trazado_657285" data-name="Trazado 657285" d="M413.473,177.078c1.939-5.033,3.984-10.136,6.082-15.164l1.278.514c-2.094,5.013-4.136,10.1-6.067,15.127Z" transform="translate(283.843 4637)"/>
    <path id="Trazado_657286" data-name="Trazado 657286" d="M424.948,149.413c2.246-5.038,4.56-10.026,6.876-14.822l1.249.576c-2.311,4.783-4.619,9.761-6.86,14.786Z" transform="translate(283.843 4637)"/>
    <path id="Trazado_657287" data-name="Trazado 657287" d="M437.925,122.4c2.568-4.945,5.2-9.783,7.816-14.374l1.205.657c-2.612,4.577-5.231,9.4-7.79,14.331Z" transform="translate(283.843 4637)"/>
    <path id="Trazado_657288" data-name="Trazado 657288" d="M3.912,61.612a78.214,78.214,0,0,1,14.062-8.887l.632,1.2a77.254,77.254,0,0,0-13.79,8.705Z" transform="translate(283.843 4637)"/>
    <path id="Trazado_657289" data-name="Trazado 657289" d="M30.813,47.472A77.7,77.7,0,0,1,47.149,44.11l.131,1.347a76.093,76.093,0,0,0-16.041,3.3Z" transform="translate(283.843 4637)"/>
    <path id="Trazado_657290" data-name="Trazado 657290" d="M112.308,73.661l1.017-.915a148.663,148.663,0,0,1,10.528,12.593l-1.114.8a147.564,147.564,0,0,0-10.431-12.479" transform="translate(283.843 4637)"/>
    <path id="Trazado_657291" data-name="Trazado 657291" d="M89.168,54.922l.7-1.164a93.685,93.685,0,0,1,13.509,9.528l-.9,1.023a92.707,92.707,0,0,0-13.31-9.387" transform="translate(283.843 4637)"/>
    <path id="Trazado_657292" data-name="Trazado 657292" d="M60.922,45.53l.147-1.344a70.236,70.236,0,0,1,16.245,3.73l-.476,1.272A68.879,68.879,0,0,0,60.922,45.53" transform="translate(283.843 4637)"/>
    <path id="Trazado_657293" data-name="Trazado 657293" d="M288.562,369.726a46.076,46.076,0,0,0,15.687-3.964l.568,1.231a47.49,47.49,0,0,1-16.168,4.082Z" transform="translate(283.843 4637)"/>
    <path id="Trazado_657294" data-name="Trazado 657294" d="M315.96,358.959a98.369,98.369,0,0,0,12.3-10.65l.992.939a99.655,99.655,0,0,1-12.472,10.8Z" transform="translate(283.843 4637)"/>
    <path id="Trazado_657295" data-name="Trazado 657295" d="M259.648,362.923l.748-1.137a53.4,53.4,0,0,0,14.778,6.6l-.359,1.3a54.779,54.779,0,0,1-15.167-6.77" transform="translate(283.843 4637)"/>
    <path id="Trazado_657296" data-name="Trazado 657296" d="M201.551,278.6l-1.267.536c-2.131-4.847-4.259-9.913-6.321-15.06l1.287-.495c2.057,5.134,4.177,10.187,6.3,15.019" transform="translate(283.843 4637)"/>
    <path id="Trazado_657297" data-name="Trazado 657297" d="M237.332,342.611l1.07-.857a117.585,117.585,0,0,0,11.239,11.789l-.936.994a119.013,119.013,0,0,1-11.373-11.926" transform="translate(283.843 4637)"/>
    <path id="Trazado_657298" data-name="Trazado 657298" d="M205.96,291.518l1.251-.573c2.422,5.057,4.9,9.948,7.363,14.537l-1.221.628c-2.475-4.607-4.963-9.517-7.393-14.592" transform="translate(283.843 4637)"/>
    <path id="Trazado_657299" data-name="Trazado 657299" d="M220.084,317.98l1.19-.685c2.923,4.867,5.906,9.467,8.871,13.672l-1.136.769c-2.984-4.235-5.989-8.861-8.925-13.756" transform="translate(283.843 4637)"/>
    <path id="Trazado_657300" data-name="Trazado 657300" d="M800.234,357.83a98.368,98.368,0,0,0,12.3-10.65l.992.939a99.657,99.657,0,0,1-12.472,10.8Z" transform="translate(283.843 4637)"/>
    <path id="Trazado_657301" data-name="Trazado 657301" d="M721.606,341.481l1.07-.857a117.583,117.583,0,0,0,11.239,11.789l-.936.994a119.015,119.015,0,0,1-11.373-11.926" transform="translate(283.843 4637)"/>
    <path id="Trazado_657302" data-name="Trazado 657302" d="M690.234,290.388l1.251-.573c2.422,5.057,4.9,9.948,7.363,14.537l-1.221.628c-2.475-4.607-4.963-9.517-7.393-14.592" transform="translate(283.843 4637)"/>
    <path id="Trazado_657303" data-name="Trazado 657303" d="M704.358,316.851l1.19-.685c2.922,4.867,5.906,9.467,8.871,13.672l-1.136.769c-2.984-4.235-5.989-8.861-8.925-13.756" transform="translate(283.843 4637)"/>
    <path id="Trazado_657304" data-name="Trazado 657304" d="M621.383,125.524l1.255-.561c2.194,4.733,4.422,9.747,6.613,14.893l-1.273.518c-2.189-5.132-4.407-10.129-6.6-14.85" transform="translate(283.843 4637)"/>
    <path id="Trazado_657305" data-name="Trazado 657305" d="M872.15,229.4c1.723-5.013,3.447-10.2,5.132-15.41l1.318.409c-1.683,5.218-3.413,10.41-5.137,15.432Z" transform="translate(283.843 4637)"/>
    <path id="Trazado_657306" data-name="Trazado 657306" d="M850.376,284.821c2.16-4.737,4.345-9.747,6.492-14.9l1.277.51c-2.15,5.162-4.343,10.186-6.508,14.935Z" transform="translate(283.843 4637)"/>
    <path id="Trazado_657307" data-name="Trazado 657307" d="M836.956,311.422c2.534-4.513,5.091-9.348,7.6-14.373l1.241.59c-2.512,5.045-5.08,9.9-7.627,14.433Z" transform="translate(283.843 4637)"/>
    <path id="Trazado_657308" data-name="Trazado 657308" d="M861.933,257.368c1.9-4.878,3.825-9.994,5.714-15.2l1.3.451c-1.894,5.222-3.822,10.348-5.727,15.235Z" transform="translate(283.843 4637)"/>
    <path id="Trazado_657309" data-name="Trazado 657309" d="M941.421,64.569a135.045,135.045,0,0,1,10.647-12.551l1,.93a133.529,133.529,0,0,0-10.54,12.424Z" transform="translate(283.843 4637)"/>
    <path id="Trazado_657310" data-name="Trazado 657310" d="M962.325,42.826a57.506,57.506,0,0,1,14.431-8.182l.492,1.263A56.1,56.1,0,0,0,963.17,43.9Z" transform="translate(283.843 4637)"/>
    <path id="Trazado_657311" data-name="Trazado 657311" d="M990.781,33.333l-.373,0-.018-1.351.382,0a40.327,40.327,0,0,1,15.983,3.344l-.55,1.242a38.928,38.928,0,0,0-15.424-3.233" transform="translate(283.843 4637)"/>
    <path id="Trazado_657312" data-name="Trazado 657312" d="M643.643,180.758l1.3-.44c1.774,4.987,3.555,10.163,5.3,15.376l-1.313.423c-1.744-5.208-3.528-10.374-5.293-15.359" transform="translate(283.843 4637)"/>
    <path id="Trazado_657313" data-name="Trazado 657313" d="M820.754,336.42c3.089-4.052,6.2-8.548,9.262-13.363l1.174.715c-3.081,4.847-6.219,9.374-9.333,13.457Z" transform="translate(283.843 4637)"/>
    <path id="Trazado_657314" data-name="Trazado 657314" d="M633.15,152.889l1.282-.492c1.955,4.884,3.935,9.993,5.871,15.179l-1.294.467c-1.936-5.179-3.909-10.277-5.859-15.154" transform="translate(283.843 4637)"/>
    <path id="Trazado_657315" data-name="Trazado 657315" d="M743.778,361.754l.737-1.143a56.161,56.161,0,0,0,14.817,6.557l-.364,1.3a57.508,57.508,0,0,1-15.19-6.718" transform="translate(283.843 4637)"/>
    <path id="Trazado_657316" data-name="Trazado 657316" d="M800.839,358.8,800,357.722A92.569,92.569,0,0,0,812.031,346.8l1.017.912A93.791,93.791,0,0,1,800.839,358.8" transform="translate(283.843 4637)"/>
    <path id="Trazado_657317" data-name="Trazado 657317" d="M772.711,368.6a44.448,44.448,0,0,0,15.681-3.934l.572,1.229a45.788,45.788,0,0,1-16.175,4.055Z" transform="translate(283.843 4637)"/>
    <path id="Trazado_657318" data-name="Trazado 657318" d="M15.379,61.056a7.689,7.689,0,1,0-7.69,7.69,7.69,7.69,0,0,0,7.69-7.69" transform="translate(283.843 4637)" fill="#12263f"/>
    <path id="Trazado_657319" data-name="Trazado 657319" d="M259.655,160.7c0,9.073-3.656,15.3-11.15,15.3-7.583,0-10.924-6.815-10.969-15.121,0-8.487,3.611-15.213,11.194-15.213,7.854,0,10.925,7,10.925,15.032m-15.212.181c-.045,6.726,1.58,9.931,4.242,9.931s4.108-3.341,4.108-10.022c0-6.5-1.4-9.93-4.152-9.93-2.528,0-4.243,3.2-4.2,10.021" transform="translate(283.843 4637)" fill="#b61c1c"/>
    <path id="Trazado_657320" data-name="Trazado 657320" d="M271.8,152.259h-.091l-5.6,2.664-1.127-5.146,7.764-3.612h5.687v29.342H271.8Z" transform="translate(283.843 4637)" fill="#b61c1c"/>
    <path id="Trazado_657321" data-name="Trazado 657321" d="M630.824,57.544c0,9.073-3.657,15.3-11.152,15.3-7.583,0-10.924-6.815-10.968-15.121,0-8.487,3.61-15.213,11.2-15.213,7.852,0,10.924,7,10.924,15.032m-15.213.181c-.047,6.726,1.58,9.931,4.242,9.931s4.108-3.341,4.108-10.022c0-6.5-1.4-9.931-4.152-9.931-2.528,0-4.245,3.205-4.2,10.022" transform="translate(283.843 4637)" fill="#ffca00"/>
    <path id="Trazado_657322" data-name="Trazado 657322" d="M635.429,65.624a16.183,16.183,0,0,0,6.816,1.805c3.567,0,5.372-1.714,5.372-3.926,0-2.889-2.888-4.2-5.914-4.2h-2.8V54.384h2.666c2.3-.045,5.235-.9,5.235-3.385,0-1.761-1.445-3.07-4.334-3.07a13.383,13.383,0,0,0-6.138,1.761l-1.4-4.966a18.392,18.392,0,0,1,9.073-2.212c6.275,0,9.75,3.3,9.75,7.313,0,3.114-1.761,5.552-5.371,6.816v.091c3.521.632,6.363,3.294,6.363,7.131,0,5.191-4.558,8.983-12.006,8.983a17.321,17.321,0,0,1-8.711-2.076Z" transform="translate(283.843 4637)" fill="#ffca00"/>
    <path id="Trazado_657323" data-name="Trazado 657323" d="M684.715,160.7c0,9.075-3.657,15.3-11.152,15.3-7.583,0-10.924-6.816-10.968-15.122,0-8.486,3.61-15.212,11.2-15.212,7.852,0,10.924,7,10.924,15.031m-15.213.181c-.047,6.726,1.58,9.932,4.242,9.932s4.108-3.341,4.108-10.023c0-6.5-1.4-9.929-4.152-9.929-2.528,0-4.245,3.2-4.2,10.02" transform="translate(283.843 4637)" fill="#00acc2"/>
    <path id="Trazado_657324" data-name="Trazado 657324" d="M700.244,175.506v-6.995h-13v-4.47l11.1-17.875h8.4v17.2h3.521v5.146h-3.521v6.995Zm0-12.141v-6.5c0-1.76.09-3.565.227-5.461h-.18c-.948,1.9-1.718,3.61-2.71,5.461l-3.927,6.41v.091Z" transform="translate(283.843 4637)" fill="#00acc2"/>
    <path id="Trazado_657325" data-name="Trazado 657325" d="M902.741,272.46c0,9.075-3.657,15.3-11.152,15.3-7.583,0-10.924-6.816-10.968-15.122,0-8.486,3.61-15.212,11.2-15.212,7.852,0,10.924,7,10.924,15.031m-15.213.181c-.047,6.726,1.58,9.932,4.242,9.932s4.108-3.341,4.108-10.023c0-6.5-1.4-9.93-4.152-9.93-2.527,0-4.245,3.205-4.2,10.021" transform="translate(283.843 4637)" fill="#283593"/>
    <path id="Trazado_657326" data-name="Trazado 657326" d="M925.718,263.568H914.343l-.632,4.515a12.618,12.618,0,0,1,1.9-.091,13.424,13.424,0,0,1,7.72,2.121,8.348,8.348,0,0,1,3.564,7.358c0,5.462-4.693,10.292-12.592,10.292a18.656,18.656,0,0,1-8.171-1.67l1.218-5.146a16.861,16.861,0,0,0,6.637,1.445c2.844,0,5.866-1.355,5.866-4.47,0-3.023-2.39-4.874-8.259-4.874a25.557,25.557,0,0,0-3.973.269l1.94-15.392h16.161Z" transform="translate(283.843 4637)" fill="#283593"/>
    <path id="Trazado_657327" data-name="Trazado 657327" d="M470.548,272.461c0,9.073-3.656,15.3-11.15,15.3-7.583,0-10.923-6.815-10.968-15.121,0-8.487,3.612-15.213,11.194-15.213,7.855,0,10.924,7,10.924,15.032m-15.212.181c-.045,6.726,1.58,9.931,4.244,9.931s4.107-3.341,4.107-10.022c0-6.5-1.4-9.93-4.153-9.93-2.528,0-4.243,3.2-4.2,10.021" transform="translate(283.843 4637)" fill="#fb8c00"/>
    <path id="Trazado_657328" data-name="Trazado 657328" d="M473.937,287.267v-4.153l3.792-3.43c6.41-5.734,9.524-9.028,9.614-12.46,0-2.392-1.443-4.287-4.83-4.287a10.63,10.63,0,0,0-6.274,2.437l-1.942-4.92a16.247,16.247,0,0,1,9.616-3.025c6.635,0,10.292,3.883,10.292,9.209,0,4.92-3.566,8.848-7.809,12.639l-2.709,2.257v.091h11.06v5.642Z" transform="translate(283.843 4637)" fill="#fb8c00"/>
    <path id="Trazado_657329" data-name="Trazado 657329" d="M715.6,275.627c1.276,1.72,1.853,4.279,1.488,7.577-1.015,9.157-2.675,24.135-3.69,33.294s-8.857,13.544-17.43,9.753-22.6-10-31.17-13.788c-3.094-1.365-5.049-3.152-5.914-5.1a58.67,58.67,0,0,1-46.65-28.745c-16.055-27.505-6.292-62.543,21.8-78.265s63.887-6.166,79.942,21.332a56.239,56.239,0,0,1,1.62,53.942m-76.276-66.22a46.457,46.457,0,0,0-17.838,64.033c13.113,22.467,42.451,30.293,65.406,17.452a46.458,46.458,0,0,0,17.839-64.032c-13.118-22.461-42.458-30.293-65.407-17.453" transform="translate(283.843 4637)" fill="#00acc2"/>
    <rect id="Rect치ngulo_350462" data-name="Rect치ngulo 350462" width="1032.314" height="371.075" transform="translate(283.843 4637)" fill="none"/>
  </g>
</svg>
