<svg id="Grupo_953292" data-name="Grupo 953292" xmlns="http://www.w3.org/2000/svg" xmlns:xlink="http://www.w3.org/1999/xlink" width="188.335" height="241.081" viewBox="0 0 188.335 241.081">
  <defs>
    <clipPath id="clip-path">
      <rect id="Rectángulo_352001" data-name="Rectángulo 352001" width="188.335" height="241.081" fill="none"/>
    </clipPath>
  </defs>
  <rect id="Rectángulo_351990" data-name="Rectángulo 351990" width="188.334" height="241.081" fill="#ebebeb"/>
  <rect id="Rectángulo_351991" data-name="Rectángulo 351991" width="188.334" height="14.06" transform="translate(0 13.496)" fill="#263238"/>
  <path id="Trazado_662519" data-name="Trazado 662519" d="M0,23.027V38.15H94.168L102.8,23.027Z" transform="translate(0 4.529)" fill="#263238"/>
  <path id="Trazado_662520" data-name="Trazado 662520" d="M0,8.95v5.571H98.554L102.8,8.95Z" transform="translate(0 1.761)" fill="#ffc727"/>
  <path id="Trazado_662521" data-name="Trazado 662521" d="M0,15.823v5.572H50.685l4.246-5.572Z" transform="translate(0 3.112)" fill="#ffc727"/>
  <rect id="Rectángulo_351992" data-name="Rectángulo 351992" width="153.873" height="11.832" transform="translate(17.231 98.486)" fill="#fff"/>
  <rect id="Rectángulo_351993" data-name="Rectángulo 351993" width="153.873" height="11.832" transform="translate(17.231 86.654)" fill="#ffc727"/>
  <rect id="Rectángulo_351994" data-name="Rectángulo 351994" width="153.873" height="11.832" transform="translate(17.231 110.317)" fill="#dbdbdb"/>
  <rect id="Rectángulo_351995" data-name="Rectángulo 351995" width="153.873" height="11.832" transform="translate(17.231 122.148)" fill="#fff"/>
  <rect id="Rectángulo_351996" data-name="Rectángulo 351996" width="153.873" height="11.832" transform="translate(17.231 133.98)" fill="#dbdbdb"/>
  <rect id="Rectángulo_351997" data-name="Rectángulo 351997" width="153.873" height="11.832" transform="translate(17.231 145.811)" fill="#fff"/>
  <rect id="Rectángulo_351998" data-name="Rectángulo 351998" width="153.873" height="11.832" transform="translate(17.231 157.642)" fill="#dbdbdb"/>
  <rect id="Rectángulo_351999" data-name="Rectángulo 351999" width="107.738" height="11.832" transform="translate(63.366 169.474)" fill="#ffc727"/>
  <rect id="Rectángulo_352000" data-name="Rectángulo 352000" width="46.135" height="82.82" transform="translate(17.231 86.654)" fill="#c7c7c7"/>
  <path id="Trazado_662522" data-name="Trazado 662522" d="M14.4,92.209l76.938.15,76.936-.15L91.336,92.06Z" transform="translate(2.832 18.108)" fill="#263238"/>
  <path id="Trazado_662523" data-name="Trazado 662523" d="M14.4,102.1l76.938.148,76.936-.148-76.936-.15Z" transform="translate(2.832 20.053)" fill="#263238"/>
  <path id="Trazado_662524" data-name="Trazado 662524" d="M14.4,111.983l76.938.148,76.936-.148-76.936-.15Z" transform="translate(2.832 21.997)" fill="#263238"/>
  <path id="Trazado_662525" data-name="Trazado 662525" d="M14.4,121.869l76.938.15,76.936-.15-76.936-.15Z" transform="translate(2.832 23.942)" fill="#263238"/>
  <path id="Trazado_662526" data-name="Trazado 662526" d="M14.4,131.755l76.938.15,76.936-.15-76.936-.148Z" transform="translate(2.832 25.887)" fill="#263238"/>
  <path id="Trazado_662527" data-name="Trazado 662527" d="M14.4,141.642l76.938.15,76.936-.15-76.936-.148Z" transform="translate(2.832 27.832)" fill="#263238"/>
  <g id="Grupo_953290" data-name="Grupo 953290">
    <g id="Grupo_953289" data-name="Grupo 953289" clip-path="url(#clip-path)">
      <path id="Trazado_662528" data-name="Trazado 662528" d="M21.285,77.4c4.912-.247,9.826-.263,14.739-.3,4.912.035,9.825.05,14.739.3-4.914.249-9.826.264-14.739.3-4.912-.036-9.826-.051-14.739-.3" transform="translate(4.187 15.166)" fill="#263238"/>
      <path id="Trazado_662529" data-name="Trazado 662529" d="M21.285,87.29c3.716-.248,7.433-.263,11.148-.3,3.716.035,7.432.05,11.148.3-3.717.249-7.433.264-11.148.3-3.716-.036-7.433-.053-11.148-.3" transform="translate(4.187 17.111)" fill="#263238"/>
      <path id="Trazado_662530" data-name="Trazado 662530" d="M21.285,97.177c4.912-.248,9.826-.263,14.739-.3,4.912.035,9.825.05,14.739.3-4.914.249-9.826.264-14.739.3-4.912-.036-9.826-.051-14.739-.3" transform="translate(4.187 19.056)" fill="#263238"/>
      <path id="Trazado_662531" data-name="Trazado 662531" d="M21.285,107.064c4.045-.247,8.088-.263,12.133-.3,4.045.035,8.088.05,12.133.3-4.045.249-8.088.264-12.133.3-4.045-.036-8.088-.051-12.133-.3" transform="translate(4.187 21.001)" fill="#263238"/>
      <path id="Trazado_662532" data-name="Trazado 662532" d="M21.285,116.95c4.912-.247,9.826-.263,14.739-.3,4.912.035,9.825.05,14.739.3-4.914.249-9.826.264-14.739.3-4.912-.036-9.826-.051-14.739-.3" transform="translate(4.187 22.945)" fill="#263238"/>
      <path id="Trazado_662533" data-name="Trazado 662533" d="M21.285,126.837c4.912-.248,9.826-.263,14.739-.3,4.912.035,9.825.05,14.739.3-4.914.249-9.826.264-14.739.3-4.912-.036-9.826-.051-14.739-.3" transform="translate(4.187 24.89)" fill="#263238"/>
      <path id="Trazado_662534" data-name="Trazado 662534" d="M21.285,136.724c2.983-.233,5.967-.287,8.95-.3,2.983.011,5.966.065,8.949.3-2.983.235-5.966.288-8.949.3-2.983-.012-5.967-.066-8.95-.3" transform="translate(4.187 26.835)" fill="#263238"/>
      <path id="Trazado_662535" data-name="Trazado 662535" d="M61.958,77.4c3.692-.247,7.385-.263,11.077-.3,3.692.035,7.384.05,11.077.3-3.693.249-7.385.264-11.077.3-3.692-.036-7.385-.051-11.077-.3" transform="translate(12.187 15.166)" fill="#263238"/>
      <path id="Trazado_662536" data-name="Trazado 662536" d="M61.958,87.29c3.692-.248,7.385-.263,11.077-.3,3.692.035,7.384.05,11.077.3-3.693.249-7.385.264-11.077.3-3.692-.036-7.385-.053-11.077-.3" transform="translate(12.187 17.111)" fill="#263238"/>
      <path id="Trazado_662537" data-name="Trazado 662537" d="M61.958,97.177c3.692-.248,7.385-.263,11.077-.3,3.692.035,7.384.05,11.077.3-3.693.249-7.385.264-11.077.3-3.692-.036-7.385-.051-11.077-.3" transform="translate(12.187 19.056)" fill="#263238"/>
      <path id="Trazado_662538" data-name="Trazado 662538" d="M61.958,107.064c3.692-.247,7.385-.263,11.077-.3,3.692.035,7.384.05,11.077.3-3.693.249-7.385.264-11.077.3-3.692-.036-7.385-.051-11.077-.3" transform="translate(12.187 21.001)" fill="#263238"/>
      <path id="Trazado_662539" data-name="Trazado 662539" d="M61.958,116.95c3.692-.247,7.385-.263,11.077-.3,3.692.035,7.384.05,11.077.3-3.693.249-7.385.264-11.077.3-3.692-.036-7.385-.051-11.077-.3" transform="translate(12.187 22.945)" fill="#263238"/>
      <path id="Trazado_662540" data-name="Trazado 662540" d="M61.958,126.837c3.692-.248,7.385-.263,11.077-.3,3.692.035,7.384.05,11.077.3-3.693.249-7.385.264-11.077.3-3.692-.036-7.385-.051-11.077-.3" transform="translate(12.187 24.89)" fill="#263238"/>
      <path id="Trazado_662541" data-name="Trazado 662541" d="M61.958,136.724c3.692-.248,7.385-.263,11.077-.3,3.692.035,7.384.05,11.077.3-3.693.249-7.385.264-11.077.3-3.692-.036-7.385-.053-11.077-.3" transform="translate(12.187 26.835)" fill="#263238"/>
      <path id="Trazado_662542" data-name="Trazado 662542" d="M88.71,77.4c3.692-.247,7.385-.263,11.077-.3,3.692.035,7.384.05,11.077.3-3.693.249-7.385.264-11.077.3-3.692-.036-7.385-.051-11.077-.3" transform="translate(17.449 15.166)" fill="#263238"/>
      <path id="Trazado_662543" data-name="Trazado 662543" d="M95.009,136.724a19.084,19.084,0,0,1,3.537-.3,18.891,18.891,0,0,1,3.537.3,18.889,18.889,0,0,1-3.537.3,19.086,19.086,0,0,1-3.537-.3" transform="translate(18.688 26.835)" fill="#263238"/>
      <path id="Trazado_662544" data-name="Trazado 662544" d="M95.009,126.837a19.084,19.084,0,0,1,3.537-.3,18.889,18.889,0,0,1,3.537.3,18.891,18.891,0,0,1-3.537.3,19.084,19.084,0,0,1-3.537-.3" transform="translate(18.688 24.89)" fill="#263238"/>
      <path id="Trazado_662545" data-name="Trazado 662545" d="M95.009,116.95a19.086,19.086,0,0,1,3.537-.3,18.891,18.891,0,0,1,3.537.3,18.889,18.889,0,0,1-3.537.3,19.086,19.086,0,0,1-3.537-.3" transform="translate(18.688 22.945)" fill="#263238"/>
      <path id="Trazado_662546" data-name="Trazado 662546" d="M95.009,107.064a19.083,19.083,0,0,1,3.537-.3,18.889,18.889,0,0,1,3.537.3,18.892,18.892,0,0,1-3.537.3,19.086,19.086,0,0,1-3.537-.3" transform="translate(18.688 21.001)" fill="#263238"/>
      <path id="Trazado_662547" data-name="Trazado 662547" d="M95.009,97.177a19.085,19.085,0,0,1,3.537-.3,18.89,18.89,0,0,1,3.537.3,18.889,18.889,0,0,1-3.537.3,19.084,19.084,0,0,1-3.537-.3" transform="translate(18.688 19.056)" fill="#263238"/>
      <path id="Trazado_662548" data-name="Trazado 662548" d="M95.009,87.29a19.084,19.084,0,0,1,3.537-.3,18.89,18.89,0,0,1,3.537.3,18.889,18.889,0,0,1-3.537.3,19.084,19.084,0,0,1-3.537-.3" transform="translate(18.688 17.111)" fill="#263238"/>
      <path id="Trazado_662549" data-name="Trazado 662549" d="M96.765,146.61a59.173,59.173,0,0,1,6.256-.3,58.545,58.545,0,0,1,6.256.3,58.549,58.549,0,0,1-6.256.3,59.185,59.185,0,0,1-6.256-.3" transform="translate(19.034 28.779)" fill="#263238"/>
      <path id="Trazado_662550" data-name="Trazado 662550" d="M115.461,77.4c3.692-.247,7.385-.263,11.077-.3,3.692.035,7.384.05,11.075.3-3.692.249-7.384.264-11.075.3-3.692-.036-7.385-.051-11.077-.3" transform="translate(22.711 15.166)" fill="#263238"/>
      <path id="Trazado_662551" data-name="Trazado 662551" d="M115.461,87.29c3.692-.248,7.385-.263,11.077-.3,3.692.035,7.384.05,11.075.3-3.692.249-7.384.264-11.075.3-3.692-.036-7.385-.053-11.077-.3" transform="translate(22.711 17.111)" fill="#263238"/>
      <path id="Trazado_662552" data-name="Trazado 662552" d="M115.461,97.177c3.692-.248,7.385-.263,11.077-.3,3.692.035,7.384.05,11.075.3-3.692.249-7.384.264-11.075.3-3.692-.036-7.385-.051-11.077-.3" transform="translate(22.711 19.056)" fill="#263238"/>
      <path id="Trazado_662553" data-name="Trazado 662553" d="M115.461,107.064c3.692-.247,7.385-.263,11.077-.3,3.692.035,7.384.05,11.075.3-3.692.249-7.384.264-11.075.3-3.692-.036-7.385-.051-11.077-.3" transform="translate(22.711 21.001)" fill="#263238"/>
      <path id="Trazado_662554" data-name="Trazado 662554" d="M115.461,116.95c3.692-.247,7.385-.263,11.077-.3,3.692.035,7.384.05,11.075.3-3.692.249-7.384.264-11.075.3-3.692-.036-7.385-.051-11.077-.3" transform="translate(22.711 22.945)" fill="#263238"/>
      <path id="Trazado_662555" data-name="Trazado 662555" d="M115.461,126.837c3.692-.248,7.385-.263,11.077-.3,3.692.035,7.384.05,11.075.3-3.692.249-7.384.264-11.075.3-3.692-.036-7.385-.051-11.077-.3" transform="translate(22.711 24.89)" fill="#263238"/>
      <path id="Trazado_662556" data-name="Trazado 662556" d="M115.461,136.724c3.692-.248,7.385-.263,11.077-.3,3.692.035,7.384.05,11.075.3-3.692.249-7.384.264-11.075.3-3.692-.036-7.385-.053-11.077-.3" transform="translate(22.711 26.835)" fill="#263238"/>
      <path id="Trazado_662557" data-name="Trazado 662557" d="M115.461,146.61c3.692-.248,7.385-.263,11.077-.3,3.692.035,7.384.05,11.075.3-3.692.249-7.384.264-11.075.3-3.692-.036-7.385-.053-11.077-.3" transform="translate(22.711 28.779)" fill="#263238"/>
      <path id="Trazado_662558" data-name="Trazado 662558" d="M14.4,30.442c4.567-.247,9.132-.363,13.7-.458s9.132-.09,13.7-.139c4.567.047,9.132.042,13.7.136l6.849.168c2.283.1,4.567.158,6.849.293-2.282.135-4.565.194-6.849.293l-6.849.168c-4.567.095-9.132.09-13.7.136C37.23,30.99,32.663,31,28.1,30.9s-9.132-.212-13.7-.458" transform="translate(2.832 5.87)" fill="#fff"/>
      <path id="Trazado_662559" data-name="Trazado 662559" d="M14.4,25.564c5.185-.247,10.371-.363,15.555-.458s10.371-.09,15.556-.139c5.185.047,10.371.042,15.555.136l7.779.168c2.592.1,5.184.158,7.777.293-2.593.135-5.185.194-7.777.293l-7.779.168c-5.184.095-10.369.09-15.555.136-5.185-.049-10.371-.041-15.556-.139s-10.369-.212-15.555-.458" transform="translate(2.832 4.911)" fill="#fff"/>
      <path id="Trazado_662560" data-name="Trazado 662560" d="M14.4,55.045c4.246-.185,8.491-.272,12.736-.343s8.491-.067,12.736-.105c4.246.036,8.491.032,12.736.1s8.491.158,12.736.345c-4.246.187-8.491.273-12.736.345s-8.491.068-12.736.1c-4.246-.038-8.491-.031-12.736-.105s-8.491-.158-12.736-.343" transform="translate(2.832 10.739)" fill="#263238"/>
      <path id="Trazado_662561" data-name="Trazado 662561" d="M14.4,59.257c2.663-.185,5.325-.272,7.988-.343s5.325-.067,7.988-.105c2.664.036,5.325.032,7.989.1s5.325.158,7.988.345c-2.663.187-5.325.273-7.988.345s-5.325.068-7.989.1c-2.663-.037-5.325-.03-7.988-.1s-5.325-.158-7.988-.343" transform="translate(2.832 11.567)" fill="#263238"/>
      <path id="Trazado_662562" data-name="Trazado 662562" d="M14.4,63.469c3.706-.185,7.412-.272,11.119-.343s7.412-.067,11.119-.1c3.706.035,7.412.031,11.119.1s7.412.158,11.119.345c-3.706.187-7.412.273-11.119.345s-7.412.068-11.119.1c-3.706-.038-7.412-.031-11.119-.105s-7.412-.158-11.119-.343" transform="translate(2.832 12.396)" fill="#263238"/>
      <path id="Trazado_662563" data-name="Trazado 662563" d="M14.4,159.212c2.726-.185,5.451-.272,8.177-.343s5.451-.067,8.176-.1c2.726.035,5.451.031,8.177.1s5.451.158,8.176.345c-2.725.187-5.451.273-8.176.345s-5.451.068-8.177.1c-2.725-.038-5.451-.031-8.176-.105s-5.451-.158-8.177-.343" transform="translate(2.832 31.229)" fill="#263238"/>
      <path id="Trazado_662564" data-name="Trazado 662564" d="M14.4,163.424c3.151-.185,6.3-.272,9.453-.343s6.3-.067,9.454-.1c3.151.035,6.3.031,9.454.1s6.3.158,9.453.345c-3.151.187-6.3.273-9.453.345s-6.3.068-9.454.1c-3.151-.038-6.3-.031-9.454-.105s-6.3-.158-9.453-.343" transform="translate(2.832 32.057)" fill="#263238"/>
      <path id="Trazado_662565" data-name="Trazado 662565" d="M14.4,180.218c4.953-.185,9.906-.272,14.858-.343l14.859-.105,14.858.1c4.953.072,9.906.158,14.859.345-4.953.187-9.906.273-14.859.345l-14.858.1-14.859-.105c-4.952-.072-9.905-.158-14.858-.343" transform="translate(2.832 35.36)" fill="#263238"/>
      <path id="Trazado_662566" data-name="Trazado 662566" d="M14.4,167.637c1.922-.185,3.845-.272,5.767-.343s3.845-.093,5.767-.105c1.922.011,3.845.023,5.767.1s3.845.158,5.767.345c-1.922.187-3.845.273-5.767.345s-3.845.093-5.767.1c-1.922-.012-3.845-.023-5.767-.105s-3.845-.158-5.767-.343" transform="translate(2.832 32.886)" fill="#263238"/>
      <path id="Trazado_662567" data-name="Trazado 662567" d="M95.009,171.793c4.783-.185,9.568-.272,14.352-.343l14.351-.105,14.352.1c4.783.072,9.568.158,14.351.345-4.783.187-9.568.273-14.351.345l-14.352.1-14.351-.1c-4.784-.072-9.569-.158-14.352-.343" transform="translate(18.688 33.703)" fill="#263238"/>
      <path id="Trazado_662568" data-name="Trazado 662568" d="M95.009,167.637c3.886-.185,7.771-.272,11.657-.343s7.77-.067,11.656-.105c3.886.036,7.771.032,11.657.1s7.771.158,11.657.345c-3.886.187-7.771.273-11.657.345s-7.771.068-11.657.1c-3.886-.038-7.77-.031-11.656-.105s-7.771-.158-11.657-.343" transform="translate(18.688 32.886)" fill="#263238"/>
      <path id="Trazado_662569" data-name="Trazado 662569" d="M95.009,176.006c3.652-.186,7.3-.272,10.957-.343s7.3-.067,10.957-.105c3.651.036,7.3.032,10.956.1s7.3.158,10.957.345c-3.652.187-7.3.273-10.957.345s-7.3.068-10.956.1c-3.652-.038-7.3-.031-10.957-.105s-7.3-.158-10.957-.343" transform="translate(18.688 34.532)" fill="#263238"/>
      <path id="Trazado_662570" data-name="Trazado 662570" d="M95.009,180.218c2.618-.185,5.236-.272,7.854-.343s5.236-.067,7.854-.105c2.618.036,5.236.032,7.854.1s5.237.158,7.854.345c-2.617.187-5.236.273-7.854.345s-5.236.068-7.854.1c-2.618-.038-5.236-.031-7.854-.105s-5.236-.158-7.854-.343" transform="translate(18.688 35.36)" fill="#263238"/>
      <path id="Trazado_662571" data-name="Trazado 662571" d="M15.707,178.135q2.143-1.474,4.4-2.774a20.85,20.85,0,0,1,4.759-2.143,4.918,4.918,0,0,1,.656-.123.685.685,0,0,1,.724.239,2.482,2.482,0,0,1,.3,1.347,15.433,15.433,0,0,1-.269,2.612c-.3,1.716-.729,3.4-1.2,5.075a77.614,77.614,0,0,1-3.455,9.831,15.611,15.611,0,0,1-1.234,2.336,2.99,2.99,0,0,1-.468.545.723.723,0,0,1-.451.2.472.472,0,0,1-.314-.114l-.156-.158a2.583,2.583,0,0,1-.369-1.388,17.5,17.5,0,0,1,.914-5.178,30.239,30.239,0,0,1,1.955-4.848,14.734,14.734,0,0,1,3.053-4.258,4.811,4.811,0,0,1,2.4-1.143,2.819,2.819,0,0,1,1.356.114,2.11,2.11,0,0,1,.954.981,6.448,6.448,0,0,0,.723,1.041,1.055,1.055,0,0,0,1.05.348,6.948,6.948,0,0,0,2.179-1.278c.346-.261.686-.529,1.045-.779a4.666,4.666,0,0,1,.568-.346.658.658,0,0,1,.72-.036c.337.425.254.878.422,1.265a.767.767,0,0,0,.889.564,7.734,7.734,0,0,0,1.908-1.663c.588-.632,1.157-1.284,1.724-1.937,1.132-1.31,2.247-2.636,3.406-3.929.58-.645,1.169-1.284,1.8-1.891a10.461,10.461,0,0,1,1-.862,3.019,3.019,0,0,1,.589-.352.938.938,0,0,1,.381-.086.507.507,0,0,1,.4.215,2.3,2.3,0,0,1,.177,1.382,11.218,11.218,0,0,1-.208,1.3,25.2,25.2,0,0,1-.694,2.524,25.59,25.59,0,0,1-2.07,4.81,5.2,5.2,0,0,1-.82,1.087.948.948,0,0,1-.765.308,2.27,2.27,0,0,1-.7-.2,3.223,3.223,0,0,1-1.746-2.123,1.189,1.189,0,0,1,.1-.814.818.818,0,0,1,.335-.322.881.881,0,0,1,.445-.1,4.957,4.957,0,0,1,1.344.32c.833.294,1.629.645,2.425.99s1.584.7,2.38,1.021c.4.158.8.314,1.2.43a3.141,3.141,0,0,0,.577.123.845.845,0,0,0,.474-.1c.651-.328,1.09-1.134,1.74-1.776a2.113,2.113,0,0,1,1.327-.677.677.677,0,0,1,.533.174.7.7,0,0,1,.18.53,3.508,3.508,0,0,1-.128.7c-.12.391-.169.883-.059.9.122.113.625.038.991-.056a6.613,6.613,0,0,0,2.186-1.143,13.06,13.06,0,0,1,1.1-.744,2.18,2.18,0,0,1,1.447-.345,5.365,5.365,0,0,1,2.22,1.611,6.049,6.049,0,0,0,.924.8c.156.1.3.129.335.092a3.406,3.406,0,0,0,.5-.305,20.261,20.261,0,0,0,1.955-1.644,22.414,22.414,0,0,0,3.35-3.859,4.341,4.341,0,0,0,.839-2.241c0-.777-.8-1.132-1.629-1.263a14.1,14.1,0,0,0-5.079.072,12.568,12.568,0,0,0-2.454.7,5.171,5.171,0,0,0-1.1.595c-.32.236-.6.571-.512.878s.466.572.827.755.786.321,1.185.476a23.343,23.343,0,0,0,2.474.729,57.327,57.327,0,0,0,10.308.985l0,.06c-3.454-.1-6.953.006-10.371-.756a24.188,24.188,0,0,1-2.519-.7c-.408-.154-.822-.28-1.23-.477a1.815,1.815,0,0,1-1.022-.969,1.283,1.283,0,0,1,.632-1.279,5.488,5.488,0,0,1,1.173-.658,12.9,12.9,0,0,1,2.526-.755,14.57,14.57,0,0,1,5.255-.139,3.7,3.7,0,0,1,1.319.442,1.6,1.6,0,0,1,.753,1.28,4.793,4.793,0,0,1-.892,2.579,21.454,21.454,0,0,1-3.418,4,20.809,20.809,0,0,1-2.016,1.7,3.7,3.7,0,0,1-.61.371.969.969,0,0,1-.892-.129,6.378,6.378,0,0,1-1.041-.889,5.079,5.079,0,0,0-1.906-1.438c-.638-.095-1.381.5-2.066.99a7.247,7.247,0,0,1-2.392,1.246,1.933,1.933,0,0,1-1.534-.057.939.939,0,0,1-.3-.872,4.575,4.575,0,0,1,.139-.685,2.961,2.961,0,0,0,.114-.567c0-.078-.02-.107,0-.077s0,0-.073,0a1.531,1.531,0,0,0-.926.5c-.594.547-.993,1.386-1.91,1.875a1.442,1.442,0,0,1-.78.152,3.811,3.811,0,0,1-.692-.15c-.432-.129-.84-.291-1.246-.455-.81-.331-1.6-.692-2.39-1.042s-1.581-.7-2.38-.988a4.562,4.562,0,0,0-1.172-.3c-.278-.03-.432.225-.357.6a2.734,2.734,0,0,0,1.437,1.771,1.792,1.792,0,0,0,.546.164c.112.032.237-.051.389-.179a4.77,4.77,0,0,0,.748-.975,25.113,25.113,0,0,0,2.089-4.695,24.735,24.735,0,0,0,.716-2.476,11.169,11.169,0,0,0,.218-1.259,2.136,2.136,0,0,0-.1-1.157c-.122-.227-.615.061-.921.286a10.054,10.054,0,0,0-.974.827c-.623.591-1.216,1.221-1.8,1.858-1.166,1.277-2.292,2.593-3.437,3.894-.573.65-1.15,1.3-1.747,1.929a7.649,7.649,0,0,1-2.009,1.7.966.966,0,0,1-1.114-.681c-.165-.407-.151-.919-.379-1.178-.107-.1-.32-.024-.5.071a4.474,4.474,0,0,0-.536.335c-.348.249-.686.521-1.029.785a7.034,7.034,0,0,1-2.263,1.349,1.324,1.324,0,0,1-1.3-.409,6.45,6.45,0,0,1-.771-1.079c-.232-.353-.461-.736-.816-.85A2.513,2.513,0,0,0,27,178.509a4.484,4.484,0,0,0-2.217,1.091,14.472,14.472,0,0,0-2.92,4.176,29.843,29.843,0,0,0-1.88,4.8,17.169,17.169,0,0,0-.842,5.024,2.194,2.194,0,0,0,.273,1.093l.073.073c.022.011-.019,0-.019,0a.381.381,0,0,0,.117-.08,2.527,2.527,0,0,0,.37-.445,17.261,17.261,0,0,0,1.2-2.247,77.359,77.359,0,0,0,3.531-9.73c.481-1.659.923-3.332,1.239-5.025a14.985,14.985,0,0,0,.29-2.548,2.251,2.251,0,0,0-.224-1.158.37.37,0,0,0-.437-.121,4.613,4.613,0,0,0-.62.11,22.681,22.681,0,0,0-4.734,2.021q-2.283,1.23-4.462,2.649Z" transform="translate(3.09 33.311)" fill="#263238"/>
    </g>
  </g>
</svg>
